%TF.GenerationSoftware,KiCad,Pcbnew,(5.1.6-0-10_14)*%
%TF.CreationDate,2020-08-27T07:53:02+01:00*%
%TF.ProjectId,IEC Power Entry,49454320-506f-4776-9572-20456e747279,1.0a*%
%TF.SameCoordinates,Original*%
%TF.FileFunction,Copper,L1,Top*%
%TF.FilePolarity,Positive*%
%FSLAX46Y46*%
G04 Gerber Fmt 4.6, Leading zero omitted, Abs format (unit mm)*
G04 Created by KiCad (PCBNEW (5.1.6-0-10_14)) date 2020-08-27 07:53:02*
%MOMM*%
%LPD*%
G01*
G04 APERTURE LIST*
%TA.AperFunction,ComponentPad*%
%ADD10C,4.400000*%
%TD*%
%TA.AperFunction,ComponentPad*%
%ADD11C,2.500000*%
%TD*%
%TA.AperFunction,ComponentPad*%
%ADD12R,2.500000X2.500000*%
%TD*%
%TA.AperFunction,ComponentPad*%
%ADD13O,5.000000X2.400000*%
%TD*%
%TA.AperFunction,ComponentPad*%
%ADD14O,4.000000X1.950000*%
%TD*%
%TA.AperFunction,ComponentPad*%
%ADD15C,2.775000*%
%TD*%
%TA.AperFunction,ComponentPad*%
%ADD16R,2.775000X2.775000*%
%TD*%
%TA.AperFunction,ComponentPad*%
%ADD17C,7.000000*%
%TD*%
%TA.AperFunction,ComponentPad*%
%ADD18C,1.800000*%
%TD*%
%TA.AperFunction,Conductor*%
%ADD19C,3.000000*%
%TD*%
%TA.AperFunction,Conductor*%
%ADD20C,6.000000*%
%TD*%
G04 APERTURE END LIST*
D10*
%TO.P,P2,1*%
%TO.N,Earth_Protective*%
X162000000Y-138000000D03*
%TD*%
D11*
%TO.P,J1,4*%
%TO.N,Net-(J1-Pad4)*%
X179100000Y-126500000D03*
%TO.P,J1,3*%
%TO.N,Net-(J1-Pad3)*%
X179100000Y-119000000D03*
%TO.P,J1,2*%
%TO.N,Net-(J1-Pad2)*%
X179100000Y-111500000D03*
D12*
%TO.P,J1,1*%
%TO.N,Net-(J1-Pad1)*%
X179100000Y-104000000D03*
%TD*%
D13*
%TO.P,P3,PE*%
%TO.N,Earth_Protective*%
X137500000Y-118050000D03*
D14*
%TO.P,P3,N*%
%TO.N,Net-(J1-Pad1)*%
X137500000Y-88850000D03*
%TO.P,P3,L*%
%TO.N,Net-(P3-PadL)*%
X137500000Y-82850000D03*
%TD*%
D15*
%TO.P,S1,1A*%
%TO.N,Net-(J1-Pad1)*%
X179100000Y-75200000D03*
D16*
%TO.P,S1,1*%
%TO.N,Net-(J1-Pad3)*%
X179100000Y-84000000D03*
D15*
%TO.P,S1,1B*%
%TO.N,Net-(S1-Pad1B)*%
X179100000Y-92800000D03*
%TO.P,S1,2B*%
X171100000Y-92800000D03*
%TO.P,S1,2*%
%TO.N,Net-(S1-Pad2)*%
X171100000Y-84000000D03*
%TO.P,S1,2A*%
%TO.N,Net-(P3-PadL)*%
X171100000Y-75200000D03*
%TD*%
D17*
%TO.P,P1,1*%
%TO.N,Earth_Protective*%
X138500000Y-137000000D03*
%TD*%
D18*
%TO.P,TH1,1*%
%TO.N,Net-(J1-Pad4)*%
X158200000Y-126400000D03*
%TO.P,TH1,2*%
%TO.N,Net-(P3-PadL)*%
X150700000Y-122700000D03*
%TD*%
%TO.P,MOV2,2*%
%TO.N,Net-(J1-Pad1)*%
X168300000Y-104000000D03*
%TO.P,MOV2,1*%
%TO.N,Net-(J1-Pad2)*%
X166100000Y-111500000D03*
%TD*%
%TO.P,TH2,1*%
%TO.N,Net-(S1-Pad2)*%
X153000000Y-113400000D03*
%TO.P,TH2,2*%
%TO.N,Net-(J1-Pad2)*%
X160500000Y-117100000D03*
%TD*%
%TO.P,MOV1,2*%
%TO.N,Net-(J1-Pad3)*%
X168300000Y-119000000D03*
%TO.P,MOV1,1*%
%TO.N,Net-(J1-Pad4)*%
X166100000Y-126500000D03*
%TD*%
D19*
%TO.N,Net-(J1-Pad1)*%
X156850000Y-92550000D02*
X168300000Y-104000000D01*
X156850000Y-88850000D02*
X156850000Y-92550000D01*
X162687501Y-69312499D02*
X156850000Y-75150000D01*
X175174720Y-69312499D02*
X162687501Y-69312499D01*
X156850000Y-75150000D02*
X156850000Y-88850000D01*
X179100000Y-73237779D02*
X175174720Y-69312499D01*
X179100000Y-75200000D02*
X179100000Y-73237779D01*
X136700000Y-89300000D02*
X156850000Y-89300000D01*
%TO.N,Net-(S1-Pad1B)*%
X171100000Y-92800000D02*
X179100000Y-92800000D01*
D20*
%TO.N,Earth_Protective*%
X138500000Y-119050000D02*
X137500000Y-118050000D01*
X138500000Y-137000000D02*
X138500000Y-119050000D01*
%TD*%
M02*
