%FSLAX45Y45*%
G04 Gerber Fmt 4.5, Leading zero omitted, Abs format (unit mm)*
G04 Created by KiCad (PCBNEW (5.1.6-0-10_14)) date 2020-08-27 07:52:59*
%MOMM*%
%LPD*%
G01*
G04 APERTURE LIST*
%TA.AperFunction,Profile*%
%ADD10C,0.050000*%
%TD*%
%ADD11C,0.200000*%
%ADD12C,0.300000*%
G04 APERTURE END LIST*
D10*
X19350000Y-6700000D02*
X19350000Y-13700000D01*
X19350000Y-13700000D02*
G75*
G02*
X18850000Y-14200000I-500000J0D01*
G01*
X18850000Y-6200000D02*
G75*
G02*
X19350000Y-6700000I0J-500000D01*
G01*
X11800000Y-6200000D02*
X18850000Y-6200000D01*
X11800000Y-14200000D02*
X11800000Y-6200000D01*
X18850000Y-14200000D02*
X11800000Y-14200000D01*
D11*
X16570000Y-11110000D02*
X16650000Y-11190000D01*
X16650000Y-11110000D02*
X16570000Y-11190000D01*
X16790000Y-10360000D02*
X16870000Y-10440000D01*
X16870000Y-10360000D02*
X16790000Y-10440000D01*
X16570000Y-12610000D02*
X16650000Y-12690000D01*
X16650000Y-12610000D02*
X16570000Y-12690000D01*
X16790000Y-11860000D02*
X16870000Y-11940000D01*
X16870000Y-11860000D02*
X16790000Y-11940000D01*
X15030000Y-12230000D02*
X15110000Y-12310000D01*
X15110000Y-12230000D02*
X15030000Y-12310000D01*
X15780000Y-12600000D02*
X15860000Y-12680000D01*
X15860000Y-12600000D02*
X15780000Y-12680000D01*
X15260000Y-11300000D02*
X15340000Y-11380000D01*
X15340000Y-11300000D02*
X15260000Y-11380000D01*
X16010000Y-11670000D02*
X16090000Y-11750000D01*
X16090000Y-11670000D02*
X16010000Y-11750000D01*
X13815000Y-8285000D02*
G75*
G03*
X13815000Y-8285000I-65000J0D01*
G01*
X13815000Y-8885000D02*
G75*
G03*
X13815000Y-8885000I-65000J0D01*
G01*
X17975000Y-10400000D02*
G75*
G03*
X17975000Y-10400000I-65000J0D01*
G01*
X17975000Y-11150000D02*
G75*
G03*
X17975000Y-11150000I-65000J0D01*
G01*
X17975000Y-11900000D02*
G75*
G03*
X17975000Y-11900000I-65000J0D01*
G01*
X17975000Y-12650000D02*
G75*
G03*
X17975000Y-12650000I-65000J0D01*
G01*
X13750000Y-11725000D02*
X13750000Y-11885000D01*
X13670000Y-11805000D02*
X13830000Y-11805000D01*
X17175408Y-7585408D02*
X17175408Y-7454592D01*
X17044592Y-7454592D01*
X17044592Y-7585408D01*
X17175408Y-7585408D01*
X17175408Y-8465408D02*
X17175408Y-8334592D01*
X17044592Y-8334592D01*
X17044592Y-8465408D01*
X17175408Y-8465408D01*
X17175408Y-9345408D02*
X17175408Y-9214592D01*
X17044592Y-9214592D01*
X17044592Y-9345408D01*
X17175408Y-9345408D01*
X17975408Y-7585408D02*
X17975408Y-7454592D01*
X17844592Y-7454592D01*
X17844592Y-7585408D01*
X17975408Y-7585408D01*
X17975408Y-8465408D02*
X17975408Y-8334592D01*
X17844592Y-8334592D01*
X17844592Y-8465408D01*
X17975408Y-8465408D01*
X17975408Y-9345408D02*
X17975408Y-9214592D01*
X17844592Y-9214592D01*
X17844592Y-9345408D01*
X17975408Y-9345408D01*
X16200000Y-13910000D02*
X16310000Y-13800000D01*
X16200000Y-13690000D01*
X16090000Y-13800000D01*
X16200000Y-13910000D01*
X13675000Y-13525000D02*
X14025000Y-13875000D01*
X14025000Y-13525000D02*
X13675000Y-13875000D01*
X14025000Y-13700000D02*
G75*
G03*
X14025000Y-13700000I-175000J0D01*
G01*
D12*
X12083928Y-14668214D02*
X12083928Y-14368214D01*
X12155357Y-14368214D01*
X12198214Y-14382500D01*
X12226786Y-14411071D01*
X12241071Y-14439643D01*
X12255357Y-14496786D01*
X12255357Y-14539643D01*
X12241071Y-14596786D01*
X12226786Y-14625357D01*
X12198214Y-14653929D01*
X12155357Y-14668214D01*
X12083928Y-14668214D01*
X12383928Y-14668214D02*
X12383928Y-14468214D01*
X12383928Y-14525357D02*
X12398214Y-14496786D01*
X12412500Y-14482500D01*
X12441071Y-14468214D01*
X12469643Y-14468214D01*
X12569643Y-14668214D02*
X12569643Y-14468214D01*
X12569643Y-14368214D02*
X12555357Y-14382500D01*
X12569643Y-14396786D01*
X12583928Y-14382500D01*
X12569643Y-14368214D01*
X12569643Y-14396786D01*
X12755357Y-14668214D02*
X12726786Y-14653929D01*
X12712500Y-14625357D01*
X12712500Y-14368214D01*
X12912500Y-14668214D02*
X12883928Y-14653929D01*
X12869643Y-14625357D01*
X12869643Y-14368214D01*
X13255357Y-14668214D02*
X13255357Y-14368214D01*
X13355357Y-14582500D01*
X13455357Y-14368214D01*
X13455357Y-14668214D01*
X13726786Y-14668214D02*
X13726786Y-14511071D01*
X13712500Y-14482500D01*
X13683928Y-14468214D01*
X13626786Y-14468214D01*
X13598214Y-14482500D01*
X13726786Y-14653929D02*
X13698214Y-14668214D01*
X13626786Y-14668214D01*
X13598214Y-14653929D01*
X13583928Y-14625357D01*
X13583928Y-14596786D01*
X13598214Y-14568214D01*
X13626786Y-14553929D01*
X13698214Y-14553929D01*
X13726786Y-14539643D01*
X13869643Y-14468214D02*
X13869643Y-14768214D01*
X13869643Y-14482500D02*
X13898214Y-14468214D01*
X13955357Y-14468214D01*
X13983928Y-14482500D01*
X13998214Y-14496786D01*
X14012500Y-14525357D01*
X14012500Y-14611071D01*
X13998214Y-14639643D01*
X13983928Y-14653929D01*
X13955357Y-14668214D01*
X13898214Y-14668214D01*
X13869643Y-14653929D01*
X14141071Y-14639643D02*
X14155357Y-14653929D01*
X14141071Y-14668214D01*
X14126786Y-14653929D01*
X14141071Y-14639643D01*
X14141071Y-14668214D01*
X14141071Y-14482500D02*
X14155357Y-14496786D01*
X14141071Y-14511071D01*
X14126786Y-14496786D01*
X14141071Y-14482500D01*
X14141071Y-14511071D01*
X11717500Y-15122500D02*
X11797500Y-15202500D01*
X11797500Y-15122500D02*
X11717500Y-15202500D01*
X12141071Y-14998214D02*
X12169643Y-14998214D01*
X12198214Y-15012500D01*
X12212500Y-15026786D01*
X12226786Y-15055357D01*
X12241071Y-15112500D01*
X12241071Y-15183929D01*
X12226786Y-15241071D01*
X12212500Y-15269643D01*
X12198214Y-15283929D01*
X12169643Y-15298214D01*
X12141071Y-15298214D01*
X12112500Y-15283929D01*
X12098214Y-15269643D01*
X12083928Y-15241071D01*
X12069643Y-15183929D01*
X12069643Y-15112500D01*
X12083928Y-15055357D01*
X12098214Y-15026786D01*
X12112500Y-15012500D01*
X12141071Y-14998214D01*
X12369643Y-15269643D02*
X12383928Y-15283929D01*
X12369643Y-15298214D01*
X12355357Y-15283929D01*
X12369643Y-15269643D01*
X12369643Y-15298214D01*
X12555357Y-15126786D02*
X12526786Y-15112500D01*
X12512500Y-15098214D01*
X12498214Y-15069643D01*
X12498214Y-15055357D01*
X12512500Y-15026786D01*
X12526786Y-15012500D01*
X12555357Y-14998214D01*
X12612500Y-14998214D01*
X12641071Y-15012500D01*
X12655357Y-15026786D01*
X12669643Y-15055357D01*
X12669643Y-15069643D01*
X12655357Y-15098214D01*
X12641071Y-15112500D01*
X12612500Y-15126786D01*
X12555357Y-15126786D01*
X12526786Y-15141071D01*
X12512500Y-15155357D01*
X12498214Y-15183929D01*
X12498214Y-15241071D01*
X12512500Y-15269643D01*
X12526786Y-15283929D01*
X12555357Y-15298214D01*
X12612500Y-15298214D01*
X12641071Y-15283929D01*
X12655357Y-15269643D01*
X12669643Y-15241071D01*
X12669643Y-15183929D01*
X12655357Y-15155357D01*
X12641071Y-15141071D01*
X12612500Y-15126786D01*
X12855357Y-14998214D02*
X12883928Y-14998214D01*
X12912500Y-15012500D01*
X12926786Y-15026786D01*
X12941071Y-15055357D01*
X12955357Y-15112500D01*
X12955357Y-15183929D01*
X12941071Y-15241071D01*
X12926786Y-15269643D01*
X12912500Y-15283929D01*
X12883928Y-15298214D01*
X12855357Y-15298214D01*
X12826786Y-15283929D01*
X12812500Y-15269643D01*
X12798214Y-15241071D01*
X12783928Y-15183929D01*
X12783928Y-15112500D01*
X12798214Y-15055357D01*
X12812500Y-15026786D01*
X12826786Y-15012500D01*
X12855357Y-14998214D01*
X13083928Y-15298214D02*
X13083928Y-15098214D01*
X13083928Y-15126786D02*
X13098214Y-15112500D01*
X13126786Y-15098214D01*
X13169643Y-15098214D01*
X13198214Y-15112500D01*
X13212500Y-15141071D01*
X13212500Y-15298214D01*
X13212500Y-15141071D02*
X13226786Y-15112500D01*
X13255357Y-15098214D01*
X13298214Y-15098214D01*
X13326786Y-15112500D01*
X13341071Y-15141071D01*
X13341071Y-15298214D01*
X13483928Y-15298214D02*
X13483928Y-15098214D01*
X13483928Y-15126786D02*
X13498214Y-15112500D01*
X13526786Y-15098214D01*
X13569643Y-15098214D01*
X13598214Y-15112500D01*
X13612500Y-15141071D01*
X13612500Y-15298214D01*
X13612500Y-15141071D02*
X13626786Y-15112500D01*
X13655357Y-15098214D01*
X13698214Y-15098214D01*
X13726786Y-15112500D01*
X13741071Y-15141071D01*
X13741071Y-15298214D01*
X14326786Y-14983929D02*
X14069643Y-15369643D01*
X14712500Y-14998214D02*
X14741071Y-14998214D01*
X14769643Y-15012500D01*
X14783928Y-15026786D01*
X14798214Y-15055357D01*
X14812500Y-15112500D01*
X14812500Y-15183929D01*
X14798214Y-15241071D01*
X14783928Y-15269643D01*
X14769643Y-15283929D01*
X14741071Y-15298214D01*
X14712500Y-15298214D01*
X14683928Y-15283929D01*
X14669643Y-15269643D01*
X14655357Y-15241071D01*
X14641071Y-15183929D01*
X14641071Y-15112500D01*
X14655357Y-15055357D01*
X14669643Y-15026786D01*
X14683928Y-15012500D01*
X14712500Y-14998214D01*
X14941071Y-15269643D02*
X14955357Y-15283929D01*
X14941071Y-15298214D01*
X14926786Y-15283929D01*
X14941071Y-15269643D01*
X14941071Y-15298214D01*
X15141071Y-14998214D02*
X15169643Y-14998214D01*
X15198214Y-15012500D01*
X15212500Y-15026786D01*
X15226786Y-15055357D01*
X15241071Y-15112500D01*
X15241071Y-15183929D01*
X15226786Y-15241071D01*
X15212500Y-15269643D01*
X15198214Y-15283929D01*
X15169643Y-15298214D01*
X15141071Y-15298214D01*
X15112500Y-15283929D01*
X15098214Y-15269643D01*
X15083928Y-15241071D01*
X15069643Y-15183929D01*
X15069643Y-15112500D01*
X15083928Y-15055357D01*
X15098214Y-15026786D01*
X15112500Y-15012500D01*
X15141071Y-14998214D01*
X15341071Y-14998214D02*
X15526786Y-14998214D01*
X15426786Y-15112500D01*
X15469643Y-15112500D01*
X15498214Y-15126786D01*
X15512500Y-15141071D01*
X15526786Y-15169643D01*
X15526786Y-15241071D01*
X15512500Y-15269643D01*
X15498214Y-15283929D01*
X15469643Y-15298214D01*
X15383928Y-15298214D01*
X15355357Y-15283929D01*
X15341071Y-15269643D01*
X15812500Y-15298214D02*
X15641071Y-15298214D01*
X15726786Y-15298214D02*
X15726786Y-14998214D01*
X15698214Y-15041071D01*
X15669643Y-15069643D01*
X15641071Y-15083929D01*
X15926786Y-14998214D02*
X15926786Y-15055357D01*
X16041071Y-14998214D02*
X16041071Y-15055357D01*
X16483928Y-15412500D02*
X16469643Y-15398214D01*
X16441071Y-15355357D01*
X16426786Y-15326786D01*
X16412500Y-15283929D01*
X16398214Y-15212500D01*
X16398214Y-15155357D01*
X16412500Y-15083929D01*
X16426786Y-15041071D01*
X16441071Y-15012500D01*
X16469643Y-14969643D01*
X16483928Y-14955357D01*
X16641071Y-15126786D02*
X16612500Y-15112500D01*
X16598214Y-15098214D01*
X16583928Y-15069643D01*
X16583928Y-15055357D01*
X16598214Y-15026786D01*
X16612500Y-15012500D01*
X16641071Y-14998214D01*
X16698214Y-14998214D01*
X16726786Y-15012500D01*
X16741071Y-15026786D01*
X16755357Y-15055357D01*
X16755357Y-15069643D01*
X16741071Y-15098214D01*
X16726786Y-15112500D01*
X16698214Y-15126786D01*
X16641071Y-15126786D01*
X16612500Y-15141071D01*
X16598214Y-15155357D01*
X16583928Y-15183929D01*
X16583928Y-15241071D01*
X16598214Y-15269643D01*
X16612500Y-15283929D01*
X16641071Y-15298214D01*
X16698214Y-15298214D01*
X16726786Y-15283929D01*
X16741071Y-15269643D01*
X16755357Y-15241071D01*
X16755357Y-15183929D01*
X16741071Y-15155357D01*
X16726786Y-15141071D01*
X16698214Y-15126786D01*
X17112500Y-15298214D02*
X17112500Y-14998214D01*
X17241071Y-15298214D02*
X17241071Y-15141071D01*
X17226786Y-15112500D01*
X17198214Y-15098214D01*
X17155357Y-15098214D01*
X17126786Y-15112500D01*
X17112500Y-15126786D01*
X17426786Y-15298214D02*
X17398214Y-15283929D01*
X17383928Y-15269643D01*
X17369643Y-15241071D01*
X17369643Y-15155357D01*
X17383928Y-15126786D01*
X17398214Y-15112500D01*
X17426786Y-15098214D01*
X17469643Y-15098214D01*
X17498214Y-15112500D01*
X17512500Y-15126786D01*
X17526786Y-15155357D01*
X17526786Y-15241071D01*
X17512500Y-15269643D01*
X17498214Y-15283929D01*
X17469643Y-15298214D01*
X17426786Y-15298214D01*
X17698214Y-15298214D02*
X17669643Y-15283929D01*
X17655357Y-15255357D01*
X17655357Y-14998214D01*
X17926786Y-15283929D02*
X17898214Y-15298214D01*
X17841071Y-15298214D01*
X17812500Y-15283929D01*
X17798214Y-15255357D01*
X17798214Y-15141071D01*
X17812500Y-15112500D01*
X17841071Y-15098214D01*
X17898214Y-15098214D01*
X17926786Y-15112500D01*
X17941071Y-15141071D01*
X17941071Y-15169643D01*
X17798214Y-15198214D01*
X18055357Y-15283929D02*
X18083928Y-15298214D01*
X18141071Y-15298214D01*
X18169643Y-15283929D01*
X18183928Y-15255357D01*
X18183928Y-15241071D01*
X18169643Y-15212500D01*
X18141071Y-15198214D01*
X18098214Y-15198214D01*
X18069643Y-15183929D01*
X18055357Y-15155357D01*
X18055357Y-15141071D01*
X18069643Y-15112500D01*
X18098214Y-15098214D01*
X18141071Y-15098214D01*
X18169643Y-15112500D01*
X18283928Y-15412500D02*
X18298214Y-15398214D01*
X18326786Y-15355357D01*
X18341071Y-15326786D01*
X18355357Y-15283929D01*
X18369643Y-15212500D01*
X18369643Y-15155357D01*
X18355357Y-15083929D01*
X18341071Y-15041071D01*
X18326786Y-15012500D01*
X18298214Y-14969643D01*
X18283928Y-14955357D01*
X11797500Y-15558500D02*
G75*
G03*
X11797500Y-15558500I-65000J0D01*
G01*
X12241071Y-15694214D02*
X12069643Y-15694214D01*
X12155357Y-15694214D02*
X12155357Y-15394214D01*
X12126786Y-15437071D01*
X12098214Y-15465643D01*
X12069643Y-15479929D01*
X12369643Y-15665643D02*
X12383928Y-15679929D01*
X12369643Y-15694214D01*
X12355357Y-15679929D01*
X12369643Y-15665643D01*
X12369643Y-15694214D01*
X12483928Y-15394214D02*
X12669643Y-15394214D01*
X12569643Y-15508500D01*
X12612500Y-15508500D01*
X12641071Y-15522786D01*
X12655357Y-15537071D01*
X12669643Y-15565643D01*
X12669643Y-15637071D01*
X12655357Y-15665643D01*
X12641071Y-15679929D01*
X12612500Y-15694214D01*
X12526786Y-15694214D01*
X12498214Y-15679929D01*
X12483928Y-15665643D01*
X12855357Y-15394214D02*
X12883928Y-15394214D01*
X12912500Y-15408500D01*
X12926786Y-15422786D01*
X12941071Y-15451357D01*
X12955357Y-15508500D01*
X12955357Y-15579929D01*
X12941071Y-15637071D01*
X12926786Y-15665643D01*
X12912500Y-15679929D01*
X12883928Y-15694214D01*
X12855357Y-15694214D01*
X12826786Y-15679929D01*
X12812500Y-15665643D01*
X12798214Y-15637071D01*
X12783928Y-15579929D01*
X12783928Y-15508500D01*
X12798214Y-15451357D01*
X12812500Y-15422786D01*
X12826786Y-15408500D01*
X12855357Y-15394214D01*
X13083928Y-15694214D02*
X13083928Y-15494214D01*
X13083928Y-15522786D02*
X13098214Y-15508500D01*
X13126786Y-15494214D01*
X13169643Y-15494214D01*
X13198214Y-15508500D01*
X13212500Y-15537071D01*
X13212500Y-15694214D01*
X13212500Y-15537071D02*
X13226786Y-15508500D01*
X13255357Y-15494214D01*
X13298214Y-15494214D01*
X13326786Y-15508500D01*
X13341071Y-15537071D01*
X13341071Y-15694214D01*
X13483928Y-15694214D02*
X13483928Y-15494214D01*
X13483928Y-15522786D02*
X13498214Y-15508500D01*
X13526786Y-15494214D01*
X13569643Y-15494214D01*
X13598214Y-15508500D01*
X13612500Y-15537071D01*
X13612500Y-15694214D01*
X13612500Y-15537071D02*
X13626786Y-15508500D01*
X13655357Y-15494214D01*
X13698214Y-15494214D01*
X13726786Y-15508500D01*
X13741071Y-15537071D01*
X13741071Y-15694214D01*
X14326786Y-15379929D02*
X14069643Y-15765643D01*
X14712500Y-15394214D02*
X14741071Y-15394214D01*
X14769643Y-15408500D01*
X14783928Y-15422786D01*
X14798214Y-15451357D01*
X14812500Y-15508500D01*
X14812500Y-15579929D01*
X14798214Y-15637071D01*
X14783928Y-15665643D01*
X14769643Y-15679929D01*
X14741071Y-15694214D01*
X14712500Y-15694214D01*
X14683928Y-15679929D01*
X14669643Y-15665643D01*
X14655357Y-15637071D01*
X14641071Y-15579929D01*
X14641071Y-15508500D01*
X14655357Y-15451357D01*
X14669643Y-15422786D01*
X14683928Y-15408500D01*
X14712500Y-15394214D01*
X14941071Y-15665643D02*
X14955357Y-15679929D01*
X14941071Y-15694214D01*
X14926786Y-15679929D01*
X14941071Y-15665643D01*
X14941071Y-15694214D01*
X15141071Y-15394214D02*
X15169643Y-15394214D01*
X15198214Y-15408500D01*
X15212500Y-15422786D01*
X15226786Y-15451357D01*
X15241071Y-15508500D01*
X15241071Y-15579929D01*
X15226786Y-15637071D01*
X15212500Y-15665643D01*
X15198214Y-15679929D01*
X15169643Y-15694214D01*
X15141071Y-15694214D01*
X15112500Y-15679929D01*
X15098214Y-15665643D01*
X15083928Y-15637071D01*
X15069643Y-15579929D01*
X15069643Y-15508500D01*
X15083928Y-15451357D01*
X15098214Y-15422786D01*
X15112500Y-15408500D01*
X15141071Y-15394214D01*
X15512500Y-15394214D02*
X15369643Y-15394214D01*
X15355357Y-15537071D01*
X15369643Y-15522786D01*
X15398214Y-15508500D01*
X15469643Y-15508500D01*
X15498214Y-15522786D01*
X15512500Y-15537071D01*
X15526786Y-15565643D01*
X15526786Y-15637071D01*
X15512500Y-15665643D01*
X15498214Y-15679929D01*
X15469643Y-15694214D01*
X15398214Y-15694214D01*
X15369643Y-15679929D01*
X15355357Y-15665643D01*
X15812500Y-15694214D02*
X15641071Y-15694214D01*
X15726786Y-15694214D02*
X15726786Y-15394214D01*
X15698214Y-15437071D01*
X15669643Y-15465643D01*
X15641071Y-15479929D01*
X15926786Y-15394214D02*
X15926786Y-15451357D01*
X16041071Y-15394214D02*
X16041071Y-15451357D01*
X16483928Y-15808500D02*
X16469643Y-15794214D01*
X16441071Y-15751357D01*
X16426786Y-15722786D01*
X16412500Y-15679929D01*
X16398214Y-15608500D01*
X16398214Y-15551357D01*
X16412500Y-15479929D01*
X16426786Y-15437071D01*
X16441071Y-15408500D01*
X16469643Y-15365643D01*
X16483928Y-15351357D01*
X16726786Y-15394214D02*
X16669643Y-15394214D01*
X16641071Y-15408500D01*
X16626786Y-15422786D01*
X16598214Y-15465643D01*
X16583928Y-15522786D01*
X16583928Y-15637071D01*
X16598214Y-15665643D01*
X16612500Y-15679929D01*
X16641071Y-15694214D01*
X16698214Y-15694214D01*
X16726786Y-15679929D01*
X16741071Y-15665643D01*
X16755357Y-15637071D01*
X16755357Y-15565643D01*
X16741071Y-15537071D01*
X16726786Y-15522786D01*
X16698214Y-15508500D01*
X16641071Y-15508500D01*
X16612500Y-15522786D01*
X16598214Y-15537071D01*
X16583928Y-15565643D01*
X17112500Y-15694214D02*
X17112500Y-15394214D01*
X17241071Y-15694214D02*
X17241071Y-15537071D01*
X17226786Y-15508500D01*
X17198214Y-15494214D01*
X17155357Y-15494214D01*
X17126786Y-15508500D01*
X17112500Y-15522786D01*
X17426786Y-15694214D02*
X17398214Y-15679929D01*
X17383928Y-15665643D01*
X17369643Y-15637071D01*
X17369643Y-15551357D01*
X17383928Y-15522786D01*
X17398214Y-15508500D01*
X17426786Y-15494214D01*
X17469643Y-15494214D01*
X17498214Y-15508500D01*
X17512500Y-15522786D01*
X17526786Y-15551357D01*
X17526786Y-15637071D01*
X17512500Y-15665643D01*
X17498214Y-15679929D01*
X17469643Y-15694214D01*
X17426786Y-15694214D01*
X17698214Y-15694214D02*
X17669643Y-15679929D01*
X17655357Y-15651357D01*
X17655357Y-15394214D01*
X17926786Y-15679929D02*
X17898214Y-15694214D01*
X17841071Y-15694214D01*
X17812500Y-15679929D01*
X17798214Y-15651357D01*
X17798214Y-15537071D01*
X17812500Y-15508500D01*
X17841071Y-15494214D01*
X17898214Y-15494214D01*
X17926786Y-15508500D01*
X17941071Y-15537071D01*
X17941071Y-15565643D01*
X17798214Y-15594214D01*
X18055357Y-15679929D02*
X18083928Y-15694214D01*
X18141071Y-15694214D01*
X18169643Y-15679929D01*
X18183928Y-15651357D01*
X18183928Y-15637071D01*
X18169643Y-15608500D01*
X18141071Y-15594214D01*
X18098214Y-15594214D01*
X18069643Y-15579929D01*
X18055357Y-15551357D01*
X18055357Y-15537071D01*
X18069643Y-15508500D01*
X18098214Y-15494214D01*
X18141071Y-15494214D01*
X18169643Y-15508500D01*
X18283928Y-15808500D02*
X18298214Y-15794214D01*
X18326786Y-15751357D01*
X18341071Y-15722786D01*
X18355357Y-15679929D01*
X18369643Y-15608500D01*
X18369643Y-15551357D01*
X18355357Y-15479929D01*
X18341071Y-15437071D01*
X18326786Y-15408500D01*
X18298214Y-15365643D01*
X18283928Y-15351357D01*
X11717500Y-15874500D02*
X11717500Y-16034500D01*
X11637500Y-15954500D02*
X11797500Y-15954500D01*
X12241071Y-16090214D02*
X12069643Y-16090214D01*
X12155357Y-16090214D02*
X12155357Y-15790214D01*
X12126786Y-15833071D01*
X12098214Y-15861643D01*
X12069643Y-15875929D01*
X12369643Y-16061643D02*
X12383928Y-16075929D01*
X12369643Y-16090214D01*
X12355357Y-16075929D01*
X12369643Y-16061643D01*
X12369643Y-16090214D01*
X12641071Y-15790214D02*
X12583928Y-15790214D01*
X12555357Y-15804500D01*
X12541071Y-15818786D01*
X12512500Y-15861643D01*
X12498214Y-15918786D01*
X12498214Y-16033071D01*
X12512500Y-16061643D01*
X12526786Y-16075929D01*
X12555357Y-16090214D01*
X12612500Y-16090214D01*
X12641071Y-16075929D01*
X12655357Y-16061643D01*
X12669643Y-16033071D01*
X12669643Y-15961643D01*
X12655357Y-15933071D01*
X12641071Y-15918786D01*
X12612500Y-15904500D01*
X12555357Y-15904500D01*
X12526786Y-15918786D01*
X12512500Y-15933071D01*
X12498214Y-15961643D01*
X12855357Y-15790214D02*
X12883928Y-15790214D01*
X12912500Y-15804500D01*
X12926786Y-15818786D01*
X12941071Y-15847357D01*
X12955357Y-15904500D01*
X12955357Y-15975929D01*
X12941071Y-16033071D01*
X12926786Y-16061643D01*
X12912500Y-16075929D01*
X12883928Y-16090214D01*
X12855357Y-16090214D01*
X12826786Y-16075929D01*
X12812500Y-16061643D01*
X12798214Y-16033071D01*
X12783928Y-15975929D01*
X12783928Y-15904500D01*
X12798214Y-15847357D01*
X12812500Y-15818786D01*
X12826786Y-15804500D01*
X12855357Y-15790214D01*
X13083928Y-16090214D02*
X13083928Y-15890214D01*
X13083928Y-15918786D02*
X13098214Y-15904500D01*
X13126786Y-15890214D01*
X13169643Y-15890214D01*
X13198214Y-15904500D01*
X13212500Y-15933071D01*
X13212500Y-16090214D01*
X13212500Y-15933071D02*
X13226786Y-15904500D01*
X13255357Y-15890214D01*
X13298214Y-15890214D01*
X13326786Y-15904500D01*
X13341071Y-15933071D01*
X13341071Y-16090214D01*
X13483928Y-16090214D02*
X13483928Y-15890214D01*
X13483928Y-15918786D02*
X13498214Y-15904500D01*
X13526786Y-15890214D01*
X13569643Y-15890214D01*
X13598214Y-15904500D01*
X13612500Y-15933071D01*
X13612500Y-16090214D01*
X13612500Y-15933071D02*
X13626786Y-15904500D01*
X13655357Y-15890214D01*
X13698214Y-15890214D01*
X13726786Y-15904500D01*
X13741071Y-15933071D01*
X13741071Y-16090214D01*
X14326786Y-15775929D02*
X14069643Y-16161643D01*
X14712500Y-15790214D02*
X14741071Y-15790214D01*
X14769643Y-15804500D01*
X14783928Y-15818786D01*
X14798214Y-15847357D01*
X14812500Y-15904500D01*
X14812500Y-15975929D01*
X14798214Y-16033071D01*
X14783928Y-16061643D01*
X14769643Y-16075929D01*
X14741071Y-16090214D01*
X14712500Y-16090214D01*
X14683928Y-16075929D01*
X14669643Y-16061643D01*
X14655357Y-16033071D01*
X14641071Y-15975929D01*
X14641071Y-15904500D01*
X14655357Y-15847357D01*
X14669643Y-15818786D01*
X14683928Y-15804500D01*
X14712500Y-15790214D01*
X14941071Y-16061643D02*
X14955357Y-16075929D01*
X14941071Y-16090214D01*
X14926786Y-16075929D01*
X14941071Y-16061643D01*
X14941071Y-16090214D01*
X15141071Y-15790214D02*
X15169643Y-15790214D01*
X15198214Y-15804500D01*
X15212500Y-15818786D01*
X15226786Y-15847357D01*
X15241071Y-15904500D01*
X15241071Y-15975929D01*
X15226786Y-16033071D01*
X15212500Y-16061643D01*
X15198214Y-16075929D01*
X15169643Y-16090214D01*
X15141071Y-16090214D01*
X15112500Y-16075929D01*
X15098214Y-16061643D01*
X15083928Y-16033071D01*
X15069643Y-15975929D01*
X15069643Y-15904500D01*
X15083928Y-15847357D01*
X15098214Y-15818786D01*
X15112500Y-15804500D01*
X15141071Y-15790214D01*
X15498214Y-15790214D02*
X15441071Y-15790214D01*
X15412500Y-15804500D01*
X15398214Y-15818786D01*
X15369643Y-15861643D01*
X15355357Y-15918786D01*
X15355357Y-16033071D01*
X15369643Y-16061643D01*
X15383928Y-16075929D01*
X15412500Y-16090214D01*
X15469643Y-16090214D01*
X15498214Y-16075929D01*
X15512500Y-16061643D01*
X15526786Y-16033071D01*
X15526786Y-15961643D01*
X15512500Y-15933071D01*
X15498214Y-15918786D01*
X15469643Y-15904500D01*
X15412500Y-15904500D01*
X15383928Y-15918786D01*
X15369643Y-15933071D01*
X15355357Y-15961643D01*
X15626786Y-15790214D02*
X15812500Y-15790214D01*
X15712500Y-15904500D01*
X15755357Y-15904500D01*
X15783928Y-15918786D01*
X15798214Y-15933071D01*
X15812500Y-15961643D01*
X15812500Y-16033071D01*
X15798214Y-16061643D01*
X15783928Y-16075929D01*
X15755357Y-16090214D01*
X15669643Y-16090214D01*
X15641071Y-16075929D01*
X15626786Y-16061643D01*
X15926786Y-15790214D02*
X15926786Y-15847357D01*
X16041071Y-15790214D02*
X16041071Y-15847357D01*
X16483928Y-16204500D02*
X16469643Y-16190214D01*
X16441071Y-16147357D01*
X16426786Y-16118786D01*
X16412500Y-16075929D01*
X16398214Y-16004500D01*
X16398214Y-15947357D01*
X16412500Y-15875929D01*
X16426786Y-15833071D01*
X16441071Y-15804500D01*
X16469643Y-15761643D01*
X16483928Y-15747357D01*
X16755357Y-16090214D02*
X16583928Y-16090214D01*
X16669643Y-16090214D02*
X16669643Y-15790214D01*
X16641071Y-15833071D01*
X16612500Y-15861643D01*
X16583928Y-15875929D01*
X17112500Y-16090214D02*
X17112500Y-15790214D01*
X17241071Y-16090214D02*
X17241071Y-15933071D01*
X17226786Y-15904500D01*
X17198214Y-15890214D01*
X17155357Y-15890214D01*
X17126786Y-15904500D01*
X17112500Y-15918786D01*
X17426786Y-16090214D02*
X17398214Y-16075929D01*
X17383928Y-16061643D01*
X17369643Y-16033071D01*
X17369643Y-15947357D01*
X17383928Y-15918786D01*
X17398214Y-15904500D01*
X17426786Y-15890214D01*
X17469643Y-15890214D01*
X17498214Y-15904500D01*
X17512500Y-15918786D01*
X17526786Y-15947357D01*
X17526786Y-16033071D01*
X17512500Y-16061643D01*
X17498214Y-16075929D01*
X17469643Y-16090214D01*
X17426786Y-16090214D01*
X17698214Y-16090214D02*
X17669643Y-16075929D01*
X17655357Y-16047357D01*
X17655357Y-15790214D01*
X17926786Y-16075929D02*
X17898214Y-16090214D01*
X17841071Y-16090214D01*
X17812500Y-16075929D01*
X17798214Y-16047357D01*
X17798214Y-15933071D01*
X17812500Y-15904500D01*
X17841071Y-15890214D01*
X17898214Y-15890214D01*
X17926786Y-15904500D01*
X17941071Y-15933071D01*
X17941071Y-15961643D01*
X17798214Y-15990214D01*
X18041071Y-16204500D02*
X18055357Y-16190214D01*
X18083928Y-16147357D01*
X18098214Y-16118786D01*
X18112500Y-16075929D01*
X18126786Y-16004500D01*
X18126786Y-15947357D01*
X18112500Y-15875929D01*
X18098214Y-15833071D01*
X18083928Y-15804500D01*
X18055357Y-15761643D01*
X18041071Y-15747357D01*
X11770408Y-16415908D02*
X11770408Y-16285092D01*
X11639592Y-16285092D01*
X11639592Y-16415908D01*
X11770408Y-16415908D01*
X12241071Y-16486214D02*
X12069643Y-16486214D01*
X12155357Y-16486214D02*
X12155357Y-16186214D01*
X12126786Y-16229071D01*
X12098214Y-16257643D01*
X12069643Y-16271929D01*
X12369643Y-16457643D02*
X12383928Y-16471929D01*
X12369643Y-16486214D01*
X12355357Y-16471929D01*
X12369643Y-16457643D01*
X12369643Y-16486214D01*
X12555357Y-16314786D02*
X12526786Y-16300500D01*
X12512500Y-16286214D01*
X12498214Y-16257643D01*
X12498214Y-16243357D01*
X12512500Y-16214786D01*
X12526786Y-16200500D01*
X12555357Y-16186214D01*
X12612500Y-16186214D01*
X12641071Y-16200500D01*
X12655357Y-16214786D01*
X12669643Y-16243357D01*
X12669643Y-16257643D01*
X12655357Y-16286214D01*
X12641071Y-16300500D01*
X12612500Y-16314786D01*
X12555357Y-16314786D01*
X12526786Y-16329071D01*
X12512500Y-16343357D01*
X12498214Y-16371929D01*
X12498214Y-16429071D01*
X12512500Y-16457643D01*
X12526786Y-16471929D01*
X12555357Y-16486214D01*
X12612500Y-16486214D01*
X12641071Y-16471929D01*
X12655357Y-16457643D01*
X12669643Y-16429071D01*
X12669643Y-16371929D01*
X12655357Y-16343357D01*
X12641071Y-16329071D01*
X12612500Y-16314786D01*
X12941071Y-16186214D02*
X12798214Y-16186214D01*
X12783928Y-16329071D01*
X12798214Y-16314786D01*
X12826786Y-16300500D01*
X12898214Y-16300500D01*
X12926786Y-16314786D01*
X12941071Y-16329071D01*
X12955357Y-16357643D01*
X12955357Y-16429071D01*
X12941071Y-16457643D01*
X12926786Y-16471929D01*
X12898214Y-16486214D01*
X12826786Y-16486214D01*
X12798214Y-16471929D01*
X12783928Y-16457643D01*
X13083928Y-16486214D02*
X13083928Y-16286214D01*
X13083928Y-16314786D02*
X13098214Y-16300500D01*
X13126786Y-16286214D01*
X13169643Y-16286214D01*
X13198214Y-16300500D01*
X13212500Y-16329071D01*
X13212500Y-16486214D01*
X13212500Y-16329071D02*
X13226786Y-16300500D01*
X13255357Y-16286214D01*
X13298214Y-16286214D01*
X13326786Y-16300500D01*
X13341071Y-16329071D01*
X13341071Y-16486214D01*
X13483928Y-16486214D02*
X13483928Y-16286214D01*
X13483928Y-16314786D02*
X13498214Y-16300500D01*
X13526786Y-16286214D01*
X13569643Y-16286214D01*
X13598214Y-16300500D01*
X13612500Y-16329071D01*
X13612500Y-16486214D01*
X13612500Y-16329071D02*
X13626786Y-16300500D01*
X13655357Y-16286214D01*
X13698214Y-16286214D01*
X13726786Y-16300500D01*
X13741071Y-16329071D01*
X13741071Y-16486214D01*
X14326786Y-16171929D02*
X14069643Y-16557643D01*
X14712500Y-16186214D02*
X14741071Y-16186214D01*
X14769643Y-16200500D01*
X14783928Y-16214786D01*
X14798214Y-16243357D01*
X14812500Y-16300500D01*
X14812500Y-16371929D01*
X14798214Y-16429071D01*
X14783928Y-16457643D01*
X14769643Y-16471929D01*
X14741071Y-16486214D01*
X14712500Y-16486214D01*
X14683928Y-16471929D01*
X14669643Y-16457643D01*
X14655357Y-16429071D01*
X14641071Y-16371929D01*
X14641071Y-16300500D01*
X14655357Y-16243357D01*
X14669643Y-16214786D01*
X14683928Y-16200500D01*
X14712500Y-16186214D01*
X14941071Y-16457643D02*
X14955357Y-16471929D01*
X14941071Y-16486214D01*
X14926786Y-16471929D01*
X14941071Y-16457643D01*
X14941071Y-16486214D01*
X15141071Y-16186214D02*
X15169643Y-16186214D01*
X15198214Y-16200500D01*
X15212500Y-16214786D01*
X15226786Y-16243357D01*
X15241071Y-16300500D01*
X15241071Y-16371929D01*
X15226786Y-16429071D01*
X15212500Y-16457643D01*
X15198214Y-16471929D01*
X15169643Y-16486214D01*
X15141071Y-16486214D01*
X15112500Y-16471929D01*
X15098214Y-16457643D01*
X15083928Y-16429071D01*
X15069643Y-16371929D01*
X15069643Y-16300500D01*
X15083928Y-16243357D01*
X15098214Y-16214786D01*
X15112500Y-16200500D01*
X15141071Y-16186214D01*
X15341071Y-16186214D02*
X15541071Y-16186214D01*
X15412500Y-16486214D01*
X15626786Y-16186214D02*
X15812500Y-16186214D01*
X15712500Y-16300500D01*
X15755357Y-16300500D01*
X15783928Y-16314786D01*
X15798214Y-16329071D01*
X15812500Y-16357643D01*
X15812500Y-16429071D01*
X15798214Y-16457643D01*
X15783928Y-16471929D01*
X15755357Y-16486214D01*
X15669643Y-16486214D01*
X15641071Y-16471929D01*
X15626786Y-16457643D01*
X15926786Y-16186214D02*
X15926786Y-16243357D01*
X16041071Y-16186214D02*
X16041071Y-16243357D01*
X16483928Y-16600500D02*
X16469643Y-16586214D01*
X16441071Y-16543357D01*
X16426786Y-16514786D01*
X16412500Y-16471929D01*
X16398214Y-16400500D01*
X16398214Y-16343357D01*
X16412500Y-16271929D01*
X16426786Y-16229071D01*
X16441071Y-16200500D01*
X16469643Y-16157643D01*
X16483928Y-16143357D01*
X16726786Y-16186214D02*
X16669643Y-16186214D01*
X16641071Y-16200500D01*
X16626786Y-16214786D01*
X16598214Y-16257643D01*
X16583928Y-16314786D01*
X16583928Y-16429071D01*
X16598214Y-16457643D01*
X16612500Y-16471929D01*
X16641071Y-16486214D01*
X16698214Y-16486214D01*
X16726786Y-16471929D01*
X16741071Y-16457643D01*
X16755357Y-16429071D01*
X16755357Y-16357643D01*
X16741071Y-16329071D01*
X16726786Y-16314786D01*
X16698214Y-16300500D01*
X16641071Y-16300500D01*
X16612500Y-16314786D01*
X16598214Y-16329071D01*
X16583928Y-16357643D01*
X17112500Y-16486214D02*
X17112500Y-16186214D01*
X17241071Y-16486214D02*
X17241071Y-16329071D01*
X17226786Y-16300500D01*
X17198214Y-16286214D01*
X17155357Y-16286214D01*
X17126786Y-16300500D01*
X17112500Y-16314786D01*
X17426786Y-16486214D02*
X17398214Y-16471929D01*
X17383928Y-16457643D01*
X17369643Y-16429071D01*
X17369643Y-16343357D01*
X17383928Y-16314786D01*
X17398214Y-16300500D01*
X17426786Y-16286214D01*
X17469643Y-16286214D01*
X17498214Y-16300500D01*
X17512500Y-16314786D01*
X17526786Y-16343357D01*
X17526786Y-16429071D01*
X17512500Y-16457643D01*
X17498214Y-16471929D01*
X17469643Y-16486214D01*
X17426786Y-16486214D01*
X17698214Y-16486214D02*
X17669643Y-16471929D01*
X17655357Y-16443357D01*
X17655357Y-16186214D01*
X17926786Y-16471929D02*
X17898214Y-16486214D01*
X17841071Y-16486214D01*
X17812500Y-16471929D01*
X17798214Y-16443357D01*
X17798214Y-16329071D01*
X17812500Y-16300500D01*
X17841071Y-16286214D01*
X17898214Y-16286214D01*
X17926786Y-16300500D01*
X17941071Y-16329071D01*
X17941071Y-16357643D01*
X17798214Y-16386214D01*
X18055357Y-16471929D02*
X18083928Y-16486214D01*
X18141071Y-16486214D01*
X18169643Y-16471929D01*
X18183928Y-16443357D01*
X18183928Y-16429071D01*
X18169643Y-16400500D01*
X18141071Y-16386214D01*
X18098214Y-16386214D01*
X18069643Y-16371929D01*
X18055357Y-16343357D01*
X18055357Y-16329071D01*
X18069643Y-16300500D01*
X18098214Y-16286214D01*
X18141071Y-16286214D01*
X18169643Y-16300500D01*
X18283928Y-16600500D02*
X18298214Y-16586214D01*
X18326786Y-16543357D01*
X18341071Y-16514786D01*
X18355357Y-16471929D01*
X18369643Y-16400500D01*
X18369643Y-16343357D01*
X18355357Y-16271929D01*
X18341071Y-16229071D01*
X18326786Y-16200500D01*
X18298214Y-16157643D01*
X18283928Y-16143357D01*
X11687500Y-16856500D02*
X11797500Y-16746500D01*
X11687500Y-16636500D01*
X11577500Y-16746500D01*
X11687500Y-16856500D01*
X12069643Y-16610786D02*
X12083928Y-16596500D01*
X12112500Y-16582214D01*
X12183928Y-16582214D01*
X12212500Y-16596500D01*
X12226786Y-16610786D01*
X12241071Y-16639357D01*
X12241071Y-16667929D01*
X12226786Y-16710786D01*
X12055357Y-16882214D01*
X12241071Y-16882214D01*
X12369643Y-16853643D02*
X12383928Y-16867929D01*
X12369643Y-16882214D01*
X12355357Y-16867929D01*
X12369643Y-16853643D01*
X12369643Y-16882214D01*
X12498214Y-16610786D02*
X12512500Y-16596500D01*
X12541071Y-16582214D01*
X12612500Y-16582214D01*
X12641071Y-16596500D01*
X12655357Y-16610786D01*
X12669643Y-16639357D01*
X12669643Y-16667929D01*
X12655357Y-16710786D01*
X12483928Y-16882214D01*
X12669643Y-16882214D01*
X12855357Y-16582214D02*
X12883928Y-16582214D01*
X12912500Y-16596500D01*
X12926786Y-16610786D01*
X12941071Y-16639357D01*
X12955357Y-16696500D01*
X12955357Y-16767929D01*
X12941071Y-16825072D01*
X12926786Y-16853643D01*
X12912500Y-16867929D01*
X12883928Y-16882214D01*
X12855357Y-16882214D01*
X12826786Y-16867929D01*
X12812500Y-16853643D01*
X12798214Y-16825072D01*
X12783928Y-16767929D01*
X12783928Y-16696500D01*
X12798214Y-16639357D01*
X12812500Y-16610786D01*
X12826786Y-16596500D01*
X12855357Y-16582214D01*
X13083928Y-16882214D02*
X13083928Y-16682214D01*
X13083928Y-16710786D02*
X13098214Y-16696500D01*
X13126786Y-16682214D01*
X13169643Y-16682214D01*
X13198214Y-16696500D01*
X13212500Y-16725071D01*
X13212500Y-16882214D01*
X13212500Y-16725071D02*
X13226786Y-16696500D01*
X13255357Y-16682214D01*
X13298214Y-16682214D01*
X13326786Y-16696500D01*
X13341071Y-16725071D01*
X13341071Y-16882214D01*
X13483928Y-16882214D02*
X13483928Y-16682214D01*
X13483928Y-16710786D02*
X13498214Y-16696500D01*
X13526786Y-16682214D01*
X13569643Y-16682214D01*
X13598214Y-16696500D01*
X13612500Y-16725071D01*
X13612500Y-16882214D01*
X13612500Y-16725071D02*
X13626786Y-16696500D01*
X13655357Y-16682214D01*
X13698214Y-16682214D01*
X13726786Y-16696500D01*
X13741071Y-16725071D01*
X13741071Y-16882214D01*
X14326786Y-16567929D02*
X14069643Y-16953643D01*
X14712500Y-16582214D02*
X14741071Y-16582214D01*
X14769643Y-16596500D01*
X14783928Y-16610786D01*
X14798214Y-16639357D01*
X14812500Y-16696500D01*
X14812500Y-16767929D01*
X14798214Y-16825072D01*
X14783928Y-16853643D01*
X14769643Y-16867929D01*
X14741071Y-16882214D01*
X14712500Y-16882214D01*
X14683928Y-16867929D01*
X14669643Y-16853643D01*
X14655357Y-16825072D01*
X14641071Y-16767929D01*
X14641071Y-16696500D01*
X14655357Y-16639357D01*
X14669643Y-16610786D01*
X14683928Y-16596500D01*
X14712500Y-16582214D01*
X14941071Y-16853643D02*
X14955357Y-16867929D01*
X14941071Y-16882214D01*
X14926786Y-16867929D01*
X14941071Y-16853643D01*
X14941071Y-16882214D01*
X15141071Y-16582214D02*
X15169643Y-16582214D01*
X15198214Y-16596500D01*
X15212500Y-16610786D01*
X15226786Y-16639357D01*
X15241071Y-16696500D01*
X15241071Y-16767929D01*
X15226786Y-16825072D01*
X15212500Y-16853643D01*
X15198214Y-16867929D01*
X15169643Y-16882214D01*
X15141071Y-16882214D01*
X15112500Y-16867929D01*
X15098214Y-16853643D01*
X15083928Y-16825072D01*
X15069643Y-16767929D01*
X15069643Y-16696500D01*
X15083928Y-16639357D01*
X15098214Y-16610786D01*
X15112500Y-16596500D01*
X15141071Y-16582214D01*
X15412500Y-16710786D02*
X15383928Y-16696500D01*
X15369643Y-16682214D01*
X15355357Y-16653643D01*
X15355357Y-16639357D01*
X15369643Y-16610786D01*
X15383928Y-16596500D01*
X15412500Y-16582214D01*
X15469643Y-16582214D01*
X15498214Y-16596500D01*
X15512500Y-16610786D01*
X15526786Y-16639357D01*
X15526786Y-16653643D01*
X15512500Y-16682214D01*
X15498214Y-16696500D01*
X15469643Y-16710786D01*
X15412500Y-16710786D01*
X15383928Y-16725071D01*
X15369643Y-16739357D01*
X15355357Y-16767929D01*
X15355357Y-16825072D01*
X15369643Y-16853643D01*
X15383928Y-16867929D01*
X15412500Y-16882214D01*
X15469643Y-16882214D01*
X15498214Y-16867929D01*
X15512500Y-16853643D01*
X15526786Y-16825072D01*
X15526786Y-16767929D01*
X15512500Y-16739357D01*
X15498214Y-16725071D01*
X15469643Y-16710786D01*
X15626786Y-16582214D02*
X15826786Y-16582214D01*
X15698214Y-16882214D01*
X15926786Y-16582214D02*
X15926786Y-16639357D01*
X16041071Y-16582214D02*
X16041071Y-16639357D01*
X16483928Y-16996500D02*
X16469643Y-16982214D01*
X16441071Y-16939357D01*
X16426786Y-16910786D01*
X16412500Y-16867929D01*
X16398214Y-16796500D01*
X16398214Y-16739357D01*
X16412500Y-16667929D01*
X16426786Y-16625071D01*
X16441071Y-16596500D01*
X16469643Y-16553643D01*
X16483928Y-16539357D01*
X16755357Y-16882214D02*
X16583928Y-16882214D01*
X16669643Y-16882214D02*
X16669643Y-16582214D01*
X16641071Y-16625071D01*
X16612500Y-16653643D01*
X16583928Y-16667929D01*
X17112500Y-16882214D02*
X17112500Y-16582214D01*
X17241071Y-16882214D02*
X17241071Y-16725071D01*
X17226786Y-16696500D01*
X17198214Y-16682214D01*
X17155357Y-16682214D01*
X17126786Y-16696500D01*
X17112500Y-16710786D01*
X17426786Y-16882214D02*
X17398214Y-16867929D01*
X17383928Y-16853643D01*
X17369643Y-16825072D01*
X17369643Y-16739357D01*
X17383928Y-16710786D01*
X17398214Y-16696500D01*
X17426786Y-16682214D01*
X17469643Y-16682214D01*
X17498214Y-16696500D01*
X17512500Y-16710786D01*
X17526786Y-16739357D01*
X17526786Y-16825072D01*
X17512500Y-16853643D01*
X17498214Y-16867929D01*
X17469643Y-16882214D01*
X17426786Y-16882214D01*
X17698214Y-16882214D02*
X17669643Y-16867929D01*
X17655357Y-16839357D01*
X17655357Y-16582214D01*
X17926786Y-16867929D02*
X17898214Y-16882214D01*
X17841071Y-16882214D01*
X17812500Y-16867929D01*
X17798214Y-16839357D01*
X17798214Y-16725071D01*
X17812500Y-16696500D01*
X17841071Y-16682214D01*
X17898214Y-16682214D01*
X17926786Y-16696500D01*
X17941071Y-16725071D01*
X17941071Y-16753643D01*
X17798214Y-16782214D01*
X18041071Y-16996500D02*
X18055357Y-16982214D01*
X18083928Y-16939357D01*
X18098214Y-16910786D01*
X18112500Y-16867929D01*
X18126786Y-16796500D01*
X18126786Y-16739357D01*
X18112500Y-16667929D01*
X18098214Y-16625071D01*
X18083928Y-16596500D01*
X18055357Y-16553643D01*
X18041071Y-16539357D01*
X11447500Y-16967500D02*
X11797500Y-17317500D01*
X11797500Y-16967500D02*
X11447500Y-17317500D01*
X11797500Y-17142500D02*
G75*
G03*
X11797500Y-17142500I-175000J0D01*
G01*
X12055357Y-16978214D02*
X12241071Y-16978214D01*
X12141071Y-17092500D01*
X12183928Y-17092500D01*
X12212500Y-17106786D01*
X12226786Y-17121072D01*
X12241071Y-17149643D01*
X12241071Y-17221072D01*
X12226786Y-17249643D01*
X12212500Y-17263929D01*
X12183928Y-17278214D01*
X12098214Y-17278214D01*
X12069643Y-17263929D01*
X12055357Y-17249643D01*
X12369643Y-17249643D02*
X12383928Y-17263929D01*
X12369643Y-17278214D01*
X12355357Y-17263929D01*
X12369643Y-17249643D01*
X12369643Y-17278214D01*
X12655357Y-16978214D02*
X12512500Y-16978214D01*
X12498214Y-17121072D01*
X12512500Y-17106786D01*
X12541071Y-17092500D01*
X12612500Y-17092500D01*
X12641071Y-17106786D01*
X12655357Y-17121072D01*
X12669643Y-17149643D01*
X12669643Y-17221072D01*
X12655357Y-17249643D01*
X12641071Y-17263929D01*
X12612500Y-17278214D01*
X12541071Y-17278214D01*
X12512500Y-17263929D01*
X12498214Y-17249643D01*
X12855357Y-16978214D02*
X12883928Y-16978214D01*
X12912500Y-16992500D01*
X12926786Y-17006786D01*
X12941071Y-17035357D01*
X12955357Y-17092500D01*
X12955357Y-17163929D01*
X12941071Y-17221072D01*
X12926786Y-17249643D01*
X12912500Y-17263929D01*
X12883928Y-17278214D01*
X12855357Y-17278214D01*
X12826786Y-17263929D01*
X12812500Y-17249643D01*
X12798214Y-17221072D01*
X12783928Y-17163929D01*
X12783928Y-17092500D01*
X12798214Y-17035357D01*
X12812500Y-17006786D01*
X12826786Y-16992500D01*
X12855357Y-16978214D01*
X13083928Y-17278214D02*
X13083928Y-17078214D01*
X13083928Y-17106786D02*
X13098214Y-17092500D01*
X13126786Y-17078214D01*
X13169643Y-17078214D01*
X13198214Y-17092500D01*
X13212500Y-17121072D01*
X13212500Y-17278214D01*
X13212500Y-17121072D02*
X13226786Y-17092500D01*
X13255357Y-17078214D01*
X13298214Y-17078214D01*
X13326786Y-17092500D01*
X13341071Y-17121072D01*
X13341071Y-17278214D01*
X13483928Y-17278214D02*
X13483928Y-17078214D01*
X13483928Y-17106786D02*
X13498214Y-17092500D01*
X13526786Y-17078214D01*
X13569643Y-17078214D01*
X13598214Y-17092500D01*
X13612500Y-17121072D01*
X13612500Y-17278214D01*
X13612500Y-17121072D02*
X13626786Y-17092500D01*
X13655357Y-17078214D01*
X13698214Y-17078214D01*
X13726786Y-17092500D01*
X13741071Y-17121072D01*
X13741071Y-17278214D01*
X14326786Y-16963929D02*
X14069643Y-17349643D01*
X14712500Y-16978214D02*
X14741071Y-16978214D01*
X14769643Y-16992500D01*
X14783928Y-17006786D01*
X14798214Y-17035357D01*
X14812500Y-17092500D01*
X14812500Y-17163929D01*
X14798214Y-17221072D01*
X14783928Y-17249643D01*
X14769643Y-17263929D01*
X14741071Y-17278214D01*
X14712500Y-17278214D01*
X14683928Y-17263929D01*
X14669643Y-17249643D01*
X14655357Y-17221072D01*
X14641071Y-17163929D01*
X14641071Y-17092500D01*
X14655357Y-17035357D01*
X14669643Y-17006786D01*
X14683928Y-16992500D01*
X14712500Y-16978214D01*
X14941071Y-17249643D02*
X14955357Y-17263929D01*
X14941071Y-17278214D01*
X14926786Y-17263929D01*
X14941071Y-17249643D01*
X14941071Y-17278214D01*
X15241071Y-17278214D02*
X15069643Y-17278214D01*
X15155357Y-17278214D02*
X15155357Y-16978214D01*
X15126786Y-17021072D01*
X15098214Y-17049643D01*
X15069643Y-17063929D01*
X15341071Y-16978214D02*
X15526786Y-16978214D01*
X15426786Y-17092500D01*
X15469643Y-17092500D01*
X15498214Y-17106786D01*
X15512500Y-17121072D01*
X15526786Y-17149643D01*
X15526786Y-17221072D01*
X15512500Y-17249643D01*
X15498214Y-17263929D01*
X15469643Y-17278214D01*
X15383928Y-17278214D01*
X15355357Y-17263929D01*
X15341071Y-17249643D01*
X15698214Y-17106786D02*
X15669643Y-17092500D01*
X15655357Y-17078214D01*
X15641071Y-17049643D01*
X15641071Y-17035357D01*
X15655357Y-17006786D01*
X15669643Y-16992500D01*
X15698214Y-16978214D01*
X15755357Y-16978214D01*
X15783928Y-16992500D01*
X15798214Y-17006786D01*
X15812500Y-17035357D01*
X15812500Y-17049643D01*
X15798214Y-17078214D01*
X15783928Y-17092500D01*
X15755357Y-17106786D01*
X15698214Y-17106786D01*
X15669643Y-17121072D01*
X15655357Y-17135357D01*
X15641071Y-17163929D01*
X15641071Y-17221072D01*
X15655357Y-17249643D01*
X15669643Y-17263929D01*
X15698214Y-17278214D01*
X15755357Y-17278214D01*
X15783928Y-17263929D01*
X15798214Y-17249643D01*
X15812500Y-17221072D01*
X15812500Y-17163929D01*
X15798214Y-17135357D01*
X15783928Y-17121072D01*
X15755357Y-17106786D01*
X15926786Y-16978214D02*
X15926786Y-17035357D01*
X16041071Y-16978214D02*
X16041071Y-17035357D01*
X16483928Y-17392500D02*
X16469643Y-17378214D01*
X16441071Y-17335357D01*
X16426786Y-17306786D01*
X16412500Y-17263929D01*
X16398214Y-17192500D01*
X16398214Y-17135357D01*
X16412500Y-17063929D01*
X16426786Y-17021072D01*
X16441071Y-16992500D01*
X16469643Y-16949643D01*
X16483928Y-16935357D01*
X16755357Y-17278214D02*
X16583928Y-17278214D01*
X16669643Y-17278214D02*
X16669643Y-16978214D01*
X16641071Y-17021072D01*
X16612500Y-17049643D01*
X16583928Y-17063929D01*
X17112500Y-17278214D02*
X17112500Y-16978214D01*
X17241071Y-17278214D02*
X17241071Y-17121072D01*
X17226786Y-17092500D01*
X17198214Y-17078214D01*
X17155357Y-17078214D01*
X17126786Y-17092500D01*
X17112500Y-17106786D01*
X17426786Y-17278214D02*
X17398214Y-17263929D01*
X17383928Y-17249643D01*
X17369643Y-17221072D01*
X17369643Y-17135357D01*
X17383928Y-17106786D01*
X17398214Y-17092500D01*
X17426786Y-17078214D01*
X17469643Y-17078214D01*
X17498214Y-17092500D01*
X17512500Y-17106786D01*
X17526786Y-17135357D01*
X17526786Y-17221072D01*
X17512500Y-17249643D01*
X17498214Y-17263929D01*
X17469643Y-17278214D01*
X17426786Y-17278214D01*
X17698214Y-17278214D02*
X17669643Y-17263929D01*
X17655357Y-17235357D01*
X17655357Y-16978214D01*
X17926786Y-17263929D02*
X17898214Y-17278214D01*
X17841071Y-17278214D01*
X17812500Y-17263929D01*
X17798214Y-17235357D01*
X17798214Y-17121072D01*
X17812500Y-17092500D01*
X17841071Y-17078214D01*
X17898214Y-17078214D01*
X17926786Y-17092500D01*
X17941071Y-17121072D01*
X17941071Y-17149643D01*
X17798214Y-17178214D01*
X18041071Y-17392500D02*
X18055357Y-17378214D01*
X18083928Y-17335357D01*
X18098214Y-17306786D01*
X18112500Y-17263929D01*
X18126786Y-17192500D01*
X18126786Y-17135357D01*
X18112500Y-17063929D01*
X18098214Y-17021072D01*
X18083928Y-16992500D01*
X18055357Y-16949643D01*
X18041071Y-16935357D01*
M02*
