%FSLAX45Y45*%
G04 Gerber Fmt 4.5, Leading zero omitted, Abs format (unit mm)*
G04 Created by KiCad (PCBNEW (5.1.6-0-10_14)) date 2020-08-23 23:08:51*
%MOMM*%
%LPD*%
G01*
G04 APERTURE LIST*
%TA.AperFunction,Profile*%
%ADD10C,0.050000*%
%TD*%
%ADD11C,0.200000*%
%ADD12C,0.300000*%
G04 APERTURE END LIST*
D10*
X18026000Y-6273800D02*
X10922000Y-6273800D01*
X18026000Y-13800000D02*
X18026000Y-6273800D01*
X10926140Y-13800000D02*
X18026000Y-13800000D01*
X10922000Y-6273800D02*
X10926140Y-13800000D01*
D11*
X14405750Y-12055750D02*
X14494250Y-12144250D01*
X14494250Y-12055750D02*
X14405750Y-12144250D01*
X14905750Y-12055750D02*
X14994250Y-12144250D01*
X14994250Y-12055750D02*
X14905750Y-12144250D01*
X15755750Y-11255750D02*
X15844250Y-11344250D01*
X15844250Y-11255750D02*
X15755750Y-11344250D01*
X16005750Y-10755750D02*
X16094250Y-10844250D01*
X16094250Y-10755750D02*
X16005750Y-10844250D01*
X14405750Y-10913590D02*
X14494250Y-11002090D01*
X14494250Y-10913590D02*
X14405750Y-11002090D01*
X14905750Y-10913590D02*
X14994250Y-11002090D01*
X14994250Y-10913590D02*
X14905750Y-11002090D01*
X15755750Y-12555750D02*
X15844250Y-12644250D01*
X15844250Y-12555750D02*
X15755750Y-12644250D01*
X16005750Y-12055750D02*
X16094250Y-12144250D01*
X16094250Y-12055750D02*
X16005750Y-12144250D01*
X17160000Y-10800000D02*
G75*
G03*
X17160000Y-10800000I-60000J0D01*
G01*
X17160000Y-11300000D02*
G75*
G03*
X17160000Y-11300000I-60000J0D01*
G01*
X17160000Y-11800000D02*
G75*
G03*
X17160000Y-11800000I-60000J0D01*
G01*
X17160000Y-12300000D02*
G75*
G03*
X17160000Y-12300000I-60000J0D01*
G01*
X12857440Y-7738180D02*
X12857440Y-7868180D01*
X12792440Y-7803180D02*
X12922440Y-7803180D01*
X12857440Y-8338180D02*
X12857440Y-8468180D01*
X12792440Y-8403180D02*
X12922440Y-8403180D01*
X12914009Y-11379749D02*
X12914009Y-11266611D01*
X12800871Y-11266611D01*
X12800871Y-11379749D01*
X12914009Y-11379749D01*
X16200000Y-7912500D02*
X16292500Y-7820000D01*
X16200000Y-7727500D01*
X16107500Y-7820000D01*
X16200000Y-7912500D01*
X16200000Y-8792500D02*
X16292500Y-8700000D01*
X16200000Y-8607500D01*
X16107500Y-8700000D01*
X16200000Y-8792500D01*
X16200000Y-9672500D02*
X16292500Y-9580000D01*
X16200000Y-9487500D01*
X16107500Y-9580000D01*
X16200000Y-9672500D01*
X17000000Y-7912500D02*
X17092500Y-7820000D01*
X17000000Y-7727500D01*
X16907500Y-7820000D01*
X17000000Y-7912500D01*
X17000000Y-8792500D02*
X17092500Y-8700000D01*
X17000000Y-8607500D01*
X16907500Y-8700000D01*
X17000000Y-8792500D01*
X17000000Y-9672500D02*
X17092500Y-9580000D01*
X17000000Y-9487500D01*
X16907500Y-9580000D01*
X17000000Y-9672500D01*
X14151000Y-13101000D02*
X14501000Y-13451000D01*
X14501000Y-13101000D02*
X14151000Y-13451000D01*
X14501000Y-13276000D02*
G75*
G03*
X14501000Y-13276000I-175000J0D01*
G01*
X12751000Y-13101000D02*
X13101000Y-13451000D01*
X13101000Y-13101000D02*
X12751000Y-13451000D01*
X13101000Y-13276000D02*
G75*
G03*
X13101000Y-13276000I-175000J0D01*
G01*
D12*
X11205928Y-14268214D02*
X11205928Y-13968214D01*
X11277357Y-13968214D01*
X11320214Y-13982500D01*
X11348786Y-14011071D01*
X11363071Y-14039643D01*
X11377357Y-14096786D01*
X11377357Y-14139643D01*
X11363071Y-14196786D01*
X11348786Y-14225357D01*
X11320214Y-14253929D01*
X11277357Y-14268214D01*
X11205928Y-14268214D01*
X11505928Y-14268214D02*
X11505928Y-14068214D01*
X11505928Y-14125357D02*
X11520214Y-14096786D01*
X11534500Y-14082500D01*
X11563071Y-14068214D01*
X11591643Y-14068214D01*
X11691643Y-14268214D02*
X11691643Y-14068214D01*
X11691643Y-13968214D02*
X11677357Y-13982500D01*
X11691643Y-13996786D01*
X11705928Y-13982500D01*
X11691643Y-13968214D01*
X11691643Y-13996786D01*
X11877357Y-14268214D02*
X11848786Y-14253929D01*
X11834500Y-14225357D01*
X11834500Y-13968214D01*
X12034500Y-14268214D02*
X12005928Y-14253929D01*
X11991643Y-14225357D01*
X11991643Y-13968214D01*
X12377357Y-14268214D02*
X12377357Y-13968214D01*
X12477357Y-14182500D01*
X12577357Y-13968214D01*
X12577357Y-14268214D01*
X12848786Y-14268214D02*
X12848786Y-14111071D01*
X12834500Y-14082500D01*
X12805928Y-14068214D01*
X12748786Y-14068214D01*
X12720214Y-14082500D01*
X12848786Y-14253929D02*
X12820214Y-14268214D01*
X12748786Y-14268214D01*
X12720214Y-14253929D01*
X12705928Y-14225357D01*
X12705928Y-14196786D01*
X12720214Y-14168214D01*
X12748786Y-14153929D01*
X12820214Y-14153929D01*
X12848786Y-14139643D01*
X12991643Y-14068214D02*
X12991643Y-14368214D01*
X12991643Y-14082500D02*
X13020214Y-14068214D01*
X13077357Y-14068214D01*
X13105928Y-14082500D01*
X13120214Y-14096786D01*
X13134500Y-14125357D01*
X13134500Y-14211071D01*
X13120214Y-14239643D01*
X13105928Y-14253929D01*
X13077357Y-14268214D01*
X13020214Y-14268214D01*
X12991643Y-14253929D01*
X13263071Y-14239643D02*
X13277357Y-14253929D01*
X13263071Y-14268214D01*
X13248786Y-14253929D01*
X13263071Y-14239643D01*
X13263071Y-14268214D01*
X13263071Y-14082500D02*
X13277357Y-14096786D01*
X13263071Y-14111071D01*
X13248786Y-14096786D01*
X13263071Y-14082500D01*
X13263071Y-14111071D01*
X10831000Y-14718250D02*
X10919500Y-14806750D01*
X10919500Y-14718250D02*
X10831000Y-14806750D01*
X11263071Y-14598214D02*
X11291643Y-14598214D01*
X11320214Y-14612500D01*
X11334500Y-14626786D01*
X11348786Y-14655357D01*
X11363071Y-14712500D01*
X11363071Y-14783929D01*
X11348786Y-14841071D01*
X11334500Y-14869643D01*
X11320214Y-14883929D01*
X11291643Y-14898214D01*
X11263071Y-14898214D01*
X11234500Y-14883929D01*
X11220214Y-14869643D01*
X11205928Y-14841071D01*
X11191643Y-14783929D01*
X11191643Y-14712500D01*
X11205928Y-14655357D01*
X11220214Y-14626786D01*
X11234500Y-14612500D01*
X11263071Y-14598214D01*
X11491643Y-14869643D02*
X11505928Y-14883929D01*
X11491643Y-14898214D01*
X11477357Y-14883929D01*
X11491643Y-14869643D01*
X11491643Y-14898214D01*
X11677357Y-14726786D02*
X11648786Y-14712500D01*
X11634500Y-14698214D01*
X11620214Y-14669643D01*
X11620214Y-14655357D01*
X11634500Y-14626786D01*
X11648786Y-14612500D01*
X11677357Y-14598214D01*
X11734500Y-14598214D01*
X11763071Y-14612500D01*
X11777357Y-14626786D01*
X11791643Y-14655357D01*
X11791643Y-14669643D01*
X11777357Y-14698214D01*
X11763071Y-14712500D01*
X11734500Y-14726786D01*
X11677357Y-14726786D01*
X11648786Y-14741071D01*
X11634500Y-14755357D01*
X11620214Y-14783929D01*
X11620214Y-14841071D01*
X11634500Y-14869643D01*
X11648786Y-14883929D01*
X11677357Y-14898214D01*
X11734500Y-14898214D01*
X11763071Y-14883929D01*
X11777357Y-14869643D01*
X11791643Y-14841071D01*
X11791643Y-14783929D01*
X11777357Y-14755357D01*
X11763071Y-14741071D01*
X11734500Y-14726786D01*
X11934500Y-14898214D02*
X11991643Y-14898214D01*
X12020214Y-14883929D01*
X12034500Y-14869643D01*
X12063071Y-14826786D01*
X12077357Y-14769643D01*
X12077357Y-14655357D01*
X12063071Y-14626786D01*
X12048786Y-14612500D01*
X12020214Y-14598214D01*
X11963071Y-14598214D01*
X11934500Y-14612500D01*
X11920214Y-14626786D01*
X11905928Y-14655357D01*
X11905928Y-14726786D01*
X11920214Y-14755357D01*
X11934500Y-14769643D01*
X11963071Y-14783929D01*
X12020214Y-14783929D01*
X12048786Y-14769643D01*
X12063071Y-14755357D01*
X12077357Y-14726786D01*
X12205928Y-14898214D02*
X12205928Y-14698214D01*
X12205928Y-14726786D02*
X12220214Y-14712500D01*
X12248786Y-14698214D01*
X12291643Y-14698214D01*
X12320214Y-14712500D01*
X12334500Y-14741071D01*
X12334500Y-14898214D01*
X12334500Y-14741071D02*
X12348786Y-14712500D01*
X12377357Y-14698214D01*
X12420214Y-14698214D01*
X12448786Y-14712500D01*
X12463071Y-14741071D01*
X12463071Y-14898214D01*
X12605928Y-14898214D02*
X12605928Y-14698214D01*
X12605928Y-14726786D02*
X12620214Y-14712500D01*
X12648786Y-14698214D01*
X12691643Y-14698214D01*
X12720214Y-14712500D01*
X12734500Y-14741071D01*
X12734500Y-14898214D01*
X12734500Y-14741071D02*
X12748786Y-14712500D01*
X12777357Y-14698214D01*
X12820214Y-14698214D01*
X12848786Y-14712500D01*
X12863071Y-14741071D01*
X12863071Y-14898214D01*
X13448786Y-14583929D02*
X13191643Y-14969643D01*
X13834500Y-14598214D02*
X13863071Y-14598214D01*
X13891643Y-14612500D01*
X13905928Y-14626786D01*
X13920214Y-14655357D01*
X13934500Y-14712500D01*
X13934500Y-14783929D01*
X13920214Y-14841071D01*
X13905928Y-14869643D01*
X13891643Y-14883929D01*
X13863071Y-14898214D01*
X13834500Y-14898214D01*
X13805928Y-14883929D01*
X13791643Y-14869643D01*
X13777357Y-14841071D01*
X13763071Y-14783929D01*
X13763071Y-14712500D01*
X13777357Y-14655357D01*
X13791643Y-14626786D01*
X13805928Y-14612500D01*
X13834500Y-14598214D01*
X14063071Y-14869643D02*
X14077357Y-14883929D01*
X14063071Y-14898214D01*
X14048786Y-14883929D01*
X14063071Y-14869643D01*
X14063071Y-14898214D01*
X14263071Y-14598214D02*
X14291643Y-14598214D01*
X14320214Y-14612500D01*
X14334500Y-14626786D01*
X14348786Y-14655357D01*
X14363071Y-14712500D01*
X14363071Y-14783929D01*
X14348786Y-14841071D01*
X14334500Y-14869643D01*
X14320214Y-14883929D01*
X14291643Y-14898214D01*
X14263071Y-14898214D01*
X14234500Y-14883929D01*
X14220214Y-14869643D01*
X14205928Y-14841071D01*
X14191643Y-14783929D01*
X14191643Y-14712500D01*
X14205928Y-14655357D01*
X14220214Y-14626786D01*
X14234500Y-14612500D01*
X14263071Y-14598214D01*
X14463071Y-14598214D02*
X14648786Y-14598214D01*
X14548786Y-14712500D01*
X14591643Y-14712500D01*
X14620214Y-14726786D01*
X14634500Y-14741071D01*
X14648786Y-14769643D01*
X14648786Y-14841071D01*
X14634500Y-14869643D01*
X14620214Y-14883929D01*
X14591643Y-14898214D01*
X14505928Y-14898214D01*
X14477357Y-14883929D01*
X14463071Y-14869643D01*
X14920214Y-14598214D02*
X14777357Y-14598214D01*
X14763071Y-14741071D01*
X14777357Y-14726786D01*
X14805928Y-14712500D01*
X14877357Y-14712500D01*
X14905928Y-14726786D01*
X14920214Y-14741071D01*
X14934500Y-14769643D01*
X14934500Y-14841071D01*
X14920214Y-14869643D01*
X14905928Y-14883929D01*
X14877357Y-14898214D01*
X14805928Y-14898214D01*
X14777357Y-14883929D01*
X14763071Y-14869643D01*
X15048786Y-14598214D02*
X15048786Y-14655357D01*
X15163071Y-14598214D02*
X15163071Y-14655357D01*
X15605928Y-15012500D02*
X15591643Y-14998214D01*
X15563071Y-14955357D01*
X15548786Y-14926786D01*
X15534500Y-14883929D01*
X15520214Y-14812500D01*
X15520214Y-14755357D01*
X15534500Y-14683929D01*
X15548786Y-14641071D01*
X15563071Y-14612500D01*
X15591643Y-14569643D01*
X15605928Y-14555357D01*
X15763071Y-14726786D02*
X15734500Y-14712500D01*
X15720214Y-14698214D01*
X15705928Y-14669643D01*
X15705928Y-14655357D01*
X15720214Y-14626786D01*
X15734500Y-14612500D01*
X15763071Y-14598214D01*
X15820214Y-14598214D01*
X15848786Y-14612500D01*
X15863071Y-14626786D01*
X15877357Y-14655357D01*
X15877357Y-14669643D01*
X15863071Y-14698214D01*
X15848786Y-14712500D01*
X15820214Y-14726786D01*
X15763071Y-14726786D01*
X15734500Y-14741071D01*
X15720214Y-14755357D01*
X15705928Y-14783929D01*
X15705928Y-14841071D01*
X15720214Y-14869643D01*
X15734500Y-14883929D01*
X15763071Y-14898214D01*
X15820214Y-14898214D01*
X15848786Y-14883929D01*
X15863071Y-14869643D01*
X15877357Y-14841071D01*
X15877357Y-14783929D01*
X15863071Y-14755357D01*
X15848786Y-14741071D01*
X15820214Y-14726786D01*
X16234500Y-14898214D02*
X16234500Y-14598214D01*
X16363071Y-14898214D02*
X16363071Y-14741071D01*
X16348786Y-14712500D01*
X16320214Y-14698214D01*
X16277357Y-14698214D01*
X16248786Y-14712500D01*
X16234500Y-14726786D01*
X16548786Y-14898214D02*
X16520214Y-14883929D01*
X16505928Y-14869643D01*
X16491643Y-14841071D01*
X16491643Y-14755357D01*
X16505928Y-14726786D01*
X16520214Y-14712500D01*
X16548786Y-14698214D01*
X16591643Y-14698214D01*
X16620214Y-14712500D01*
X16634500Y-14726786D01*
X16648786Y-14755357D01*
X16648786Y-14841071D01*
X16634500Y-14869643D01*
X16620214Y-14883929D01*
X16591643Y-14898214D01*
X16548786Y-14898214D01*
X16820214Y-14898214D02*
X16791643Y-14883929D01*
X16777357Y-14855357D01*
X16777357Y-14598214D01*
X17048786Y-14883929D02*
X17020214Y-14898214D01*
X16963071Y-14898214D01*
X16934500Y-14883929D01*
X16920214Y-14855357D01*
X16920214Y-14741071D01*
X16934500Y-14712500D01*
X16963071Y-14698214D01*
X17020214Y-14698214D01*
X17048786Y-14712500D01*
X17063071Y-14741071D01*
X17063071Y-14769643D01*
X16920214Y-14798214D01*
X17177357Y-14883929D02*
X17205928Y-14898214D01*
X17263071Y-14898214D01*
X17291643Y-14883929D01*
X17305928Y-14855357D01*
X17305928Y-14841071D01*
X17291643Y-14812500D01*
X17263071Y-14798214D01*
X17220214Y-14798214D01*
X17191643Y-14783929D01*
X17177357Y-14755357D01*
X17177357Y-14741071D01*
X17191643Y-14712500D01*
X17220214Y-14698214D01*
X17263071Y-14698214D01*
X17291643Y-14712500D01*
X17405928Y-15012500D02*
X17420214Y-14998214D01*
X17448786Y-14955357D01*
X17463071Y-14926786D01*
X17477357Y-14883929D01*
X17491643Y-14812500D01*
X17491643Y-14755357D01*
X17477357Y-14683929D01*
X17463071Y-14641071D01*
X17448786Y-14612500D01*
X17420214Y-14569643D01*
X17405928Y-14555357D01*
X10919500Y-15158500D02*
G75*
G03*
X10919500Y-15158500I-60000J0D01*
G01*
X11363071Y-15294214D02*
X11191643Y-15294214D01*
X11277357Y-15294214D02*
X11277357Y-14994214D01*
X11248786Y-15037071D01*
X11220214Y-15065643D01*
X11191643Y-15079929D01*
X11491643Y-15265643D02*
X11505928Y-15279929D01*
X11491643Y-15294214D01*
X11477357Y-15279929D01*
X11491643Y-15265643D01*
X11491643Y-15294214D01*
X11620214Y-15022786D02*
X11634500Y-15008500D01*
X11663071Y-14994214D01*
X11734500Y-14994214D01*
X11763071Y-15008500D01*
X11777357Y-15022786D01*
X11791643Y-15051357D01*
X11791643Y-15079929D01*
X11777357Y-15122786D01*
X11605928Y-15294214D01*
X11791643Y-15294214D01*
X11977357Y-14994214D02*
X12005928Y-14994214D01*
X12034500Y-15008500D01*
X12048786Y-15022786D01*
X12063071Y-15051357D01*
X12077357Y-15108500D01*
X12077357Y-15179929D01*
X12063071Y-15237071D01*
X12048786Y-15265643D01*
X12034500Y-15279929D01*
X12005928Y-15294214D01*
X11977357Y-15294214D01*
X11948786Y-15279929D01*
X11934500Y-15265643D01*
X11920214Y-15237071D01*
X11905928Y-15179929D01*
X11905928Y-15108500D01*
X11920214Y-15051357D01*
X11934500Y-15022786D01*
X11948786Y-15008500D01*
X11977357Y-14994214D01*
X12205928Y-15294214D02*
X12205928Y-15094214D01*
X12205928Y-15122786D02*
X12220214Y-15108500D01*
X12248786Y-15094214D01*
X12291643Y-15094214D01*
X12320214Y-15108500D01*
X12334500Y-15137071D01*
X12334500Y-15294214D01*
X12334500Y-15137071D02*
X12348786Y-15108500D01*
X12377357Y-15094214D01*
X12420214Y-15094214D01*
X12448786Y-15108500D01*
X12463071Y-15137071D01*
X12463071Y-15294214D01*
X12605928Y-15294214D02*
X12605928Y-15094214D01*
X12605928Y-15122786D02*
X12620214Y-15108500D01*
X12648786Y-15094214D01*
X12691643Y-15094214D01*
X12720214Y-15108500D01*
X12734500Y-15137071D01*
X12734500Y-15294214D01*
X12734500Y-15137071D02*
X12748786Y-15108500D01*
X12777357Y-15094214D01*
X12820214Y-15094214D01*
X12848786Y-15108500D01*
X12863071Y-15137071D01*
X12863071Y-15294214D01*
X13448786Y-14979929D02*
X13191643Y-15365643D01*
X13834500Y-14994214D02*
X13863071Y-14994214D01*
X13891643Y-15008500D01*
X13905928Y-15022786D01*
X13920214Y-15051357D01*
X13934500Y-15108500D01*
X13934500Y-15179929D01*
X13920214Y-15237071D01*
X13905928Y-15265643D01*
X13891643Y-15279929D01*
X13863071Y-15294214D01*
X13834500Y-15294214D01*
X13805928Y-15279929D01*
X13791643Y-15265643D01*
X13777357Y-15237071D01*
X13763071Y-15179929D01*
X13763071Y-15108500D01*
X13777357Y-15051357D01*
X13791643Y-15022786D01*
X13805928Y-15008500D01*
X13834500Y-14994214D01*
X14063071Y-15265643D02*
X14077357Y-15279929D01*
X14063071Y-15294214D01*
X14048786Y-15279929D01*
X14063071Y-15265643D01*
X14063071Y-15294214D01*
X14263071Y-14994214D02*
X14291643Y-14994214D01*
X14320214Y-15008500D01*
X14334500Y-15022786D01*
X14348786Y-15051357D01*
X14363071Y-15108500D01*
X14363071Y-15179929D01*
X14348786Y-15237071D01*
X14334500Y-15265643D01*
X14320214Y-15279929D01*
X14291643Y-15294214D01*
X14263071Y-15294214D01*
X14234500Y-15279929D01*
X14220214Y-15265643D01*
X14205928Y-15237071D01*
X14191643Y-15179929D01*
X14191643Y-15108500D01*
X14205928Y-15051357D01*
X14220214Y-15022786D01*
X14234500Y-15008500D01*
X14263071Y-14994214D01*
X14620214Y-15094214D02*
X14620214Y-15294214D01*
X14548786Y-14979929D02*
X14477357Y-15194214D01*
X14663071Y-15194214D01*
X14748786Y-14994214D02*
X14948786Y-14994214D01*
X14820214Y-15294214D01*
X15048786Y-14994214D02*
X15048786Y-15051357D01*
X15163071Y-14994214D02*
X15163071Y-15051357D01*
X15605928Y-15408500D02*
X15591643Y-15394214D01*
X15563071Y-15351357D01*
X15548786Y-15322786D01*
X15534500Y-15279929D01*
X15520214Y-15208500D01*
X15520214Y-15151357D01*
X15534500Y-15079929D01*
X15548786Y-15037071D01*
X15563071Y-15008500D01*
X15591643Y-14965643D01*
X15605928Y-14951357D01*
X15848786Y-15094214D02*
X15848786Y-15294214D01*
X15777357Y-14979929D02*
X15705928Y-15194214D01*
X15891643Y-15194214D01*
X16234500Y-15294214D02*
X16234500Y-14994214D01*
X16363071Y-15294214D02*
X16363071Y-15137071D01*
X16348786Y-15108500D01*
X16320214Y-15094214D01*
X16277357Y-15094214D01*
X16248786Y-15108500D01*
X16234500Y-15122786D01*
X16548786Y-15294214D02*
X16520214Y-15279929D01*
X16505928Y-15265643D01*
X16491643Y-15237071D01*
X16491643Y-15151357D01*
X16505928Y-15122786D01*
X16520214Y-15108500D01*
X16548786Y-15094214D01*
X16591643Y-15094214D01*
X16620214Y-15108500D01*
X16634500Y-15122786D01*
X16648786Y-15151357D01*
X16648786Y-15237071D01*
X16634500Y-15265643D01*
X16620214Y-15279929D01*
X16591643Y-15294214D01*
X16548786Y-15294214D01*
X16820214Y-15294214D02*
X16791643Y-15279929D01*
X16777357Y-15251357D01*
X16777357Y-14994214D01*
X17048786Y-15279929D02*
X17020214Y-15294214D01*
X16963071Y-15294214D01*
X16934500Y-15279929D01*
X16920214Y-15251357D01*
X16920214Y-15137071D01*
X16934500Y-15108500D01*
X16963071Y-15094214D01*
X17020214Y-15094214D01*
X17048786Y-15108500D01*
X17063071Y-15137071D01*
X17063071Y-15165643D01*
X16920214Y-15194214D01*
X17177357Y-15279929D02*
X17205928Y-15294214D01*
X17263071Y-15294214D01*
X17291643Y-15279929D01*
X17305928Y-15251357D01*
X17305928Y-15237071D01*
X17291643Y-15208500D01*
X17263071Y-15194214D01*
X17220214Y-15194214D01*
X17191643Y-15179929D01*
X17177357Y-15151357D01*
X17177357Y-15137071D01*
X17191643Y-15108500D01*
X17220214Y-15094214D01*
X17263071Y-15094214D01*
X17291643Y-15108500D01*
X17405928Y-15408500D02*
X17420214Y-15394214D01*
X17448786Y-15351357D01*
X17463071Y-15322786D01*
X17477357Y-15279929D01*
X17491643Y-15208500D01*
X17491643Y-15151357D01*
X17477357Y-15079929D01*
X17463071Y-15037071D01*
X17448786Y-15008500D01*
X17420214Y-14965643D01*
X17405928Y-14951357D01*
X10854500Y-15489500D02*
X10854500Y-15619500D01*
X10789500Y-15554500D02*
X10919500Y-15554500D01*
X11363071Y-15690214D02*
X11191643Y-15690214D01*
X11277357Y-15690214D02*
X11277357Y-15390214D01*
X11248786Y-15433071D01*
X11220214Y-15461643D01*
X11191643Y-15475929D01*
X11491643Y-15661643D02*
X11505928Y-15675929D01*
X11491643Y-15690214D01*
X11477357Y-15675929D01*
X11491643Y-15661643D01*
X11491643Y-15690214D01*
X11605928Y-15390214D02*
X11791643Y-15390214D01*
X11691643Y-15504500D01*
X11734500Y-15504500D01*
X11763071Y-15518786D01*
X11777357Y-15533071D01*
X11791643Y-15561643D01*
X11791643Y-15633071D01*
X11777357Y-15661643D01*
X11763071Y-15675929D01*
X11734500Y-15690214D01*
X11648786Y-15690214D01*
X11620214Y-15675929D01*
X11605928Y-15661643D01*
X11977357Y-15390214D02*
X12005928Y-15390214D01*
X12034500Y-15404500D01*
X12048786Y-15418786D01*
X12063071Y-15447357D01*
X12077357Y-15504500D01*
X12077357Y-15575929D01*
X12063071Y-15633071D01*
X12048786Y-15661643D01*
X12034500Y-15675929D01*
X12005928Y-15690214D01*
X11977357Y-15690214D01*
X11948786Y-15675929D01*
X11934500Y-15661643D01*
X11920214Y-15633071D01*
X11905928Y-15575929D01*
X11905928Y-15504500D01*
X11920214Y-15447357D01*
X11934500Y-15418786D01*
X11948786Y-15404500D01*
X11977357Y-15390214D01*
X12205928Y-15690214D02*
X12205928Y-15490214D01*
X12205928Y-15518786D02*
X12220214Y-15504500D01*
X12248786Y-15490214D01*
X12291643Y-15490214D01*
X12320214Y-15504500D01*
X12334500Y-15533071D01*
X12334500Y-15690214D01*
X12334500Y-15533071D02*
X12348786Y-15504500D01*
X12377357Y-15490214D01*
X12420214Y-15490214D01*
X12448786Y-15504500D01*
X12463071Y-15533071D01*
X12463071Y-15690214D01*
X12605928Y-15690214D02*
X12605928Y-15490214D01*
X12605928Y-15518786D02*
X12620214Y-15504500D01*
X12648786Y-15490214D01*
X12691643Y-15490214D01*
X12720214Y-15504500D01*
X12734500Y-15533071D01*
X12734500Y-15690214D01*
X12734500Y-15533071D02*
X12748786Y-15504500D01*
X12777357Y-15490214D01*
X12820214Y-15490214D01*
X12848786Y-15504500D01*
X12863071Y-15533071D01*
X12863071Y-15690214D01*
X13448786Y-15375929D02*
X13191643Y-15761643D01*
X13834500Y-15390214D02*
X13863071Y-15390214D01*
X13891643Y-15404500D01*
X13905928Y-15418786D01*
X13920214Y-15447357D01*
X13934500Y-15504500D01*
X13934500Y-15575929D01*
X13920214Y-15633071D01*
X13905928Y-15661643D01*
X13891643Y-15675929D01*
X13863071Y-15690214D01*
X13834500Y-15690214D01*
X13805928Y-15675929D01*
X13791643Y-15661643D01*
X13777357Y-15633071D01*
X13763071Y-15575929D01*
X13763071Y-15504500D01*
X13777357Y-15447357D01*
X13791643Y-15418786D01*
X13805928Y-15404500D01*
X13834500Y-15390214D01*
X14063071Y-15661643D02*
X14077357Y-15675929D01*
X14063071Y-15690214D01*
X14048786Y-15675929D01*
X14063071Y-15661643D01*
X14063071Y-15690214D01*
X14263071Y-15390214D02*
X14291643Y-15390214D01*
X14320214Y-15404500D01*
X14334500Y-15418786D01*
X14348786Y-15447357D01*
X14363071Y-15504500D01*
X14363071Y-15575929D01*
X14348786Y-15633071D01*
X14334500Y-15661643D01*
X14320214Y-15675929D01*
X14291643Y-15690214D01*
X14263071Y-15690214D01*
X14234500Y-15675929D01*
X14220214Y-15661643D01*
X14205928Y-15633071D01*
X14191643Y-15575929D01*
X14191643Y-15504500D01*
X14205928Y-15447357D01*
X14220214Y-15418786D01*
X14234500Y-15404500D01*
X14263071Y-15390214D01*
X14634500Y-15390214D02*
X14491643Y-15390214D01*
X14477357Y-15533071D01*
X14491643Y-15518786D01*
X14520214Y-15504500D01*
X14591643Y-15504500D01*
X14620214Y-15518786D01*
X14634500Y-15533071D01*
X14648786Y-15561643D01*
X14648786Y-15633071D01*
X14634500Y-15661643D01*
X14620214Y-15675929D01*
X14591643Y-15690214D01*
X14520214Y-15690214D01*
X14491643Y-15675929D01*
X14477357Y-15661643D01*
X14934500Y-15690214D02*
X14763071Y-15690214D01*
X14848786Y-15690214D02*
X14848786Y-15390214D01*
X14820214Y-15433071D01*
X14791643Y-15461643D01*
X14763071Y-15475929D01*
X15048786Y-15390214D02*
X15048786Y-15447357D01*
X15163071Y-15390214D02*
X15163071Y-15447357D01*
X15605928Y-15804500D02*
X15591643Y-15790214D01*
X15563071Y-15747357D01*
X15548786Y-15718786D01*
X15534500Y-15675929D01*
X15520214Y-15604500D01*
X15520214Y-15547357D01*
X15534500Y-15475929D01*
X15548786Y-15433071D01*
X15563071Y-15404500D01*
X15591643Y-15361643D01*
X15605928Y-15347357D01*
X15705928Y-15418786D02*
X15720214Y-15404500D01*
X15748786Y-15390214D01*
X15820214Y-15390214D01*
X15848786Y-15404500D01*
X15863071Y-15418786D01*
X15877357Y-15447357D01*
X15877357Y-15475929D01*
X15863071Y-15518786D01*
X15691643Y-15690214D01*
X15877357Y-15690214D01*
X16234500Y-15690214D02*
X16234500Y-15390214D01*
X16363071Y-15690214D02*
X16363071Y-15533071D01*
X16348786Y-15504500D01*
X16320214Y-15490214D01*
X16277357Y-15490214D01*
X16248786Y-15504500D01*
X16234500Y-15518786D01*
X16548786Y-15690214D02*
X16520214Y-15675929D01*
X16505928Y-15661643D01*
X16491643Y-15633071D01*
X16491643Y-15547357D01*
X16505928Y-15518786D01*
X16520214Y-15504500D01*
X16548786Y-15490214D01*
X16591643Y-15490214D01*
X16620214Y-15504500D01*
X16634500Y-15518786D01*
X16648786Y-15547357D01*
X16648786Y-15633071D01*
X16634500Y-15661643D01*
X16620214Y-15675929D01*
X16591643Y-15690214D01*
X16548786Y-15690214D01*
X16820214Y-15690214D02*
X16791643Y-15675929D01*
X16777357Y-15647357D01*
X16777357Y-15390214D01*
X17048786Y-15675929D02*
X17020214Y-15690214D01*
X16963071Y-15690214D01*
X16934500Y-15675929D01*
X16920214Y-15647357D01*
X16920214Y-15533071D01*
X16934500Y-15504500D01*
X16963071Y-15490214D01*
X17020214Y-15490214D01*
X17048786Y-15504500D01*
X17063071Y-15533071D01*
X17063071Y-15561643D01*
X16920214Y-15590214D01*
X17177357Y-15675929D02*
X17205928Y-15690214D01*
X17263071Y-15690214D01*
X17291643Y-15675929D01*
X17305928Y-15647357D01*
X17305928Y-15633071D01*
X17291643Y-15604500D01*
X17263071Y-15590214D01*
X17220214Y-15590214D01*
X17191643Y-15575929D01*
X17177357Y-15547357D01*
X17177357Y-15533071D01*
X17191643Y-15504500D01*
X17220214Y-15490214D01*
X17263071Y-15490214D01*
X17291643Y-15504500D01*
X17405928Y-15804500D02*
X17420214Y-15790214D01*
X17448786Y-15747357D01*
X17463071Y-15718786D01*
X17477357Y-15675929D01*
X17491643Y-15604500D01*
X17491643Y-15547357D01*
X17477357Y-15475929D01*
X17463071Y-15433071D01*
X17448786Y-15404500D01*
X17420214Y-15361643D01*
X17405928Y-15347357D01*
X10896069Y-16007069D02*
X10896069Y-15893931D01*
X10782931Y-15893931D01*
X10782931Y-16007069D01*
X10896069Y-16007069D01*
X11363071Y-16086214D02*
X11191643Y-16086214D01*
X11277357Y-16086214D02*
X11277357Y-15786214D01*
X11248786Y-15829071D01*
X11220214Y-15857643D01*
X11191643Y-15871929D01*
X11491643Y-16057643D02*
X11505928Y-16071929D01*
X11491643Y-16086214D01*
X11477357Y-16071929D01*
X11491643Y-16057643D01*
X11491643Y-16086214D01*
X11763071Y-15786214D02*
X11705928Y-15786214D01*
X11677357Y-15800500D01*
X11663071Y-15814786D01*
X11634500Y-15857643D01*
X11620214Y-15914786D01*
X11620214Y-16029071D01*
X11634500Y-16057643D01*
X11648786Y-16071929D01*
X11677357Y-16086214D01*
X11734500Y-16086214D01*
X11763071Y-16071929D01*
X11777357Y-16057643D01*
X11791643Y-16029071D01*
X11791643Y-15957643D01*
X11777357Y-15929071D01*
X11763071Y-15914786D01*
X11734500Y-15900500D01*
X11677357Y-15900500D01*
X11648786Y-15914786D01*
X11634500Y-15929071D01*
X11620214Y-15957643D01*
X11977357Y-15786214D02*
X12005928Y-15786214D01*
X12034500Y-15800500D01*
X12048786Y-15814786D01*
X12063071Y-15843357D01*
X12077357Y-15900500D01*
X12077357Y-15971929D01*
X12063071Y-16029071D01*
X12048786Y-16057643D01*
X12034500Y-16071929D01*
X12005928Y-16086214D01*
X11977357Y-16086214D01*
X11948786Y-16071929D01*
X11934500Y-16057643D01*
X11920214Y-16029071D01*
X11905928Y-15971929D01*
X11905928Y-15900500D01*
X11920214Y-15843357D01*
X11934500Y-15814786D01*
X11948786Y-15800500D01*
X11977357Y-15786214D01*
X12205928Y-16086214D02*
X12205928Y-15886214D01*
X12205928Y-15914786D02*
X12220214Y-15900500D01*
X12248786Y-15886214D01*
X12291643Y-15886214D01*
X12320214Y-15900500D01*
X12334500Y-15929071D01*
X12334500Y-16086214D01*
X12334500Y-15929071D02*
X12348786Y-15900500D01*
X12377357Y-15886214D01*
X12420214Y-15886214D01*
X12448786Y-15900500D01*
X12463071Y-15929071D01*
X12463071Y-16086214D01*
X12605928Y-16086214D02*
X12605928Y-15886214D01*
X12605928Y-15914786D02*
X12620214Y-15900500D01*
X12648786Y-15886214D01*
X12691643Y-15886214D01*
X12720214Y-15900500D01*
X12734500Y-15929071D01*
X12734500Y-16086214D01*
X12734500Y-15929071D02*
X12748786Y-15900500D01*
X12777357Y-15886214D01*
X12820214Y-15886214D01*
X12848786Y-15900500D01*
X12863071Y-15929071D01*
X12863071Y-16086214D01*
X13448786Y-15771929D02*
X13191643Y-16157643D01*
X13834500Y-15786214D02*
X13863071Y-15786214D01*
X13891643Y-15800500D01*
X13905928Y-15814786D01*
X13920214Y-15843357D01*
X13934500Y-15900500D01*
X13934500Y-15971929D01*
X13920214Y-16029071D01*
X13905928Y-16057643D01*
X13891643Y-16071929D01*
X13863071Y-16086214D01*
X13834500Y-16086214D01*
X13805928Y-16071929D01*
X13791643Y-16057643D01*
X13777357Y-16029071D01*
X13763071Y-15971929D01*
X13763071Y-15900500D01*
X13777357Y-15843357D01*
X13791643Y-15814786D01*
X13805928Y-15800500D01*
X13834500Y-15786214D01*
X14063071Y-16057643D02*
X14077357Y-16071929D01*
X14063071Y-16086214D01*
X14048786Y-16071929D01*
X14063071Y-16057643D01*
X14063071Y-16086214D01*
X14263071Y-15786214D02*
X14291643Y-15786214D01*
X14320214Y-15800500D01*
X14334500Y-15814786D01*
X14348786Y-15843357D01*
X14363071Y-15900500D01*
X14363071Y-15971929D01*
X14348786Y-16029071D01*
X14334500Y-16057643D01*
X14320214Y-16071929D01*
X14291643Y-16086214D01*
X14263071Y-16086214D01*
X14234500Y-16071929D01*
X14220214Y-16057643D01*
X14205928Y-16029071D01*
X14191643Y-15971929D01*
X14191643Y-15900500D01*
X14205928Y-15843357D01*
X14220214Y-15814786D01*
X14234500Y-15800500D01*
X14263071Y-15786214D01*
X14620214Y-15786214D02*
X14563071Y-15786214D01*
X14534500Y-15800500D01*
X14520214Y-15814786D01*
X14491643Y-15857643D01*
X14477357Y-15914786D01*
X14477357Y-16029071D01*
X14491643Y-16057643D01*
X14505928Y-16071929D01*
X14534500Y-16086214D01*
X14591643Y-16086214D01*
X14620214Y-16071929D01*
X14634500Y-16057643D01*
X14648786Y-16029071D01*
X14648786Y-15957643D01*
X14634500Y-15929071D01*
X14620214Y-15914786D01*
X14591643Y-15900500D01*
X14534500Y-15900500D01*
X14505928Y-15914786D01*
X14491643Y-15929071D01*
X14477357Y-15957643D01*
X14748786Y-15786214D02*
X14934500Y-15786214D01*
X14834500Y-15900500D01*
X14877357Y-15900500D01*
X14905928Y-15914786D01*
X14920214Y-15929071D01*
X14934500Y-15957643D01*
X14934500Y-16029071D01*
X14920214Y-16057643D01*
X14905928Y-16071929D01*
X14877357Y-16086214D01*
X14791643Y-16086214D01*
X14763071Y-16071929D01*
X14748786Y-16057643D01*
X15048786Y-15786214D02*
X15048786Y-15843357D01*
X15163071Y-15786214D02*
X15163071Y-15843357D01*
X15605928Y-16200500D02*
X15591643Y-16186214D01*
X15563071Y-16143357D01*
X15548786Y-16114786D01*
X15534500Y-16071929D01*
X15520214Y-16000500D01*
X15520214Y-15943357D01*
X15534500Y-15871929D01*
X15548786Y-15829071D01*
X15563071Y-15800500D01*
X15591643Y-15757643D01*
X15605928Y-15743357D01*
X15877357Y-16086214D02*
X15705928Y-16086214D01*
X15791643Y-16086214D02*
X15791643Y-15786214D01*
X15763071Y-15829071D01*
X15734500Y-15857643D01*
X15705928Y-15871929D01*
X16234500Y-16086214D02*
X16234500Y-15786214D01*
X16363071Y-16086214D02*
X16363071Y-15929071D01*
X16348786Y-15900500D01*
X16320214Y-15886214D01*
X16277357Y-15886214D01*
X16248786Y-15900500D01*
X16234500Y-15914786D01*
X16548786Y-16086214D02*
X16520214Y-16071929D01*
X16505928Y-16057643D01*
X16491643Y-16029071D01*
X16491643Y-15943357D01*
X16505928Y-15914786D01*
X16520214Y-15900500D01*
X16548786Y-15886214D01*
X16591643Y-15886214D01*
X16620214Y-15900500D01*
X16634500Y-15914786D01*
X16648786Y-15943357D01*
X16648786Y-16029071D01*
X16634500Y-16057643D01*
X16620214Y-16071929D01*
X16591643Y-16086214D01*
X16548786Y-16086214D01*
X16820214Y-16086214D02*
X16791643Y-16071929D01*
X16777357Y-16043357D01*
X16777357Y-15786214D01*
X17048786Y-16071929D02*
X17020214Y-16086214D01*
X16963071Y-16086214D01*
X16934500Y-16071929D01*
X16920214Y-16043357D01*
X16920214Y-15929071D01*
X16934500Y-15900500D01*
X16963071Y-15886214D01*
X17020214Y-15886214D01*
X17048786Y-15900500D01*
X17063071Y-15929071D01*
X17063071Y-15957643D01*
X16920214Y-15986214D01*
X17163071Y-16200500D02*
X17177357Y-16186214D01*
X17205928Y-16143357D01*
X17220214Y-16114786D01*
X17234500Y-16071929D01*
X17248786Y-16000500D01*
X17248786Y-15943357D01*
X17234500Y-15871929D01*
X17220214Y-15829071D01*
X17205928Y-15800500D01*
X17177357Y-15757643D01*
X17163071Y-15743357D01*
X10827000Y-16439000D02*
X10919500Y-16346500D01*
X10827000Y-16254000D01*
X10734500Y-16346500D01*
X10827000Y-16439000D01*
X11363071Y-16482214D02*
X11191643Y-16482214D01*
X11277357Y-16482214D02*
X11277357Y-16182214D01*
X11248786Y-16225071D01*
X11220214Y-16253643D01*
X11191643Y-16267929D01*
X11491643Y-16453643D02*
X11505928Y-16467929D01*
X11491643Y-16482214D01*
X11477357Y-16467929D01*
X11491643Y-16453643D01*
X11491643Y-16482214D01*
X11677357Y-16310786D02*
X11648786Y-16296500D01*
X11634500Y-16282214D01*
X11620214Y-16253643D01*
X11620214Y-16239357D01*
X11634500Y-16210786D01*
X11648786Y-16196500D01*
X11677357Y-16182214D01*
X11734500Y-16182214D01*
X11763071Y-16196500D01*
X11777357Y-16210786D01*
X11791643Y-16239357D01*
X11791643Y-16253643D01*
X11777357Y-16282214D01*
X11763071Y-16296500D01*
X11734500Y-16310786D01*
X11677357Y-16310786D01*
X11648786Y-16325071D01*
X11634500Y-16339357D01*
X11620214Y-16367929D01*
X11620214Y-16425071D01*
X11634500Y-16453643D01*
X11648786Y-16467929D01*
X11677357Y-16482214D01*
X11734500Y-16482214D01*
X11763071Y-16467929D01*
X11777357Y-16453643D01*
X11791643Y-16425071D01*
X11791643Y-16367929D01*
X11777357Y-16339357D01*
X11763071Y-16325071D01*
X11734500Y-16310786D01*
X12063071Y-16182214D02*
X11920214Y-16182214D01*
X11905928Y-16325071D01*
X11920214Y-16310786D01*
X11948786Y-16296500D01*
X12020214Y-16296500D01*
X12048786Y-16310786D01*
X12063071Y-16325071D01*
X12077357Y-16353643D01*
X12077357Y-16425071D01*
X12063071Y-16453643D01*
X12048786Y-16467929D01*
X12020214Y-16482214D01*
X11948786Y-16482214D01*
X11920214Y-16467929D01*
X11905928Y-16453643D01*
X12205928Y-16482214D02*
X12205928Y-16282214D01*
X12205928Y-16310786D02*
X12220214Y-16296500D01*
X12248786Y-16282214D01*
X12291643Y-16282214D01*
X12320214Y-16296500D01*
X12334500Y-16325071D01*
X12334500Y-16482214D01*
X12334500Y-16325071D02*
X12348786Y-16296500D01*
X12377357Y-16282214D01*
X12420214Y-16282214D01*
X12448786Y-16296500D01*
X12463071Y-16325071D01*
X12463071Y-16482214D01*
X12605928Y-16482214D02*
X12605928Y-16282214D01*
X12605928Y-16310786D02*
X12620214Y-16296500D01*
X12648786Y-16282214D01*
X12691643Y-16282214D01*
X12720214Y-16296500D01*
X12734500Y-16325071D01*
X12734500Y-16482214D01*
X12734500Y-16325071D02*
X12748786Y-16296500D01*
X12777357Y-16282214D01*
X12820214Y-16282214D01*
X12848786Y-16296500D01*
X12863071Y-16325071D01*
X12863071Y-16482214D01*
X13448786Y-16167929D02*
X13191643Y-16553643D01*
X13834500Y-16182214D02*
X13863071Y-16182214D01*
X13891643Y-16196500D01*
X13905928Y-16210786D01*
X13920214Y-16239357D01*
X13934500Y-16296500D01*
X13934500Y-16367929D01*
X13920214Y-16425071D01*
X13905928Y-16453643D01*
X13891643Y-16467929D01*
X13863071Y-16482214D01*
X13834500Y-16482214D01*
X13805928Y-16467929D01*
X13791643Y-16453643D01*
X13777357Y-16425071D01*
X13763071Y-16367929D01*
X13763071Y-16296500D01*
X13777357Y-16239357D01*
X13791643Y-16210786D01*
X13805928Y-16196500D01*
X13834500Y-16182214D01*
X14063071Y-16453643D02*
X14077357Y-16467929D01*
X14063071Y-16482214D01*
X14048786Y-16467929D01*
X14063071Y-16453643D01*
X14063071Y-16482214D01*
X14263071Y-16182214D02*
X14291643Y-16182214D01*
X14320214Y-16196500D01*
X14334500Y-16210786D01*
X14348786Y-16239357D01*
X14363071Y-16296500D01*
X14363071Y-16367929D01*
X14348786Y-16425071D01*
X14334500Y-16453643D01*
X14320214Y-16467929D01*
X14291643Y-16482214D01*
X14263071Y-16482214D01*
X14234500Y-16467929D01*
X14220214Y-16453643D01*
X14205928Y-16425071D01*
X14191643Y-16367929D01*
X14191643Y-16296500D01*
X14205928Y-16239357D01*
X14220214Y-16210786D01*
X14234500Y-16196500D01*
X14263071Y-16182214D01*
X14463071Y-16182214D02*
X14663071Y-16182214D01*
X14534500Y-16482214D01*
X14748786Y-16182214D02*
X14934500Y-16182214D01*
X14834500Y-16296500D01*
X14877357Y-16296500D01*
X14905928Y-16310786D01*
X14920214Y-16325071D01*
X14934500Y-16353643D01*
X14934500Y-16425071D01*
X14920214Y-16453643D01*
X14905928Y-16467929D01*
X14877357Y-16482214D01*
X14791643Y-16482214D01*
X14763071Y-16467929D01*
X14748786Y-16453643D01*
X15048786Y-16182214D02*
X15048786Y-16239357D01*
X15163071Y-16182214D02*
X15163071Y-16239357D01*
X15605928Y-16596500D02*
X15591643Y-16582214D01*
X15563071Y-16539357D01*
X15548786Y-16510786D01*
X15534500Y-16467929D01*
X15520214Y-16396500D01*
X15520214Y-16339357D01*
X15534500Y-16267929D01*
X15548786Y-16225071D01*
X15563071Y-16196500D01*
X15591643Y-16153643D01*
X15605928Y-16139357D01*
X15848786Y-16182214D02*
X15791643Y-16182214D01*
X15763071Y-16196500D01*
X15748786Y-16210786D01*
X15720214Y-16253643D01*
X15705928Y-16310786D01*
X15705928Y-16425071D01*
X15720214Y-16453643D01*
X15734500Y-16467929D01*
X15763071Y-16482214D01*
X15820214Y-16482214D01*
X15848786Y-16467929D01*
X15863071Y-16453643D01*
X15877357Y-16425071D01*
X15877357Y-16353643D01*
X15863071Y-16325071D01*
X15848786Y-16310786D01*
X15820214Y-16296500D01*
X15763071Y-16296500D01*
X15734500Y-16310786D01*
X15720214Y-16325071D01*
X15705928Y-16353643D01*
X16234500Y-16482214D02*
X16234500Y-16182214D01*
X16363071Y-16482214D02*
X16363071Y-16325071D01*
X16348786Y-16296500D01*
X16320214Y-16282214D01*
X16277357Y-16282214D01*
X16248786Y-16296500D01*
X16234500Y-16310786D01*
X16548786Y-16482214D02*
X16520214Y-16467929D01*
X16505928Y-16453643D01*
X16491643Y-16425071D01*
X16491643Y-16339357D01*
X16505928Y-16310786D01*
X16520214Y-16296500D01*
X16548786Y-16282214D01*
X16591643Y-16282214D01*
X16620214Y-16296500D01*
X16634500Y-16310786D01*
X16648786Y-16339357D01*
X16648786Y-16425071D01*
X16634500Y-16453643D01*
X16620214Y-16467929D01*
X16591643Y-16482214D01*
X16548786Y-16482214D01*
X16820214Y-16482214D02*
X16791643Y-16467929D01*
X16777357Y-16439357D01*
X16777357Y-16182214D01*
X17048786Y-16467929D02*
X17020214Y-16482214D01*
X16963071Y-16482214D01*
X16934500Y-16467929D01*
X16920214Y-16439357D01*
X16920214Y-16325071D01*
X16934500Y-16296500D01*
X16963071Y-16282214D01*
X17020214Y-16282214D01*
X17048786Y-16296500D01*
X17063071Y-16325071D01*
X17063071Y-16353643D01*
X16920214Y-16382214D01*
X17177357Y-16467929D02*
X17205928Y-16482214D01*
X17263071Y-16482214D01*
X17291643Y-16467929D01*
X17305928Y-16439357D01*
X17305928Y-16425071D01*
X17291643Y-16396500D01*
X17263071Y-16382214D01*
X17220214Y-16382214D01*
X17191643Y-16367929D01*
X17177357Y-16339357D01*
X17177357Y-16325071D01*
X17191643Y-16296500D01*
X17220214Y-16282214D01*
X17263071Y-16282214D01*
X17291643Y-16296500D01*
X17405928Y-16596500D02*
X17420214Y-16582214D01*
X17448786Y-16539357D01*
X17463071Y-16510786D01*
X17477357Y-16467929D01*
X17491643Y-16396500D01*
X17491643Y-16339357D01*
X17477357Y-16267929D01*
X17463071Y-16225071D01*
X17448786Y-16196500D01*
X17420214Y-16153643D01*
X17405928Y-16139357D01*
X10569500Y-16567500D02*
X10919500Y-16917500D01*
X10919500Y-16567500D02*
X10569500Y-16917500D01*
X10919500Y-16742500D02*
G75*
G03*
X10919500Y-16742500I-175000J0D01*
G01*
X11177357Y-16578214D02*
X11363071Y-16578214D01*
X11263071Y-16692500D01*
X11305928Y-16692500D01*
X11334500Y-16706786D01*
X11348786Y-16721071D01*
X11363071Y-16749643D01*
X11363071Y-16821072D01*
X11348786Y-16849643D01*
X11334500Y-16863929D01*
X11305928Y-16878214D01*
X11220214Y-16878214D01*
X11191643Y-16863929D01*
X11177357Y-16849643D01*
X11491643Y-16849643D02*
X11505928Y-16863929D01*
X11491643Y-16878214D01*
X11477357Y-16863929D01*
X11491643Y-16849643D01*
X11491643Y-16878214D01*
X11777357Y-16578214D02*
X11634500Y-16578214D01*
X11620214Y-16721071D01*
X11634500Y-16706786D01*
X11663071Y-16692500D01*
X11734500Y-16692500D01*
X11763071Y-16706786D01*
X11777357Y-16721071D01*
X11791643Y-16749643D01*
X11791643Y-16821072D01*
X11777357Y-16849643D01*
X11763071Y-16863929D01*
X11734500Y-16878214D01*
X11663071Y-16878214D01*
X11634500Y-16863929D01*
X11620214Y-16849643D01*
X11977357Y-16578214D02*
X12005928Y-16578214D01*
X12034500Y-16592500D01*
X12048786Y-16606786D01*
X12063071Y-16635357D01*
X12077357Y-16692500D01*
X12077357Y-16763929D01*
X12063071Y-16821072D01*
X12048786Y-16849643D01*
X12034500Y-16863929D01*
X12005928Y-16878214D01*
X11977357Y-16878214D01*
X11948786Y-16863929D01*
X11934500Y-16849643D01*
X11920214Y-16821072D01*
X11905928Y-16763929D01*
X11905928Y-16692500D01*
X11920214Y-16635357D01*
X11934500Y-16606786D01*
X11948786Y-16592500D01*
X11977357Y-16578214D01*
X12205928Y-16878214D02*
X12205928Y-16678214D01*
X12205928Y-16706786D02*
X12220214Y-16692500D01*
X12248786Y-16678214D01*
X12291643Y-16678214D01*
X12320214Y-16692500D01*
X12334500Y-16721071D01*
X12334500Y-16878214D01*
X12334500Y-16721071D02*
X12348786Y-16692500D01*
X12377357Y-16678214D01*
X12420214Y-16678214D01*
X12448786Y-16692500D01*
X12463071Y-16721071D01*
X12463071Y-16878214D01*
X12605928Y-16878214D02*
X12605928Y-16678214D01*
X12605928Y-16706786D02*
X12620214Y-16692500D01*
X12648786Y-16678214D01*
X12691643Y-16678214D01*
X12720214Y-16692500D01*
X12734500Y-16721071D01*
X12734500Y-16878214D01*
X12734500Y-16721071D02*
X12748786Y-16692500D01*
X12777357Y-16678214D01*
X12820214Y-16678214D01*
X12848786Y-16692500D01*
X12863071Y-16721071D01*
X12863071Y-16878214D01*
X13448786Y-16563929D02*
X13191643Y-16949643D01*
X13834500Y-16578214D02*
X13863071Y-16578214D01*
X13891643Y-16592500D01*
X13905928Y-16606786D01*
X13920214Y-16635357D01*
X13934500Y-16692500D01*
X13934500Y-16763929D01*
X13920214Y-16821072D01*
X13905928Y-16849643D01*
X13891643Y-16863929D01*
X13863071Y-16878214D01*
X13834500Y-16878214D01*
X13805928Y-16863929D01*
X13791643Y-16849643D01*
X13777357Y-16821072D01*
X13763071Y-16763929D01*
X13763071Y-16692500D01*
X13777357Y-16635357D01*
X13791643Y-16606786D01*
X13805928Y-16592500D01*
X13834500Y-16578214D01*
X14063071Y-16849643D02*
X14077357Y-16863929D01*
X14063071Y-16878214D01*
X14048786Y-16863929D01*
X14063071Y-16849643D01*
X14063071Y-16878214D01*
X14363071Y-16878214D02*
X14191643Y-16878214D01*
X14277357Y-16878214D02*
X14277357Y-16578214D01*
X14248786Y-16621071D01*
X14220214Y-16649643D01*
X14191643Y-16663929D01*
X14463071Y-16578214D02*
X14648786Y-16578214D01*
X14548786Y-16692500D01*
X14591643Y-16692500D01*
X14620214Y-16706786D01*
X14634500Y-16721071D01*
X14648786Y-16749643D01*
X14648786Y-16821072D01*
X14634500Y-16849643D01*
X14620214Y-16863929D01*
X14591643Y-16878214D01*
X14505928Y-16878214D01*
X14477357Y-16863929D01*
X14463071Y-16849643D01*
X14820214Y-16706786D02*
X14791643Y-16692500D01*
X14777357Y-16678214D01*
X14763071Y-16649643D01*
X14763071Y-16635357D01*
X14777357Y-16606786D01*
X14791643Y-16592500D01*
X14820214Y-16578214D01*
X14877357Y-16578214D01*
X14905928Y-16592500D01*
X14920214Y-16606786D01*
X14934500Y-16635357D01*
X14934500Y-16649643D01*
X14920214Y-16678214D01*
X14905928Y-16692500D01*
X14877357Y-16706786D01*
X14820214Y-16706786D01*
X14791643Y-16721071D01*
X14777357Y-16735357D01*
X14763071Y-16763929D01*
X14763071Y-16821072D01*
X14777357Y-16849643D01*
X14791643Y-16863929D01*
X14820214Y-16878214D01*
X14877357Y-16878214D01*
X14905928Y-16863929D01*
X14920214Y-16849643D01*
X14934500Y-16821072D01*
X14934500Y-16763929D01*
X14920214Y-16735357D01*
X14905928Y-16721071D01*
X14877357Y-16706786D01*
X15048786Y-16578214D02*
X15048786Y-16635357D01*
X15163071Y-16578214D02*
X15163071Y-16635357D01*
X15605928Y-16992500D02*
X15591643Y-16978214D01*
X15563071Y-16935357D01*
X15548786Y-16906786D01*
X15534500Y-16863929D01*
X15520214Y-16792500D01*
X15520214Y-16735357D01*
X15534500Y-16663929D01*
X15548786Y-16621071D01*
X15563071Y-16592500D01*
X15591643Y-16549643D01*
X15605928Y-16535357D01*
X15705928Y-16606786D02*
X15720214Y-16592500D01*
X15748786Y-16578214D01*
X15820214Y-16578214D01*
X15848786Y-16592500D01*
X15863071Y-16606786D01*
X15877357Y-16635357D01*
X15877357Y-16663929D01*
X15863071Y-16706786D01*
X15691643Y-16878214D01*
X15877357Y-16878214D01*
X16234500Y-16878214D02*
X16234500Y-16578214D01*
X16363071Y-16878214D02*
X16363071Y-16721071D01*
X16348786Y-16692500D01*
X16320214Y-16678214D01*
X16277357Y-16678214D01*
X16248786Y-16692500D01*
X16234500Y-16706786D01*
X16548786Y-16878214D02*
X16520214Y-16863929D01*
X16505928Y-16849643D01*
X16491643Y-16821072D01*
X16491643Y-16735357D01*
X16505928Y-16706786D01*
X16520214Y-16692500D01*
X16548786Y-16678214D01*
X16591643Y-16678214D01*
X16620214Y-16692500D01*
X16634500Y-16706786D01*
X16648786Y-16735357D01*
X16648786Y-16821072D01*
X16634500Y-16849643D01*
X16620214Y-16863929D01*
X16591643Y-16878214D01*
X16548786Y-16878214D01*
X16820214Y-16878214D02*
X16791643Y-16863929D01*
X16777357Y-16835357D01*
X16777357Y-16578214D01*
X17048786Y-16863929D02*
X17020214Y-16878214D01*
X16963071Y-16878214D01*
X16934500Y-16863929D01*
X16920214Y-16835357D01*
X16920214Y-16721071D01*
X16934500Y-16692500D01*
X16963071Y-16678214D01*
X17020214Y-16678214D01*
X17048786Y-16692500D01*
X17063071Y-16721071D01*
X17063071Y-16749643D01*
X16920214Y-16778214D01*
X17177357Y-16863929D02*
X17205928Y-16878214D01*
X17263071Y-16878214D01*
X17291643Y-16863929D01*
X17305928Y-16835357D01*
X17305928Y-16821072D01*
X17291643Y-16792500D01*
X17263071Y-16778214D01*
X17220214Y-16778214D01*
X17191643Y-16763929D01*
X17177357Y-16735357D01*
X17177357Y-16721071D01*
X17191643Y-16692500D01*
X17220214Y-16678214D01*
X17263071Y-16678214D01*
X17291643Y-16692500D01*
X17405928Y-16992500D02*
X17420214Y-16978214D01*
X17448786Y-16935357D01*
X17463071Y-16906786D01*
X17477357Y-16863929D01*
X17491643Y-16792500D01*
X17491643Y-16735357D01*
X17477357Y-16663929D01*
X17463071Y-16621071D01*
X17448786Y-16592500D01*
X17420214Y-16549643D01*
X17405928Y-16535357D01*
M02*
