M48
; DRILL file {KiCad (5.1.6-0-10_14)} date Tuesday, August 18, 2020 at 10:59:48 PM
; FORMAT={-:-/ absolute / inch / decimal}
; #@! TF.CreationDate,2020-08-18T22:59:48+01:00
; #@! TF.GenerationSoftware,Kicad,Pcbnew,(5.1.6-0-10_14)
; #@! TF.FileFunction,Plated,1,2,PTH
FMAT,2
INCH
T1C0.0276
T2C0.0512
T3C0.0630
T4C0.0728
T5C0.1260
T6C0.1693
%
G90
G05
T1
X6.0224Y-4.6769
X6.0814Y-4.48
X5.5946Y-4.3009
X5.7914Y-4.36
X6.0224Y-4.2794
X6.0814Y-4.0825
X5.3896Y-4.6209
X5.5864Y-4.68
T2
X6.4614Y-4.08
X6.4614Y-4.28
X6.4614Y-4.48
X6.4614Y-4.68
X5.0674Y-3.0751
X5.0674Y-3.3113
T3
X5.0674Y-4.4609
T4
X6.199Y-3.0735
X6.199Y-3.42
X6.199Y-3.7665
X6.5139Y-3.0735
X6.5139Y-3.42
X6.5139Y-3.7665
T5
X5.7064Y-5.0222
T6
X5.0674Y-5.0206
T0
M30
