%FSLAX45Y45*%
G04 Gerber Fmt 4.5, Leading zero omitted, Abs format (unit mm)*
G04 Created by KiCad (PCBNEW (5.1.6-0-10_14)) date 2020-08-23 19:27:07*
%MOMM*%
%LPD*%
G01*
G04 APERTURE LIST*
%TA.AperFunction,Profile*%
%ADD10C,0.050000*%
%TD*%
%ADD11C,0.200000*%
%ADD12C,0.300000*%
G04 APERTURE END LIST*
D10*
X17526000Y-6273800D02*
X10922000Y-6273800D01*
X17526000Y-13300000D02*
X17526000Y-6273800D01*
X10926140Y-13300000D02*
X17526000Y-13300000D01*
X10922000Y-6273800D02*
X10926140Y-13300000D01*
D11*
X13905750Y-11905750D02*
X13994250Y-11994250D01*
X13994250Y-11905750D02*
X13905750Y-11994250D01*
X14405750Y-11905750D02*
X14494250Y-11994250D01*
X14494250Y-11905750D02*
X14405750Y-11994250D01*
X15355750Y-10855750D02*
X15444250Y-10944250D01*
X15444250Y-10855750D02*
X15355750Y-10944250D01*
X15605750Y-10355750D02*
X15694250Y-10444250D01*
X15694250Y-10355750D02*
X15605750Y-10444250D01*
X13909430Y-10913590D02*
X13997930Y-11002090D01*
X13997930Y-10913590D02*
X13909430Y-11002090D01*
X14409430Y-10913590D02*
X14497930Y-11002090D01*
X14497930Y-10913590D02*
X14409430Y-11002090D01*
X15355750Y-12055750D02*
X15444250Y-12144250D01*
X15444250Y-12055750D02*
X15355750Y-12144250D01*
X15605750Y-11555750D02*
X15694250Y-11644250D01*
X15694250Y-11555750D02*
X15605750Y-11644250D01*
X16710000Y-10400000D02*
G75*
G03*
X16710000Y-10400000I-60000J0D01*
G01*
X16710000Y-10900000D02*
G75*
G03*
X16710000Y-10900000I-60000J0D01*
G01*
X16710000Y-11400000D02*
G75*
G03*
X16710000Y-11400000I-60000J0D01*
G01*
X16710000Y-11900000D02*
G75*
G03*
X16710000Y-11900000I-60000J0D01*
G01*
X12857440Y-7738180D02*
X12857440Y-7868180D01*
X12792440Y-7803180D02*
X12922440Y-7803180D01*
X12857440Y-8338180D02*
X12857440Y-8468180D01*
X12792440Y-8403180D02*
X12922440Y-8403180D01*
X12914009Y-11379749D02*
X12914009Y-11266611D01*
X12800871Y-11266611D01*
X12800871Y-11379749D01*
X12914009Y-11379749D01*
X15748100Y-7864900D02*
X15840600Y-7772400D01*
X15748100Y-7679900D01*
X15655600Y-7772400D01*
X15748100Y-7864900D01*
X15748100Y-8744900D02*
X15840600Y-8652400D01*
X15748100Y-8559900D01*
X15655600Y-8652400D01*
X15748100Y-8744900D01*
X15748100Y-9624900D02*
X15840600Y-9532400D01*
X15748100Y-9439900D01*
X15655600Y-9532400D01*
X15748100Y-9624900D01*
X16548100Y-7864900D02*
X16640600Y-7772400D01*
X16548100Y-7679900D01*
X16455600Y-7772400D01*
X16548100Y-7864900D01*
X16548100Y-8744900D02*
X16640600Y-8652400D01*
X16548100Y-8559900D01*
X16455600Y-8652400D01*
X16548100Y-8744900D01*
X16548100Y-9624900D02*
X16640600Y-9532400D01*
X16548100Y-9439900D01*
X16455600Y-9532400D01*
X16548100Y-9624900D01*
X14151000Y-12601000D02*
X14501000Y-12951000D01*
X14501000Y-12601000D02*
X14151000Y-12951000D01*
X14501000Y-12776000D02*
G75*
G03*
X14501000Y-12776000I-175000J0D01*
G01*
X12751000Y-12601000D02*
X13101000Y-12951000D01*
X13101000Y-12601000D02*
X12751000Y-12951000D01*
X13101000Y-12776000D02*
G75*
G03*
X13101000Y-12776000I-175000J0D01*
G01*
D12*
X11205928Y-13768214D02*
X11205928Y-13468214D01*
X11277357Y-13468214D01*
X11320214Y-13482500D01*
X11348786Y-13511071D01*
X11363071Y-13539643D01*
X11377357Y-13596786D01*
X11377357Y-13639643D01*
X11363071Y-13696786D01*
X11348786Y-13725357D01*
X11320214Y-13753929D01*
X11277357Y-13768214D01*
X11205928Y-13768214D01*
X11505928Y-13768214D02*
X11505928Y-13568214D01*
X11505928Y-13625357D02*
X11520214Y-13596786D01*
X11534500Y-13582500D01*
X11563071Y-13568214D01*
X11591643Y-13568214D01*
X11691643Y-13768214D02*
X11691643Y-13568214D01*
X11691643Y-13468214D02*
X11677357Y-13482500D01*
X11691643Y-13496786D01*
X11705928Y-13482500D01*
X11691643Y-13468214D01*
X11691643Y-13496786D01*
X11877357Y-13768214D02*
X11848786Y-13753929D01*
X11834500Y-13725357D01*
X11834500Y-13468214D01*
X12034500Y-13768214D02*
X12005928Y-13753929D01*
X11991643Y-13725357D01*
X11991643Y-13468214D01*
X12377357Y-13768214D02*
X12377357Y-13468214D01*
X12477357Y-13682500D01*
X12577357Y-13468214D01*
X12577357Y-13768214D01*
X12848786Y-13768214D02*
X12848786Y-13611071D01*
X12834500Y-13582500D01*
X12805928Y-13568214D01*
X12748786Y-13568214D01*
X12720214Y-13582500D01*
X12848786Y-13753929D02*
X12820214Y-13768214D01*
X12748786Y-13768214D01*
X12720214Y-13753929D01*
X12705928Y-13725357D01*
X12705928Y-13696786D01*
X12720214Y-13668214D01*
X12748786Y-13653929D01*
X12820214Y-13653929D01*
X12848786Y-13639643D01*
X12991643Y-13568214D02*
X12991643Y-13868214D01*
X12991643Y-13582500D02*
X13020214Y-13568214D01*
X13077357Y-13568214D01*
X13105928Y-13582500D01*
X13120214Y-13596786D01*
X13134500Y-13625357D01*
X13134500Y-13711071D01*
X13120214Y-13739643D01*
X13105928Y-13753929D01*
X13077357Y-13768214D01*
X13020214Y-13768214D01*
X12991643Y-13753929D01*
X13263071Y-13739643D02*
X13277357Y-13753929D01*
X13263071Y-13768214D01*
X13248786Y-13753929D01*
X13263071Y-13739643D01*
X13263071Y-13768214D01*
X13263071Y-13582500D02*
X13277357Y-13596786D01*
X13263071Y-13611071D01*
X13248786Y-13596786D01*
X13263071Y-13582500D01*
X13263071Y-13611071D01*
X10831000Y-14218250D02*
X10919500Y-14306750D01*
X10919500Y-14218250D02*
X10831000Y-14306750D01*
X11263071Y-14098214D02*
X11291643Y-14098214D01*
X11320214Y-14112500D01*
X11334500Y-14126786D01*
X11348786Y-14155357D01*
X11363071Y-14212500D01*
X11363071Y-14283929D01*
X11348786Y-14341071D01*
X11334500Y-14369643D01*
X11320214Y-14383929D01*
X11291643Y-14398214D01*
X11263071Y-14398214D01*
X11234500Y-14383929D01*
X11220214Y-14369643D01*
X11205928Y-14341071D01*
X11191643Y-14283929D01*
X11191643Y-14212500D01*
X11205928Y-14155357D01*
X11220214Y-14126786D01*
X11234500Y-14112500D01*
X11263071Y-14098214D01*
X11491643Y-14369643D02*
X11505928Y-14383929D01*
X11491643Y-14398214D01*
X11477357Y-14383929D01*
X11491643Y-14369643D01*
X11491643Y-14398214D01*
X11677357Y-14226786D02*
X11648786Y-14212500D01*
X11634500Y-14198214D01*
X11620214Y-14169643D01*
X11620214Y-14155357D01*
X11634500Y-14126786D01*
X11648786Y-14112500D01*
X11677357Y-14098214D01*
X11734500Y-14098214D01*
X11763071Y-14112500D01*
X11777357Y-14126786D01*
X11791643Y-14155357D01*
X11791643Y-14169643D01*
X11777357Y-14198214D01*
X11763071Y-14212500D01*
X11734500Y-14226786D01*
X11677357Y-14226786D01*
X11648786Y-14241071D01*
X11634500Y-14255357D01*
X11620214Y-14283929D01*
X11620214Y-14341071D01*
X11634500Y-14369643D01*
X11648786Y-14383929D01*
X11677357Y-14398214D01*
X11734500Y-14398214D01*
X11763071Y-14383929D01*
X11777357Y-14369643D01*
X11791643Y-14341071D01*
X11791643Y-14283929D01*
X11777357Y-14255357D01*
X11763071Y-14241071D01*
X11734500Y-14226786D01*
X11934500Y-14398214D02*
X11991643Y-14398214D01*
X12020214Y-14383929D01*
X12034500Y-14369643D01*
X12063071Y-14326786D01*
X12077357Y-14269643D01*
X12077357Y-14155357D01*
X12063071Y-14126786D01*
X12048786Y-14112500D01*
X12020214Y-14098214D01*
X11963071Y-14098214D01*
X11934500Y-14112500D01*
X11920214Y-14126786D01*
X11905928Y-14155357D01*
X11905928Y-14226786D01*
X11920214Y-14255357D01*
X11934500Y-14269643D01*
X11963071Y-14283929D01*
X12020214Y-14283929D01*
X12048786Y-14269643D01*
X12063071Y-14255357D01*
X12077357Y-14226786D01*
X12205928Y-14398214D02*
X12205928Y-14198214D01*
X12205928Y-14226786D02*
X12220214Y-14212500D01*
X12248786Y-14198214D01*
X12291643Y-14198214D01*
X12320214Y-14212500D01*
X12334500Y-14241071D01*
X12334500Y-14398214D01*
X12334500Y-14241071D02*
X12348786Y-14212500D01*
X12377357Y-14198214D01*
X12420214Y-14198214D01*
X12448786Y-14212500D01*
X12463071Y-14241071D01*
X12463071Y-14398214D01*
X12605928Y-14398214D02*
X12605928Y-14198214D01*
X12605928Y-14226786D02*
X12620214Y-14212500D01*
X12648786Y-14198214D01*
X12691643Y-14198214D01*
X12720214Y-14212500D01*
X12734500Y-14241071D01*
X12734500Y-14398214D01*
X12734500Y-14241071D02*
X12748786Y-14212500D01*
X12777357Y-14198214D01*
X12820214Y-14198214D01*
X12848786Y-14212500D01*
X12863071Y-14241071D01*
X12863071Y-14398214D01*
X13448786Y-14083929D02*
X13191643Y-14469643D01*
X13834500Y-14098214D02*
X13863071Y-14098214D01*
X13891643Y-14112500D01*
X13905928Y-14126786D01*
X13920214Y-14155357D01*
X13934500Y-14212500D01*
X13934500Y-14283929D01*
X13920214Y-14341071D01*
X13905928Y-14369643D01*
X13891643Y-14383929D01*
X13863071Y-14398214D01*
X13834500Y-14398214D01*
X13805928Y-14383929D01*
X13791643Y-14369643D01*
X13777357Y-14341071D01*
X13763071Y-14283929D01*
X13763071Y-14212500D01*
X13777357Y-14155357D01*
X13791643Y-14126786D01*
X13805928Y-14112500D01*
X13834500Y-14098214D01*
X14063071Y-14369643D02*
X14077357Y-14383929D01*
X14063071Y-14398214D01*
X14048786Y-14383929D01*
X14063071Y-14369643D01*
X14063071Y-14398214D01*
X14263071Y-14098214D02*
X14291643Y-14098214D01*
X14320214Y-14112500D01*
X14334500Y-14126786D01*
X14348786Y-14155357D01*
X14363071Y-14212500D01*
X14363071Y-14283929D01*
X14348786Y-14341071D01*
X14334500Y-14369643D01*
X14320214Y-14383929D01*
X14291643Y-14398214D01*
X14263071Y-14398214D01*
X14234500Y-14383929D01*
X14220214Y-14369643D01*
X14205928Y-14341071D01*
X14191643Y-14283929D01*
X14191643Y-14212500D01*
X14205928Y-14155357D01*
X14220214Y-14126786D01*
X14234500Y-14112500D01*
X14263071Y-14098214D01*
X14463071Y-14098214D02*
X14648786Y-14098214D01*
X14548786Y-14212500D01*
X14591643Y-14212500D01*
X14620214Y-14226786D01*
X14634500Y-14241071D01*
X14648786Y-14269643D01*
X14648786Y-14341071D01*
X14634500Y-14369643D01*
X14620214Y-14383929D01*
X14591643Y-14398214D01*
X14505928Y-14398214D01*
X14477357Y-14383929D01*
X14463071Y-14369643D01*
X14920214Y-14098214D02*
X14777357Y-14098214D01*
X14763071Y-14241071D01*
X14777357Y-14226786D01*
X14805928Y-14212500D01*
X14877357Y-14212500D01*
X14905928Y-14226786D01*
X14920214Y-14241071D01*
X14934500Y-14269643D01*
X14934500Y-14341071D01*
X14920214Y-14369643D01*
X14905928Y-14383929D01*
X14877357Y-14398214D01*
X14805928Y-14398214D01*
X14777357Y-14383929D01*
X14763071Y-14369643D01*
X15048786Y-14098214D02*
X15048786Y-14155357D01*
X15163071Y-14098214D02*
X15163071Y-14155357D01*
X15605928Y-14512500D02*
X15591643Y-14498214D01*
X15563071Y-14455357D01*
X15548786Y-14426786D01*
X15534500Y-14383929D01*
X15520214Y-14312500D01*
X15520214Y-14255357D01*
X15534500Y-14183929D01*
X15548786Y-14141071D01*
X15563071Y-14112500D01*
X15591643Y-14069643D01*
X15605928Y-14055357D01*
X15763071Y-14226786D02*
X15734500Y-14212500D01*
X15720214Y-14198214D01*
X15705928Y-14169643D01*
X15705928Y-14155357D01*
X15720214Y-14126786D01*
X15734500Y-14112500D01*
X15763071Y-14098214D01*
X15820214Y-14098214D01*
X15848786Y-14112500D01*
X15863071Y-14126786D01*
X15877357Y-14155357D01*
X15877357Y-14169643D01*
X15863071Y-14198214D01*
X15848786Y-14212500D01*
X15820214Y-14226786D01*
X15763071Y-14226786D01*
X15734500Y-14241071D01*
X15720214Y-14255357D01*
X15705928Y-14283929D01*
X15705928Y-14341071D01*
X15720214Y-14369643D01*
X15734500Y-14383929D01*
X15763071Y-14398214D01*
X15820214Y-14398214D01*
X15848786Y-14383929D01*
X15863071Y-14369643D01*
X15877357Y-14341071D01*
X15877357Y-14283929D01*
X15863071Y-14255357D01*
X15848786Y-14241071D01*
X15820214Y-14226786D01*
X16234500Y-14398214D02*
X16234500Y-14098214D01*
X16363071Y-14398214D02*
X16363071Y-14241071D01*
X16348786Y-14212500D01*
X16320214Y-14198214D01*
X16277357Y-14198214D01*
X16248786Y-14212500D01*
X16234500Y-14226786D01*
X16548786Y-14398214D02*
X16520214Y-14383929D01*
X16505928Y-14369643D01*
X16491643Y-14341071D01*
X16491643Y-14255357D01*
X16505928Y-14226786D01*
X16520214Y-14212500D01*
X16548786Y-14198214D01*
X16591643Y-14198214D01*
X16620214Y-14212500D01*
X16634500Y-14226786D01*
X16648786Y-14255357D01*
X16648786Y-14341071D01*
X16634500Y-14369643D01*
X16620214Y-14383929D01*
X16591643Y-14398214D01*
X16548786Y-14398214D01*
X16820214Y-14398214D02*
X16791643Y-14383929D01*
X16777357Y-14355357D01*
X16777357Y-14098214D01*
X17048786Y-14383929D02*
X17020214Y-14398214D01*
X16963071Y-14398214D01*
X16934500Y-14383929D01*
X16920214Y-14355357D01*
X16920214Y-14241071D01*
X16934500Y-14212500D01*
X16963071Y-14198214D01*
X17020214Y-14198214D01*
X17048786Y-14212500D01*
X17063071Y-14241071D01*
X17063071Y-14269643D01*
X16920214Y-14298214D01*
X17177357Y-14383929D02*
X17205928Y-14398214D01*
X17263071Y-14398214D01*
X17291643Y-14383929D01*
X17305928Y-14355357D01*
X17305928Y-14341071D01*
X17291643Y-14312500D01*
X17263071Y-14298214D01*
X17220214Y-14298214D01*
X17191643Y-14283929D01*
X17177357Y-14255357D01*
X17177357Y-14241071D01*
X17191643Y-14212500D01*
X17220214Y-14198214D01*
X17263071Y-14198214D01*
X17291643Y-14212500D01*
X17405928Y-14512500D02*
X17420214Y-14498214D01*
X17448786Y-14455357D01*
X17463071Y-14426786D01*
X17477357Y-14383929D01*
X17491643Y-14312500D01*
X17491643Y-14255357D01*
X17477357Y-14183929D01*
X17463071Y-14141071D01*
X17448786Y-14112500D01*
X17420214Y-14069643D01*
X17405928Y-14055357D01*
X10919500Y-14658500D02*
G75*
G03*
X10919500Y-14658500I-60000J0D01*
G01*
X11363071Y-14794214D02*
X11191643Y-14794214D01*
X11277357Y-14794214D02*
X11277357Y-14494214D01*
X11248786Y-14537071D01*
X11220214Y-14565643D01*
X11191643Y-14579929D01*
X11491643Y-14765643D02*
X11505928Y-14779929D01*
X11491643Y-14794214D01*
X11477357Y-14779929D01*
X11491643Y-14765643D01*
X11491643Y-14794214D01*
X11620214Y-14522786D02*
X11634500Y-14508500D01*
X11663071Y-14494214D01*
X11734500Y-14494214D01*
X11763071Y-14508500D01*
X11777357Y-14522786D01*
X11791643Y-14551357D01*
X11791643Y-14579929D01*
X11777357Y-14622786D01*
X11605928Y-14794214D01*
X11791643Y-14794214D01*
X11977357Y-14494214D02*
X12005928Y-14494214D01*
X12034500Y-14508500D01*
X12048786Y-14522786D01*
X12063071Y-14551357D01*
X12077357Y-14608500D01*
X12077357Y-14679929D01*
X12063071Y-14737071D01*
X12048786Y-14765643D01*
X12034500Y-14779929D01*
X12005928Y-14794214D01*
X11977357Y-14794214D01*
X11948786Y-14779929D01*
X11934500Y-14765643D01*
X11920214Y-14737071D01*
X11905928Y-14679929D01*
X11905928Y-14608500D01*
X11920214Y-14551357D01*
X11934500Y-14522786D01*
X11948786Y-14508500D01*
X11977357Y-14494214D01*
X12205928Y-14794214D02*
X12205928Y-14594214D01*
X12205928Y-14622786D02*
X12220214Y-14608500D01*
X12248786Y-14594214D01*
X12291643Y-14594214D01*
X12320214Y-14608500D01*
X12334500Y-14637071D01*
X12334500Y-14794214D01*
X12334500Y-14637071D02*
X12348786Y-14608500D01*
X12377357Y-14594214D01*
X12420214Y-14594214D01*
X12448786Y-14608500D01*
X12463071Y-14637071D01*
X12463071Y-14794214D01*
X12605928Y-14794214D02*
X12605928Y-14594214D01*
X12605928Y-14622786D02*
X12620214Y-14608500D01*
X12648786Y-14594214D01*
X12691643Y-14594214D01*
X12720214Y-14608500D01*
X12734500Y-14637071D01*
X12734500Y-14794214D01*
X12734500Y-14637071D02*
X12748786Y-14608500D01*
X12777357Y-14594214D01*
X12820214Y-14594214D01*
X12848786Y-14608500D01*
X12863071Y-14637071D01*
X12863071Y-14794214D01*
X13448786Y-14479929D02*
X13191643Y-14865643D01*
X13834500Y-14494214D02*
X13863071Y-14494214D01*
X13891643Y-14508500D01*
X13905928Y-14522786D01*
X13920214Y-14551357D01*
X13934500Y-14608500D01*
X13934500Y-14679929D01*
X13920214Y-14737071D01*
X13905928Y-14765643D01*
X13891643Y-14779929D01*
X13863071Y-14794214D01*
X13834500Y-14794214D01*
X13805928Y-14779929D01*
X13791643Y-14765643D01*
X13777357Y-14737071D01*
X13763071Y-14679929D01*
X13763071Y-14608500D01*
X13777357Y-14551357D01*
X13791643Y-14522786D01*
X13805928Y-14508500D01*
X13834500Y-14494214D01*
X14063071Y-14765643D02*
X14077357Y-14779929D01*
X14063071Y-14794214D01*
X14048786Y-14779929D01*
X14063071Y-14765643D01*
X14063071Y-14794214D01*
X14263071Y-14494214D02*
X14291643Y-14494214D01*
X14320214Y-14508500D01*
X14334500Y-14522786D01*
X14348786Y-14551357D01*
X14363071Y-14608500D01*
X14363071Y-14679929D01*
X14348786Y-14737071D01*
X14334500Y-14765643D01*
X14320214Y-14779929D01*
X14291643Y-14794214D01*
X14263071Y-14794214D01*
X14234500Y-14779929D01*
X14220214Y-14765643D01*
X14205928Y-14737071D01*
X14191643Y-14679929D01*
X14191643Y-14608500D01*
X14205928Y-14551357D01*
X14220214Y-14522786D01*
X14234500Y-14508500D01*
X14263071Y-14494214D01*
X14620214Y-14594214D02*
X14620214Y-14794214D01*
X14548786Y-14479929D02*
X14477357Y-14694214D01*
X14663071Y-14694214D01*
X14748786Y-14494214D02*
X14948786Y-14494214D01*
X14820214Y-14794214D01*
X15048786Y-14494214D02*
X15048786Y-14551357D01*
X15163071Y-14494214D02*
X15163071Y-14551357D01*
X15605928Y-14908500D02*
X15591643Y-14894214D01*
X15563071Y-14851357D01*
X15548786Y-14822786D01*
X15534500Y-14779929D01*
X15520214Y-14708500D01*
X15520214Y-14651357D01*
X15534500Y-14579929D01*
X15548786Y-14537071D01*
X15563071Y-14508500D01*
X15591643Y-14465643D01*
X15605928Y-14451357D01*
X15848786Y-14594214D02*
X15848786Y-14794214D01*
X15777357Y-14479929D02*
X15705928Y-14694214D01*
X15891643Y-14694214D01*
X16234500Y-14794214D02*
X16234500Y-14494214D01*
X16363071Y-14794214D02*
X16363071Y-14637071D01*
X16348786Y-14608500D01*
X16320214Y-14594214D01*
X16277357Y-14594214D01*
X16248786Y-14608500D01*
X16234500Y-14622786D01*
X16548786Y-14794214D02*
X16520214Y-14779929D01*
X16505928Y-14765643D01*
X16491643Y-14737071D01*
X16491643Y-14651357D01*
X16505928Y-14622786D01*
X16520214Y-14608500D01*
X16548786Y-14594214D01*
X16591643Y-14594214D01*
X16620214Y-14608500D01*
X16634500Y-14622786D01*
X16648786Y-14651357D01*
X16648786Y-14737071D01*
X16634500Y-14765643D01*
X16620214Y-14779929D01*
X16591643Y-14794214D01*
X16548786Y-14794214D01*
X16820214Y-14794214D02*
X16791643Y-14779929D01*
X16777357Y-14751357D01*
X16777357Y-14494214D01*
X17048786Y-14779929D02*
X17020214Y-14794214D01*
X16963071Y-14794214D01*
X16934500Y-14779929D01*
X16920214Y-14751357D01*
X16920214Y-14637071D01*
X16934500Y-14608500D01*
X16963071Y-14594214D01*
X17020214Y-14594214D01*
X17048786Y-14608500D01*
X17063071Y-14637071D01*
X17063071Y-14665643D01*
X16920214Y-14694214D01*
X17177357Y-14779929D02*
X17205928Y-14794214D01*
X17263071Y-14794214D01*
X17291643Y-14779929D01*
X17305928Y-14751357D01*
X17305928Y-14737071D01*
X17291643Y-14708500D01*
X17263071Y-14694214D01*
X17220214Y-14694214D01*
X17191643Y-14679929D01*
X17177357Y-14651357D01*
X17177357Y-14637071D01*
X17191643Y-14608500D01*
X17220214Y-14594214D01*
X17263071Y-14594214D01*
X17291643Y-14608500D01*
X17405928Y-14908500D02*
X17420214Y-14894214D01*
X17448786Y-14851357D01*
X17463071Y-14822786D01*
X17477357Y-14779929D01*
X17491643Y-14708500D01*
X17491643Y-14651357D01*
X17477357Y-14579929D01*
X17463071Y-14537071D01*
X17448786Y-14508500D01*
X17420214Y-14465643D01*
X17405928Y-14451357D01*
X10854500Y-14989500D02*
X10854500Y-15119500D01*
X10789500Y-15054500D02*
X10919500Y-15054500D01*
X11363071Y-15190214D02*
X11191643Y-15190214D01*
X11277357Y-15190214D02*
X11277357Y-14890214D01*
X11248786Y-14933071D01*
X11220214Y-14961643D01*
X11191643Y-14975929D01*
X11491643Y-15161643D02*
X11505928Y-15175929D01*
X11491643Y-15190214D01*
X11477357Y-15175929D01*
X11491643Y-15161643D01*
X11491643Y-15190214D01*
X11605928Y-14890214D02*
X11791643Y-14890214D01*
X11691643Y-15004500D01*
X11734500Y-15004500D01*
X11763071Y-15018786D01*
X11777357Y-15033071D01*
X11791643Y-15061643D01*
X11791643Y-15133071D01*
X11777357Y-15161643D01*
X11763071Y-15175929D01*
X11734500Y-15190214D01*
X11648786Y-15190214D01*
X11620214Y-15175929D01*
X11605928Y-15161643D01*
X11977357Y-14890214D02*
X12005928Y-14890214D01*
X12034500Y-14904500D01*
X12048786Y-14918786D01*
X12063071Y-14947357D01*
X12077357Y-15004500D01*
X12077357Y-15075929D01*
X12063071Y-15133071D01*
X12048786Y-15161643D01*
X12034500Y-15175929D01*
X12005928Y-15190214D01*
X11977357Y-15190214D01*
X11948786Y-15175929D01*
X11934500Y-15161643D01*
X11920214Y-15133071D01*
X11905928Y-15075929D01*
X11905928Y-15004500D01*
X11920214Y-14947357D01*
X11934500Y-14918786D01*
X11948786Y-14904500D01*
X11977357Y-14890214D01*
X12205928Y-15190214D02*
X12205928Y-14990214D01*
X12205928Y-15018786D02*
X12220214Y-15004500D01*
X12248786Y-14990214D01*
X12291643Y-14990214D01*
X12320214Y-15004500D01*
X12334500Y-15033071D01*
X12334500Y-15190214D01*
X12334500Y-15033071D02*
X12348786Y-15004500D01*
X12377357Y-14990214D01*
X12420214Y-14990214D01*
X12448786Y-15004500D01*
X12463071Y-15033071D01*
X12463071Y-15190214D01*
X12605928Y-15190214D02*
X12605928Y-14990214D01*
X12605928Y-15018786D02*
X12620214Y-15004500D01*
X12648786Y-14990214D01*
X12691643Y-14990214D01*
X12720214Y-15004500D01*
X12734500Y-15033071D01*
X12734500Y-15190214D01*
X12734500Y-15033071D02*
X12748786Y-15004500D01*
X12777357Y-14990214D01*
X12820214Y-14990214D01*
X12848786Y-15004500D01*
X12863071Y-15033071D01*
X12863071Y-15190214D01*
X13448786Y-14875929D02*
X13191643Y-15261643D01*
X13834500Y-14890214D02*
X13863071Y-14890214D01*
X13891643Y-14904500D01*
X13905928Y-14918786D01*
X13920214Y-14947357D01*
X13934500Y-15004500D01*
X13934500Y-15075929D01*
X13920214Y-15133071D01*
X13905928Y-15161643D01*
X13891643Y-15175929D01*
X13863071Y-15190214D01*
X13834500Y-15190214D01*
X13805928Y-15175929D01*
X13791643Y-15161643D01*
X13777357Y-15133071D01*
X13763071Y-15075929D01*
X13763071Y-15004500D01*
X13777357Y-14947357D01*
X13791643Y-14918786D01*
X13805928Y-14904500D01*
X13834500Y-14890214D01*
X14063071Y-15161643D02*
X14077357Y-15175929D01*
X14063071Y-15190214D01*
X14048786Y-15175929D01*
X14063071Y-15161643D01*
X14063071Y-15190214D01*
X14263071Y-14890214D02*
X14291643Y-14890214D01*
X14320214Y-14904500D01*
X14334500Y-14918786D01*
X14348786Y-14947357D01*
X14363071Y-15004500D01*
X14363071Y-15075929D01*
X14348786Y-15133071D01*
X14334500Y-15161643D01*
X14320214Y-15175929D01*
X14291643Y-15190214D01*
X14263071Y-15190214D01*
X14234500Y-15175929D01*
X14220214Y-15161643D01*
X14205928Y-15133071D01*
X14191643Y-15075929D01*
X14191643Y-15004500D01*
X14205928Y-14947357D01*
X14220214Y-14918786D01*
X14234500Y-14904500D01*
X14263071Y-14890214D01*
X14634500Y-14890214D02*
X14491643Y-14890214D01*
X14477357Y-15033071D01*
X14491643Y-15018786D01*
X14520214Y-15004500D01*
X14591643Y-15004500D01*
X14620214Y-15018786D01*
X14634500Y-15033071D01*
X14648786Y-15061643D01*
X14648786Y-15133071D01*
X14634500Y-15161643D01*
X14620214Y-15175929D01*
X14591643Y-15190214D01*
X14520214Y-15190214D01*
X14491643Y-15175929D01*
X14477357Y-15161643D01*
X14934500Y-15190214D02*
X14763071Y-15190214D01*
X14848786Y-15190214D02*
X14848786Y-14890214D01*
X14820214Y-14933071D01*
X14791643Y-14961643D01*
X14763071Y-14975929D01*
X15048786Y-14890214D02*
X15048786Y-14947357D01*
X15163071Y-14890214D02*
X15163071Y-14947357D01*
X15605928Y-15304500D02*
X15591643Y-15290214D01*
X15563071Y-15247357D01*
X15548786Y-15218786D01*
X15534500Y-15175929D01*
X15520214Y-15104500D01*
X15520214Y-15047357D01*
X15534500Y-14975929D01*
X15548786Y-14933071D01*
X15563071Y-14904500D01*
X15591643Y-14861643D01*
X15605928Y-14847357D01*
X15705928Y-14918786D02*
X15720214Y-14904500D01*
X15748786Y-14890214D01*
X15820214Y-14890214D01*
X15848786Y-14904500D01*
X15863071Y-14918786D01*
X15877357Y-14947357D01*
X15877357Y-14975929D01*
X15863071Y-15018786D01*
X15691643Y-15190214D01*
X15877357Y-15190214D01*
X16234500Y-15190214D02*
X16234500Y-14890214D01*
X16363071Y-15190214D02*
X16363071Y-15033071D01*
X16348786Y-15004500D01*
X16320214Y-14990214D01*
X16277357Y-14990214D01*
X16248786Y-15004500D01*
X16234500Y-15018786D01*
X16548786Y-15190214D02*
X16520214Y-15175929D01*
X16505928Y-15161643D01*
X16491643Y-15133071D01*
X16491643Y-15047357D01*
X16505928Y-15018786D01*
X16520214Y-15004500D01*
X16548786Y-14990214D01*
X16591643Y-14990214D01*
X16620214Y-15004500D01*
X16634500Y-15018786D01*
X16648786Y-15047357D01*
X16648786Y-15133071D01*
X16634500Y-15161643D01*
X16620214Y-15175929D01*
X16591643Y-15190214D01*
X16548786Y-15190214D01*
X16820214Y-15190214D02*
X16791643Y-15175929D01*
X16777357Y-15147357D01*
X16777357Y-14890214D01*
X17048786Y-15175929D02*
X17020214Y-15190214D01*
X16963071Y-15190214D01*
X16934500Y-15175929D01*
X16920214Y-15147357D01*
X16920214Y-15033071D01*
X16934500Y-15004500D01*
X16963071Y-14990214D01*
X17020214Y-14990214D01*
X17048786Y-15004500D01*
X17063071Y-15033071D01*
X17063071Y-15061643D01*
X16920214Y-15090214D01*
X17177357Y-15175929D02*
X17205928Y-15190214D01*
X17263071Y-15190214D01*
X17291643Y-15175929D01*
X17305928Y-15147357D01*
X17305928Y-15133071D01*
X17291643Y-15104500D01*
X17263071Y-15090214D01*
X17220214Y-15090214D01*
X17191643Y-15075929D01*
X17177357Y-15047357D01*
X17177357Y-15033071D01*
X17191643Y-15004500D01*
X17220214Y-14990214D01*
X17263071Y-14990214D01*
X17291643Y-15004500D01*
X17405928Y-15304500D02*
X17420214Y-15290214D01*
X17448786Y-15247357D01*
X17463071Y-15218786D01*
X17477357Y-15175929D01*
X17491643Y-15104500D01*
X17491643Y-15047357D01*
X17477357Y-14975929D01*
X17463071Y-14933071D01*
X17448786Y-14904500D01*
X17420214Y-14861643D01*
X17405928Y-14847357D01*
X10896069Y-15507069D02*
X10896069Y-15393931D01*
X10782931Y-15393931D01*
X10782931Y-15507069D01*
X10896069Y-15507069D01*
X11363071Y-15586214D02*
X11191643Y-15586214D01*
X11277357Y-15586214D02*
X11277357Y-15286214D01*
X11248786Y-15329071D01*
X11220214Y-15357643D01*
X11191643Y-15371929D01*
X11491643Y-15557643D02*
X11505928Y-15571929D01*
X11491643Y-15586214D01*
X11477357Y-15571929D01*
X11491643Y-15557643D01*
X11491643Y-15586214D01*
X11763071Y-15286214D02*
X11705928Y-15286214D01*
X11677357Y-15300500D01*
X11663071Y-15314786D01*
X11634500Y-15357643D01*
X11620214Y-15414786D01*
X11620214Y-15529071D01*
X11634500Y-15557643D01*
X11648786Y-15571929D01*
X11677357Y-15586214D01*
X11734500Y-15586214D01*
X11763071Y-15571929D01*
X11777357Y-15557643D01*
X11791643Y-15529071D01*
X11791643Y-15457643D01*
X11777357Y-15429071D01*
X11763071Y-15414786D01*
X11734500Y-15400500D01*
X11677357Y-15400500D01*
X11648786Y-15414786D01*
X11634500Y-15429071D01*
X11620214Y-15457643D01*
X11977357Y-15286214D02*
X12005928Y-15286214D01*
X12034500Y-15300500D01*
X12048786Y-15314786D01*
X12063071Y-15343357D01*
X12077357Y-15400500D01*
X12077357Y-15471929D01*
X12063071Y-15529071D01*
X12048786Y-15557643D01*
X12034500Y-15571929D01*
X12005928Y-15586214D01*
X11977357Y-15586214D01*
X11948786Y-15571929D01*
X11934500Y-15557643D01*
X11920214Y-15529071D01*
X11905928Y-15471929D01*
X11905928Y-15400500D01*
X11920214Y-15343357D01*
X11934500Y-15314786D01*
X11948786Y-15300500D01*
X11977357Y-15286214D01*
X12205928Y-15586214D02*
X12205928Y-15386214D01*
X12205928Y-15414786D02*
X12220214Y-15400500D01*
X12248786Y-15386214D01*
X12291643Y-15386214D01*
X12320214Y-15400500D01*
X12334500Y-15429071D01*
X12334500Y-15586214D01*
X12334500Y-15429071D02*
X12348786Y-15400500D01*
X12377357Y-15386214D01*
X12420214Y-15386214D01*
X12448786Y-15400500D01*
X12463071Y-15429071D01*
X12463071Y-15586214D01*
X12605928Y-15586214D02*
X12605928Y-15386214D01*
X12605928Y-15414786D02*
X12620214Y-15400500D01*
X12648786Y-15386214D01*
X12691643Y-15386214D01*
X12720214Y-15400500D01*
X12734500Y-15429071D01*
X12734500Y-15586214D01*
X12734500Y-15429071D02*
X12748786Y-15400500D01*
X12777357Y-15386214D01*
X12820214Y-15386214D01*
X12848786Y-15400500D01*
X12863071Y-15429071D01*
X12863071Y-15586214D01*
X13448786Y-15271929D02*
X13191643Y-15657643D01*
X13834500Y-15286214D02*
X13863071Y-15286214D01*
X13891643Y-15300500D01*
X13905928Y-15314786D01*
X13920214Y-15343357D01*
X13934500Y-15400500D01*
X13934500Y-15471929D01*
X13920214Y-15529071D01*
X13905928Y-15557643D01*
X13891643Y-15571929D01*
X13863071Y-15586214D01*
X13834500Y-15586214D01*
X13805928Y-15571929D01*
X13791643Y-15557643D01*
X13777357Y-15529071D01*
X13763071Y-15471929D01*
X13763071Y-15400500D01*
X13777357Y-15343357D01*
X13791643Y-15314786D01*
X13805928Y-15300500D01*
X13834500Y-15286214D01*
X14063071Y-15557643D02*
X14077357Y-15571929D01*
X14063071Y-15586214D01*
X14048786Y-15571929D01*
X14063071Y-15557643D01*
X14063071Y-15586214D01*
X14263071Y-15286214D02*
X14291643Y-15286214D01*
X14320214Y-15300500D01*
X14334500Y-15314786D01*
X14348786Y-15343357D01*
X14363071Y-15400500D01*
X14363071Y-15471929D01*
X14348786Y-15529071D01*
X14334500Y-15557643D01*
X14320214Y-15571929D01*
X14291643Y-15586214D01*
X14263071Y-15586214D01*
X14234500Y-15571929D01*
X14220214Y-15557643D01*
X14205928Y-15529071D01*
X14191643Y-15471929D01*
X14191643Y-15400500D01*
X14205928Y-15343357D01*
X14220214Y-15314786D01*
X14234500Y-15300500D01*
X14263071Y-15286214D01*
X14620214Y-15286214D02*
X14563071Y-15286214D01*
X14534500Y-15300500D01*
X14520214Y-15314786D01*
X14491643Y-15357643D01*
X14477357Y-15414786D01*
X14477357Y-15529071D01*
X14491643Y-15557643D01*
X14505928Y-15571929D01*
X14534500Y-15586214D01*
X14591643Y-15586214D01*
X14620214Y-15571929D01*
X14634500Y-15557643D01*
X14648786Y-15529071D01*
X14648786Y-15457643D01*
X14634500Y-15429071D01*
X14620214Y-15414786D01*
X14591643Y-15400500D01*
X14534500Y-15400500D01*
X14505928Y-15414786D01*
X14491643Y-15429071D01*
X14477357Y-15457643D01*
X14748786Y-15286214D02*
X14934500Y-15286214D01*
X14834500Y-15400500D01*
X14877357Y-15400500D01*
X14905928Y-15414786D01*
X14920214Y-15429071D01*
X14934500Y-15457643D01*
X14934500Y-15529071D01*
X14920214Y-15557643D01*
X14905928Y-15571929D01*
X14877357Y-15586214D01*
X14791643Y-15586214D01*
X14763071Y-15571929D01*
X14748786Y-15557643D01*
X15048786Y-15286214D02*
X15048786Y-15343357D01*
X15163071Y-15286214D02*
X15163071Y-15343357D01*
X15605928Y-15700500D02*
X15591643Y-15686214D01*
X15563071Y-15643357D01*
X15548786Y-15614786D01*
X15534500Y-15571929D01*
X15520214Y-15500500D01*
X15520214Y-15443357D01*
X15534500Y-15371929D01*
X15548786Y-15329071D01*
X15563071Y-15300500D01*
X15591643Y-15257643D01*
X15605928Y-15243357D01*
X15877357Y-15586214D02*
X15705928Y-15586214D01*
X15791643Y-15586214D02*
X15791643Y-15286214D01*
X15763071Y-15329071D01*
X15734500Y-15357643D01*
X15705928Y-15371929D01*
X16234500Y-15586214D02*
X16234500Y-15286214D01*
X16363071Y-15586214D02*
X16363071Y-15429071D01*
X16348786Y-15400500D01*
X16320214Y-15386214D01*
X16277357Y-15386214D01*
X16248786Y-15400500D01*
X16234500Y-15414786D01*
X16548786Y-15586214D02*
X16520214Y-15571929D01*
X16505928Y-15557643D01*
X16491643Y-15529071D01*
X16491643Y-15443357D01*
X16505928Y-15414786D01*
X16520214Y-15400500D01*
X16548786Y-15386214D01*
X16591643Y-15386214D01*
X16620214Y-15400500D01*
X16634500Y-15414786D01*
X16648786Y-15443357D01*
X16648786Y-15529071D01*
X16634500Y-15557643D01*
X16620214Y-15571929D01*
X16591643Y-15586214D01*
X16548786Y-15586214D01*
X16820214Y-15586214D02*
X16791643Y-15571929D01*
X16777357Y-15543357D01*
X16777357Y-15286214D01*
X17048786Y-15571929D02*
X17020214Y-15586214D01*
X16963071Y-15586214D01*
X16934500Y-15571929D01*
X16920214Y-15543357D01*
X16920214Y-15429071D01*
X16934500Y-15400500D01*
X16963071Y-15386214D01*
X17020214Y-15386214D01*
X17048786Y-15400500D01*
X17063071Y-15429071D01*
X17063071Y-15457643D01*
X16920214Y-15486214D01*
X17163071Y-15700500D02*
X17177357Y-15686214D01*
X17205928Y-15643357D01*
X17220214Y-15614786D01*
X17234500Y-15571929D01*
X17248786Y-15500500D01*
X17248786Y-15443357D01*
X17234500Y-15371929D01*
X17220214Y-15329071D01*
X17205928Y-15300500D01*
X17177357Y-15257643D01*
X17163071Y-15243357D01*
X10827000Y-15939000D02*
X10919500Y-15846500D01*
X10827000Y-15754000D01*
X10734500Y-15846500D01*
X10827000Y-15939000D01*
X11363071Y-15982214D02*
X11191643Y-15982214D01*
X11277357Y-15982214D02*
X11277357Y-15682214D01*
X11248786Y-15725071D01*
X11220214Y-15753643D01*
X11191643Y-15767929D01*
X11491643Y-15953643D02*
X11505928Y-15967929D01*
X11491643Y-15982214D01*
X11477357Y-15967929D01*
X11491643Y-15953643D01*
X11491643Y-15982214D01*
X11677357Y-15810786D02*
X11648786Y-15796500D01*
X11634500Y-15782214D01*
X11620214Y-15753643D01*
X11620214Y-15739357D01*
X11634500Y-15710786D01*
X11648786Y-15696500D01*
X11677357Y-15682214D01*
X11734500Y-15682214D01*
X11763071Y-15696500D01*
X11777357Y-15710786D01*
X11791643Y-15739357D01*
X11791643Y-15753643D01*
X11777357Y-15782214D01*
X11763071Y-15796500D01*
X11734500Y-15810786D01*
X11677357Y-15810786D01*
X11648786Y-15825071D01*
X11634500Y-15839357D01*
X11620214Y-15867929D01*
X11620214Y-15925071D01*
X11634500Y-15953643D01*
X11648786Y-15967929D01*
X11677357Y-15982214D01*
X11734500Y-15982214D01*
X11763071Y-15967929D01*
X11777357Y-15953643D01*
X11791643Y-15925071D01*
X11791643Y-15867929D01*
X11777357Y-15839357D01*
X11763071Y-15825071D01*
X11734500Y-15810786D01*
X12063071Y-15682214D02*
X11920214Y-15682214D01*
X11905928Y-15825071D01*
X11920214Y-15810786D01*
X11948786Y-15796500D01*
X12020214Y-15796500D01*
X12048786Y-15810786D01*
X12063071Y-15825071D01*
X12077357Y-15853643D01*
X12077357Y-15925071D01*
X12063071Y-15953643D01*
X12048786Y-15967929D01*
X12020214Y-15982214D01*
X11948786Y-15982214D01*
X11920214Y-15967929D01*
X11905928Y-15953643D01*
X12205928Y-15982214D02*
X12205928Y-15782214D01*
X12205928Y-15810786D02*
X12220214Y-15796500D01*
X12248786Y-15782214D01*
X12291643Y-15782214D01*
X12320214Y-15796500D01*
X12334500Y-15825071D01*
X12334500Y-15982214D01*
X12334500Y-15825071D02*
X12348786Y-15796500D01*
X12377357Y-15782214D01*
X12420214Y-15782214D01*
X12448786Y-15796500D01*
X12463071Y-15825071D01*
X12463071Y-15982214D01*
X12605928Y-15982214D02*
X12605928Y-15782214D01*
X12605928Y-15810786D02*
X12620214Y-15796500D01*
X12648786Y-15782214D01*
X12691643Y-15782214D01*
X12720214Y-15796500D01*
X12734500Y-15825071D01*
X12734500Y-15982214D01*
X12734500Y-15825071D02*
X12748786Y-15796500D01*
X12777357Y-15782214D01*
X12820214Y-15782214D01*
X12848786Y-15796500D01*
X12863071Y-15825071D01*
X12863071Y-15982214D01*
X13448786Y-15667929D02*
X13191643Y-16053643D01*
X13834500Y-15682214D02*
X13863071Y-15682214D01*
X13891643Y-15696500D01*
X13905928Y-15710786D01*
X13920214Y-15739357D01*
X13934500Y-15796500D01*
X13934500Y-15867929D01*
X13920214Y-15925071D01*
X13905928Y-15953643D01*
X13891643Y-15967929D01*
X13863071Y-15982214D01*
X13834500Y-15982214D01*
X13805928Y-15967929D01*
X13791643Y-15953643D01*
X13777357Y-15925071D01*
X13763071Y-15867929D01*
X13763071Y-15796500D01*
X13777357Y-15739357D01*
X13791643Y-15710786D01*
X13805928Y-15696500D01*
X13834500Y-15682214D01*
X14063071Y-15953643D02*
X14077357Y-15967929D01*
X14063071Y-15982214D01*
X14048786Y-15967929D01*
X14063071Y-15953643D01*
X14063071Y-15982214D01*
X14263071Y-15682214D02*
X14291643Y-15682214D01*
X14320214Y-15696500D01*
X14334500Y-15710786D01*
X14348786Y-15739357D01*
X14363071Y-15796500D01*
X14363071Y-15867929D01*
X14348786Y-15925071D01*
X14334500Y-15953643D01*
X14320214Y-15967929D01*
X14291643Y-15982214D01*
X14263071Y-15982214D01*
X14234500Y-15967929D01*
X14220214Y-15953643D01*
X14205928Y-15925071D01*
X14191643Y-15867929D01*
X14191643Y-15796500D01*
X14205928Y-15739357D01*
X14220214Y-15710786D01*
X14234500Y-15696500D01*
X14263071Y-15682214D01*
X14463071Y-15682214D02*
X14663071Y-15682214D01*
X14534500Y-15982214D01*
X14748786Y-15682214D02*
X14934500Y-15682214D01*
X14834500Y-15796500D01*
X14877357Y-15796500D01*
X14905928Y-15810786D01*
X14920214Y-15825071D01*
X14934500Y-15853643D01*
X14934500Y-15925071D01*
X14920214Y-15953643D01*
X14905928Y-15967929D01*
X14877357Y-15982214D01*
X14791643Y-15982214D01*
X14763071Y-15967929D01*
X14748786Y-15953643D01*
X15048786Y-15682214D02*
X15048786Y-15739357D01*
X15163071Y-15682214D02*
X15163071Y-15739357D01*
X15605928Y-16096500D02*
X15591643Y-16082214D01*
X15563071Y-16039357D01*
X15548786Y-16010786D01*
X15534500Y-15967929D01*
X15520214Y-15896500D01*
X15520214Y-15839357D01*
X15534500Y-15767929D01*
X15548786Y-15725071D01*
X15563071Y-15696500D01*
X15591643Y-15653643D01*
X15605928Y-15639357D01*
X15848786Y-15682214D02*
X15791643Y-15682214D01*
X15763071Y-15696500D01*
X15748786Y-15710786D01*
X15720214Y-15753643D01*
X15705928Y-15810786D01*
X15705928Y-15925071D01*
X15720214Y-15953643D01*
X15734500Y-15967929D01*
X15763071Y-15982214D01*
X15820214Y-15982214D01*
X15848786Y-15967929D01*
X15863071Y-15953643D01*
X15877357Y-15925071D01*
X15877357Y-15853643D01*
X15863071Y-15825071D01*
X15848786Y-15810786D01*
X15820214Y-15796500D01*
X15763071Y-15796500D01*
X15734500Y-15810786D01*
X15720214Y-15825071D01*
X15705928Y-15853643D01*
X16234500Y-15982214D02*
X16234500Y-15682214D01*
X16363071Y-15982214D02*
X16363071Y-15825071D01*
X16348786Y-15796500D01*
X16320214Y-15782214D01*
X16277357Y-15782214D01*
X16248786Y-15796500D01*
X16234500Y-15810786D01*
X16548786Y-15982214D02*
X16520214Y-15967929D01*
X16505928Y-15953643D01*
X16491643Y-15925071D01*
X16491643Y-15839357D01*
X16505928Y-15810786D01*
X16520214Y-15796500D01*
X16548786Y-15782214D01*
X16591643Y-15782214D01*
X16620214Y-15796500D01*
X16634500Y-15810786D01*
X16648786Y-15839357D01*
X16648786Y-15925071D01*
X16634500Y-15953643D01*
X16620214Y-15967929D01*
X16591643Y-15982214D01*
X16548786Y-15982214D01*
X16820214Y-15982214D02*
X16791643Y-15967929D01*
X16777357Y-15939357D01*
X16777357Y-15682214D01*
X17048786Y-15967929D02*
X17020214Y-15982214D01*
X16963071Y-15982214D01*
X16934500Y-15967929D01*
X16920214Y-15939357D01*
X16920214Y-15825071D01*
X16934500Y-15796500D01*
X16963071Y-15782214D01*
X17020214Y-15782214D01*
X17048786Y-15796500D01*
X17063071Y-15825071D01*
X17063071Y-15853643D01*
X16920214Y-15882214D01*
X17177357Y-15967929D02*
X17205928Y-15982214D01*
X17263071Y-15982214D01*
X17291643Y-15967929D01*
X17305928Y-15939357D01*
X17305928Y-15925071D01*
X17291643Y-15896500D01*
X17263071Y-15882214D01*
X17220214Y-15882214D01*
X17191643Y-15867929D01*
X17177357Y-15839357D01*
X17177357Y-15825071D01*
X17191643Y-15796500D01*
X17220214Y-15782214D01*
X17263071Y-15782214D01*
X17291643Y-15796500D01*
X17405928Y-16096500D02*
X17420214Y-16082214D01*
X17448786Y-16039357D01*
X17463071Y-16010786D01*
X17477357Y-15967929D01*
X17491643Y-15896500D01*
X17491643Y-15839357D01*
X17477357Y-15767929D01*
X17463071Y-15725071D01*
X17448786Y-15696500D01*
X17420214Y-15653643D01*
X17405928Y-15639357D01*
X10569500Y-16067500D02*
X10919500Y-16417500D01*
X10919500Y-16067500D02*
X10569500Y-16417500D01*
X10919500Y-16242500D02*
G75*
G03*
X10919500Y-16242500I-175000J0D01*
G01*
X11177357Y-16078214D02*
X11363071Y-16078214D01*
X11263071Y-16192500D01*
X11305928Y-16192500D01*
X11334500Y-16206786D01*
X11348786Y-16221071D01*
X11363071Y-16249643D01*
X11363071Y-16321071D01*
X11348786Y-16349643D01*
X11334500Y-16363929D01*
X11305928Y-16378214D01*
X11220214Y-16378214D01*
X11191643Y-16363929D01*
X11177357Y-16349643D01*
X11491643Y-16349643D02*
X11505928Y-16363929D01*
X11491643Y-16378214D01*
X11477357Y-16363929D01*
X11491643Y-16349643D01*
X11491643Y-16378214D01*
X11777357Y-16078214D02*
X11634500Y-16078214D01*
X11620214Y-16221071D01*
X11634500Y-16206786D01*
X11663071Y-16192500D01*
X11734500Y-16192500D01*
X11763071Y-16206786D01*
X11777357Y-16221071D01*
X11791643Y-16249643D01*
X11791643Y-16321071D01*
X11777357Y-16349643D01*
X11763071Y-16363929D01*
X11734500Y-16378214D01*
X11663071Y-16378214D01*
X11634500Y-16363929D01*
X11620214Y-16349643D01*
X11977357Y-16078214D02*
X12005928Y-16078214D01*
X12034500Y-16092500D01*
X12048786Y-16106786D01*
X12063071Y-16135357D01*
X12077357Y-16192500D01*
X12077357Y-16263929D01*
X12063071Y-16321071D01*
X12048786Y-16349643D01*
X12034500Y-16363929D01*
X12005928Y-16378214D01*
X11977357Y-16378214D01*
X11948786Y-16363929D01*
X11934500Y-16349643D01*
X11920214Y-16321071D01*
X11905928Y-16263929D01*
X11905928Y-16192500D01*
X11920214Y-16135357D01*
X11934500Y-16106786D01*
X11948786Y-16092500D01*
X11977357Y-16078214D01*
X12205928Y-16378214D02*
X12205928Y-16178214D01*
X12205928Y-16206786D02*
X12220214Y-16192500D01*
X12248786Y-16178214D01*
X12291643Y-16178214D01*
X12320214Y-16192500D01*
X12334500Y-16221071D01*
X12334500Y-16378214D01*
X12334500Y-16221071D02*
X12348786Y-16192500D01*
X12377357Y-16178214D01*
X12420214Y-16178214D01*
X12448786Y-16192500D01*
X12463071Y-16221071D01*
X12463071Y-16378214D01*
X12605928Y-16378214D02*
X12605928Y-16178214D01*
X12605928Y-16206786D02*
X12620214Y-16192500D01*
X12648786Y-16178214D01*
X12691643Y-16178214D01*
X12720214Y-16192500D01*
X12734500Y-16221071D01*
X12734500Y-16378214D01*
X12734500Y-16221071D02*
X12748786Y-16192500D01*
X12777357Y-16178214D01*
X12820214Y-16178214D01*
X12848786Y-16192500D01*
X12863071Y-16221071D01*
X12863071Y-16378214D01*
X13448786Y-16063929D02*
X13191643Y-16449643D01*
X13834500Y-16078214D02*
X13863071Y-16078214D01*
X13891643Y-16092500D01*
X13905928Y-16106786D01*
X13920214Y-16135357D01*
X13934500Y-16192500D01*
X13934500Y-16263929D01*
X13920214Y-16321071D01*
X13905928Y-16349643D01*
X13891643Y-16363929D01*
X13863071Y-16378214D01*
X13834500Y-16378214D01*
X13805928Y-16363929D01*
X13791643Y-16349643D01*
X13777357Y-16321071D01*
X13763071Y-16263929D01*
X13763071Y-16192500D01*
X13777357Y-16135357D01*
X13791643Y-16106786D01*
X13805928Y-16092500D01*
X13834500Y-16078214D01*
X14063071Y-16349643D02*
X14077357Y-16363929D01*
X14063071Y-16378214D01*
X14048786Y-16363929D01*
X14063071Y-16349643D01*
X14063071Y-16378214D01*
X14363071Y-16378214D02*
X14191643Y-16378214D01*
X14277357Y-16378214D02*
X14277357Y-16078214D01*
X14248786Y-16121071D01*
X14220214Y-16149643D01*
X14191643Y-16163929D01*
X14463071Y-16078214D02*
X14648786Y-16078214D01*
X14548786Y-16192500D01*
X14591643Y-16192500D01*
X14620214Y-16206786D01*
X14634500Y-16221071D01*
X14648786Y-16249643D01*
X14648786Y-16321071D01*
X14634500Y-16349643D01*
X14620214Y-16363929D01*
X14591643Y-16378214D01*
X14505928Y-16378214D01*
X14477357Y-16363929D01*
X14463071Y-16349643D01*
X14820214Y-16206786D02*
X14791643Y-16192500D01*
X14777357Y-16178214D01*
X14763071Y-16149643D01*
X14763071Y-16135357D01*
X14777357Y-16106786D01*
X14791643Y-16092500D01*
X14820214Y-16078214D01*
X14877357Y-16078214D01*
X14905928Y-16092500D01*
X14920214Y-16106786D01*
X14934500Y-16135357D01*
X14934500Y-16149643D01*
X14920214Y-16178214D01*
X14905928Y-16192500D01*
X14877357Y-16206786D01*
X14820214Y-16206786D01*
X14791643Y-16221071D01*
X14777357Y-16235357D01*
X14763071Y-16263929D01*
X14763071Y-16321071D01*
X14777357Y-16349643D01*
X14791643Y-16363929D01*
X14820214Y-16378214D01*
X14877357Y-16378214D01*
X14905928Y-16363929D01*
X14920214Y-16349643D01*
X14934500Y-16321071D01*
X14934500Y-16263929D01*
X14920214Y-16235357D01*
X14905928Y-16221071D01*
X14877357Y-16206786D01*
X15048786Y-16078214D02*
X15048786Y-16135357D01*
X15163071Y-16078214D02*
X15163071Y-16135357D01*
X15605928Y-16492500D02*
X15591643Y-16478214D01*
X15563071Y-16435357D01*
X15548786Y-16406786D01*
X15534500Y-16363929D01*
X15520214Y-16292500D01*
X15520214Y-16235357D01*
X15534500Y-16163929D01*
X15548786Y-16121071D01*
X15563071Y-16092500D01*
X15591643Y-16049643D01*
X15605928Y-16035357D01*
X15705928Y-16106786D02*
X15720214Y-16092500D01*
X15748786Y-16078214D01*
X15820214Y-16078214D01*
X15848786Y-16092500D01*
X15863071Y-16106786D01*
X15877357Y-16135357D01*
X15877357Y-16163929D01*
X15863071Y-16206786D01*
X15691643Y-16378214D01*
X15877357Y-16378214D01*
X16234500Y-16378214D02*
X16234500Y-16078214D01*
X16363071Y-16378214D02*
X16363071Y-16221071D01*
X16348786Y-16192500D01*
X16320214Y-16178214D01*
X16277357Y-16178214D01*
X16248786Y-16192500D01*
X16234500Y-16206786D01*
X16548786Y-16378214D02*
X16520214Y-16363929D01*
X16505928Y-16349643D01*
X16491643Y-16321071D01*
X16491643Y-16235357D01*
X16505928Y-16206786D01*
X16520214Y-16192500D01*
X16548786Y-16178214D01*
X16591643Y-16178214D01*
X16620214Y-16192500D01*
X16634500Y-16206786D01*
X16648786Y-16235357D01*
X16648786Y-16321071D01*
X16634500Y-16349643D01*
X16620214Y-16363929D01*
X16591643Y-16378214D01*
X16548786Y-16378214D01*
X16820214Y-16378214D02*
X16791643Y-16363929D01*
X16777357Y-16335357D01*
X16777357Y-16078214D01*
X17048786Y-16363929D02*
X17020214Y-16378214D01*
X16963071Y-16378214D01*
X16934500Y-16363929D01*
X16920214Y-16335357D01*
X16920214Y-16221071D01*
X16934500Y-16192500D01*
X16963071Y-16178214D01*
X17020214Y-16178214D01*
X17048786Y-16192500D01*
X17063071Y-16221071D01*
X17063071Y-16249643D01*
X16920214Y-16278214D01*
X17177357Y-16363929D02*
X17205928Y-16378214D01*
X17263071Y-16378214D01*
X17291643Y-16363929D01*
X17305928Y-16335357D01*
X17305928Y-16321071D01*
X17291643Y-16292500D01*
X17263071Y-16278214D01*
X17220214Y-16278214D01*
X17191643Y-16263929D01*
X17177357Y-16235357D01*
X17177357Y-16221071D01*
X17191643Y-16192500D01*
X17220214Y-16178214D01*
X17263071Y-16178214D01*
X17291643Y-16192500D01*
X17405928Y-16492500D02*
X17420214Y-16478214D01*
X17448786Y-16435357D01*
X17463071Y-16406786D01*
X17477357Y-16363929D01*
X17491643Y-16292500D01*
X17491643Y-16235357D01*
X17477357Y-16163929D01*
X17463071Y-16121071D01*
X17448786Y-16092500D01*
X17420214Y-16049643D01*
X17405928Y-16035357D01*
M02*
