M48
; DRILL file {KiCad (5.1.6-0-10_14)} date Thursday, August 27, 2020 at 08:06:00 AM
; FORMAT={-:-/ absolute / inch / decimal}
; #@! TF.CreationDate,2020-08-27T08:06:00+01:00
; #@! TF.GenerationSoftware,Kicad,Pcbnew,(5.1.6-0-10_14)
; #@! TF.FileFunction,Plated,1,2,PTH
FMAT,2
INCH
T1C0.0315
T2C0.0512
T3C0.0630
T4C0.0728
T5C0.0866
T6C0.1378
%
G90
G05
T1
X6.5394Y-4.3898
X6.626Y-4.0945
X6.5394Y-4.9803
X6.626Y-4.685
X5.9331Y-4.8307
X6.2283Y-4.9764
X6.0236Y-4.4646
X6.3189Y-4.6102
T2
X5.3996Y-3.2618
X5.3996Y-3.498
X7.0512Y-4.0945
X7.0512Y-4.3898
X7.0512Y-4.685
X7.0512Y-4.9803
T3
X5.3996Y-4.6476
T4
X6.7362Y-2.9606
X6.7362Y-3.3071
X6.7362Y-3.6535
X7.0512Y-2.9606
X7.0512Y-3.3071
X7.0512Y-3.6535
T5
X6.378Y-5.4331
T6
X5.4528Y-5.3937
T0
M30
