M48
; DRILL file {KiCad (5.1.6-0-10_14)} date Sunday, August 23, 2020 at 07:27:08 PM
; FORMAT={-:-/ absolute / inch / decimal}
; #@! TF.CreationDate,2020-08-23T19:27:08+01:00
; #@! TF.GenerationSoftware,Kicad,Pcbnew,(5.1.6-0-10_14)
; #@! TF.FileFunction,Plated,1,2,PTH
FMAT,2
INCH
T1C0.0348
T2C0.0472
T3C0.0512
T4C0.0630
T5C0.0728
T6C0.1378
%
G90
G05
T1
X5.4921Y-4.7047
X5.689Y-4.7047
X6.063Y-4.2913
X6.1614Y-4.0945
X5.4936Y-4.3141
X5.6904Y-4.3141
X6.063Y-4.7638
X6.1614Y-4.5669
T2
X6.5551Y-4.0945
X6.5551Y-4.2913
X6.5551Y-4.4882
X6.5551Y-4.685
T3
X5.062Y-3.0721
X5.062Y-3.3083
T4
X5.062Y-4.4579
T5
X6.2Y-3.06
X6.2Y-3.4065
X6.2Y-3.7529
X6.515Y-3.06
X6.515Y-3.4065
X6.515Y-3.7529
T6
X5.6402Y-5.0299
X5.089Y-5.0299
T0
M30
