%TF.GenerationSoftware,KiCad,Pcbnew,(5.1.6-0-10_14)*%
%TF.CreationDate,2020-08-23T19:27:10+01:00*%
%TF.ProjectId,IEC Power Entry,49454320-506f-4776-9572-20456e747279,1.0a*%
%TF.SameCoordinates,Original*%
%TF.FileFunction,Legend,Top*%
%TF.FilePolarity,Positive*%
%FSLAX46Y46*%
G04 Gerber Fmt 4.6, Leading zero omitted, Abs format (unit mm)*
G04 Created by KiCad (PCBNEW (5.1.6-0-10_14)) date 2020-08-23 19:27:10*
%MOMM*%
%LPD*%
G01*
G04 APERTURE LIST*
%ADD10C,0.150000*%
%ADD11C,0.010000*%
%ADD12C,0.200000*%
%ADD13C,0.127000*%
%ADD14C,0.120000*%
%ADD15C,0.100000*%
%ADD16C,0.254000*%
%ADD17C,0.015000*%
G04 APERTURE END LIST*
D10*
X150283452Y-66627380D02*
X150283452Y-65627380D01*
X150664404Y-65627380D01*
X150759642Y-65675000D01*
X150807261Y-65722619D01*
X150854880Y-65817857D01*
X150854880Y-65960714D01*
X150807261Y-66055952D01*
X150759642Y-66103571D01*
X150664404Y-66151190D01*
X150283452Y-66151190D01*
X151426309Y-66627380D02*
X151331071Y-66579761D01*
X151283452Y-66532142D01*
X151235833Y-66436904D01*
X151235833Y-66151190D01*
X151283452Y-66055952D01*
X151331071Y-66008333D01*
X151426309Y-65960714D01*
X151569166Y-65960714D01*
X151664404Y-66008333D01*
X151712023Y-66055952D01*
X151759642Y-66151190D01*
X151759642Y-66436904D01*
X151712023Y-66532142D01*
X151664404Y-66579761D01*
X151569166Y-66627380D01*
X151426309Y-66627380D01*
X152092976Y-65960714D02*
X152283452Y-66627380D01*
X152473928Y-66151190D01*
X152664404Y-66627380D01*
X152854880Y-65960714D01*
X153616785Y-66579761D02*
X153521547Y-66627380D01*
X153331071Y-66627380D01*
X153235833Y-66579761D01*
X153188214Y-66484523D01*
X153188214Y-66103571D01*
X153235833Y-66008333D01*
X153331071Y-65960714D01*
X153521547Y-65960714D01*
X153616785Y-66008333D01*
X153664404Y-66103571D01*
X153664404Y-66198809D01*
X153188214Y-66294047D01*
X154092976Y-66627380D02*
X154092976Y-65960714D01*
X154092976Y-66151190D02*
X154140595Y-66055952D01*
X154188214Y-66008333D01*
X154283452Y-65960714D01*
X154378690Y-65960714D01*
X155473928Y-66103571D02*
X155807261Y-66103571D01*
X155950119Y-66627380D02*
X155473928Y-66627380D01*
X155473928Y-65627380D01*
X155950119Y-65627380D01*
X156378690Y-65960714D02*
X156378690Y-66627380D01*
X156378690Y-66055952D02*
X156426309Y-66008333D01*
X156521547Y-65960714D01*
X156664404Y-65960714D01*
X156759642Y-66008333D01*
X156807261Y-66103571D01*
X156807261Y-66627380D01*
X157140595Y-65960714D02*
X157521547Y-65960714D01*
X157283452Y-65627380D02*
X157283452Y-66484523D01*
X157331071Y-66579761D01*
X157426309Y-66627380D01*
X157521547Y-66627380D01*
X157854880Y-66627380D02*
X157854880Y-65960714D01*
X157854880Y-66151190D02*
X157902500Y-66055952D01*
X157950119Y-66008333D01*
X158045357Y-65960714D01*
X158140595Y-65960714D01*
X158378690Y-65960714D02*
X158616785Y-66627380D01*
X158854880Y-65960714D02*
X158616785Y-66627380D01*
X158521547Y-66865476D01*
X158473928Y-66913095D01*
X158378690Y-66960714D01*
X159854880Y-65627380D02*
X160188214Y-66627380D01*
X160521547Y-65627380D01*
X161378690Y-66627380D02*
X160807261Y-66627380D01*
X161092976Y-66627380D02*
X161092976Y-65627380D01*
X160997738Y-65770238D01*
X160902500Y-65865476D01*
X160807261Y-65913095D01*
X161807261Y-66532142D02*
X161854880Y-66579761D01*
X161807261Y-66627380D01*
X161759642Y-66579761D01*
X161807261Y-66532142D01*
X161807261Y-66627380D01*
X162473928Y-65627380D02*
X162569166Y-65627380D01*
X162664404Y-65675000D01*
X162712023Y-65722619D01*
X162759642Y-65817857D01*
X162807261Y-66008333D01*
X162807261Y-66246428D01*
X162759642Y-66436904D01*
X162712023Y-66532142D01*
X162664404Y-66579761D01*
X162569166Y-66627380D01*
X162473928Y-66627380D01*
X162378690Y-66579761D01*
X162331071Y-66532142D01*
X162283452Y-66436904D01*
X162235833Y-66246428D01*
X162235833Y-66008333D01*
X162283452Y-65817857D01*
X162331071Y-65722619D01*
X162378690Y-65675000D01*
X162473928Y-65627380D01*
X163664404Y-66627380D02*
X163664404Y-66103571D01*
X163616785Y-66008333D01*
X163521547Y-65960714D01*
X163331071Y-65960714D01*
X163235833Y-66008333D01*
X163664404Y-66579761D02*
X163569166Y-66627380D01*
X163331071Y-66627380D01*
X163235833Y-66579761D01*
X163188214Y-66484523D01*
X163188214Y-66389285D01*
X163235833Y-66294047D01*
X163331071Y-66246428D01*
X163569166Y-66246428D01*
X163664404Y-66198809D01*
X154569166Y-67991666D02*
X155045357Y-67991666D01*
X154473928Y-68277380D02*
X154807261Y-67277380D01*
X155140595Y-68277380D01*
X155902500Y-67610714D02*
X155902500Y-68277380D01*
X155473928Y-67610714D02*
X155473928Y-68134523D01*
X155521547Y-68229761D01*
X155616785Y-68277380D01*
X155759642Y-68277380D01*
X155854880Y-68229761D01*
X155902500Y-68182142D01*
X156807261Y-67610714D02*
X156807261Y-68420238D01*
X156759642Y-68515476D01*
X156712023Y-68563095D01*
X156616785Y-68610714D01*
X156473928Y-68610714D01*
X156378690Y-68563095D01*
X156807261Y-68229761D02*
X156712023Y-68277380D01*
X156521547Y-68277380D01*
X156426309Y-68229761D01*
X156378690Y-68182142D01*
X156331071Y-68086904D01*
X156331071Y-67801190D01*
X156378690Y-67705952D01*
X156426309Y-67658333D01*
X156521547Y-67610714D01*
X156712023Y-67610714D01*
X156807261Y-67658333D01*
X157712023Y-67610714D02*
X157712023Y-68277380D01*
X157283452Y-67610714D02*
X157283452Y-68134523D01*
X157331071Y-68229761D01*
X157426309Y-68277380D01*
X157569166Y-68277380D01*
X157664404Y-68229761D01*
X157712023Y-68182142D01*
X158140595Y-68229761D02*
X158235833Y-68277380D01*
X158426309Y-68277380D01*
X158521547Y-68229761D01*
X158569166Y-68134523D01*
X158569166Y-68086904D01*
X158521547Y-67991666D01*
X158426309Y-67944047D01*
X158283452Y-67944047D01*
X158188214Y-67896428D01*
X158140595Y-67801190D01*
X158140595Y-67753571D01*
X158188214Y-67658333D01*
X158283452Y-67610714D01*
X158426309Y-67610714D01*
X158521547Y-67658333D01*
X158854880Y-67610714D02*
X159235833Y-67610714D01*
X158997738Y-67277380D02*
X158997738Y-68134523D01*
X159045357Y-68229761D01*
X159140595Y-68277380D01*
X159235833Y-68277380D01*
X160283452Y-67372619D02*
X160331071Y-67325000D01*
X160426309Y-67277380D01*
X160664404Y-67277380D01*
X160759642Y-67325000D01*
X160807261Y-67372619D01*
X160854880Y-67467857D01*
X160854880Y-67563095D01*
X160807261Y-67705952D01*
X160235833Y-68277380D01*
X160854880Y-68277380D01*
X161473928Y-67277380D02*
X161569166Y-67277380D01*
X161664404Y-67325000D01*
X161712023Y-67372619D01*
X161759642Y-67467857D01*
X161807261Y-67658333D01*
X161807261Y-67896428D01*
X161759642Y-68086904D01*
X161712023Y-68182142D01*
X161664404Y-68229761D01*
X161569166Y-68277380D01*
X161473928Y-68277380D01*
X161378690Y-68229761D01*
X161331071Y-68182142D01*
X161283452Y-68086904D01*
X161235833Y-67896428D01*
X161235833Y-67658333D01*
X161283452Y-67467857D01*
X161331071Y-67372619D01*
X161378690Y-67325000D01*
X161473928Y-67277380D01*
X162188214Y-67372619D02*
X162235833Y-67325000D01*
X162331071Y-67277380D01*
X162569166Y-67277380D01*
X162664404Y-67325000D01*
X162712023Y-67372619D01*
X162759642Y-67467857D01*
X162759642Y-67563095D01*
X162712023Y-67705952D01*
X162140595Y-68277380D01*
X162759642Y-68277380D01*
X163378690Y-67277380D02*
X163473928Y-67277380D01*
X163569166Y-67325000D01*
X163616785Y-67372619D01*
X163664404Y-67467857D01*
X163712023Y-67658333D01*
X163712023Y-67896428D01*
X163664404Y-68086904D01*
X163616785Y-68182142D01*
X163569166Y-68229761D01*
X163473928Y-68277380D01*
X163378690Y-68277380D01*
X163283452Y-68229761D01*
X163235833Y-68182142D01*
X163188214Y-68086904D01*
X163140595Y-67896428D01*
X163140595Y-67658333D01*
X163188214Y-67467857D01*
X163235833Y-67372619D01*
X163283452Y-67325000D01*
X163378690Y-67277380D01*
X118726180Y-105290242D02*
X117726180Y-105290242D01*
X117726180Y-105052147D01*
X117773800Y-104909290D01*
X117869038Y-104814052D01*
X117964276Y-104766433D01*
X118154752Y-104718814D01*
X118297609Y-104718814D01*
X118488085Y-104766433D01*
X118583323Y-104814052D01*
X118678561Y-104909290D01*
X118726180Y-105052147D01*
X118726180Y-105290242D01*
X118726180Y-104290242D02*
X117726180Y-104290242D01*
X117726180Y-104052147D01*
X117773800Y-103909290D01*
X117869038Y-103814052D01*
X117964276Y-103766433D01*
X118154752Y-103718814D01*
X118297609Y-103718814D01*
X118488085Y-103766433D01*
X118583323Y-103814052D01*
X118678561Y-103909290D01*
X118726180Y-104052147D01*
X118726180Y-104290242D01*
X117821419Y-103337861D02*
X117773800Y-103290242D01*
X117726180Y-103195004D01*
X117726180Y-102956909D01*
X117773800Y-102861671D01*
X117821419Y-102814052D01*
X117916657Y-102766433D01*
X118011895Y-102766433D01*
X118154752Y-102814052D01*
X118726180Y-103385480D01*
X118726180Y-102766433D01*
X118726180Y-101814052D02*
X118726180Y-102385480D01*
X118726180Y-102099766D02*
X117726180Y-102099766D01*
X117869038Y-102195004D01*
X117964276Y-102290242D01*
X118011895Y-102385480D01*
X118726180Y-100623576D02*
X117726180Y-100623576D01*
X117726180Y-100242623D01*
X117773800Y-100147385D01*
X117821419Y-100099766D01*
X117916657Y-100052147D01*
X118059514Y-100052147D01*
X118154752Y-100099766D01*
X118202371Y-100147385D01*
X118249990Y-100242623D01*
X118249990Y-100623576D01*
X118726180Y-99480719D02*
X118678561Y-99575957D01*
X118630942Y-99623576D01*
X118535704Y-99671195D01*
X118249990Y-99671195D01*
X118154752Y-99623576D01*
X118107133Y-99575957D01*
X118059514Y-99480719D01*
X118059514Y-99337861D01*
X118107133Y-99242623D01*
X118154752Y-99195004D01*
X118249990Y-99147385D01*
X118535704Y-99147385D01*
X118630942Y-99195004D01*
X118678561Y-99242623D01*
X118726180Y-99337861D01*
X118726180Y-99480719D01*
X118059514Y-98814052D02*
X118726180Y-98623576D01*
X118249990Y-98433100D01*
X118726180Y-98242623D01*
X118059514Y-98052147D01*
X118678561Y-97290242D02*
X118726180Y-97385480D01*
X118726180Y-97575957D01*
X118678561Y-97671195D01*
X118583323Y-97718814D01*
X118202371Y-97718814D01*
X118107133Y-97671195D01*
X118059514Y-97575957D01*
X118059514Y-97385480D01*
X118107133Y-97290242D01*
X118202371Y-97242623D01*
X118297609Y-97242623D01*
X118392847Y-97718814D01*
X118726180Y-96814052D02*
X118059514Y-96814052D01*
X118249990Y-96814052D02*
X118154752Y-96766433D01*
X118107133Y-96718814D01*
X118059514Y-96623576D01*
X118059514Y-96528338D01*
X118726180Y-95433100D02*
X117726180Y-95433100D01*
X118059514Y-94956909D02*
X118726180Y-94956909D01*
X118154752Y-94956909D02*
X118107133Y-94909290D01*
X118059514Y-94814052D01*
X118059514Y-94671195D01*
X118107133Y-94575957D01*
X118202371Y-94528338D01*
X118726180Y-94528338D01*
X118726180Y-93909290D02*
X118678561Y-94004528D01*
X118583323Y-94052147D01*
X117726180Y-94052147D01*
X118678561Y-93147385D02*
X118726180Y-93242623D01*
X118726180Y-93433100D01*
X118678561Y-93528338D01*
X118583323Y-93575957D01*
X118202371Y-93575957D01*
X118107133Y-93528338D01*
X118059514Y-93433100D01*
X118059514Y-93242623D01*
X118107133Y-93147385D01*
X118202371Y-93099766D01*
X118297609Y-93099766D01*
X118392847Y-93575957D01*
X118059514Y-92814052D02*
X118059514Y-92433100D01*
X117726180Y-92671195D02*
X118583323Y-92671195D01*
X118678561Y-92623576D01*
X118726180Y-92528338D01*
X118726180Y-92433100D01*
X171800780Y-104292304D02*
X170800780Y-104292304D01*
X171800780Y-103720876D01*
X170800780Y-103720876D01*
X170896019Y-103292304D02*
X170848400Y-103244685D01*
X170800780Y-103149447D01*
X170800780Y-102911352D01*
X170848400Y-102816114D01*
X170896019Y-102768495D01*
X170991257Y-102720876D01*
X171086495Y-102720876D01*
X171229352Y-102768495D01*
X171800780Y-103339923D01*
X171800780Y-102720876D01*
X171800780Y-108904066D02*
X171800780Y-109380257D01*
X170800780Y-109380257D01*
X170896019Y-108618352D02*
X170848400Y-108570733D01*
X170800780Y-108475495D01*
X170800780Y-108237400D01*
X170848400Y-108142161D01*
X170896019Y-108094542D01*
X170991257Y-108046923D01*
X171086495Y-108046923D01*
X171229352Y-108094542D01*
X171800780Y-108665971D01*
X171800780Y-108046923D01*
X171800780Y-114452304D02*
X170800780Y-114452304D01*
X171800780Y-113880876D01*
X170800780Y-113880876D01*
X171800780Y-112880876D02*
X171800780Y-113452304D01*
X171800780Y-113166590D02*
X170800780Y-113166590D01*
X170943638Y-113261828D01*
X171038876Y-113357066D01*
X171086495Y-113452304D01*
X171800780Y-118937066D02*
X171800780Y-119413257D01*
X170800780Y-119413257D01*
X171800780Y-118079923D02*
X171800780Y-118651352D01*
X171800780Y-118365638D02*
X170800780Y-118365638D01*
X170943638Y-118460876D01*
X171038876Y-118556114D01*
X171086495Y-118651352D01*
D11*
%TO.C,G\u002A\u002A\u002A*%
G36*
X135737312Y-65500093D02*
G01*
X136066094Y-65500624D01*
X136338548Y-65502784D01*
X136561841Y-65507758D01*
X136743144Y-65516731D01*
X136889626Y-65530890D01*
X137008456Y-65551419D01*
X137106804Y-65579505D01*
X137191838Y-65616332D01*
X137270729Y-65663087D01*
X137350645Y-65720955D01*
X137423749Y-65778968D01*
X137610235Y-65968708D01*
X137746305Y-66190997D01*
X137829889Y-66437213D01*
X137858915Y-66698735D01*
X137831315Y-66966942D01*
X137762858Y-67191089D01*
X137684534Y-67384999D01*
X137827148Y-67537465D01*
X137949606Y-67683680D01*
X138032320Y-67825406D01*
X138081944Y-67980861D01*
X138105132Y-68168264D01*
X138109156Y-68309625D01*
X138108136Y-68461945D01*
X138100836Y-68571658D01*
X138083406Y-68659612D01*
X138051995Y-68746651D01*
X138012373Y-68833500D01*
X137865482Y-69071510D01*
X137672945Y-69265490D01*
X137436327Y-69413873D01*
X137428000Y-69417873D01*
X137221625Y-69516125D01*
X135927812Y-69525084D01*
X134634000Y-69534043D01*
X134634000Y-67912750D01*
X135427750Y-67912750D01*
X135427750Y-68738250D01*
X136214057Y-68738250D01*
X136462097Y-68737827D01*
X136655037Y-68736198D01*
X136801273Y-68732816D01*
X136909202Y-68727138D01*
X136987220Y-68718619D01*
X137043724Y-68706714D01*
X137087111Y-68690879D01*
X137108542Y-68680234D01*
X137211482Y-68596858D01*
X137290753Y-68480738D01*
X137330723Y-68356608D01*
X137332750Y-68325499D01*
X137305816Y-68203394D01*
X137235437Y-68082742D01*
X137137247Y-67988279D01*
X137108542Y-67970765D01*
X137068804Y-67952522D01*
X137020593Y-67938511D01*
X136955511Y-67928186D01*
X136865163Y-67921004D01*
X136741151Y-67916420D01*
X136575080Y-67913889D01*
X136358552Y-67912866D01*
X136214057Y-67912750D01*
X135427750Y-67912750D01*
X134634000Y-67912750D01*
X134634000Y-66821055D01*
X135432321Y-66821055D01*
X135433025Y-66947998D01*
X135436454Y-67038838D01*
X135441532Y-67077371D01*
X135478038Y-67093135D01*
X135566531Y-67105492D01*
X135695590Y-67114460D01*
X135853796Y-67120057D01*
X136029729Y-67122301D01*
X136211967Y-67121210D01*
X136389090Y-67116801D01*
X136549679Y-67109094D01*
X136682312Y-67098106D01*
X136775569Y-67083855D01*
X136804563Y-67075222D01*
X136930350Y-66993559D01*
X137011325Y-66881384D01*
X137048151Y-66751880D01*
X137041490Y-66618232D01*
X136992003Y-66493627D01*
X136900354Y-66391247D01*
X136767204Y-66324279D01*
X136766847Y-66324176D01*
X136689624Y-66312159D01*
X136557831Y-66303661D01*
X136380319Y-66298982D01*
X136165937Y-66298420D01*
X136046875Y-66299790D01*
X135443625Y-66309375D01*
X135434591Y-66672558D01*
X135432321Y-66821055D01*
X134634000Y-66821055D01*
X134634000Y-65499750D01*
X135737312Y-65500093D01*
G37*
X135737312Y-65500093D02*
X136066094Y-65500624D01*
X136338548Y-65502784D01*
X136561841Y-65507758D01*
X136743144Y-65516731D01*
X136889626Y-65530890D01*
X137008456Y-65551419D01*
X137106804Y-65579505D01*
X137191838Y-65616332D01*
X137270729Y-65663087D01*
X137350645Y-65720955D01*
X137423749Y-65778968D01*
X137610235Y-65968708D01*
X137746305Y-66190997D01*
X137829889Y-66437213D01*
X137858915Y-66698735D01*
X137831315Y-66966942D01*
X137762858Y-67191089D01*
X137684534Y-67384999D01*
X137827148Y-67537465D01*
X137949606Y-67683680D01*
X138032320Y-67825406D01*
X138081944Y-67980861D01*
X138105132Y-68168264D01*
X138109156Y-68309625D01*
X138108136Y-68461945D01*
X138100836Y-68571658D01*
X138083406Y-68659612D01*
X138051995Y-68746651D01*
X138012373Y-68833500D01*
X137865482Y-69071510D01*
X137672945Y-69265490D01*
X137436327Y-69413873D01*
X137428000Y-69417873D01*
X137221625Y-69516125D01*
X135927812Y-69525084D01*
X134634000Y-69534043D01*
X134634000Y-67912750D01*
X135427750Y-67912750D01*
X135427750Y-68738250D01*
X136214057Y-68738250D01*
X136462097Y-68737827D01*
X136655037Y-68736198D01*
X136801273Y-68732816D01*
X136909202Y-68727138D01*
X136987220Y-68718619D01*
X137043724Y-68706714D01*
X137087111Y-68690879D01*
X137108542Y-68680234D01*
X137211482Y-68596858D01*
X137290753Y-68480738D01*
X137330723Y-68356608D01*
X137332750Y-68325499D01*
X137305816Y-68203394D01*
X137235437Y-68082742D01*
X137137247Y-67988279D01*
X137108542Y-67970765D01*
X137068804Y-67952522D01*
X137020593Y-67938511D01*
X136955511Y-67928186D01*
X136865163Y-67921004D01*
X136741151Y-67916420D01*
X136575080Y-67913889D01*
X136358552Y-67912866D01*
X136214057Y-67912750D01*
X135427750Y-67912750D01*
X134634000Y-67912750D01*
X134634000Y-66821055D01*
X135432321Y-66821055D01*
X135433025Y-66947998D01*
X135436454Y-67038838D01*
X135441532Y-67077371D01*
X135478038Y-67093135D01*
X135566531Y-67105492D01*
X135695590Y-67114460D01*
X135853796Y-67120057D01*
X136029729Y-67122301D01*
X136211967Y-67121210D01*
X136389090Y-67116801D01*
X136549679Y-67109094D01*
X136682312Y-67098106D01*
X136775569Y-67083855D01*
X136804563Y-67075222D01*
X136930350Y-66993559D01*
X137011325Y-66881384D01*
X137048151Y-66751880D01*
X137041490Y-66618232D01*
X136992003Y-66493627D01*
X136900354Y-66391247D01*
X136767204Y-66324279D01*
X136766847Y-66324176D01*
X136689624Y-66312159D01*
X136557831Y-66303661D01*
X136380319Y-66298982D01*
X136165937Y-66298420D01*
X136046875Y-66299790D01*
X135443625Y-66309375D01*
X135434591Y-66672558D01*
X135432321Y-66821055D01*
X134634000Y-66821055D01*
X134634000Y-65499750D01*
X135737312Y-65500093D01*
G36*
X141777750Y-65509236D02*
G01*
X142134791Y-65557498D01*
X142466393Y-65662678D01*
X142768907Y-65822053D01*
X143038684Y-66032896D01*
X143272078Y-66292484D01*
X143465440Y-66598090D01*
X143582562Y-66857330D01*
X143616075Y-66950282D01*
X143639073Y-67034313D01*
X143653498Y-67124957D01*
X143661288Y-67237749D01*
X143664385Y-67388226D01*
X143664799Y-67515875D01*
X143663740Y-67699771D01*
X143659268Y-67835719D01*
X143649444Y-67939255D01*
X143632328Y-68025914D01*
X143605979Y-68111230D01*
X143582562Y-68174419D01*
X143423495Y-68507343D01*
X143218844Y-68801881D01*
X142973362Y-69053389D01*
X142691805Y-69257222D01*
X142378927Y-69408734D01*
X142285750Y-69441345D01*
X142098173Y-69485148D01*
X141873003Y-69512419D01*
X141634211Y-69522177D01*
X141405769Y-69513443D01*
X141211650Y-69485239D01*
X141211575Y-69485222D01*
X140917133Y-69392435D01*
X140644351Y-69250140D01*
X140383628Y-69052775D01*
X140252966Y-68929880D01*
X140064381Y-68723407D01*
X139922270Y-68522452D01*
X139815042Y-68306823D01*
X139731110Y-68056329D01*
X139713447Y-67989965D01*
X139659242Y-67651422D01*
X139660882Y-67575106D01*
X140464919Y-67575106D01*
X140505090Y-67827354D01*
X140600267Y-68069038D01*
X140750684Y-68291328D01*
X140804604Y-68350834D01*
X141019517Y-68530793D01*
X141257915Y-68653222D01*
X141513589Y-68716721D01*
X141780329Y-68719887D01*
X142051926Y-68661322D01*
X142102275Y-68643584D01*
X142340403Y-68523535D01*
X142537153Y-68362103D01*
X142690810Y-68167495D01*
X142799660Y-67947916D01*
X142861989Y-67711571D01*
X142876081Y-67466668D01*
X142840224Y-67221411D01*
X142752702Y-66984006D01*
X142611800Y-66762660D01*
X142517305Y-66657068D01*
X142305996Y-66487721D01*
X142071527Y-66373407D01*
X141822599Y-66314229D01*
X141567913Y-66310291D01*
X141316169Y-66361697D01*
X141076070Y-66468552D01*
X140856315Y-66630959D01*
X140849662Y-66637126D01*
X140672127Y-66843306D01*
X140548670Y-67074251D01*
X140479523Y-67321128D01*
X140464919Y-67575106D01*
X139660882Y-67575106D01*
X139666666Y-67306032D01*
X139735066Y-66959325D01*
X139863791Y-66616831D01*
X139879351Y-66584267D01*
X139993283Y-66397329D01*
X140151206Y-66203069D01*
X140337721Y-66016636D01*
X140537428Y-65853180D01*
X140734926Y-65727851D01*
X140766033Y-65711985D01*
X141067208Y-65590434D01*
X141371637Y-65523083D01*
X141697433Y-65506301D01*
X141777750Y-65509236D01*
G37*
X141777750Y-65509236D02*
X142134791Y-65557498D01*
X142466393Y-65662678D01*
X142768907Y-65822053D01*
X143038684Y-66032896D01*
X143272078Y-66292484D01*
X143465440Y-66598090D01*
X143582562Y-66857330D01*
X143616075Y-66950282D01*
X143639073Y-67034313D01*
X143653498Y-67124957D01*
X143661288Y-67237749D01*
X143664385Y-67388226D01*
X143664799Y-67515875D01*
X143663740Y-67699771D01*
X143659268Y-67835719D01*
X143649444Y-67939255D01*
X143632328Y-68025914D01*
X143605979Y-68111230D01*
X143582562Y-68174419D01*
X143423495Y-68507343D01*
X143218844Y-68801881D01*
X142973362Y-69053389D01*
X142691805Y-69257222D01*
X142378927Y-69408734D01*
X142285750Y-69441345D01*
X142098173Y-69485148D01*
X141873003Y-69512419D01*
X141634211Y-69522177D01*
X141405769Y-69513443D01*
X141211650Y-69485239D01*
X141211575Y-69485222D01*
X140917133Y-69392435D01*
X140644351Y-69250140D01*
X140383628Y-69052775D01*
X140252966Y-68929880D01*
X140064381Y-68723407D01*
X139922270Y-68522452D01*
X139815042Y-68306823D01*
X139731110Y-68056329D01*
X139713447Y-67989965D01*
X139659242Y-67651422D01*
X139660882Y-67575106D01*
X140464919Y-67575106D01*
X140505090Y-67827354D01*
X140600267Y-68069038D01*
X140750684Y-68291328D01*
X140804604Y-68350834D01*
X141019517Y-68530793D01*
X141257915Y-68653222D01*
X141513589Y-68716721D01*
X141780329Y-68719887D01*
X142051926Y-68661322D01*
X142102275Y-68643584D01*
X142340403Y-68523535D01*
X142537153Y-68362103D01*
X142690810Y-68167495D01*
X142799660Y-67947916D01*
X142861989Y-67711571D01*
X142876081Y-67466668D01*
X142840224Y-67221411D01*
X142752702Y-66984006D01*
X142611800Y-66762660D01*
X142517305Y-66657068D01*
X142305996Y-66487721D01*
X142071527Y-66373407D01*
X141822599Y-66314229D01*
X141567913Y-66310291D01*
X141316169Y-66361697D01*
X141076070Y-66468552D01*
X140856315Y-66630959D01*
X140849662Y-66637126D01*
X140672127Y-66843306D01*
X140548670Y-67074251D01*
X140479523Y-67321128D01*
X140464919Y-67575106D01*
X139660882Y-67575106D01*
X139666666Y-67306032D01*
X139735066Y-66959325D01*
X139863791Y-66616831D01*
X139879351Y-66584267D01*
X139993283Y-66397329D01*
X140151206Y-66203069D01*
X140337721Y-66016636D01*
X140537428Y-65853180D01*
X140734926Y-65727851D01*
X140766033Y-65711985D01*
X141067208Y-65590434D01*
X141371637Y-65523083D01*
X141697433Y-65506301D01*
X141777750Y-65509236D01*
G36*
X145841097Y-65501110D02*
G01*
X145873828Y-65503929D01*
X145907840Y-65514691D01*
X145948115Y-65538091D01*
X145999633Y-65578822D01*
X146067375Y-65641577D01*
X146156324Y-65731050D01*
X146271460Y-65851933D01*
X146417764Y-66008921D01*
X146600218Y-66206705D01*
X146666689Y-66278985D01*
X146837729Y-66464449D01*
X146995198Y-66634044D01*
X147133950Y-66782319D01*
X147248839Y-66903823D01*
X147334722Y-66993103D01*
X147386452Y-67044708D01*
X147399533Y-67055500D01*
X147424755Y-67032938D01*
X147487598Y-66968895D01*
X147582924Y-66868833D01*
X147705592Y-66738214D01*
X147850464Y-66582503D01*
X148012399Y-66407159D01*
X148130344Y-66278732D01*
X148324753Y-66066933D01*
X148481485Y-65897463D01*
X148605530Y-65765618D01*
X148701873Y-65666692D01*
X148775503Y-65595983D01*
X148831407Y-65548786D01*
X148874573Y-65520397D01*
X148909988Y-65506111D01*
X148942640Y-65501225D01*
X148955078Y-65500857D01*
X149068031Y-65499750D01*
X149218008Y-67492062D01*
X149244279Y-67841613D01*
X149269054Y-68172385D01*
X149291933Y-68478950D01*
X149312516Y-68755880D01*
X149330400Y-68997746D01*
X149345184Y-69199118D01*
X149356468Y-69354570D01*
X149363850Y-69458670D01*
X149366929Y-69505993D01*
X149366992Y-69508187D01*
X149336862Y-69517240D01*
X149255342Y-69524709D01*
X149134536Y-69529867D01*
X148986549Y-69531983D01*
X148971915Y-69532000D01*
X148577831Y-69532000D01*
X148560351Y-69412937D01*
X148553662Y-69351249D01*
X148543341Y-69235387D01*
X148530119Y-69074527D01*
X148514727Y-68877845D01*
X148497895Y-68654515D01*
X148480353Y-68413716D01*
X148476325Y-68357250D01*
X148458609Y-68114773D01*
X148441162Y-67888606D01*
X148424747Y-67687725D01*
X148410130Y-67521107D01*
X148398074Y-67397731D01*
X148389345Y-67326572D01*
X148387826Y-67318244D01*
X148365875Y-67215863D01*
X147892032Y-67730994D01*
X147753380Y-67881097D01*
X147629078Y-68014463D01*
X147525542Y-68124307D01*
X147449188Y-68203844D01*
X147406431Y-68246290D01*
X147399907Y-68251469D01*
X147374162Y-68230626D01*
X147312195Y-68169285D01*
X147220354Y-68074068D01*
X147104985Y-67951597D01*
X146972431Y-67808495D01*
X146906744Y-67736808D01*
X146768836Y-67586851D01*
X146645620Y-67454879D01*
X146543329Y-67347406D01*
X146468197Y-67270943D01*
X146426459Y-67232002D01*
X146420142Y-67228524D01*
X146414994Y-67261762D01*
X146405538Y-67351142D01*
X146392417Y-67489498D01*
X146376272Y-67669665D01*
X146357748Y-67884478D01*
X146337486Y-68126771D01*
X146317027Y-68378185D01*
X146295987Y-68639879D01*
X146276577Y-68880795D01*
X146259373Y-69093802D01*
X146244954Y-69271767D01*
X146233897Y-69407557D01*
X146226781Y-69494041D01*
X146224191Y-69524062D01*
X146193868Y-69527054D01*
X146112055Y-69529530D01*
X145990765Y-69531254D01*
X145842008Y-69531989D01*
X145821270Y-69532000D01*
X145419790Y-69532000D01*
X145437308Y-69317687D01*
X145442973Y-69246233D01*
X145452949Y-69118006D01*
X145466734Y-68939551D01*
X145483825Y-68717411D01*
X145503720Y-68458130D01*
X145525917Y-68168254D01*
X145549913Y-67854326D01*
X145575205Y-67522890D01*
X145592073Y-67301562D01*
X145729320Y-65499749D01*
X145841097Y-65501110D01*
G37*
X145841097Y-65501110D02*
X145873828Y-65503929D01*
X145907840Y-65514691D01*
X145948115Y-65538091D01*
X145999633Y-65578822D01*
X146067375Y-65641577D01*
X146156324Y-65731050D01*
X146271460Y-65851933D01*
X146417764Y-66008921D01*
X146600218Y-66206705D01*
X146666689Y-66278985D01*
X146837729Y-66464449D01*
X146995198Y-66634044D01*
X147133950Y-66782319D01*
X147248839Y-66903823D01*
X147334722Y-66993103D01*
X147386452Y-67044708D01*
X147399533Y-67055500D01*
X147424755Y-67032938D01*
X147487598Y-66968895D01*
X147582924Y-66868833D01*
X147705592Y-66738214D01*
X147850464Y-66582503D01*
X148012399Y-66407159D01*
X148130344Y-66278732D01*
X148324753Y-66066933D01*
X148481485Y-65897463D01*
X148605530Y-65765618D01*
X148701873Y-65666692D01*
X148775503Y-65595983D01*
X148831407Y-65548786D01*
X148874573Y-65520397D01*
X148909988Y-65506111D01*
X148942640Y-65501225D01*
X148955078Y-65500857D01*
X149068031Y-65499750D01*
X149218008Y-67492062D01*
X149244279Y-67841613D01*
X149269054Y-68172385D01*
X149291933Y-68478950D01*
X149312516Y-68755880D01*
X149330400Y-68997746D01*
X149345184Y-69199118D01*
X149356468Y-69354570D01*
X149363850Y-69458670D01*
X149366929Y-69505993D01*
X149366992Y-69508187D01*
X149336862Y-69517240D01*
X149255342Y-69524709D01*
X149134536Y-69529867D01*
X148986549Y-69531983D01*
X148971915Y-69532000D01*
X148577831Y-69532000D01*
X148560351Y-69412937D01*
X148553662Y-69351249D01*
X148543341Y-69235387D01*
X148530119Y-69074527D01*
X148514727Y-68877845D01*
X148497895Y-68654515D01*
X148480353Y-68413716D01*
X148476325Y-68357250D01*
X148458609Y-68114773D01*
X148441162Y-67888606D01*
X148424747Y-67687725D01*
X148410130Y-67521107D01*
X148398074Y-67397731D01*
X148389345Y-67326572D01*
X148387826Y-67318244D01*
X148365875Y-67215863D01*
X147892032Y-67730994D01*
X147753380Y-67881097D01*
X147629078Y-68014463D01*
X147525542Y-68124307D01*
X147449188Y-68203844D01*
X147406431Y-68246290D01*
X147399907Y-68251469D01*
X147374162Y-68230626D01*
X147312195Y-68169285D01*
X147220354Y-68074068D01*
X147104985Y-67951597D01*
X146972431Y-67808495D01*
X146906744Y-67736808D01*
X146768836Y-67586851D01*
X146645620Y-67454879D01*
X146543329Y-67347406D01*
X146468197Y-67270943D01*
X146426459Y-67232002D01*
X146420142Y-67228524D01*
X146414994Y-67261762D01*
X146405538Y-67351142D01*
X146392417Y-67489498D01*
X146376272Y-67669665D01*
X146357748Y-67884478D01*
X146337486Y-68126771D01*
X146317027Y-68378185D01*
X146295987Y-68639879D01*
X146276577Y-68880795D01*
X146259373Y-69093802D01*
X146244954Y-69271767D01*
X146233897Y-69407557D01*
X146226781Y-69494041D01*
X146224191Y-69524062D01*
X146193868Y-69527054D01*
X146112055Y-69529530D01*
X145990765Y-69531254D01*
X145842008Y-69531989D01*
X145821270Y-69532000D01*
X145419790Y-69532000D01*
X145437308Y-69317687D01*
X145442973Y-69246233D01*
X145452949Y-69118006D01*
X145466734Y-68939551D01*
X145483825Y-68717411D01*
X145503720Y-68458130D01*
X145525917Y-68168254D01*
X145549913Y-67854326D01*
X145575205Y-67522890D01*
X145592073Y-67301562D01*
X145729320Y-65499749D01*
X145841097Y-65501110D01*
D12*
%TO.C,J1*%
X166600000Y-100770000D02*
G75*
G03*
X166600000Y-100770000I-100000J0D01*
G01*
D13*
X169800000Y-121500000D02*
X169800000Y-101500000D01*
X162300000Y-121500000D02*
X169800000Y-121500000D01*
X162300000Y-101500000D02*
X162300000Y-121500000D01*
X169800000Y-101500000D02*
X162300000Y-101500000D01*
D14*
%TO.C,TH2*%
X136036800Y-112578400D02*
X136036800Y-106578400D01*
X148036800Y-112578400D02*
X136036800Y-112578400D01*
X148036800Y-106578400D02*
X148036800Y-112578400D01*
X136036800Y-106578400D02*
X148036800Y-106578400D01*
%TO.C,TH1*%
X148000000Y-116500000D02*
X148000000Y-122500000D01*
X136000000Y-116500000D02*
X148000000Y-116500000D01*
X136000000Y-122500000D02*
X136000000Y-116500000D01*
X148000000Y-122500000D02*
X136000000Y-122500000D01*
D15*
%TO.C,MOV1*%
X152450000Y-123000000D02*
X152450000Y-114000000D01*
X152450000Y-114000000D02*
X158050000Y-114000000D01*
X158050000Y-114000000D02*
X158050000Y-123000000D01*
X158050000Y-123000000D02*
X152450000Y-123000000D01*
%TO.C,MOV2*%
X152450000Y-111000000D02*
X152450000Y-102000000D01*
X152450000Y-102000000D02*
X158050000Y-102000000D01*
X158050000Y-102000000D02*
X158050000Y-111000000D01*
X158050000Y-111000000D02*
X152450000Y-111000000D01*
D12*
%TO.C,S1*%
X170581000Y-86524000D02*
G75*
G03*
X170581000Y-86524000I-100000J0D01*
G01*
D13*
X169731000Y-73429000D02*
X169731000Y-99619000D01*
X153231000Y-73429000D02*
X169731000Y-73429000D01*
X153231000Y-99619000D02*
X153231000Y-73429000D01*
X169731000Y-99619000D02*
X153231000Y-99619000D01*
%TO.C,P3*%
X109524400Y-63181800D02*
X109524400Y-128181800D01*
X133924400Y-118981800D02*
X133924400Y-104781800D01*
X133924400Y-104781800D02*
X144124400Y-104781800D01*
X144124400Y-104781800D02*
X144124400Y-72381800D01*
X109524400Y-63181800D02*
X123524400Y-63181800D01*
X123524400Y-63181800D02*
X123524400Y-72381800D01*
X123524400Y-72381800D02*
X144124400Y-72381800D01*
X109524400Y-128181800D02*
X123524400Y-128181800D01*
X123524400Y-128181800D02*
X123524400Y-118981800D01*
X123524400Y-118981800D02*
X133924400Y-118981800D01*
%TO.C,J1*%
D10*
X161135751Y-115180668D02*
X159730405Y-115180668D01*
X159730405Y-114645298D01*
X159797327Y-114511455D01*
X159864248Y-114444534D01*
X159998090Y-114377613D01*
X160198854Y-114377613D01*
X160332696Y-114444534D01*
X160399618Y-114511455D01*
X160466539Y-114645298D01*
X160466539Y-115180668D01*
X161135751Y-113775322D02*
X160198854Y-113775322D01*
X160466539Y-113775322D02*
X160332696Y-113708400D01*
X160265775Y-113641479D01*
X160198854Y-113507637D01*
X160198854Y-113373794D01*
X161135751Y-112905346D02*
X160198854Y-112905346D01*
X159730405Y-112905346D02*
X159797327Y-112972267D01*
X159864248Y-112905346D01*
X159797327Y-112838424D01*
X159730405Y-112905346D01*
X159864248Y-112905346D01*
X161135751Y-112236133D02*
X160198854Y-112236133D01*
X160332696Y-112236133D02*
X160265775Y-112169212D01*
X160198854Y-112035369D01*
X160198854Y-111834606D01*
X160265775Y-111700763D01*
X160399618Y-111633842D01*
X161135751Y-111633842D01*
X160399618Y-111633842D02*
X160265775Y-111566921D01*
X160198854Y-111433078D01*
X160198854Y-111232315D01*
X160265775Y-111098472D01*
X160399618Y-111031551D01*
X161135751Y-111031551D01*
X161135751Y-109760047D02*
X160399618Y-109760047D01*
X160265775Y-109826969D01*
X160198854Y-109960811D01*
X160198854Y-110228496D01*
X160265775Y-110362338D01*
X161068830Y-109760047D02*
X161135751Y-109893890D01*
X161135751Y-110228496D01*
X161068830Y-110362338D01*
X160934988Y-110429260D01*
X160801145Y-110429260D01*
X160667303Y-110362338D01*
X160600381Y-110228496D01*
X160600381Y-109893890D01*
X160533460Y-109760047D01*
X161135751Y-109090835D02*
X160198854Y-109090835D01*
X160466539Y-109090835D02*
X160332696Y-109023914D01*
X160265775Y-108956992D01*
X160198854Y-108823150D01*
X160198854Y-108689308D01*
X160198854Y-108354701D02*
X161135751Y-108020095D01*
X160198854Y-107685489D02*
X161135751Y-108020095D01*
X161470357Y-108153938D01*
X161537279Y-108220859D01*
X161604200Y-108354701D01*
%TO.C,TH2*%
X140751085Y-108952380D02*
X141322514Y-108952380D01*
X141036800Y-109952380D02*
X141036800Y-108952380D01*
X141655847Y-109952380D02*
X141655847Y-108952380D01*
X141655847Y-109428571D02*
X142227276Y-109428571D01*
X142227276Y-109952380D02*
X142227276Y-108952380D01*
X142655847Y-109047619D02*
X142703466Y-109000000D01*
X142798704Y-108952380D01*
X143036800Y-108952380D01*
X143132038Y-109000000D01*
X143179657Y-109047619D01*
X143227276Y-109142857D01*
X143227276Y-109238095D01*
X143179657Y-109380952D01*
X142608228Y-109952380D01*
X143227276Y-109952380D01*
%TO.C,TH1*%
X140714285Y-118952380D02*
X141285714Y-118952380D01*
X141000000Y-119952380D02*
X141000000Y-118952380D01*
X141619047Y-119952380D02*
X141619047Y-118952380D01*
X141619047Y-119428571D02*
X142190476Y-119428571D01*
X142190476Y-119952380D02*
X142190476Y-118952380D01*
X143190476Y-119952380D02*
X142619047Y-119952380D01*
X142904761Y-119952380D02*
X142904761Y-118952380D01*
X142809523Y-119095238D01*
X142714285Y-119190476D01*
X142619047Y-119238095D01*
%TO.C,MOV1*%
D16*
X155824523Y-120737619D02*
X154554523Y-120737619D01*
X155461666Y-120314285D01*
X154554523Y-119890952D01*
X155824523Y-119890952D01*
X154554523Y-119044285D02*
X154554523Y-118802380D01*
X154615000Y-118681428D01*
X154735952Y-118560476D01*
X154977857Y-118500000D01*
X155401190Y-118500000D01*
X155643095Y-118560476D01*
X155764047Y-118681428D01*
X155824523Y-118802380D01*
X155824523Y-119044285D01*
X155764047Y-119165238D01*
X155643095Y-119286190D01*
X155401190Y-119346666D01*
X154977857Y-119346666D01*
X154735952Y-119286190D01*
X154615000Y-119165238D01*
X154554523Y-119044285D01*
X154554523Y-118137142D02*
X155824523Y-117713809D01*
X154554523Y-117290476D01*
X155824523Y-116201904D02*
X155824523Y-116927619D01*
X155824523Y-116564761D02*
X154554523Y-116564761D01*
X154735952Y-116685714D01*
X154856904Y-116806666D01*
X154917380Y-116927619D01*
%TO.C,MOV2*%
X155824523Y-108737619D02*
X154554523Y-108737619D01*
X155461666Y-108314285D01*
X154554523Y-107890952D01*
X155824523Y-107890952D01*
X154554523Y-107044285D02*
X154554523Y-106802380D01*
X154615000Y-106681428D01*
X154735952Y-106560476D01*
X154977857Y-106500000D01*
X155401190Y-106500000D01*
X155643095Y-106560476D01*
X155764047Y-106681428D01*
X155824523Y-106802380D01*
X155824523Y-107044285D01*
X155764047Y-107165238D01*
X155643095Y-107286190D01*
X155401190Y-107346666D01*
X154977857Y-107346666D01*
X154735952Y-107286190D01*
X154615000Y-107165238D01*
X154554523Y-107044285D01*
X154554523Y-106137142D02*
X155824523Y-105713809D01*
X154554523Y-105290476D01*
X154675476Y-104927619D02*
X154615000Y-104867142D01*
X154554523Y-104746190D01*
X154554523Y-104443809D01*
X154615000Y-104322857D01*
X154675476Y-104262380D01*
X154796428Y-104201904D01*
X154917380Y-104201904D01*
X155098809Y-104262380D01*
X155824523Y-104988095D01*
X155824523Y-104201904D01*
%TO.C,S1*%
D17*
X165794095Y-101063761D02*
X165936952Y-101111380D01*
X166175047Y-101111380D01*
X166270285Y-101063761D01*
X166317904Y-101016142D01*
X166365523Y-100920904D01*
X166365523Y-100825666D01*
X166317904Y-100730428D01*
X166270285Y-100682809D01*
X166175047Y-100635190D01*
X165984571Y-100587571D01*
X165889333Y-100539952D01*
X165841714Y-100492333D01*
X165794095Y-100397095D01*
X165794095Y-100301857D01*
X165841714Y-100206619D01*
X165889333Y-100159000D01*
X165984571Y-100111380D01*
X166222666Y-100111380D01*
X166365523Y-100159000D01*
X167317904Y-101111380D02*
X166746476Y-101111380D01*
X167032190Y-101111380D02*
X167032190Y-100111380D01*
X166936952Y-100254238D01*
X166841714Y-100349476D01*
X166746476Y-100397095D01*
%TO.C,P3*%
X145561210Y-76063397D02*
X144559344Y-76063397D01*
X144559344Y-75681734D01*
X144607052Y-75586318D01*
X144654759Y-75538610D01*
X144750175Y-75490902D01*
X144893299Y-75490902D01*
X144988715Y-75538610D01*
X145036423Y-75586318D01*
X145084131Y-75681734D01*
X145084131Y-76063397D01*
X144559344Y-75156947D02*
X144559344Y-74536744D01*
X144941007Y-74870699D01*
X144941007Y-74727576D01*
X144988715Y-74632160D01*
X145036423Y-74584452D01*
X145131838Y-74536744D01*
X145370378Y-74536744D01*
X145465794Y-74584452D01*
X145513502Y-74632160D01*
X145561210Y-74727576D01*
X145561210Y-75013823D01*
X145513502Y-75109239D01*
X145465794Y-75156947D01*
%TD*%
M02*
