%FSLAX45Y45*%
G04 Gerber Fmt 4.5, Leading zero omitted, Abs format (unit mm)*
G04 Created by KiCad (PCBNEW (5.1.6-0-10_14)) date 2020-08-23 19:27:07*
%MOMM*%
%LPD*%
G01*
G04 APERTURE LIST*
%TA.AperFunction,Profile*%
%ADD10C,0.050000*%
%TD*%
%ADD11C,0.200000*%
%ADD12C,0.300000*%
G04 APERTURE END LIST*
D10*
X17526000Y-6273800D02*
X10922000Y-6273800D01*
X17526000Y-13300000D02*
X17526000Y-6273800D01*
X10926140Y-13300000D02*
X17526000Y-13300000D01*
X10922000Y-6273800D02*
X10926140Y-13300000D01*
D11*
X16755000Y-6575000D02*
X17105000Y-6925000D01*
X17105000Y-6575000D02*
X16755000Y-6925000D01*
X16755000Y-12575000D02*
X17105000Y-12925000D01*
X17105000Y-12575000D02*
X16755000Y-12925000D01*
X12755000Y-6575000D02*
X13105000Y-6925000D01*
X13105000Y-6575000D02*
X12755000Y-6925000D01*
X12082440Y-6768180D02*
G75*
G03*
X12082440Y-6768180I-180000J0D01*
G01*
X12082440Y-12368180D02*
G75*
G03*
X12082440Y-12368180I-180000J0D01*
G01*
D12*
X11205928Y-13768214D02*
X11205928Y-13468214D01*
X11277357Y-13468214D01*
X11320214Y-13482500D01*
X11348786Y-13511071D01*
X11363071Y-13539643D01*
X11377357Y-13596786D01*
X11377357Y-13639643D01*
X11363071Y-13696786D01*
X11348786Y-13725357D01*
X11320214Y-13753929D01*
X11277357Y-13768214D01*
X11205928Y-13768214D01*
X11505928Y-13768214D02*
X11505928Y-13568214D01*
X11505928Y-13625357D02*
X11520214Y-13596786D01*
X11534500Y-13582500D01*
X11563071Y-13568214D01*
X11591643Y-13568214D01*
X11691643Y-13768214D02*
X11691643Y-13568214D01*
X11691643Y-13468214D02*
X11677357Y-13482500D01*
X11691643Y-13496786D01*
X11705928Y-13482500D01*
X11691643Y-13468214D01*
X11691643Y-13496786D01*
X11877357Y-13768214D02*
X11848786Y-13753929D01*
X11834500Y-13725357D01*
X11834500Y-13468214D01*
X12034500Y-13768214D02*
X12005928Y-13753929D01*
X11991643Y-13725357D01*
X11991643Y-13468214D01*
X12377357Y-13768214D02*
X12377357Y-13468214D01*
X12477357Y-13682500D01*
X12577357Y-13468214D01*
X12577357Y-13768214D01*
X12848786Y-13768214D02*
X12848786Y-13611071D01*
X12834500Y-13582500D01*
X12805928Y-13568214D01*
X12748786Y-13568214D01*
X12720214Y-13582500D01*
X12848786Y-13753929D02*
X12820214Y-13768214D01*
X12748786Y-13768214D01*
X12720214Y-13753929D01*
X12705928Y-13725357D01*
X12705928Y-13696786D01*
X12720214Y-13668214D01*
X12748786Y-13653929D01*
X12820214Y-13653929D01*
X12848786Y-13639643D01*
X12991643Y-13568214D02*
X12991643Y-13868214D01*
X12991643Y-13582500D02*
X13020214Y-13568214D01*
X13077357Y-13568214D01*
X13105928Y-13582500D01*
X13120214Y-13596786D01*
X13134500Y-13625357D01*
X13134500Y-13711071D01*
X13120214Y-13739643D01*
X13105928Y-13753929D01*
X13077357Y-13768214D01*
X13020214Y-13768214D01*
X12991643Y-13753929D01*
X13263071Y-13739643D02*
X13277357Y-13753929D01*
X13263071Y-13768214D01*
X13248786Y-13753929D01*
X13263071Y-13739643D01*
X13263071Y-13768214D01*
X13263071Y-13582500D02*
X13277357Y-13596786D01*
X13263071Y-13611071D01*
X13248786Y-13596786D01*
X13263071Y-13582500D01*
X13263071Y-13611071D01*
X10569500Y-14087500D02*
X10919500Y-14437500D01*
X10919500Y-14087500D02*
X10569500Y-14437500D01*
X11177357Y-14098214D02*
X11363071Y-14098214D01*
X11263071Y-14212500D01*
X11305928Y-14212500D01*
X11334500Y-14226786D01*
X11348786Y-14241071D01*
X11363071Y-14269643D01*
X11363071Y-14341071D01*
X11348786Y-14369643D01*
X11334500Y-14383929D01*
X11305928Y-14398214D01*
X11220214Y-14398214D01*
X11191643Y-14383929D01*
X11177357Y-14369643D01*
X11491643Y-14369643D02*
X11505928Y-14383929D01*
X11491643Y-14398214D01*
X11477357Y-14383929D01*
X11491643Y-14369643D01*
X11491643Y-14398214D01*
X11777357Y-14098214D02*
X11634500Y-14098214D01*
X11620214Y-14241071D01*
X11634500Y-14226786D01*
X11663071Y-14212500D01*
X11734500Y-14212500D01*
X11763071Y-14226786D01*
X11777357Y-14241071D01*
X11791643Y-14269643D01*
X11791643Y-14341071D01*
X11777357Y-14369643D01*
X11763071Y-14383929D01*
X11734500Y-14398214D01*
X11663071Y-14398214D01*
X11634500Y-14383929D01*
X11620214Y-14369643D01*
X11977357Y-14098214D02*
X12005928Y-14098214D01*
X12034500Y-14112500D01*
X12048786Y-14126786D01*
X12063071Y-14155357D01*
X12077357Y-14212500D01*
X12077357Y-14283929D01*
X12063071Y-14341071D01*
X12048786Y-14369643D01*
X12034500Y-14383929D01*
X12005928Y-14398214D01*
X11977357Y-14398214D01*
X11948786Y-14383929D01*
X11934500Y-14369643D01*
X11920214Y-14341071D01*
X11905928Y-14283929D01*
X11905928Y-14212500D01*
X11920214Y-14155357D01*
X11934500Y-14126786D01*
X11948786Y-14112500D01*
X11977357Y-14098214D01*
X12205928Y-14398214D02*
X12205928Y-14198214D01*
X12205928Y-14226786D02*
X12220214Y-14212500D01*
X12248786Y-14198214D01*
X12291643Y-14198214D01*
X12320214Y-14212500D01*
X12334500Y-14241071D01*
X12334500Y-14398214D01*
X12334500Y-14241071D02*
X12348786Y-14212500D01*
X12377357Y-14198214D01*
X12420214Y-14198214D01*
X12448786Y-14212500D01*
X12463071Y-14241071D01*
X12463071Y-14398214D01*
X12605928Y-14398214D02*
X12605928Y-14198214D01*
X12605928Y-14226786D02*
X12620214Y-14212500D01*
X12648786Y-14198214D01*
X12691643Y-14198214D01*
X12720214Y-14212500D01*
X12734500Y-14241071D01*
X12734500Y-14398214D01*
X12734500Y-14241071D02*
X12748786Y-14212500D01*
X12777357Y-14198214D01*
X12820214Y-14198214D01*
X12848786Y-14212500D01*
X12863071Y-14241071D01*
X12863071Y-14398214D01*
X13448786Y-14083929D02*
X13191643Y-14469643D01*
X13834500Y-14098214D02*
X13863071Y-14098214D01*
X13891643Y-14112500D01*
X13905928Y-14126786D01*
X13920214Y-14155357D01*
X13934500Y-14212500D01*
X13934500Y-14283929D01*
X13920214Y-14341071D01*
X13905928Y-14369643D01*
X13891643Y-14383929D01*
X13863071Y-14398214D01*
X13834500Y-14398214D01*
X13805928Y-14383929D01*
X13791643Y-14369643D01*
X13777357Y-14341071D01*
X13763071Y-14283929D01*
X13763071Y-14212500D01*
X13777357Y-14155357D01*
X13791643Y-14126786D01*
X13805928Y-14112500D01*
X13834500Y-14098214D01*
X14063071Y-14369643D02*
X14077357Y-14383929D01*
X14063071Y-14398214D01*
X14048786Y-14383929D01*
X14063071Y-14369643D01*
X14063071Y-14398214D01*
X14363071Y-14398214D02*
X14191643Y-14398214D01*
X14277357Y-14398214D02*
X14277357Y-14098214D01*
X14248786Y-14141071D01*
X14220214Y-14169643D01*
X14191643Y-14183929D01*
X14463071Y-14098214D02*
X14648786Y-14098214D01*
X14548786Y-14212500D01*
X14591643Y-14212500D01*
X14620214Y-14226786D01*
X14634500Y-14241071D01*
X14648786Y-14269643D01*
X14648786Y-14341071D01*
X14634500Y-14369643D01*
X14620214Y-14383929D01*
X14591643Y-14398214D01*
X14505928Y-14398214D01*
X14477357Y-14383929D01*
X14463071Y-14369643D01*
X14820214Y-14226786D02*
X14791643Y-14212500D01*
X14777357Y-14198214D01*
X14763071Y-14169643D01*
X14763071Y-14155357D01*
X14777357Y-14126786D01*
X14791643Y-14112500D01*
X14820214Y-14098214D01*
X14877357Y-14098214D01*
X14905928Y-14112500D01*
X14920214Y-14126786D01*
X14934500Y-14155357D01*
X14934500Y-14169643D01*
X14920214Y-14198214D01*
X14905928Y-14212500D01*
X14877357Y-14226786D01*
X14820214Y-14226786D01*
X14791643Y-14241071D01*
X14777357Y-14255357D01*
X14763071Y-14283929D01*
X14763071Y-14341071D01*
X14777357Y-14369643D01*
X14791643Y-14383929D01*
X14820214Y-14398214D01*
X14877357Y-14398214D01*
X14905928Y-14383929D01*
X14920214Y-14369643D01*
X14934500Y-14341071D01*
X14934500Y-14283929D01*
X14920214Y-14255357D01*
X14905928Y-14241071D01*
X14877357Y-14226786D01*
X15048786Y-14098214D02*
X15048786Y-14155357D01*
X15163071Y-14098214D02*
X15163071Y-14155357D01*
X15605928Y-14512500D02*
X15591643Y-14498214D01*
X15563071Y-14455357D01*
X15548786Y-14426786D01*
X15534500Y-14383929D01*
X15520214Y-14312500D01*
X15520214Y-14255357D01*
X15534500Y-14183929D01*
X15548786Y-14141071D01*
X15563071Y-14112500D01*
X15591643Y-14069643D01*
X15605928Y-14055357D01*
X15691643Y-14098214D02*
X15877357Y-14098214D01*
X15777357Y-14212500D01*
X15820214Y-14212500D01*
X15848786Y-14226786D01*
X15863071Y-14241071D01*
X15877357Y-14269643D01*
X15877357Y-14341071D01*
X15863071Y-14369643D01*
X15848786Y-14383929D01*
X15820214Y-14398214D01*
X15734500Y-14398214D01*
X15705928Y-14383929D01*
X15691643Y-14369643D01*
X16234500Y-14398214D02*
X16234500Y-14098214D01*
X16363071Y-14398214D02*
X16363071Y-14241071D01*
X16348786Y-14212500D01*
X16320214Y-14198214D01*
X16277357Y-14198214D01*
X16248786Y-14212500D01*
X16234500Y-14226786D01*
X16548786Y-14398214D02*
X16520214Y-14383929D01*
X16505928Y-14369643D01*
X16491643Y-14341071D01*
X16491643Y-14255357D01*
X16505928Y-14226786D01*
X16520214Y-14212500D01*
X16548786Y-14198214D01*
X16591643Y-14198214D01*
X16620214Y-14212500D01*
X16634500Y-14226786D01*
X16648786Y-14255357D01*
X16648786Y-14341071D01*
X16634500Y-14369643D01*
X16620214Y-14383929D01*
X16591643Y-14398214D01*
X16548786Y-14398214D01*
X16820214Y-14398214D02*
X16791643Y-14383929D01*
X16777357Y-14355357D01*
X16777357Y-14098214D01*
X17048786Y-14383929D02*
X17020214Y-14398214D01*
X16963071Y-14398214D01*
X16934500Y-14383929D01*
X16920214Y-14355357D01*
X16920214Y-14241071D01*
X16934500Y-14212500D01*
X16963071Y-14198214D01*
X17020214Y-14198214D01*
X17048786Y-14212500D01*
X17063071Y-14241071D01*
X17063071Y-14269643D01*
X16920214Y-14298214D01*
X17177357Y-14383929D02*
X17205928Y-14398214D01*
X17263071Y-14398214D01*
X17291643Y-14383929D01*
X17305928Y-14355357D01*
X17305928Y-14341071D01*
X17291643Y-14312500D01*
X17263071Y-14298214D01*
X17220214Y-14298214D01*
X17191643Y-14283929D01*
X17177357Y-14255357D01*
X17177357Y-14241071D01*
X17191643Y-14212500D01*
X17220214Y-14198214D01*
X17263071Y-14198214D01*
X17291643Y-14212500D01*
X17405928Y-14512500D02*
X17420214Y-14498214D01*
X17448786Y-14455357D01*
X17463071Y-14426786D01*
X17477357Y-14383929D01*
X17491643Y-14312500D01*
X17491643Y-14255357D01*
X17477357Y-14183929D01*
X17463071Y-14141071D01*
X17448786Y-14112500D01*
X17420214Y-14069643D01*
X17405928Y-14055357D01*
X17948786Y-14512500D02*
X17934500Y-14498214D01*
X17905928Y-14455357D01*
X17891643Y-14426786D01*
X17877357Y-14383929D01*
X17863071Y-14312500D01*
X17863071Y-14255357D01*
X17877357Y-14183929D01*
X17891643Y-14141071D01*
X17905928Y-14112500D01*
X17934500Y-14069643D01*
X17948786Y-14055357D01*
X18063071Y-14198214D02*
X18063071Y-14398214D01*
X18063071Y-14226786D02*
X18077357Y-14212500D01*
X18105928Y-14198214D01*
X18148786Y-14198214D01*
X18177357Y-14212500D01*
X18191643Y-14241071D01*
X18191643Y-14398214D01*
X18377357Y-14398214D02*
X18348786Y-14383929D01*
X18334500Y-14369643D01*
X18320214Y-14341071D01*
X18320214Y-14255357D01*
X18334500Y-14226786D01*
X18348786Y-14212500D01*
X18377357Y-14198214D01*
X18420214Y-14198214D01*
X18448786Y-14212500D01*
X18463071Y-14226786D01*
X18477357Y-14255357D01*
X18477357Y-14341071D01*
X18463071Y-14369643D01*
X18448786Y-14383929D01*
X18420214Y-14398214D01*
X18377357Y-14398214D01*
X18563071Y-14198214D02*
X18677357Y-14198214D01*
X18605928Y-14098214D02*
X18605928Y-14355357D01*
X18620214Y-14383929D01*
X18648786Y-14398214D01*
X18677357Y-14398214D01*
X19005928Y-14198214D02*
X19005928Y-14498214D01*
X19005928Y-14212500D02*
X19034500Y-14198214D01*
X19091643Y-14198214D01*
X19120214Y-14212500D01*
X19134500Y-14226786D01*
X19148786Y-14255357D01*
X19148786Y-14341071D01*
X19134500Y-14369643D01*
X19120214Y-14383929D01*
X19091643Y-14398214D01*
X19034500Y-14398214D01*
X19005928Y-14383929D01*
X19320214Y-14398214D02*
X19291643Y-14383929D01*
X19277357Y-14355357D01*
X19277357Y-14098214D01*
X19563071Y-14398214D02*
X19563071Y-14241071D01*
X19548786Y-14212500D01*
X19520214Y-14198214D01*
X19463071Y-14198214D01*
X19434500Y-14212500D01*
X19563071Y-14383929D02*
X19534500Y-14398214D01*
X19463071Y-14398214D01*
X19434500Y-14383929D01*
X19420214Y-14355357D01*
X19420214Y-14326786D01*
X19434500Y-14298214D01*
X19463071Y-14283929D01*
X19534500Y-14283929D01*
X19563071Y-14269643D01*
X19663071Y-14198214D02*
X19777357Y-14198214D01*
X19705928Y-14098214D02*
X19705928Y-14355357D01*
X19720214Y-14383929D01*
X19748786Y-14398214D01*
X19777357Y-14398214D01*
X19991643Y-14383929D02*
X19963071Y-14398214D01*
X19905928Y-14398214D01*
X19877357Y-14383929D01*
X19863071Y-14355357D01*
X19863071Y-14241071D01*
X19877357Y-14212500D01*
X19905928Y-14198214D01*
X19963071Y-14198214D01*
X19991643Y-14212500D01*
X20005928Y-14241071D01*
X20005928Y-14269643D01*
X19863071Y-14298214D01*
X20263071Y-14398214D02*
X20263071Y-14098214D01*
X20263071Y-14383929D02*
X20234500Y-14398214D01*
X20177357Y-14398214D01*
X20148786Y-14383929D01*
X20134500Y-14369643D01*
X20120214Y-14341071D01*
X20120214Y-14255357D01*
X20134500Y-14226786D01*
X20148786Y-14212500D01*
X20177357Y-14198214D01*
X20234500Y-14198214D01*
X20263071Y-14212500D01*
X20377357Y-14512500D02*
X20391643Y-14498214D01*
X20420214Y-14455357D01*
X20434500Y-14426786D01*
X20448786Y-14383929D01*
X20463071Y-14312500D01*
X20463071Y-14255357D01*
X20448786Y-14183929D01*
X20434500Y-14141071D01*
X20420214Y-14112500D01*
X20391643Y-14069643D01*
X20377357Y-14055357D01*
X10919500Y-14742500D02*
G75*
G03*
X10919500Y-14742500I-180000J0D01*
G01*
X11177357Y-14578214D02*
X11363071Y-14578214D01*
X11263071Y-14692500D01*
X11305928Y-14692500D01*
X11334500Y-14706786D01*
X11348786Y-14721071D01*
X11363071Y-14749643D01*
X11363071Y-14821071D01*
X11348786Y-14849643D01*
X11334500Y-14863929D01*
X11305928Y-14878214D01*
X11220214Y-14878214D01*
X11191643Y-14863929D01*
X11177357Y-14849643D01*
X11491643Y-14849643D02*
X11505928Y-14863929D01*
X11491643Y-14878214D01*
X11477357Y-14863929D01*
X11491643Y-14849643D01*
X11491643Y-14878214D01*
X11763071Y-14578214D02*
X11705928Y-14578214D01*
X11677357Y-14592500D01*
X11663071Y-14606786D01*
X11634500Y-14649643D01*
X11620214Y-14706786D01*
X11620214Y-14821071D01*
X11634500Y-14849643D01*
X11648786Y-14863929D01*
X11677357Y-14878214D01*
X11734500Y-14878214D01*
X11763071Y-14863929D01*
X11777357Y-14849643D01*
X11791643Y-14821071D01*
X11791643Y-14749643D01*
X11777357Y-14721071D01*
X11763071Y-14706786D01*
X11734500Y-14692500D01*
X11677357Y-14692500D01*
X11648786Y-14706786D01*
X11634500Y-14721071D01*
X11620214Y-14749643D01*
X11977357Y-14578214D02*
X12005928Y-14578214D01*
X12034500Y-14592500D01*
X12048786Y-14606786D01*
X12063071Y-14635357D01*
X12077357Y-14692500D01*
X12077357Y-14763929D01*
X12063071Y-14821071D01*
X12048786Y-14849643D01*
X12034500Y-14863929D01*
X12005928Y-14878214D01*
X11977357Y-14878214D01*
X11948786Y-14863929D01*
X11934500Y-14849643D01*
X11920214Y-14821071D01*
X11905928Y-14763929D01*
X11905928Y-14692500D01*
X11920214Y-14635357D01*
X11934500Y-14606786D01*
X11948786Y-14592500D01*
X11977357Y-14578214D01*
X12205928Y-14878214D02*
X12205928Y-14678214D01*
X12205928Y-14706786D02*
X12220214Y-14692500D01*
X12248786Y-14678214D01*
X12291643Y-14678214D01*
X12320214Y-14692500D01*
X12334500Y-14721071D01*
X12334500Y-14878214D01*
X12334500Y-14721071D02*
X12348786Y-14692500D01*
X12377357Y-14678214D01*
X12420214Y-14678214D01*
X12448786Y-14692500D01*
X12463071Y-14721071D01*
X12463071Y-14878214D01*
X12605928Y-14878214D02*
X12605928Y-14678214D01*
X12605928Y-14706786D02*
X12620214Y-14692500D01*
X12648786Y-14678214D01*
X12691643Y-14678214D01*
X12720214Y-14692500D01*
X12734500Y-14721071D01*
X12734500Y-14878214D01*
X12734500Y-14721071D02*
X12748786Y-14692500D01*
X12777357Y-14678214D01*
X12820214Y-14678214D01*
X12848786Y-14692500D01*
X12863071Y-14721071D01*
X12863071Y-14878214D01*
X13448786Y-14563929D02*
X13191643Y-14949643D01*
X13834500Y-14578214D02*
X13863071Y-14578214D01*
X13891643Y-14592500D01*
X13905928Y-14606786D01*
X13920214Y-14635357D01*
X13934500Y-14692500D01*
X13934500Y-14763929D01*
X13920214Y-14821071D01*
X13905928Y-14849643D01*
X13891643Y-14863929D01*
X13863071Y-14878214D01*
X13834500Y-14878214D01*
X13805928Y-14863929D01*
X13791643Y-14849643D01*
X13777357Y-14821071D01*
X13763071Y-14763929D01*
X13763071Y-14692500D01*
X13777357Y-14635357D01*
X13791643Y-14606786D01*
X13805928Y-14592500D01*
X13834500Y-14578214D01*
X14063071Y-14849643D02*
X14077357Y-14863929D01*
X14063071Y-14878214D01*
X14048786Y-14863929D01*
X14063071Y-14849643D01*
X14063071Y-14878214D01*
X14363071Y-14878214D02*
X14191643Y-14878214D01*
X14277357Y-14878214D02*
X14277357Y-14578214D01*
X14248786Y-14621071D01*
X14220214Y-14649643D01*
X14191643Y-14663929D01*
X14620214Y-14678214D02*
X14620214Y-14878214D01*
X14548786Y-14563929D02*
X14477357Y-14778214D01*
X14663071Y-14778214D01*
X14763071Y-14606786D02*
X14777357Y-14592500D01*
X14805928Y-14578214D01*
X14877357Y-14578214D01*
X14905928Y-14592500D01*
X14920214Y-14606786D01*
X14934500Y-14635357D01*
X14934500Y-14663929D01*
X14920214Y-14706786D01*
X14748786Y-14878214D01*
X14934500Y-14878214D01*
X15048786Y-14578214D02*
X15048786Y-14635357D01*
X15163071Y-14578214D02*
X15163071Y-14635357D01*
X15605928Y-14992500D02*
X15591643Y-14978214D01*
X15563071Y-14935357D01*
X15548786Y-14906786D01*
X15534500Y-14863929D01*
X15520214Y-14792500D01*
X15520214Y-14735357D01*
X15534500Y-14663929D01*
X15548786Y-14621071D01*
X15563071Y-14592500D01*
X15591643Y-14549643D01*
X15605928Y-14535357D01*
X15705928Y-14606786D02*
X15720214Y-14592500D01*
X15748786Y-14578214D01*
X15820214Y-14578214D01*
X15848786Y-14592500D01*
X15863071Y-14606786D01*
X15877357Y-14635357D01*
X15877357Y-14663929D01*
X15863071Y-14706786D01*
X15691643Y-14878214D01*
X15877357Y-14878214D01*
X16234500Y-14878214D02*
X16234500Y-14578214D01*
X16363071Y-14878214D02*
X16363071Y-14721071D01*
X16348786Y-14692500D01*
X16320214Y-14678214D01*
X16277357Y-14678214D01*
X16248786Y-14692500D01*
X16234500Y-14706786D01*
X16548786Y-14878214D02*
X16520214Y-14863929D01*
X16505928Y-14849643D01*
X16491643Y-14821071D01*
X16491643Y-14735357D01*
X16505928Y-14706786D01*
X16520214Y-14692500D01*
X16548786Y-14678214D01*
X16591643Y-14678214D01*
X16620214Y-14692500D01*
X16634500Y-14706786D01*
X16648786Y-14735357D01*
X16648786Y-14821071D01*
X16634500Y-14849643D01*
X16620214Y-14863929D01*
X16591643Y-14878214D01*
X16548786Y-14878214D01*
X16820214Y-14878214D02*
X16791643Y-14863929D01*
X16777357Y-14835357D01*
X16777357Y-14578214D01*
X17048786Y-14863929D02*
X17020214Y-14878214D01*
X16963071Y-14878214D01*
X16934500Y-14863929D01*
X16920214Y-14835357D01*
X16920214Y-14721071D01*
X16934500Y-14692500D01*
X16963071Y-14678214D01*
X17020214Y-14678214D01*
X17048786Y-14692500D01*
X17063071Y-14721071D01*
X17063071Y-14749643D01*
X16920214Y-14778214D01*
X17177357Y-14863929D02*
X17205928Y-14878214D01*
X17263071Y-14878214D01*
X17291643Y-14863929D01*
X17305928Y-14835357D01*
X17305928Y-14821071D01*
X17291643Y-14792500D01*
X17263071Y-14778214D01*
X17220214Y-14778214D01*
X17191643Y-14763929D01*
X17177357Y-14735357D01*
X17177357Y-14721071D01*
X17191643Y-14692500D01*
X17220214Y-14678214D01*
X17263071Y-14678214D01*
X17291643Y-14692500D01*
X17405928Y-14992500D02*
X17420214Y-14978214D01*
X17448786Y-14935357D01*
X17463071Y-14906786D01*
X17477357Y-14863929D01*
X17491643Y-14792500D01*
X17491643Y-14735357D01*
X17477357Y-14663929D01*
X17463071Y-14621071D01*
X17448786Y-14592500D01*
X17420214Y-14549643D01*
X17405928Y-14535357D01*
X17948786Y-14992500D02*
X17934500Y-14978214D01*
X17905928Y-14935357D01*
X17891643Y-14906786D01*
X17877357Y-14863929D01*
X17863071Y-14792500D01*
X17863071Y-14735357D01*
X17877357Y-14663929D01*
X17891643Y-14621071D01*
X17905928Y-14592500D01*
X17934500Y-14549643D01*
X17948786Y-14535357D01*
X18063071Y-14678214D02*
X18063071Y-14878214D01*
X18063071Y-14706786D02*
X18077357Y-14692500D01*
X18105928Y-14678214D01*
X18148786Y-14678214D01*
X18177357Y-14692500D01*
X18191643Y-14721071D01*
X18191643Y-14878214D01*
X18377357Y-14878214D02*
X18348786Y-14863929D01*
X18334500Y-14849643D01*
X18320214Y-14821071D01*
X18320214Y-14735357D01*
X18334500Y-14706786D01*
X18348786Y-14692500D01*
X18377357Y-14678214D01*
X18420214Y-14678214D01*
X18448786Y-14692500D01*
X18463071Y-14706786D01*
X18477357Y-14735357D01*
X18477357Y-14821071D01*
X18463071Y-14849643D01*
X18448786Y-14863929D01*
X18420214Y-14878214D01*
X18377357Y-14878214D01*
X18563071Y-14678214D02*
X18677357Y-14678214D01*
X18605928Y-14578214D02*
X18605928Y-14835357D01*
X18620214Y-14863929D01*
X18648786Y-14878214D01*
X18677357Y-14878214D01*
X19005928Y-14678214D02*
X19005928Y-14978214D01*
X19005928Y-14692500D02*
X19034500Y-14678214D01*
X19091643Y-14678214D01*
X19120214Y-14692500D01*
X19134500Y-14706786D01*
X19148786Y-14735357D01*
X19148786Y-14821071D01*
X19134500Y-14849643D01*
X19120214Y-14863929D01*
X19091643Y-14878214D01*
X19034500Y-14878214D01*
X19005928Y-14863929D01*
X19320214Y-14878214D02*
X19291643Y-14863929D01*
X19277357Y-14835357D01*
X19277357Y-14578214D01*
X19563071Y-14878214D02*
X19563071Y-14721071D01*
X19548786Y-14692500D01*
X19520214Y-14678214D01*
X19463071Y-14678214D01*
X19434500Y-14692500D01*
X19563071Y-14863929D02*
X19534500Y-14878214D01*
X19463071Y-14878214D01*
X19434500Y-14863929D01*
X19420214Y-14835357D01*
X19420214Y-14806786D01*
X19434500Y-14778214D01*
X19463071Y-14763929D01*
X19534500Y-14763929D01*
X19563071Y-14749643D01*
X19663071Y-14678214D02*
X19777357Y-14678214D01*
X19705928Y-14578214D02*
X19705928Y-14835357D01*
X19720214Y-14863929D01*
X19748786Y-14878214D01*
X19777357Y-14878214D01*
X19991643Y-14863929D02*
X19963071Y-14878214D01*
X19905928Y-14878214D01*
X19877357Y-14863929D01*
X19863071Y-14835357D01*
X19863071Y-14721071D01*
X19877357Y-14692500D01*
X19905928Y-14678214D01*
X19963071Y-14678214D01*
X19991643Y-14692500D01*
X20005928Y-14721071D01*
X20005928Y-14749643D01*
X19863071Y-14778214D01*
X20263071Y-14878214D02*
X20263071Y-14578214D01*
X20263071Y-14863929D02*
X20234500Y-14878214D01*
X20177357Y-14878214D01*
X20148786Y-14863929D01*
X20134500Y-14849643D01*
X20120214Y-14821071D01*
X20120214Y-14735357D01*
X20134500Y-14706786D01*
X20148786Y-14692500D01*
X20177357Y-14678214D01*
X20234500Y-14678214D01*
X20263071Y-14692500D01*
X20377357Y-14992500D02*
X20391643Y-14978214D01*
X20420214Y-14935357D01*
X20434500Y-14906786D01*
X20448786Y-14863929D01*
X20463071Y-14792500D01*
X20463071Y-14735357D01*
X20448786Y-14663929D01*
X20434500Y-14621071D01*
X20420214Y-14592500D01*
X20391643Y-14549643D01*
X20377357Y-14535357D01*
M02*
