%FSLAX45Y45*%
G04 Gerber Fmt 4.5, Leading zero omitted, Abs format (unit mm)*
G04 Created by KiCad (PCBNEW (5.1.6-0-10_14)) date 2020-08-26 18:43:04*
%MOMM*%
%LPD*%
G01*
G04 APERTURE LIST*
%TA.AperFunction,Profile*%
%ADD10C,0.050000*%
%TD*%
%ADD11C,0.200000*%
%ADD12C,0.300000*%
G04 APERTURE END LIST*
D10*
X19500000Y-6700000D02*
X19500000Y-13900000D01*
X19500000Y-13900000D02*
G75*
G02*
X19000000Y-14400000I-500000J0D01*
G01*
X19000000Y-6200000D02*
G75*
G02*
X19500000Y-6700000I0J-500000D01*
G01*
X11800000Y-6200000D02*
X19000000Y-6200000D01*
X11800000Y-14400000D02*
X11800000Y-6200000D01*
X19000000Y-14400000D02*
X11800000Y-14400000D01*
D11*
X18825000Y-6525000D02*
X19175000Y-6875000D01*
X19175000Y-6525000D02*
X18825000Y-6875000D01*
X18825000Y-13725000D02*
X19175000Y-14075000D01*
X19175000Y-13725000D02*
X18825000Y-14075000D01*
X13675000Y-6525000D02*
X14025000Y-6875000D01*
X14025000Y-6525000D02*
X13675000Y-6875000D01*
X12975000Y-7250000D02*
G75*
G03*
X12975000Y-7250000I-180000J0D01*
G01*
X12975000Y-12850000D02*
G75*
G03*
X12975000Y-12850000I-180000J0D01*
G01*
D12*
X12083928Y-14868214D02*
X12083928Y-14568214D01*
X12155357Y-14568214D01*
X12198214Y-14582500D01*
X12226786Y-14611071D01*
X12241071Y-14639643D01*
X12255357Y-14696786D01*
X12255357Y-14739643D01*
X12241071Y-14796786D01*
X12226786Y-14825357D01*
X12198214Y-14853929D01*
X12155357Y-14868214D01*
X12083928Y-14868214D01*
X12383928Y-14868214D02*
X12383928Y-14668214D01*
X12383928Y-14725357D02*
X12398214Y-14696786D01*
X12412500Y-14682500D01*
X12441071Y-14668214D01*
X12469643Y-14668214D01*
X12569643Y-14868214D02*
X12569643Y-14668214D01*
X12569643Y-14568214D02*
X12555357Y-14582500D01*
X12569643Y-14596786D01*
X12583928Y-14582500D01*
X12569643Y-14568214D01*
X12569643Y-14596786D01*
X12755357Y-14868214D02*
X12726786Y-14853929D01*
X12712500Y-14825357D01*
X12712500Y-14568214D01*
X12912500Y-14868214D02*
X12883928Y-14853929D01*
X12869643Y-14825357D01*
X12869643Y-14568214D01*
X13255357Y-14868214D02*
X13255357Y-14568214D01*
X13355357Y-14782500D01*
X13455357Y-14568214D01*
X13455357Y-14868214D01*
X13726786Y-14868214D02*
X13726786Y-14711071D01*
X13712500Y-14682500D01*
X13683928Y-14668214D01*
X13626786Y-14668214D01*
X13598214Y-14682500D01*
X13726786Y-14853929D02*
X13698214Y-14868214D01*
X13626786Y-14868214D01*
X13598214Y-14853929D01*
X13583928Y-14825357D01*
X13583928Y-14796786D01*
X13598214Y-14768214D01*
X13626786Y-14753929D01*
X13698214Y-14753929D01*
X13726786Y-14739643D01*
X13869643Y-14668214D02*
X13869643Y-14968214D01*
X13869643Y-14682500D02*
X13898214Y-14668214D01*
X13955357Y-14668214D01*
X13983928Y-14682500D01*
X13998214Y-14696786D01*
X14012500Y-14725357D01*
X14012500Y-14811071D01*
X13998214Y-14839643D01*
X13983928Y-14853929D01*
X13955357Y-14868214D01*
X13898214Y-14868214D01*
X13869643Y-14853929D01*
X14141071Y-14839643D02*
X14155357Y-14853929D01*
X14141071Y-14868214D01*
X14126786Y-14853929D01*
X14141071Y-14839643D01*
X14141071Y-14868214D01*
X14141071Y-14682500D02*
X14155357Y-14696786D01*
X14141071Y-14711071D01*
X14126786Y-14696786D01*
X14141071Y-14682500D01*
X14141071Y-14711071D01*
X11447500Y-15187500D02*
X11797500Y-15537500D01*
X11797500Y-15187500D02*
X11447500Y-15537500D01*
X12055357Y-15198214D02*
X12241071Y-15198214D01*
X12141071Y-15312500D01*
X12183928Y-15312500D01*
X12212500Y-15326786D01*
X12226786Y-15341071D01*
X12241071Y-15369643D01*
X12241071Y-15441071D01*
X12226786Y-15469643D01*
X12212500Y-15483929D01*
X12183928Y-15498214D01*
X12098214Y-15498214D01*
X12069643Y-15483929D01*
X12055357Y-15469643D01*
X12369643Y-15469643D02*
X12383928Y-15483929D01*
X12369643Y-15498214D01*
X12355357Y-15483929D01*
X12369643Y-15469643D01*
X12369643Y-15498214D01*
X12655357Y-15198214D02*
X12512500Y-15198214D01*
X12498214Y-15341071D01*
X12512500Y-15326786D01*
X12541071Y-15312500D01*
X12612500Y-15312500D01*
X12641071Y-15326786D01*
X12655357Y-15341071D01*
X12669643Y-15369643D01*
X12669643Y-15441071D01*
X12655357Y-15469643D01*
X12641071Y-15483929D01*
X12612500Y-15498214D01*
X12541071Y-15498214D01*
X12512500Y-15483929D01*
X12498214Y-15469643D01*
X12855357Y-15198214D02*
X12883928Y-15198214D01*
X12912500Y-15212500D01*
X12926786Y-15226786D01*
X12941071Y-15255357D01*
X12955357Y-15312500D01*
X12955357Y-15383929D01*
X12941071Y-15441071D01*
X12926786Y-15469643D01*
X12912500Y-15483929D01*
X12883928Y-15498214D01*
X12855357Y-15498214D01*
X12826786Y-15483929D01*
X12812500Y-15469643D01*
X12798214Y-15441071D01*
X12783928Y-15383929D01*
X12783928Y-15312500D01*
X12798214Y-15255357D01*
X12812500Y-15226786D01*
X12826786Y-15212500D01*
X12855357Y-15198214D01*
X13083928Y-15498214D02*
X13083928Y-15298214D01*
X13083928Y-15326786D02*
X13098214Y-15312500D01*
X13126786Y-15298214D01*
X13169643Y-15298214D01*
X13198214Y-15312500D01*
X13212500Y-15341071D01*
X13212500Y-15498214D01*
X13212500Y-15341071D02*
X13226786Y-15312500D01*
X13255357Y-15298214D01*
X13298214Y-15298214D01*
X13326786Y-15312500D01*
X13341071Y-15341071D01*
X13341071Y-15498214D01*
X13483928Y-15498214D02*
X13483928Y-15298214D01*
X13483928Y-15326786D02*
X13498214Y-15312500D01*
X13526786Y-15298214D01*
X13569643Y-15298214D01*
X13598214Y-15312500D01*
X13612500Y-15341071D01*
X13612500Y-15498214D01*
X13612500Y-15341071D02*
X13626786Y-15312500D01*
X13655357Y-15298214D01*
X13698214Y-15298214D01*
X13726786Y-15312500D01*
X13741071Y-15341071D01*
X13741071Y-15498214D01*
X14326786Y-15183929D02*
X14069643Y-15569643D01*
X14712500Y-15198214D02*
X14741071Y-15198214D01*
X14769643Y-15212500D01*
X14783928Y-15226786D01*
X14798214Y-15255357D01*
X14812500Y-15312500D01*
X14812500Y-15383929D01*
X14798214Y-15441071D01*
X14783928Y-15469643D01*
X14769643Y-15483929D01*
X14741071Y-15498214D01*
X14712500Y-15498214D01*
X14683928Y-15483929D01*
X14669643Y-15469643D01*
X14655357Y-15441071D01*
X14641071Y-15383929D01*
X14641071Y-15312500D01*
X14655357Y-15255357D01*
X14669643Y-15226786D01*
X14683928Y-15212500D01*
X14712500Y-15198214D01*
X14941071Y-15469643D02*
X14955357Y-15483929D01*
X14941071Y-15498214D01*
X14926786Y-15483929D01*
X14941071Y-15469643D01*
X14941071Y-15498214D01*
X15241071Y-15498214D02*
X15069643Y-15498214D01*
X15155357Y-15498214D02*
X15155357Y-15198214D01*
X15126786Y-15241071D01*
X15098214Y-15269643D01*
X15069643Y-15283929D01*
X15341071Y-15198214D02*
X15526786Y-15198214D01*
X15426786Y-15312500D01*
X15469643Y-15312500D01*
X15498214Y-15326786D01*
X15512500Y-15341071D01*
X15526786Y-15369643D01*
X15526786Y-15441071D01*
X15512500Y-15469643D01*
X15498214Y-15483929D01*
X15469643Y-15498214D01*
X15383928Y-15498214D01*
X15355357Y-15483929D01*
X15341071Y-15469643D01*
X15698214Y-15326786D02*
X15669643Y-15312500D01*
X15655357Y-15298214D01*
X15641071Y-15269643D01*
X15641071Y-15255357D01*
X15655357Y-15226786D01*
X15669643Y-15212500D01*
X15698214Y-15198214D01*
X15755357Y-15198214D01*
X15783928Y-15212500D01*
X15798214Y-15226786D01*
X15812500Y-15255357D01*
X15812500Y-15269643D01*
X15798214Y-15298214D01*
X15783928Y-15312500D01*
X15755357Y-15326786D01*
X15698214Y-15326786D01*
X15669643Y-15341071D01*
X15655357Y-15355357D01*
X15641071Y-15383929D01*
X15641071Y-15441071D01*
X15655357Y-15469643D01*
X15669643Y-15483929D01*
X15698214Y-15498214D01*
X15755357Y-15498214D01*
X15783928Y-15483929D01*
X15798214Y-15469643D01*
X15812500Y-15441071D01*
X15812500Y-15383929D01*
X15798214Y-15355357D01*
X15783928Y-15341071D01*
X15755357Y-15326786D01*
X15926786Y-15198214D02*
X15926786Y-15255357D01*
X16041071Y-15198214D02*
X16041071Y-15255357D01*
X16483928Y-15612500D02*
X16469643Y-15598214D01*
X16441071Y-15555357D01*
X16426786Y-15526786D01*
X16412500Y-15483929D01*
X16398214Y-15412500D01*
X16398214Y-15355357D01*
X16412500Y-15283929D01*
X16426786Y-15241071D01*
X16441071Y-15212500D01*
X16469643Y-15169643D01*
X16483928Y-15155357D01*
X16569643Y-15198214D02*
X16755357Y-15198214D01*
X16655357Y-15312500D01*
X16698214Y-15312500D01*
X16726786Y-15326786D01*
X16741071Y-15341071D01*
X16755357Y-15369643D01*
X16755357Y-15441071D01*
X16741071Y-15469643D01*
X16726786Y-15483929D01*
X16698214Y-15498214D01*
X16612500Y-15498214D01*
X16583928Y-15483929D01*
X16569643Y-15469643D01*
X17112500Y-15498214D02*
X17112500Y-15198214D01*
X17241071Y-15498214D02*
X17241071Y-15341071D01*
X17226786Y-15312500D01*
X17198214Y-15298214D01*
X17155357Y-15298214D01*
X17126786Y-15312500D01*
X17112500Y-15326786D01*
X17426786Y-15498214D02*
X17398214Y-15483929D01*
X17383928Y-15469643D01*
X17369643Y-15441071D01*
X17369643Y-15355357D01*
X17383928Y-15326786D01*
X17398214Y-15312500D01*
X17426786Y-15298214D01*
X17469643Y-15298214D01*
X17498214Y-15312500D01*
X17512500Y-15326786D01*
X17526786Y-15355357D01*
X17526786Y-15441071D01*
X17512500Y-15469643D01*
X17498214Y-15483929D01*
X17469643Y-15498214D01*
X17426786Y-15498214D01*
X17698214Y-15498214D02*
X17669643Y-15483929D01*
X17655357Y-15455357D01*
X17655357Y-15198214D01*
X17926786Y-15483929D02*
X17898214Y-15498214D01*
X17841071Y-15498214D01*
X17812500Y-15483929D01*
X17798214Y-15455357D01*
X17798214Y-15341071D01*
X17812500Y-15312500D01*
X17841071Y-15298214D01*
X17898214Y-15298214D01*
X17926786Y-15312500D01*
X17941071Y-15341071D01*
X17941071Y-15369643D01*
X17798214Y-15398214D01*
X18055357Y-15483929D02*
X18083928Y-15498214D01*
X18141071Y-15498214D01*
X18169643Y-15483929D01*
X18183928Y-15455357D01*
X18183928Y-15441071D01*
X18169643Y-15412500D01*
X18141071Y-15398214D01*
X18098214Y-15398214D01*
X18069643Y-15383929D01*
X18055357Y-15355357D01*
X18055357Y-15341071D01*
X18069643Y-15312500D01*
X18098214Y-15298214D01*
X18141071Y-15298214D01*
X18169643Y-15312500D01*
X18283928Y-15612500D02*
X18298214Y-15598214D01*
X18326786Y-15555357D01*
X18341071Y-15526786D01*
X18355357Y-15483929D01*
X18369643Y-15412500D01*
X18369643Y-15355357D01*
X18355357Y-15283929D01*
X18341071Y-15241071D01*
X18326786Y-15212500D01*
X18298214Y-15169643D01*
X18283928Y-15155357D01*
X18826786Y-15612500D02*
X18812500Y-15598214D01*
X18783928Y-15555357D01*
X18769643Y-15526786D01*
X18755357Y-15483929D01*
X18741071Y-15412500D01*
X18741071Y-15355357D01*
X18755357Y-15283929D01*
X18769643Y-15241071D01*
X18783928Y-15212500D01*
X18812500Y-15169643D01*
X18826786Y-15155357D01*
X18941071Y-15298214D02*
X18941071Y-15498214D01*
X18941071Y-15326786D02*
X18955357Y-15312500D01*
X18983928Y-15298214D01*
X19026786Y-15298214D01*
X19055357Y-15312500D01*
X19069643Y-15341071D01*
X19069643Y-15498214D01*
X19255357Y-15498214D02*
X19226786Y-15483929D01*
X19212500Y-15469643D01*
X19198214Y-15441071D01*
X19198214Y-15355357D01*
X19212500Y-15326786D01*
X19226786Y-15312500D01*
X19255357Y-15298214D01*
X19298214Y-15298214D01*
X19326786Y-15312500D01*
X19341071Y-15326786D01*
X19355357Y-15355357D01*
X19355357Y-15441071D01*
X19341071Y-15469643D01*
X19326786Y-15483929D01*
X19298214Y-15498214D01*
X19255357Y-15498214D01*
X19441071Y-15298214D02*
X19555357Y-15298214D01*
X19483928Y-15198214D02*
X19483928Y-15455357D01*
X19498214Y-15483929D01*
X19526786Y-15498214D01*
X19555357Y-15498214D01*
X19883928Y-15298214D02*
X19883928Y-15598214D01*
X19883928Y-15312500D02*
X19912500Y-15298214D01*
X19969643Y-15298214D01*
X19998214Y-15312500D01*
X20012500Y-15326786D01*
X20026786Y-15355357D01*
X20026786Y-15441071D01*
X20012500Y-15469643D01*
X19998214Y-15483929D01*
X19969643Y-15498214D01*
X19912500Y-15498214D01*
X19883928Y-15483929D01*
X20198214Y-15498214D02*
X20169643Y-15483929D01*
X20155357Y-15455357D01*
X20155357Y-15198214D01*
X20441071Y-15498214D02*
X20441071Y-15341071D01*
X20426786Y-15312500D01*
X20398214Y-15298214D01*
X20341071Y-15298214D01*
X20312500Y-15312500D01*
X20441071Y-15483929D02*
X20412500Y-15498214D01*
X20341071Y-15498214D01*
X20312500Y-15483929D01*
X20298214Y-15455357D01*
X20298214Y-15426786D01*
X20312500Y-15398214D01*
X20341071Y-15383929D01*
X20412500Y-15383929D01*
X20441071Y-15369643D01*
X20541071Y-15298214D02*
X20655357Y-15298214D01*
X20583928Y-15198214D02*
X20583928Y-15455357D01*
X20598214Y-15483929D01*
X20626786Y-15498214D01*
X20655357Y-15498214D01*
X20869643Y-15483929D02*
X20841071Y-15498214D01*
X20783928Y-15498214D01*
X20755357Y-15483929D01*
X20741071Y-15455357D01*
X20741071Y-15341071D01*
X20755357Y-15312500D01*
X20783928Y-15298214D01*
X20841071Y-15298214D01*
X20869643Y-15312500D01*
X20883928Y-15341071D01*
X20883928Y-15369643D01*
X20741071Y-15398214D01*
X21141071Y-15498214D02*
X21141071Y-15198214D01*
X21141071Y-15483929D02*
X21112500Y-15498214D01*
X21055357Y-15498214D01*
X21026786Y-15483929D01*
X21012500Y-15469643D01*
X20998214Y-15441071D01*
X20998214Y-15355357D01*
X21012500Y-15326786D01*
X21026786Y-15312500D01*
X21055357Y-15298214D01*
X21112500Y-15298214D01*
X21141071Y-15312500D01*
X21255357Y-15612500D02*
X21269643Y-15598214D01*
X21298214Y-15555357D01*
X21312500Y-15526786D01*
X21326786Y-15483929D01*
X21341071Y-15412500D01*
X21341071Y-15355357D01*
X21326786Y-15283929D01*
X21312500Y-15241071D01*
X21298214Y-15212500D01*
X21269643Y-15169643D01*
X21255357Y-15155357D01*
X11797500Y-15842500D02*
G75*
G03*
X11797500Y-15842500I-180000J0D01*
G01*
X12055357Y-15678214D02*
X12241071Y-15678214D01*
X12141071Y-15792500D01*
X12183928Y-15792500D01*
X12212500Y-15806786D01*
X12226786Y-15821071D01*
X12241071Y-15849643D01*
X12241071Y-15921071D01*
X12226786Y-15949643D01*
X12212500Y-15963929D01*
X12183928Y-15978214D01*
X12098214Y-15978214D01*
X12069643Y-15963929D01*
X12055357Y-15949643D01*
X12369643Y-15949643D02*
X12383928Y-15963929D01*
X12369643Y-15978214D01*
X12355357Y-15963929D01*
X12369643Y-15949643D01*
X12369643Y-15978214D01*
X12641071Y-15678214D02*
X12583928Y-15678214D01*
X12555357Y-15692500D01*
X12541071Y-15706786D01*
X12512500Y-15749643D01*
X12498214Y-15806786D01*
X12498214Y-15921071D01*
X12512500Y-15949643D01*
X12526786Y-15963929D01*
X12555357Y-15978214D01*
X12612500Y-15978214D01*
X12641071Y-15963929D01*
X12655357Y-15949643D01*
X12669643Y-15921071D01*
X12669643Y-15849643D01*
X12655357Y-15821071D01*
X12641071Y-15806786D01*
X12612500Y-15792500D01*
X12555357Y-15792500D01*
X12526786Y-15806786D01*
X12512500Y-15821071D01*
X12498214Y-15849643D01*
X12855357Y-15678214D02*
X12883928Y-15678214D01*
X12912500Y-15692500D01*
X12926786Y-15706786D01*
X12941071Y-15735357D01*
X12955357Y-15792500D01*
X12955357Y-15863929D01*
X12941071Y-15921071D01*
X12926786Y-15949643D01*
X12912500Y-15963929D01*
X12883928Y-15978214D01*
X12855357Y-15978214D01*
X12826786Y-15963929D01*
X12812500Y-15949643D01*
X12798214Y-15921071D01*
X12783928Y-15863929D01*
X12783928Y-15792500D01*
X12798214Y-15735357D01*
X12812500Y-15706786D01*
X12826786Y-15692500D01*
X12855357Y-15678214D01*
X13083928Y-15978214D02*
X13083928Y-15778214D01*
X13083928Y-15806786D02*
X13098214Y-15792500D01*
X13126786Y-15778214D01*
X13169643Y-15778214D01*
X13198214Y-15792500D01*
X13212500Y-15821071D01*
X13212500Y-15978214D01*
X13212500Y-15821071D02*
X13226786Y-15792500D01*
X13255357Y-15778214D01*
X13298214Y-15778214D01*
X13326786Y-15792500D01*
X13341071Y-15821071D01*
X13341071Y-15978214D01*
X13483928Y-15978214D02*
X13483928Y-15778214D01*
X13483928Y-15806786D02*
X13498214Y-15792500D01*
X13526786Y-15778214D01*
X13569643Y-15778214D01*
X13598214Y-15792500D01*
X13612500Y-15821071D01*
X13612500Y-15978214D01*
X13612500Y-15821071D02*
X13626786Y-15792500D01*
X13655357Y-15778214D01*
X13698214Y-15778214D01*
X13726786Y-15792500D01*
X13741071Y-15821071D01*
X13741071Y-15978214D01*
X14326786Y-15663929D02*
X14069643Y-16049643D01*
X14712500Y-15678214D02*
X14741071Y-15678214D01*
X14769643Y-15692500D01*
X14783928Y-15706786D01*
X14798214Y-15735357D01*
X14812500Y-15792500D01*
X14812500Y-15863929D01*
X14798214Y-15921071D01*
X14783928Y-15949643D01*
X14769643Y-15963929D01*
X14741071Y-15978214D01*
X14712500Y-15978214D01*
X14683928Y-15963929D01*
X14669643Y-15949643D01*
X14655357Y-15921071D01*
X14641071Y-15863929D01*
X14641071Y-15792500D01*
X14655357Y-15735357D01*
X14669643Y-15706786D01*
X14683928Y-15692500D01*
X14712500Y-15678214D01*
X14941071Y-15949643D02*
X14955357Y-15963929D01*
X14941071Y-15978214D01*
X14926786Y-15963929D01*
X14941071Y-15949643D01*
X14941071Y-15978214D01*
X15241071Y-15978214D02*
X15069643Y-15978214D01*
X15155357Y-15978214D02*
X15155357Y-15678214D01*
X15126786Y-15721071D01*
X15098214Y-15749643D01*
X15069643Y-15763929D01*
X15498214Y-15778214D02*
X15498214Y-15978214D01*
X15426786Y-15663929D02*
X15355357Y-15878214D01*
X15541071Y-15878214D01*
X15641071Y-15706786D02*
X15655357Y-15692500D01*
X15683928Y-15678214D01*
X15755357Y-15678214D01*
X15783928Y-15692500D01*
X15798214Y-15706786D01*
X15812500Y-15735357D01*
X15812500Y-15763929D01*
X15798214Y-15806786D01*
X15626786Y-15978214D01*
X15812500Y-15978214D01*
X15926786Y-15678214D02*
X15926786Y-15735357D01*
X16041071Y-15678214D02*
X16041071Y-15735357D01*
X16483928Y-16092500D02*
X16469643Y-16078214D01*
X16441071Y-16035357D01*
X16426786Y-16006786D01*
X16412500Y-15963929D01*
X16398214Y-15892500D01*
X16398214Y-15835357D01*
X16412500Y-15763929D01*
X16426786Y-15721071D01*
X16441071Y-15692500D01*
X16469643Y-15649643D01*
X16483928Y-15635357D01*
X16583928Y-15706786D02*
X16598214Y-15692500D01*
X16626786Y-15678214D01*
X16698214Y-15678214D01*
X16726786Y-15692500D01*
X16741071Y-15706786D01*
X16755357Y-15735357D01*
X16755357Y-15763929D01*
X16741071Y-15806786D01*
X16569643Y-15978214D01*
X16755357Y-15978214D01*
X17112500Y-15978214D02*
X17112500Y-15678214D01*
X17241071Y-15978214D02*
X17241071Y-15821071D01*
X17226786Y-15792500D01*
X17198214Y-15778214D01*
X17155357Y-15778214D01*
X17126786Y-15792500D01*
X17112500Y-15806786D01*
X17426786Y-15978214D02*
X17398214Y-15963929D01*
X17383928Y-15949643D01*
X17369643Y-15921071D01*
X17369643Y-15835357D01*
X17383928Y-15806786D01*
X17398214Y-15792500D01*
X17426786Y-15778214D01*
X17469643Y-15778214D01*
X17498214Y-15792500D01*
X17512500Y-15806786D01*
X17526786Y-15835357D01*
X17526786Y-15921071D01*
X17512500Y-15949643D01*
X17498214Y-15963929D01*
X17469643Y-15978214D01*
X17426786Y-15978214D01*
X17698214Y-15978214D02*
X17669643Y-15963929D01*
X17655357Y-15935357D01*
X17655357Y-15678214D01*
X17926786Y-15963929D02*
X17898214Y-15978214D01*
X17841071Y-15978214D01*
X17812500Y-15963929D01*
X17798214Y-15935357D01*
X17798214Y-15821071D01*
X17812500Y-15792500D01*
X17841071Y-15778214D01*
X17898214Y-15778214D01*
X17926786Y-15792500D01*
X17941071Y-15821071D01*
X17941071Y-15849643D01*
X17798214Y-15878214D01*
X18055357Y-15963929D02*
X18083928Y-15978214D01*
X18141071Y-15978214D01*
X18169643Y-15963929D01*
X18183928Y-15935357D01*
X18183928Y-15921071D01*
X18169643Y-15892500D01*
X18141071Y-15878214D01*
X18098214Y-15878214D01*
X18069643Y-15863929D01*
X18055357Y-15835357D01*
X18055357Y-15821071D01*
X18069643Y-15792500D01*
X18098214Y-15778214D01*
X18141071Y-15778214D01*
X18169643Y-15792500D01*
X18283928Y-16092500D02*
X18298214Y-16078214D01*
X18326786Y-16035357D01*
X18341071Y-16006786D01*
X18355357Y-15963929D01*
X18369643Y-15892500D01*
X18369643Y-15835357D01*
X18355357Y-15763929D01*
X18341071Y-15721071D01*
X18326786Y-15692500D01*
X18298214Y-15649643D01*
X18283928Y-15635357D01*
X18826786Y-16092500D02*
X18812500Y-16078214D01*
X18783928Y-16035357D01*
X18769643Y-16006786D01*
X18755357Y-15963929D01*
X18741071Y-15892500D01*
X18741071Y-15835357D01*
X18755357Y-15763929D01*
X18769643Y-15721071D01*
X18783928Y-15692500D01*
X18812500Y-15649643D01*
X18826786Y-15635357D01*
X18941071Y-15778214D02*
X18941071Y-15978214D01*
X18941071Y-15806786D02*
X18955357Y-15792500D01*
X18983928Y-15778214D01*
X19026786Y-15778214D01*
X19055357Y-15792500D01*
X19069643Y-15821071D01*
X19069643Y-15978214D01*
X19255357Y-15978214D02*
X19226786Y-15963929D01*
X19212500Y-15949643D01*
X19198214Y-15921071D01*
X19198214Y-15835357D01*
X19212500Y-15806786D01*
X19226786Y-15792500D01*
X19255357Y-15778214D01*
X19298214Y-15778214D01*
X19326786Y-15792500D01*
X19341071Y-15806786D01*
X19355357Y-15835357D01*
X19355357Y-15921071D01*
X19341071Y-15949643D01*
X19326786Y-15963929D01*
X19298214Y-15978214D01*
X19255357Y-15978214D01*
X19441071Y-15778214D02*
X19555357Y-15778214D01*
X19483928Y-15678214D02*
X19483928Y-15935357D01*
X19498214Y-15963929D01*
X19526786Y-15978214D01*
X19555357Y-15978214D01*
X19883928Y-15778214D02*
X19883928Y-16078214D01*
X19883928Y-15792500D02*
X19912500Y-15778214D01*
X19969643Y-15778214D01*
X19998214Y-15792500D01*
X20012500Y-15806786D01*
X20026786Y-15835357D01*
X20026786Y-15921071D01*
X20012500Y-15949643D01*
X19998214Y-15963929D01*
X19969643Y-15978214D01*
X19912500Y-15978214D01*
X19883928Y-15963929D01*
X20198214Y-15978214D02*
X20169643Y-15963929D01*
X20155357Y-15935357D01*
X20155357Y-15678214D01*
X20441071Y-15978214D02*
X20441071Y-15821071D01*
X20426786Y-15792500D01*
X20398214Y-15778214D01*
X20341071Y-15778214D01*
X20312500Y-15792500D01*
X20441071Y-15963929D02*
X20412500Y-15978214D01*
X20341071Y-15978214D01*
X20312500Y-15963929D01*
X20298214Y-15935357D01*
X20298214Y-15906786D01*
X20312500Y-15878214D01*
X20341071Y-15863929D01*
X20412500Y-15863929D01*
X20441071Y-15849643D01*
X20541071Y-15778214D02*
X20655357Y-15778214D01*
X20583928Y-15678214D02*
X20583928Y-15935357D01*
X20598214Y-15963929D01*
X20626786Y-15978214D01*
X20655357Y-15978214D01*
X20869643Y-15963929D02*
X20841071Y-15978214D01*
X20783928Y-15978214D01*
X20755357Y-15963929D01*
X20741071Y-15935357D01*
X20741071Y-15821071D01*
X20755357Y-15792500D01*
X20783928Y-15778214D01*
X20841071Y-15778214D01*
X20869643Y-15792500D01*
X20883928Y-15821071D01*
X20883928Y-15849643D01*
X20741071Y-15878214D01*
X21141071Y-15978214D02*
X21141071Y-15678214D01*
X21141071Y-15963929D02*
X21112500Y-15978214D01*
X21055357Y-15978214D01*
X21026786Y-15963929D01*
X21012500Y-15949643D01*
X20998214Y-15921071D01*
X20998214Y-15835357D01*
X21012500Y-15806786D01*
X21026786Y-15792500D01*
X21055357Y-15778214D01*
X21112500Y-15778214D01*
X21141071Y-15792500D01*
X21255357Y-16092500D02*
X21269643Y-16078214D01*
X21298214Y-16035357D01*
X21312500Y-16006786D01*
X21326786Y-15963929D01*
X21341071Y-15892500D01*
X21341071Y-15835357D01*
X21326786Y-15763929D01*
X21312500Y-15721071D01*
X21298214Y-15692500D01*
X21269643Y-15649643D01*
X21255357Y-15635357D01*
M02*
