%TF.GenerationSoftware,KiCad,Pcbnew,(5.1.6-0-10_14)*%
%TF.CreationDate,2020-08-27T07:53:02+01:00*%
%TF.ProjectId,IEC Power Entry,49454320-506f-4776-9572-20456e747279,1.0a*%
%TF.SameCoordinates,Original*%
%TF.FileFunction,Legend,Top*%
%TF.FilePolarity,Positive*%
%FSLAX46Y46*%
G04 Gerber Fmt 4.6, Leading zero omitted, Abs format (unit mm)*
G04 Created by KiCad (PCBNEW (5.1.6-0-10_14)) date 2020-08-27 07:53:02*
%MOMM*%
%LPD*%
G01*
G04 APERTURE LIST*
%ADD10C,0.150000*%
%ADD11C,0.010000*%
%ADD12C,0.120000*%
%ADD13C,0.127000*%
%ADD14C,0.200000*%
G04 APERTURE END LIST*
D10*
X166335595Y-137302380D02*
X166335595Y-136302380D01*
X166573690Y-136302380D01*
X166716547Y-136350000D01*
X166811785Y-136445238D01*
X166859404Y-136540476D01*
X166907023Y-136730952D01*
X166907023Y-136873809D01*
X166859404Y-137064285D01*
X166811785Y-137159523D01*
X166716547Y-137254761D01*
X166573690Y-137302380D01*
X166335595Y-137302380D01*
X167335595Y-137302380D02*
X167335595Y-136635714D01*
X167335595Y-136302380D02*
X167287976Y-136350000D01*
X167335595Y-136397619D01*
X167383214Y-136350000D01*
X167335595Y-136302380D01*
X167335595Y-136397619D01*
X167764166Y-137254761D02*
X167859404Y-137302380D01*
X168049880Y-137302380D01*
X168145119Y-137254761D01*
X168192738Y-137159523D01*
X168192738Y-137111904D01*
X168145119Y-137016666D01*
X168049880Y-136969047D01*
X167907023Y-136969047D01*
X167811785Y-136921428D01*
X167764166Y-136826190D01*
X167764166Y-136778571D01*
X167811785Y-136683333D01*
X167907023Y-136635714D01*
X168049880Y-136635714D01*
X168145119Y-136683333D01*
X169049880Y-137254761D02*
X168954642Y-137302380D01*
X168764166Y-137302380D01*
X168668928Y-137254761D01*
X168621309Y-137207142D01*
X168573690Y-137111904D01*
X168573690Y-136826190D01*
X168621309Y-136730952D01*
X168668928Y-136683333D01*
X168764166Y-136635714D01*
X168954642Y-136635714D01*
X169049880Y-136683333D01*
X169621309Y-137302380D02*
X169526071Y-137254761D01*
X169478452Y-137207142D01*
X169430833Y-137111904D01*
X169430833Y-136826190D01*
X169478452Y-136730952D01*
X169526071Y-136683333D01*
X169621309Y-136635714D01*
X169764166Y-136635714D01*
X169859404Y-136683333D01*
X169907023Y-136730952D01*
X169954642Y-136826190D01*
X169954642Y-137111904D01*
X169907023Y-137207142D01*
X169859404Y-137254761D01*
X169764166Y-137302380D01*
X169621309Y-137302380D01*
X170383214Y-136635714D02*
X170383214Y-137302380D01*
X170383214Y-136730952D02*
X170430833Y-136683333D01*
X170526071Y-136635714D01*
X170668928Y-136635714D01*
X170764166Y-136683333D01*
X170811785Y-136778571D01*
X170811785Y-137302380D01*
X171287976Y-136635714D02*
X171287976Y-137302380D01*
X171287976Y-136730952D02*
X171335595Y-136683333D01*
X171430833Y-136635714D01*
X171573690Y-136635714D01*
X171668928Y-136683333D01*
X171716547Y-136778571D01*
X171716547Y-137302380D01*
X172573690Y-137254761D02*
X172478452Y-137302380D01*
X172287976Y-137302380D01*
X172192738Y-137254761D01*
X172145119Y-137159523D01*
X172145119Y-136778571D01*
X172192738Y-136683333D01*
X172287976Y-136635714D01*
X172478452Y-136635714D01*
X172573690Y-136683333D01*
X172621309Y-136778571D01*
X172621309Y-136873809D01*
X172145119Y-136969047D01*
X173478452Y-137254761D02*
X173383214Y-137302380D01*
X173192738Y-137302380D01*
X173097500Y-137254761D01*
X173049880Y-137207142D01*
X173002261Y-137111904D01*
X173002261Y-136826190D01*
X173049880Y-136730952D01*
X173097500Y-136683333D01*
X173192738Y-136635714D01*
X173383214Y-136635714D01*
X173478452Y-136683333D01*
X173764166Y-136635714D02*
X174145119Y-136635714D01*
X173907023Y-136302380D02*
X173907023Y-137159523D01*
X173954642Y-137254761D01*
X174049880Y-137302380D01*
X174145119Y-137302380D01*
X175240357Y-137302380D02*
X175240357Y-136635714D01*
X175240357Y-136730952D02*
X175287976Y-136683333D01*
X175383214Y-136635714D01*
X175526071Y-136635714D01*
X175621309Y-136683333D01*
X175668928Y-136778571D01*
X175668928Y-137302380D01*
X175668928Y-136778571D02*
X175716547Y-136683333D01*
X175811785Y-136635714D01*
X175954642Y-136635714D01*
X176049880Y-136683333D01*
X176097500Y-136778571D01*
X176097500Y-137302380D01*
X177002261Y-137302380D02*
X177002261Y-136778571D01*
X176954642Y-136683333D01*
X176859404Y-136635714D01*
X176668928Y-136635714D01*
X176573690Y-136683333D01*
X177002261Y-137254761D02*
X176907023Y-137302380D01*
X176668928Y-137302380D01*
X176573690Y-137254761D01*
X176526071Y-137159523D01*
X176526071Y-137064285D01*
X176573690Y-136969047D01*
X176668928Y-136921428D01*
X176907023Y-136921428D01*
X177002261Y-136873809D01*
X177478452Y-137302380D02*
X177478452Y-136635714D01*
X177478452Y-136302380D02*
X177430833Y-136350000D01*
X177478452Y-136397619D01*
X177526071Y-136350000D01*
X177478452Y-136302380D01*
X177478452Y-136397619D01*
X177954642Y-136635714D02*
X177954642Y-137302380D01*
X177954642Y-136730952D02*
X178002261Y-136683333D01*
X178097500Y-136635714D01*
X178240357Y-136635714D01*
X178335595Y-136683333D01*
X178383214Y-136778571D01*
X178383214Y-137302380D01*
X178811785Y-137254761D02*
X178907023Y-137302380D01*
X179097500Y-137302380D01*
X179192738Y-137254761D01*
X179240357Y-137159523D01*
X179240357Y-137111904D01*
X179192738Y-137016666D01*
X179097500Y-136969047D01*
X178954642Y-136969047D01*
X178859404Y-136921428D01*
X178811785Y-136826190D01*
X178811785Y-136778571D01*
X178859404Y-136683333D01*
X178954642Y-136635714D01*
X179097500Y-136635714D01*
X179192738Y-136683333D01*
X166287976Y-138904761D02*
X166383214Y-138952380D01*
X166573690Y-138952380D01*
X166668928Y-138904761D01*
X166716547Y-138809523D01*
X166716547Y-138761904D01*
X166668928Y-138666666D01*
X166573690Y-138619047D01*
X166430833Y-138619047D01*
X166335595Y-138571428D01*
X166287976Y-138476190D01*
X166287976Y-138428571D01*
X166335595Y-138333333D01*
X166430833Y-138285714D01*
X166573690Y-138285714D01*
X166668928Y-138333333D01*
X167573690Y-138285714D02*
X167573690Y-138952380D01*
X167145119Y-138285714D02*
X167145119Y-138809523D01*
X167192738Y-138904761D01*
X167287976Y-138952380D01*
X167430833Y-138952380D01*
X167526071Y-138904761D01*
X167573690Y-138857142D01*
X168049880Y-138285714D02*
X168049880Y-139285714D01*
X168049880Y-138333333D02*
X168145119Y-138285714D01*
X168335595Y-138285714D01*
X168430833Y-138333333D01*
X168478452Y-138380952D01*
X168526071Y-138476190D01*
X168526071Y-138761904D01*
X168478452Y-138857142D01*
X168430833Y-138904761D01*
X168335595Y-138952380D01*
X168145119Y-138952380D01*
X168049880Y-138904761D01*
X168954642Y-138285714D02*
X168954642Y-139285714D01*
X168954642Y-138333333D02*
X169049880Y-138285714D01*
X169240357Y-138285714D01*
X169335595Y-138333333D01*
X169383214Y-138380952D01*
X169430833Y-138476190D01*
X169430833Y-138761904D01*
X169383214Y-138857142D01*
X169335595Y-138904761D01*
X169240357Y-138952380D01*
X169049880Y-138952380D01*
X168954642Y-138904761D01*
X170002261Y-138952380D02*
X169907023Y-138904761D01*
X169859404Y-138809523D01*
X169859404Y-137952380D01*
X170287976Y-138285714D02*
X170526071Y-138952380D01*
X170764166Y-138285714D02*
X170526071Y-138952380D01*
X170430833Y-139190476D01*
X170383214Y-139238095D01*
X170287976Y-139285714D01*
X171907023Y-138952380D02*
X171907023Y-137952380D01*
X171907023Y-138333333D02*
X172002261Y-138285714D01*
X172192738Y-138285714D01*
X172287976Y-138333333D01*
X172335595Y-138380952D01*
X172383214Y-138476190D01*
X172383214Y-138761904D01*
X172335595Y-138857142D01*
X172287976Y-138904761D01*
X172192738Y-138952380D01*
X172002261Y-138952380D01*
X171907023Y-138904761D01*
X173192738Y-138904761D02*
X173097500Y-138952380D01*
X172907023Y-138952380D01*
X172811785Y-138904761D01*
X172764166Y-138809523D01*
X172764166Y-138428571D01*
X172811785Y-138333333D01*
X172907023Y-138285714D01*
X173097500Y-138285714D01*
X173192738Y-138333333D01*
X173240357Y-138428571D01*
X173240357Y-138523809D01*
X172764166Y-138619047D01*
X173526071Y-138285714D02*
X173907023Y-138285714D01*
X173668928Y-138952380D02*
X173668928Y-138095238D01*
X173716547Y-138000000D01*
X173811785Y-137952380D01*
X173907023Y-137952380D01*
X174383214Y-138952380D02*
X174287976Y-138904761D01*
X174240357Y-138857142D01*
X174192738Y-138761904D01*
X174192738Y-138476190D01*
X174240357Y-138380952D01*
X174287976Y-138333333D01*
X174383214Y-138285714D01*
X174526071Y-138285714D01*
X174621309Y-138333333D01*
X174668928Y-138380952D01*
X174716547Y-138476190D01*
X174716547Y-138761904D01*
X174668928Y-138857142D01*
X174621309Y-138904761D01*
X174526071Y-138952380D01*
X174383214Y-138952380D01*
X175145119Y-138952380D02*
X175145119Y-138285714D01*
X175145119Y-138476190D02*
X175192738Y-138380952D01*
X175240357Y-138333333D01*
X175335595Y-138285714D01*
X175430833Y-138285714D01*
X176145119Y-138904761D02*
X176049880Y-138952380D01*
X175859404Y-138952380D01*
X175764166Y-138904761D01*
X175716547Y-138809523D01*
X175716547Y-138428571D01*
X175764166Y-138333333D01*
X175859404Y-138285714D01*
X176049880Y-138285714D01*
X176145119Y-138333333D01*
X176192738Y-138428571D01*
X176192738Y-138523809D01*
X175716547Y-138619047D01*
X166287976Y-140554761D02*
X166383214Y-140602380D01*
X166573690Y-140602380D01*
X166668928Y-140554761D01*
X166716547Y-140459523D01*
X166716547Y-140411904D01*
X166668928Y-140316666D01*
X166573690Y-140269047D01*
X166430833Y-140269047D01*
X166335595Y-140221428D01*
X166287976Y-140126190D01*
X166287976Y-140078571D01*
X166335595Y-139983333D01*
X166430833Y-139935714D01*
X166573690Y-139935714D01*
X166668928Y-139983333D01*
X167526071Y-140554761D02*
X167430833Y-140602380D01*
X167240357Y-140602380D01*
X167145119Y-140554761D01*
X167097500Y-140459523D01*
X167097500Y-140078571D01*
X167145119Y-139983333D01*
X167240357Y-139935714D01*
X167430833Y-139935714D01*
X167526071Y-139983333D01*
X167573690Y-140078571D01*
X167573690Y-140173809D01*
X167097500Y-140269047D01*
X168002261Y-140602380D02*
X168002261Y-139935714D01*
X168002261Y-140126190D02*
X168049880Y-140030952D01*
X168097500Y-139983333D01*
X168192738Y-139935714D01*
X168287976Y-139935714D01*
X168526071Y-139935714D02*
X168764166Y-140602380D01*
X169002261Y-139935714D01*
X169383214Y-140602380D02*
X169383214Y-139935714D01*
X169383214Y-139602380D02*
X169335595Y-139650000D01*
X169383214Y-139697619D01*
X169430833Y-139650000D01*
X169383214Y-139602380D01*
X169383214Y-139697619D01*
X170287976Y-140554761D02*
X170192738Y-140602380D01*
X170002261Y-140602380D01*
X169907023Y-140554761D01*
X169859404Y-140507142D01*
X169811785Y-140411904D01*
X169811785Y-140126190D01*
X169859404Y-140030952D01*
X169907023Y-139983333D01*
X170002261Y-139935714D01*
X170192738Y-139935714D01*
X170287976Y-139983333D01*
X170716547Y-140602380D02*
X170716547Y-139935714D01*
X170716547Y-139602380D02*
X170668928Y-139650000D01*
X170716547Y-139697619D01*
X170764166Y-139650000D01*
X170716547Y-139602380D01*
X170716547Y-139697619D01*
X171192738Y-139935714D02*
X171192738Y-140602380D01*
X171192738Y-140030952D02*
X171240357Y-139983333D01*
X171335595Y-139935714D01*
X171478452Y-139935714D01*
X171573690Y-139983333D01*
X171621309Y-140078571D01*
X171621309Y-140602380D01*
X172526071Y-139935714D02*
X172526071Y-140745238D01*
X172478452Y-140840476D01*
X172430833Y-140888095D01*
X172335595Y-140935714D01*
X172192738Y-140935714D01*
X172097500Y-140888095D01*
X172526071Y-140554761D02*
X172430833Y-140602380D01*
X172240357Y-140602380D01*
X172145119Y-140554761D01*
X172097500Y-140507142D01*
X172049880Y-140411904D01*
X172049880Y-140126190D01*
X172097500Y-140030952D01*
X172145119Y-139983333D01*
X172240357Y-139935714D01*
X172430833Y-139935714D01*
X172526071Y-139983333D01*
X166238095Y-134833333D02*
X167190476Y-134833333D01*
X166047619Y-135404761D02*
X166714285Y-133404761D01*
X167380952Y-135404761D01*
X167761904Y-133404761D02*
X168904761Y-133404761D01*
X168333333Y-135404761D02*
X168333333Y-133404761D01*
X169285714Y-133404761D02*
X170428571Y-133404761D01*
X169857142Y-135404761D02*
X169857142Y-133404761D01*
X171095238Y-134357142D02*
X171761904Y-134357142D01*
X172047619Y-135404761D02*
X171095238Y-135404761D01*
X171095238Y-133404761D01*
X172047619Y-133404761D01*
X172904761Y-135404761D02*
X172904761Y-133404761D01*
X174047619Y-135404761D01*
X174047619Y-133404761D01*
X174714285Y-133404761D02*
X175857142Y-133404761D01*
X175285714Y-135404761D02*
X175285714Y-133404761D01*
X176523809Y-135404761D02*
X176523809Y-133404761D01*
X177857142Y-133404761D02*
X178238095Y-133404761D01*
X178428571Y-133500000D01*
X178619047Y-133690476D01*
X178714285Y-134071428D01*
X178714285Y-134738095D01*
X178619047Y-135119047D01*
X178428571Y-135309523D01*
X178238095Y-135404761D01*
X177857142Y-135404761D01*
X177666666Y-135309523D01*
X177476190Y-135119047D01*
X177380952Y-134738095D01*
X177380952Y-134071428D01*
X177476190Y-133690476D01*
X177666666Y-133500000D01*
X177857142Y-133404761D01*
X179571428Y-135404761D02*
X179571428Y-133404761D01*
X180714285Y-135404761D01*
X180714285Y-133404761D01*
X181666666Y-135214285D02*
X181761904Y-135309523D01*
X181666666Y-135404761D01*
X181571428Y-135309523D01*
X181666666Y-135214285D01*
X181666666Y-135404761D01*
X181666666Y-134642857D02*
X181571428Y-133500000D01*
X181666666Y-133404761D01*
X181761904Y-133500000D01*
X181666666Y-134642857D01*
X181666666Y-133404761D01*
X146628571Y-138992857D02*
X147128571Y-138992857D01*
X147342857Y-139778571D02*
X146628571Y-139778571D01*
X146628571Y-138278571D01*
X147342857Y-138278571D01*
X148628571Y-139778571D02*
X148628571Y-138992857D01*
X148557142Y-138850000D01*
X148414285Y-138778571D01*
X148128571Y-138778571D01*
X147985714Y-138850000D01*
X148628571Y-139707142D02*
X148485714Y-139778571D01*
X148128571Y-139778571D01*
X147985714Y-139707142D01*
X147914285Y-139564285D01*
X147914285Y-139421428D01*
X147985714Y-139278571D01*
X148128571Y-139207142D01*
X148485714Y-139207142D01*
X148628571Y-139135714D01*
X149342857Y-139778571D02*
X149342857Y-138778571D01*
X149342857Y-139064285D02*
X149414285Y-138921428D01*
X149485714Y-138850000D01*
X149628571Y-138778571D01*
X149771428Y-138778571D01*
X150057142Y-138778571D02*
X150628571Y-138778571D01*
X150271428Y-138278571D02*
X150271428Y-139564285D01*
X150342857Y-139707142D01*
X150485714Y-139778571D01*
X150628571Y-139778571D01*
X151128571Y-139778571D02*
X151128571Y-138278571D01*
X151771428Y-139778571D02*
X151771428Y-138992857D01*
X151700000Y-138850000D01*
X151557142Y-138778571D01*
X151342857Y-138778571D01*
X151200000Y-138850000D01*
X151128571Y-138921428D01*
X153088214Y-66277380D02*
X153088214Y-65277380D01*
X153469166Y-65277380D01*
X153564404Y-65325000D01*
X153612023Y-65372619D01*
X153659642Y-65467857D01*
X153659642Y-65610714D01*
X153612023Y-65705952D01*
X153564404Y-65753571D01*
X153469166Y-65801190D01*
X153088214Y-65801190D01*
X154231071Y-66277380D02*
X154135833Y-66229761D01*
X154088214Y-66182142D01*
X154040595Y-66086904D01*
X154040595Y-65801190D01*
X154088214Y-65705952D01*
X154135833Y-65658333D01*
X154231071Y-65610714D01*
X154373928Y-65610714D01*
X154469166Y-65658333D01*
X154516785Y-65705952D01*
X154564404Y-65801190D01*
X154564404Y-66086904D01*
X154516785Y-66182142D01*
X154469166Y-66229761D01*
X154373928Y-66277380D01*
X154231071Y-66277380D01*
X154897738Y-65610714D02*
X155088214Y-66277380D01*
X155278690Y-65801190D01*
X155469166Y-66277380D01*
X155659642Y-65610714D01*
X156421547Y-66229761D02*
X156326309Y-66277380D01*
X156135833Y-66277380D01*
X156040595Y-66229761D01*
X155992976Y-66134523D01*
X155992976Y-65753571D01*
X156040595Y-65658333D01*
X156135833Y-65610714D01*
X156326309Y-65610714D01*
X156421547Y-65658333D01*
X156469166Y-65753571D01*
X156469166Y-65848809D01*
X155992976Y-65944047D01*
X156897738Y-66277380D02*
X156897738Y-65610714D01*
X156897738Y-65801190D02*
X156945357Y-65705952D01*
X156992976Y-65658333D01*
X157088214Y-65610714D01*
X157183452Y-65610714D01*
X158278690Y-65753571D02*
X158612023Y-65753571D01*
X158754880Y-66277380D02*
X158278690Y-66277380D01*
X158278690Y-65277380D01*
X158754880Y-65277380D01*
X159183452Y-65610714D02*
X159183452Y-66277380D01*
X159183452Y-65705952D02*
X159231071Y-65658333D01*
X159326309Y-65610714D01*
X159469166Y-65610714D01*
X159564404Y-65658333D01*
X159612023Y-65753571D01*
X159612023Y-66277380D01*
X159945357Y-65610714D02*
X160326309Y-65610714D01*
X160088214Y-65277380D02*
X160088214Y-66134523D01*
X160135833Y-66229761D01*
X160231071Y-66277380D01*
X160326309Y-66277380D01*
X160659642Y-66277380D02*
X160659642Y-65610714D01*
X160659642Y-65801190D02*
X160707261Y-65705952D01*
X160754880Y-65658333D01*
X160850119Y-65610714D01*
X160945357Y-65610714D01*
X161183452Y-65610714D02*
X161421547Y-66277380D01*
X161659642Y-65610714D02*
X161421547Y-66277380D01*
X161326309Y-66515476D01*
X161278690Y-66563095D01*
X161183452Y-66610714D01*
X162659642Y-65277380D02*
X162992976Y-66277380D01*
X163326309Y-65277380D01*
X164183452Y-66277380D02*
X163612023Y-66277380D01*
X163897738Y-66277380D02*
X163897738Y-65277380D01*
X163802500Y-65420238D01*
X163707261Y-65515476D01*
X163612023Y-65563095D01*
X164612023Y-66182142D02*
X164659642Y-66229761D01*
X164612023Y-66277380D01*
X164564404Y-66229761D01*
X164612023Y-66182142D01*
X164612023Y-66277380D01*
X165278690Y-65277380D02*
X165373928Y-65277380D01*
X165469166Y-65325000D01*
X165516785Y-65372619D01*
X165564404Y-65467857D01*
X165612023Y-65658333D01*
X165612023Y-65896428D01*
X165564404Y-66086904D01*
X165516785Y-66182142D01*
X165469166Y-66229761D01*
X165373928Y-66277380D01*
X165278690Y-66277380D01*
X165183452Y-66229761D01*
X165135833Y-66182142D01*
X165088214Y-66086904D01*
X165040595Y-65896428D01*
X165040595Y-65658333D01*
X165088214Y-65467857D01*
X165135833Y-65372619D01*
X165183452Y-65325000D01*
X165278690Y-65277380D01*
X156469166Y-67641666D02*
X156945357Y-67641666D01*
X156373928Y-67927380D02*
X156707261Y-66927380D01*
X157040595Y-67927380D01*
X157802500Y-67260714D02*
X157802500Y-67927380D01*
X157373928Y-67260714D02*
X157373928Y-67784523D01*
X157421547Y-67879761D01*
X157516785Y-67927380D01*
X157659642Y-67927380D01*
X157754880Y-67879761D01*
X157802500Y-67832142D01*
X158707261Y-67260714D02*
X158707261Y-68070238D01*
X158659642Y-68165476D01*
X158612023Y-68213095D01*
X158516785Y-68260714D01*
X158373928Y-68260714D01*
X158278690Y-68213095D01*
X158707261Y-67879761D02*
X158612023Y-67927380D01*
X158421547Y-67927380D01*
X158326309Y-67879761D01*
X158278690Y-67832142D01*
X158231071Y-67736904D01*
X158231071Y-67451190D01*
X158278690Y-67355952D01*
X158326309Y-67308333D01*
X158421547Y-67260714D01*
X158612023Y-67260714D01*
X158707261Y-67308333D01*
X159612023Y-67260714D02*
X159612023Y-67927380D01*
X159183452Y-67260714D02*
X159183452Y-67784523D01*
X159231071Y-67879761D01*
X159326309Y-67927380D01*
X159469166Y-67927380D01*
X159564404Y-67879761D01*
X159612023Y-67832142D01*
X160040595Y-67879761D02*
X160135833Y-67927380D01*
X160326309Y-67927380D01*
X160421547Y-67879761D01*
X160469166Y-67784523D01*
X160469166Y-67736904D01*
X160421547Y-67641666D01*
X160326309Y-67594047D01*
X160183452Y-67594047D01*
X160088214Y-67546428D01*
X160040595Y-67451190D01*
X160040595Y-67403571D01*
X160088214Y-67308333D01*
X160183452Y-67260714D01*
X160326309Y-67260714D01*
X160421547Y-67308333D01*
X160754880Y-67260714D02*
X161135833Y-67260714D01*
X160897738Y-66927380D02*
X160897738Y-67784523D01*
X160945357Y-67879761D01*
X161040595Y-67927380D01*
X161135833Y-67927380D01*
X162183452Y-67022619D02*
X162231071Y-66975000D01*
X162326309Y-66927380D01*
X162564404Y-66927380D01*
X162659642Y-66975000D01*
X162707261Y-67022619D01*
X162754880Y-67117857D01*
X162754880Y-67213095D01*
X162707261Y-67355952D01*
X162135833Y-67927380D01*
X162754880Y-67927380D01*
X163373928Y-66927380D02*
X163469166Y-66927380D01*
X163564404Y-66975000D01*
X163612023Y-67022619D01*
X163659642Y-67117857D01*
X163707261Y-67308333D01*
X163707261Y-67546428D01*
X163659642Y-67736904D01*
X163612023Y-67832142D01*
X163564404Y-67879761D01*
X163469166Y-67927380D01*
X163373928Y-67927380D01*
X163278690Y-67879761D01*
X163231071Y-67832142D01*
X163183452Y-67736904D01*
X163135833Y-67546428D01*
X163135833Y-67308333D01*
X163183452Y-67117857D01*
X163231071Y-67022619D01*
X163278690Y-66975000D01*
X163373928Y-66927380D01*
X164088214Y-67022619D02*
X164135833Y-66975000D01*
X164231071Y-66927380D01*
X164469166Y-66927380D01*
X164564404Y-66975000D01*
X164612023Y-67022619D01*
X164659642Y-67117857D01*
X164659642Y-67213095D01*
X164612023Y-67355952D01*
X164040595Y-67927380D01*
X164659642Y-67927380D01*
X165278690Y-66927380D02*
X165373928Y-66927380D01*
X165469166Y-66975000D01*
X165516785Y-67022619D01*
X165564404Y-67117857D01*
X165612023Y-67308333D01*
X165612023Y-67546428D01*
X165564404Y-67736904D01*
X165516785Y-67832142D01*
X165469166Y-67879761D01*
X165373928Y-67927380D01*
X165278690Y-67927380D01*
X165183452Y-67879761D01*
X165135833Y-67832142D01*
X165088214Y-67736904D01*
X165040595Y-67546428D01*
X165040595Y-67308333D01*
X165088214Y-67117857D01*
X165135833Y-67022619D01*
X165183452Y-66975000D01*
X165278690Y-66927380D01*
X118726180Y-105290242D02*
X117726180Y-105290242D01*
X117726180Y-105052147D01*
X117773800Y-104909290D01*
X117869038Y-104814052D01*
X117964276Y-104766433D01*
X118154752Y-104718814D01*
X118297609Y-104718814D01*
X118488085Y-104766433D01*
X118583323Y-104814052D01*
X118678561Y-104909290D01*
X118726180Y-105052147D01*
X118726180Y-105290242D01*
X118726180Y-104290242D02*
X117726180Y-104290242D01*
X117726180Y-104052147D01*
X117773800Y-103909290D01*
X117869038Y-103814052D01*
X117964276Y-103766433D01*
X118154752Y-103718814D01*
X118297609Y-103718814D01*
X118488085Y-103766433D01*
X118583323Y-103814052D01*
X118678561Y-103909290D01*
X118726180Y-104052147D01*
X118726180Y-104290242D01*
X117821419Y-103337861D02*
X117773800Y-103290242D01*
X117726180Y-103195004D01*
X117726180Y-102956909D01*
X117773800Y-102861671D01*
X117821419Y-102814052D01*
X117916657Y-102766433D01*
X118011895Y-102766433D01*
X118154752Y-102814052D01*
X118726180Y-103385480D01*
X118726180Y-102766433D01*
X118726180Y-101814052D02*
X118726180Y-102385480D01*
X118726180Y-102099766D02*
X117726180Y-102099766D01*
X117869038Y-102195004D01*
X117964276Y-102290242D01*
X118011895Y-102385480D01*
X118726180Y-100623576D02*
X117726180Y-100623576D01*
X117726180Y-100242623D01*
X117773800Y-100147385D01*
X117821419Y-100099766D01*
X117916657Y-100052147D01*
X118059514Y-100052147D01*
X118154752Y-100099766D01*
X118202371Y-100147385D01*
X118249990Y-100242623D01*
X118249990Y-100623576D01*
X118726180Y-99480719D02*
X118678561Y-99575957D01*
X118630942Y-99623576D01*
X118535704Y-99671195D01*
X118249990Y-99671195D01*
X118154752Y-99623576D01*
X118107133Y-99575957D01*
X118059514Y-99480719D01*
X118059514Y-99337861D01*
X118107133Y-99242623D01*
X118154752Y-99195004D01*
X118249990Y-99147385D01*
X118535704Y-99147385D01*
X118630942Y-99195004D01*
X118678561Y-99242623D01*
X118726180Y-99337861D01*
X118726180Y-99480719D01*
X118059514Y-98814052D02*
X118726180Y-98623576D01*
X118249990Y-98433100D01*
X118726180Y-98242623D01*
X118059514Y-98052147D01*
X118678561Y-97290242D02*
X118726180Y-97385480D01*
X118726180Y-97575957D01*
X118678561Y-97671195D01*
X118583323Y-97718814D01*
X118202371Y-97718814D01*
X118107133Y-97671195D01*
X118059514Y-97575957D01*
X118059514Y-97385480D01*
X118107133Y-97290242D01*
X118202371Y-97242623D01*
X118297609Y-97242623D01*
X118392847Y-97718814D01*
X118726180Y-96814052D02*
X118059514Y-96814052D01*
X118249990Y-96814052D02*
X118154752Y-96766433D01*
X118107133Y-96718814D01*
X118059514Y-96623576D01*
X118059514Y-96528338D01*
X118726180Y-95433100D02*
X117726180Y-95433100D01*
X118059514Y-94956909D02*
X118726180Y-94956909D01*
X118154752Y-94956909D02*
X118107133Y-94909290D01*
X118059514Y-94814052D01*
X118059514Y-94671195D01*
X118107133Y-94575957D01*
X118202371Y-94528338D01*
X118726180Y-94528338D01*
X118726180Y-93909290D02*
X118678561Y-94004528D01*
X118583323Y-94052147D01*
X117726180Y-94052147D01*
X118678561Y-93147385D02*
X118726180Y-93242623D01*
X118726180Y-93433100D01*
X118678561Y-93528338D01*
X118583323Y-93575957D01*
X118202371Y-93575957D01*
X118107133Y-93528338D01*
X118059514Y-93433100D01*
X118059514Y-93242623D01*
X118107133Y-93147385D01*
X118202371Y-93099766D01*
X118297609Y-93099766D01*
X118392847Y-93575957D01*
X118059514Y-92814052D02*
X118059514Y-92433100D01*
X117726180Y-92671195D02*
X118583323Y-92671195D01*
X118678561Y-92623576D01*
X118726180Y-92528338D01*
X118726180Y-92433100D01*
D11*
%TO.C,G\u002A\u002A\u002A*%
G36*
X180368200Y-137691567D02*
G01*
X180394048Y-137695773D01*
X180426234Y-137701617D01*
X180462746Y-137708681D01*
X180501573Y-137716546D01*
X180540702Y-137724791D01*
X180578121Y-137732999D01*
X180611818Y-137740750D01*
X180639780Y-137747624D01*
X180659995Y-137753203D01*
X180670450Y-137757068D01*
X180671450Y-137758045D01*
X180669036Y-137766786D01*
X180662086Y-137789722D01*
X180651038Y-137825469D01*
X180636329Y-137872642D01*
X180618398Y-137929857D01*
X180597683Y-137995728D01*
X180574621Y-138068871D01*
X180549650Y-138147901D01*
X180523208Y-138231433D01*
X180495733Y-138318082D01*
X180467663Y-138406463D01*
X180439435Y-138495193D01*
X180411487Y-138582885D01*
X180384258Y-138668155D01*
X180358185Y-138749618D01*
X180340684Y-138804172D01*
X180329076Y-138841274D01*
X180319910Y-138872424D01*
X180314055Y-138894532D01*
X180312378Y-138904507D01*
X180312459Y-138904701D01*
X180318410Y-138901489D01*
X180334220Y-138890739D01*
X180358716Y-138873306D01*
X180390728Y-138850044D01*
X180429082Y-138821808D01*
X180472607Y-138789452D01*
X180520131Y-138753830D01*
X180541671Y-138737595D01*
X180590532Y-138700803D01*
X180635859Y-138666855D01*
X180676486Y-138636610D01*
X180711247Y-138610928D01*
X180738977Y-138590668D01*
X180758508Y-138576692D01*
X180768675Y-138569859D01*
X180769880Y-138569333D01*
X180768823Y-138577806D01*
X180765213Y-138601588D01*
X180759247Y-138639458D01*
X180751124Y-138690196D01*
X180741042Y-138752579D01*
X180729200Y-138825386D01*
X180715796Y-138907396D01*
X180701028Y-138997388D01*
X180685095Y-139094141D01*
X180668196Y-139196432D01*
X180658084Y-139257491D01*
X180640672Y-139362659D01*
X180624074Y-139463162D01*
X180608492Y-139557760D01*
X180594129Y-139645210D01*
X180581186Y-139724274D01*
X180569868Y-139793708D01*
X180560375Y-139852273D01*
X180552911Y-139898727D01*
X180547678Y-139931830D01*
X180544879Y-139950340D01*
X180544450Y-139953874D01*
X180548547Y-139959866D01*
X180561868Y-139963356D01*
X180585953Y-139964693D01*
X180592604Y-139964733D01*
X180615155Y-139965524D01*
X180631451Y-139967621D01*
X180638585Y-139970606D01*
X180638641Y-139971326D01*
X180633695Y-139984230D01*
X180623563Y-140008787D01*
X180609163Y-140042891D01*
X180591413Y-140084433D01*
X180571231Y-140131308D01*
X180549535Y-140181409D01*
X180527243Y-140232628D01*
X180505273Y-140282860D01*
X180484544Y-140329996D01*
X180465973Y-140371931D01*
X180450478Y-140406558D01*
X180438979Y-140431769D01*
X180432391Y-140445459D01*
X180431219Y-140447325D01*
X180429081Y-140439318D01*
X180424983Y-140416605D01*
X180419228Y-140381143D01*
X180412121Y-140334889D01*
X180403963Y-140279800D01*
X180395058Y-140217831D01*
X180389263Y-140176580D01*
X180380249Y-140111149D01*
X180372180Y-140051181D01*
X180365309Y-139998666D01*
X180359888Y-139955592D01*
X180356170Y-139923947D01*
X180354407Y-139905722D01*
X180354406Y-139902036D01*
X180361475Y-139902063D01*
X180377773Y-139905478D01*
X180400202Y-139911593D01*
X180407925Y-139913933D01*
X180431472Y-139920894D01*
X180449677Y-139925640D01*
X180459517Y-139927404D01*
X180460402Y-139927219D01*
X180461223Y-139918654D01*
X180462953Y-139895071D01*
X180465475Y-139858332D01*
X180468673Y-139810296D01*
X180472431Y-139752825D01*
X180476630Y-139687778D01*
X180481154Y-139617017D01*
X180485887Y-139542402D01*
X180490711Y-139465794D01*
X180495510Y-139389052D01*
X180500167Y-139314039D01*
X180504566Y-139242614D01*
X180508588Y-139176638D01*
X180512118Y-139117971D01*
X180515039Y-139068474D01*
X180517234Y-139030008D01*
X180518585Y-139004433D01*
X180518985Y-138994146D01*
X180518147Y-138990135D01*
X180514912Y-138988291D01*
X180508248Y-138989122D01*
X180497122Y-138993137D01*
X180480505Y-139000842D01*
X180457363Y-139012747D01*
X180426666Y-139029360D01*
X180387382Y-139051188D01*
X180338479Y-139078740D01*
X180280617Y-139111563D01*
X180229006Y-139140746D01*
X180181076Y-139167561D01*
X180138073Y-139191334D01*
X180101240Y-139211389D01*
X180071820Y-139227052D01*
X180051057Y-139237649D01*
X180040195Y-139242504D01*
X180038887Y-139242672D01*
X180040043Y-139234148D01*
X180044185Y-139210635D01*
X180051043Y-139173510D01*
X180060347Y-139124153D01*
X180071826Y-139063940D01*
X180085209Y-138994250D01*
X180100228Y-138916460D01*
X180116611Y-138831950D01*
X180134087Y-138742095D01*
X180152387Y-138648276D01*
X180171240Y-138551868D01*
X180190376Y-138454251D01*
X180209524Y-138356803D01*
X180228414Y-138260901D01*
X180246776Y-138167923D01*
X180264340Y-138079248D01*
X180280834Y-137996253D01*
X180295989Y-137920316D01*
X180309534Y-137852815D01*
X180321200Y-137795128D01*
X180330714Y-137748634D01*
X180337808Y-137714709D01*
X180342211Y-137694733D01*
X180343571Y-137689748D01*
X180350704Y-137689419D01*
X180368200Y-137691567D01*
G37*
X180368200Y-137691567D02*
X180394048Y-137695773D01*
X180426234Y-137701617D01*
X180462746Y-137708681D01*
X180501573Y-137716546D01*
X180540702Y-137724791D01*
X180578121Y-137732999D01*
X180611818Y-137740750D01*
X180639780Y-137747624D01*
X180659995Y-137753203D01*
X180670450Y-137757068D01*
X180671450Y-137758045D01*
X180669036Y-137766786D01*
X180662086Y-137789722D01*
X180651038Y-137825469D01*
X180636329Y-137872642D01*
X180618398Y-137929857D01*
X180597683Y-137995728D01*
X180574621Y-138068871D01*
X180549650Y-138147901D01*
X180523208Y-138231433D01*
X180495733Y-138318082D01*
X180467663Y-138406463D01*
X180439435Y-138495193D01*
X180411487Y-138582885D01*
X180384258Y-138668155D01*
X180358185Y-138749618D01*
X180340684Y-138804172D01*
X180329076Y-138841274D01*
X180319910Y-138872424D01*
X180314055Y-138894532D01*
X180312378Y-138904507D01*
X180312459Y-138904701D01*
X180318410Y-138901489D01*
X180334220Y-138890739D01*
X180358716Y-138873306D01*
X180390728Y-138850044D01*
X180429082Y-138821808D01*
X180472607Y-138789452D01*
X180520131Y-138753830D01*
X180541671Y-138737595D01*
X180590532Y-138700803D01*
X180635859Y-138666855D01*
X180676486Y-138636610D01*
X180711247Y-138610928D01*
X180738977Y-138590668D01*
X180758508Y-138576692D01*
X180768675Y-138569859D01*
X180769880Y-138569333D01*
X180768823Y-138577806D01*
X180765213Y-138601588D01*
X180759247Y-138639458D01*
X180751124Y-138690196D01*
X180741042Y-138752579D01*
X180729200Y-138825386D01*
X180715796Y-138907396D01*
X180701028Y-138997388D01*
X180685095Y-139094141D01*
X180668196Y-139196432D01*
X180658084Y-139257491D01*
X180640672Y-139362659D01*
X180624074Y-139463162D01*
X180608492Y-139557760D01*
X180594129Y-139645210D01*
X180581186Y-139724274D01*
X180569868Y-139793708D01*
X180560375Y-139852273D01*
X180552911Y-139898727D01*
X180547678Y-139931830D01*
X180544879Y-139950340D01*
X180544450Y-139953874D01*
X180548547Y-139959866D01*
X180561868Y-139963356D01*
X180585953Y-139964693D01*
X180592604Y-139964733D01*
X180615155Y-139965524D01*
X180631451Y-139967621D01*
X180638585Y-139970606D01*
X180638641Y-139971326D01*
X180633695Y-139984230D01*
X180623563Y-140008787D01*
X180609163Y-140042891D01*
X180591413Y-140084433D01*
X180571231Y-140131308D01*
X180549535Y-140181409D01*
X180527243Y-140232628D01*
X180505273Y-140282860D01*
X180484544Y-140329996D01*
X180465973Y-140371931D01*
X180450478Y-140406558D01*
X180438979Y-140431769D01*
X180432391Y-140445459D01*
X180431219Y-140447325D01*
X180429081Y-140439318D01*
X180424983Y-140416605D01*
X180419228Y-140381143D01*
X180412121Y-140334889D01*
X180403963Y-140279800D01*
X180395058Y-140217831D01*
X180389263Y-140176580D01*
X180380249Y-140111149D01*
X180372180Y-140051181D01*
X180365309Y-139998666D01*
X180359888Y-139955592D01*
X180356170Y-139923947D01*
X180354407Y-139905722D01*
X180354406Y-139902036D01*
X180361475Y-139902063D01*
X180377773Y-139905478D01*
X180400202Y-139911593D01*
X180407925Y-139913933D01*
X180431472Y-139920894D01*
X180449677Y-139925640D01*
X180459517Y-139927404D01*
X180460402Y-139927219D01*
X180461223Y-139918654D01*
X180462953Y-139895071D01*
X180465475Y-139858332D01*
X180468673Y-139810296D01*
X180472431Y-139752825D01*
X180476630Y-139687778D01*
X180481154Y-139617017D01*
X180485887Y-139542402D01*
X180490711Y-139465794D01*
X180495510Y-139389052D01*
X180500167Y-139314039D01*
X180504566Y-139242614D01*
X180508588Y-139176638D01*
X180512118Y-139117971D01*
X180515039Y-139068474D01*
X180517234Y-139030008D01*
X180518585Y-139004433D01*
X180518985Y-138994146D01*
X180518147Y-138990135D01*
X180514912Y-138988291D01*
X180508248Y-138989122D01*
X180497122Y-138993137D01*
X180480505Y-139000842D01*
X180457363Y-139012747D01*
X180426666Y-139029360D01*
X180387382Y-139051188D01*
X180338479Y-139078740D01*
X180280617Y-139111563D01*
X180229006Y-139140746D01*
X180181076Y-139167561D01*
X180138073Y-139191334D01*
X180101240Y-139211389D01*
X180071820Y-139227052D01*
X180051057Y-139237649D01*
X180040195Y-139242504D01*
X180038887Y-139242672D01*
X180040043Y-139234148D01*
X180044185Y-139210635D01*
X180051043Y-139173510D01*
X180060347Y-139124153D01*
X180071826Y-139063940D01*
X180085209Y-138994250D01*
X180100228Y-138916460D01*
X180116611Y-138831950D01*
X180134087Y-138742095D01*
X180152387Y-138648276D01*
X180171240Y-138551868D01*
X180190376Y-138454251D01*
X180209524Y-138356803D01*
X180228414Y-138260901D01*
X180246776Y-138167923D01*
X180264340Y-138079248D01*
X180280834Y-137996253D01*
X180295989Y-137920316D01*
X180309534Y-137852815D01*
X180321200Y-137795128D01*
X180330714Y-137748634D01*
X180337808Y-137714709D01*
X180342211Y-137694733D01*
X180343571Y-137689748D01*
X180350704Y-137689419D01*
X180368200Y-137691567D01*
G36*
X180517484Y-136213345D02*
G01*
X180517968Y-136213806D01*
X180518461Y-136214000D01*
X180522266Y-136221220D01*
X180531661Y-136242069D01*
X180546129Y-136275327D01*
X180565156Y-136319774D01*
X180588224Y-136374192D01*
X180614819Y-136437359D01*
X180644423Y-136508058D01*
X180676522Y-136585069D01*
X180710598Y-136667172D01*
X180727154Y-136707183D01*
X180766173Y-136801566D01*
X180806640Y-136899458D01*
X180847592Y-136998524D01*
X180888064Y-137096432D01*
X180927092Y-137190849D01*
X180963711Y-137279440D01*
X180996957Y-137359874D01*
X181025866Y-137429816D01*
X181046509Y-137479766D01*
X181076585Y-137552526D01*
X181111245Y-137636359D01*
X181148940Y-137727513D01*
X181188118Y-137822237D01*
X181227226Y-137916779D01*
X181264713Y-138007387D01*
X181298637Y-138089366D01*
X181328461Y-138161437D01*
X181357585Y-138231834D01*
X181385177Y-138298545D01*
X181410407Y-138359561D01*
X181432444Y-138412871D01*
X181450457Y-138456466D01*
X181463614Y-138488336D01*
X181468422Y-138500000D01*
X181478551Y-138524560D01*
X181493995Y-138561955D01*
X181513929Y-138610195D01*
X181537531Y-138667290D01*
X181563978Y-138731250D01*
X181592447Y-138800083D01*
X181622115Y-138871800D01*
X181639934Y-138914866D01*
X181722698Y-139114891D01*
X181799524Y-139300591D01*
X181870618Y-139472464D01*
X181936184Y-139631008D01*
X181996426Y-139776718D01*
X182051549Y-139910094D01*
X182101757Y-140031630D01*
X182147256Y-140141826D01*
X182188249Y-140241177D01*
X182224942Y-140330182D01*
X182257538Y-140409337D01*
X182286243Y-140479140D01*
X182311261Y-140540088D01*
X182332796Y-140592677D01*
X182351053Y-140637406D01*
X182366237Y-140674771D01*
X182378552Y-140705269D01*
X182388202Y-140729398D01*
X182395393Y-140747656D01*
X182400329Y-140760538D01*
X182403215Y-140768542D01*
X182404254Y-140772166D01*
X182404230Y-140772482D01*
X182397746Y-140772759D01*
X182379168Y-140773047D01*
X182349104Y-140773344D01*
X182308159Y-140773649D01*
X182256940Y-140773962D01*
X182196053Y-140774280D01*
X182126106Y-140774604D01*
X182047704Y-140774930D01*
X181961454Y-140775259D01*
X181867962Y-140775589D01*
X181767836Y-140775919D01*
X181661681Y-140776248D01*
X181550105Y-140776574D01*
X181433713Y-140776897D01*
X181313112Y-140777215D01*
X181188908Y-140777526D01*
X181061709Y-140777831D01*
X180932120Y-140778127D01*
X180800749Y-140778413D01*
X180668201Y-140778689D01*
X180535083Y-140778953D01*
X180402002Y-140779203D01*
X180269564Y-140779439D01*
X180138375Y-140779659D01*
X180009043Y-140779863D01*
X179882173Y-140780048D01*
X179758373Y-140780215D01*
X179638248Y-140780361D01*
X179522405Y-140780485D01*
X179411451Y-140780587D01*
X179305992Y-140780665D01*
X179206635Y-140780717D01*
X179113986Y-140780744D01*
X179028651Y-140780742D01*
X178951238Y-140780712D01*
X178882353Y-140780652D01*
X178822602Y-140780561D01*
X178772591Y-140780438D01*
X178732928Y-140780281D01*
X178704218Y-140780089D01*
X178687069Y-140779861D01*
X178684876Y-140779805D01*
X178649040Y-140778534D01*
X178624126Y-140777024D01*
X178608360Y-140774944D01*
X178599964Y-140771960D01*
X178597161Y-140767741D01*
X178597683Y-140763487D01*
X178598372Y-140761309D01*
X178599576Y-140757951D01*
X178601548Y-140752814D01*
X178604537Y-140745303D01*
X178608795Y-140734820D01*
X178614573Y-140720768D01*
X178622121Y-140702550D01*
X178631690Y-140679569D01*
X178643531Y-140651229D01*
X178657896Y-140616931D01*
X178675034Y-140576079D01*
X178695197Y-140528076D01*
X178718635Y-140472326D01*
X178722407Y-140463358D01*
X178973637Y-140463358D01*
X178980104Y-140463749D01*
X178998625Y-140464190D01*
X179028551Y-140464677D01*
X179069235Y-140465207D01*
X179120031Y-140465774D01*
X179180291Y-140466375D01*
X179249367Y-140467006D01*
X179326613Y-140467662D01*
X179411382Y-140468340D01*
X179503026Y-140469036D01*
X179600898Y-140469744D01*
X179704352Y-140470462D01*
X179812739Y-140471185D01*
X179925412Y-140471908D01*
X180041725Y-140472629D01*
X180161031Y-140473342D01*
X180282681Y-140474044D01*
X180406029Y-140474730D01*
X180530428Y-140475397D01*
X180655231Y-140476040D01*
X180779790Y-140476655D01*
X180903458Y-140477238D01*
X181025588Y-140477785D01*
X181145533Y-140478291D01*
X181262646Y-140478754D01*
X181376279Y-140479168D01*
X181485785Y-140479529D01*
X181546841Y-140479712D01*
X181640493Y-140479957D01*
X181722230Y-140480105D01*
X181792838Y-140480137D01*
X181853102Y-140480037D01*
X181903808Y-140479788D01*
X181945740Y-140479370D01*
X181979685Y-140478768D01*
X182006428Y-140477963D01*
X182026753Y-140476938D01*
X182041447Y-140475675D01*
X182051294Y-140474156D01*
X182057081Y-140472365D01*
X182059592Y-140470283D01*
X182059729Y-140468241D01*
X182055976Y-140458537D01*
X182046591Y-140435511D01*
X182032172Y-140400595D01*
X182013317Y-140355225D01*
X181990623Y-140300834D01*
X181964688Y-140238856D01*
X181936108Y-140170724D01*
X181905483Y-140097873D01*
X181894770Y-140072424D01*
X181869709Y-140012897D01*
X181839078Y-139940109D01*
X181803513Y-139855576D01*
X181763651Y-139760810D01*
X181720128Y-139657325D01*
X181673581Y-139546634D01*
X181624646Y-139430251D01*
X181573959Y-139309691D01*
X181522158Y-139186466D01*
X181469878Y-139062089D01*
X181417756Y-138938075D01*
X181366429Y-138815938D01*
X181363527Y-138809033D01*
X181311909Y-138686202D01*
X181259223Y-138560836D01*
X181206129Y-138434508D01*
X181153289Y-138308792D01*
X181101364Y-138185260D01*
X181051014Y-138065486D01*
X181002902Y-137951041D01*
X180957689Y-137843500D01*
X180916036Y-137744434D01*
X180878603Y-137655418D01*
X180846053Y-137578024D01*
X180819047Y-137513824D01*
X180818966Y-137513633D01*
X180784236Y-137431076D01*
X180749491Y-137348462D01*
X180715577Y-137267806D01*
X180683341Y-137191120D01*
X180653628Y-137120418D01*
X180627285Y-137057713D01*
X180605157Y-137005019D01*
X180588092Y-136964349D01*
X180583322Y-136952969D01*
X180564410Y-136908276D01*
X180547483Y-136869099D01*
X180533538Y-136837681D01*
X180523575Y-136816266D01*
X180518592Y-136807099D01*
X180518335Y-136806919D01*
X180514300Y-136813922D01*
X180504965Y-136833766D01*
X180491197Y-136864491D01*
X180473863Y-136904137D01*
X180453833Y-136950742D01*
X180435046Y-136995049D01*
X180421163Y-137027970D01*
X180401565Y-137074420D01*
X180376770Y-137133172D01*
X180347293Y-137203002D01*
X180313654Y-137282685D01*
X180276369Y-137370994D01*
X180235955Y-137466704D01*
X180192931Y-137568591D01*
X180147813Y-137675428D01*
X180101119Y-137785990D01*
X180053366Y-137899052D01*
X180005072Y-138013388D01*
X180001589Y-138021633D01*
X179949578Y-138144766D01*
X179895549Y-138272680D01*
X179840287Y-138403517D01*
X179784575Y-138535419D01*
X179729200Y-138666527D01*
X179674946Y-138794985D01*
X179622597Y-138918933D01*
X179572938Y-139036514D01*
X179526755Y-139145869D01*
X179484831Y-139245140D01*
X179447953Y-139332470D01*
X179431232Y-139372066D01*
X179390773Y-139467876D01*
X179348846Y-139567153D01*
X179306407Y-139667635D01*
X179264411Y-139767061D01*
X179223813Y-139863168D01*
X179185570Y-139953695D01*
X179150636Y-140036379D01*
X179119968Y-140108959D01*
X179094520Y-140169174D01*
X179093255Y-140172166D01*
X179066437Y-140235814D01*
X179041770Y-140294750D01*
X179019912Y-140347372D01*
X179001519Y-140392078D01*
X178987251Y-140427268D01*
X178977765Y-140451340D01*
X178973719Y-140462691D01*
X178973637Y-140463358D01*
X178722407Y-140463358D01*
X178745600Y-140408230D01*
X178776342Y-140335192D01*
X178811112Y-140252614D01*
X178850162Y-140159901D01*
X178893741Y-140056455D01*
X178942101Y-139941678D01*
X178995492Y-139814974D01*
X179054166Y-139675746D01*
X179118374Y-139523397D01*
X179188365Y-139357329D01*
X179244602Y-139223900D01*
X179299026Y-139094771D01*
X179358712Y-138953153D01*
X179422703Y-138801317D01*
X179490040Y-138641536D01*
X179559767Y-138476083D01*
X179630925Y-138307232D01*
X179702557Y-138137255D01*
X179773704Y-137968424D01*
X179843409Y-137803013D01*
X179910714Y-137643294D01*
X179974661Y-137491540D01*
X180034293Y-137350024D01*
X180034921Y-137348533D01*
X180098758Y-137197032D01*
X180156663Y-137059608D01*
X180208927Y-136935577D01*
X180255841Y-136824254D01*
X180297699Y-136724955D01*
X180334790Y-136636997D01*
X180367407Y-136559696D01*
X180395841Y-136492367D01*
X180420383Y-136434326D01*
X180441326Y-136384890D01*
X180458960Y-136343374D01*
X180473578Y-136309094D01*
X180485470Y-136281366D01*
X180494929Y-136259507D01*
X180502245Y-136242832D01*
X180507711Y-136230657D01*
X180511618Y-136222298D01*
X180514257Y-136217072D01*
X180515920Y-136214293D01*
X180516898Y-136213279D01*
X180517484Y-136213345D01*
G37*
X180517484Y-136213345D02*
X180517968Y-136213806D01*
X180518461Y-136214000D01*
X180522266Y-136221220D01*
X180531661Y-136242069D01*
X180546129Y-136275327D01*
X180565156Y-136319774D01*
X180588224Y-136374192D01*
X180614819Y-136437359D01*
X180644423Y-136508058D01*
X180676522Y-136585069D01*
X180710598Y-136667172D01*
X180727154Y-136707183D01*
X180766173Y-136801566D01*
X180806640Y-136899458D01*
X180847592Y-136998524D01*
X180888064Y-137096432D01*
X180927092Y-137190849D01*
X180963711Y-137279440D01*
X180996957Y-137359874D01*
X181025866Y-137429816D01*
X181046509Y-137479766D01*
X181076585Y-137552526D01*
X181111245Y-137636359D01*
X181148940Y-137727513D01*
X181188118Y-137822237D01*
X181227226Y-137916779D01*
X181264713Y-138007387D01*
X181298637Y-138089366D01*
X181328461Y-138161437D01*
X181357585Y-138231834D01*
X181385177Y-138298545D01*
X181410407Y-138359561D01*
X181432444Y-138412871D01*
X181450457Y-138456466D01*
X181463614Y-138488336D01*
X181468422Y-138500000D01*
X181478551Y-138524560D01*
X181493995Y-138561955D01*
X181513929Y-138610195D01*
X181537531Y-138667290D01*
X181563978Y-138731250D01*
X181592447Y-138800083D01*
X181622115Y-138871800D01*
X181639934Y-138914866D01*
X181722698Y-139114891D01*
X181799524Y-139300591D01*
X181870618Y-139472464D01*
X181936184Y-139631008D01*
X181996426Y-139776718D01*
X182051549Y-139910094D01*
X182101757Y-140031630D01*
X182147256Y-140141826D01*
X182188249Y-140241177D01*
X182224942Y-140330182D01*
X182257538Y-140409337D01*
X182286243Y-140479140D01*
X182311261Y-140540088D01*
X182332796Y-140592677D01*
X182351053Y-140637406D01*
X182366237Y-140674771D01*
X182378552Y-140705269D01*
X182388202Y-140729398D01*
X182395393Y-140747656D01*
X182400329Y-140760538D01*
X182403215Y-140768542D01*
X182404254Y-140772166D01*
X182404230Y-140772482D01*
X182397746Y-140772759D01*
X182379168Y-140773047D01*
X182349104Y-140773344D01*
X182308159Y-140773649D01*
X182256940Y-140773962D01*
X182196053Y-140774280D01*
X182126106Y-140774604D01*
X182047704Y-140774930D01*
X181961454Y-140775259D01*
X181867962Y-140775589D01*
X181767836Y-140775919D01*
X181661681Y-140776248D01*
X181550105Y-140776574D01*
X181433713Y-140776897D01*
X181313112Y-140777215D01*
X181188908Y-140777526D01*
X181061709Y-140777831D01*
X180932120Y-140778127D01*
X180800749Y-140778413D01*
X180668201Y-140778689D01*
X180535083Y-140778953D01*
X180402002Y-140779203D01*
X180269564Y-140779439D01*
X180138375Y-140779659D01*
X180009043Y-140779863D01*
X179882173Y-140780048D01*
X179758373Y-140780215D01*
X179638248Y-140780361D01*
X179522405Y-140780485D01*
X179411451Y-140780587D01*
X179305992Y-140780665D01*
X179206635Y-140780717D01*
X179113986Y-140780744D01*
X179028651Y-140780742D01*
X178951238Y-140780712D01*
X178882353Y-140780652D01*
X178822602Y-140780561D01*
X178772591Y-140780438D01*
X178732928Y-140780281D01*
X178704218Y-140780089D01*
X178687069Y-140779861D01*
X178684876Y-140779805D01*
X178649040Y-140778534D01*
X178624126Y-140777024D01*
X178608360Y-140774944D01*
X178599964Y-140771960D01*
X178597161Y-140767741D01*
X178597683Y-140763487D01*
X178598372Y-140761309D01*
X178599576Y-140757951D01*
X178601548Y-140752814D01*
X178604537Y-140745303D01*
X178608795Y-140734820D01*
X178614573Y-140720768D01*
X178622121Y-140702550D01*
X178631690Y-140679569D01*
X178643531Y-140651229D01*
X178657896Y-140616931D01*
X178675034Y-140576079D01*
X178695197Y-140528076D01*
X178718635Y-140472326D01*
X178722407Y-140463358D01*
X178973637Y-140463358D01*
X178980104Y-140463749D01*
X178998625Y-140464190D01*
X179028551Y-140464677D01*
X179069235Y-140465207D01*
X179120031Y-140465774D01*
X179180291Y-140466375D01*
X179249367Y-140467006D01*
X179326613Y-140467662D01*
X179411382Y-140468340D01*
X179503026Y-140469036D01*
X179600898Y-140469744D01*
X179704352Y-140470462D01*
X179812739Y-140471185D01*
X179925412Y-140471908D01*
X180041725Y-140472629D01*
X180161031Y-140473342D01*
X180282681Y-140474044D01*
X180406029Y-140474730D01*
X180530428Y-140475397D01*
X180655231Y-140476040D01*
X180779790Y-140476655D01*
X180903458Y-140477238D01*
X181025588Y-140477785D01*
X181145533Y-140478291D01*
X181262646Y-140478754D01*
X181376279Y-140479168D01*
X181485785Y-140479529D01*
X181546841Y-140479712D01*
X181640493Y-140479957D01*
X181722230Y-140480105D01*
X181792838Y-140480137D01*
X181853102Y-140480037D01*
X181903808Y-140479788D01*
X181945740Y-140479370D01*
X181979685Y-140478768D01*
X182006428Y-140477963D01*
X182026753Y-140476938D01*
X182041447Y-140475675D01*
X182051294Y-140474156D01*
X182057081Y-140472365D01*
X182059592Y-140470283D01*
X182059729Y-140468241D01*
X182055976Y-140458537D01*
X182046591Y-140435511D01*
X182032172Y-140400595D01*
X182013317Y-140355225D01*
X181990623Y-140300834D01*
X181964688Y-140238856D01*
X181936108Y-140170724D01*
X181905483Y-140097873D01*
X181894770Y-140072424D01*
X181869709Y-140012897D01*
X181839078Y-139940109D01*
X181803513Y-139855576D01*
X181763651Y-139760810D01*
X181720128Y-139657325D01*
X181673581Y-139546634D01*
X181624646Y-139430251D01*
X181573959Y-139309691D01*
X181522158Y-139186466D01*
X181469878Y-139062089D01*
X181417756Y-138938075D01*
X181366429Y-138815938D01*
X181363527Y-138809033D01*
X181311909Y-138686202D01*
X181259223Y-138560836D01*
X181206129Y-138434508D01*
X181153289Y-138308792D01*
X181101364Y-138185260D01*
X181051014Y-138065486D01*
X181002902Y-137951041D01*
X180957689Y-137843500D01*
X180916036Y-137744434D01*
X180878603Y-137655418D01*
X180846053Y-137578024D01*
X180819047Y-137513824D01*
X180818966Y-137513633D01*
X180784236Y-137431076D01*
X180749491Y-137348462D01*
X180715577Y-137267806D01*
X180683341Y-137191120D01*
X180653628Y-137120418D01*
X180627285Y-137057713D01*
X180605157Y-137005019D01*
X180588092Y-136964349D01*
X180583322Y-136952969D01*
X180564410Y-136908276D01*
X180547483Y-136869099D01*
X180533538Y-136837681D01*
X180523575Y-136816266D01*
X180518592Y-136807099D01*
X180518335Y-136806919D01*
X180514300Y-136813922D01*
X180504965Y-136833766D01*
X180491197Y-136864491D01*
X180473863Y-136904137D01*
X180453833Y-136950742D01*
X180435046Y-136995049D01*
X180421163Y-137027970D01*
X180401565Y-137074420D01*
X180376770Y-137133172D01*
X180347293Y-137203002D01*
X180313654Y-137282685D01*
X180276369Y-137370994D01*
X180235955Y-137466704D01*
X180192931Y-137568591D01*
X180147813Y-137675428D01*
X180101119Y-137785990D01*
X180053366Y-137899052D01*
X180005072Y-138013388D01*
X180001589Y-138021633D01*
X179949578Y-138144766D01*
X179895549Y-138272680D01*
X179840287Y-138403517D01*
X179784575Y-138535419D01*
X179729200Y-138666527D01*
X179674946Y-138794985D01*
X179622597Y-138918933D01*
X179572938Y-139036514D01*
X179526755Y-139145869D01*
X179484831Y-139245140D01*
X179447953Y-139332470D01*
X179431232Y-139372066D01*
X179390773Y-139467876D01*
X179348846Y-139567153D01*
X179306407Y-139667635D01*
X179264411Y-139767061D01*
X179223813Y-139863168D01*
X179185570Y-139953695D01*
X179150636Y-140036379D01*
X179119968Y-140108959D01*
X179094520Y-140169174D01*
X179093255Y-140172166D01*
X179066437Y-140235814D01*
X179041770Y-140294750D01*
X179019912Y-140347372D01*
X179001519Y-140392078D01*
X178987251Y-140427268D01*
X178977765Y-140451340D01*
X178973719Y-140462691D01*
X178973637Y-140463358D01*
X178722407Y-140463358D01*
X178745600Y-140408230D01*
X178776342Y-140335192D01*
X178811112Y-140252614D01*
X178850162Y-140159901D01*
X178893741Y-140056455D01*
X178942101Y-139941678D01*
X178995492Y-139814974D01*
X179054166Y-139675746D01*
X179118374Y-139523397D01*
X179188365Y-139357329D01*
X179244602Y-139223900D01*
X179299026Y-139094771D01*
X179358712Y-138953153D01*
X179422703Y-138801317D01*
X179490040Y-138641536D01*
X179559767Y-138476083D01*
X179630925Y-138307232D01*
X179702557Y-138137255D01*
X179773704Y-137968424D01*
X179843409Y-137803013D01*
X179910714Y-137643294D01*
X179974661Y-137491540D01*
X180034293Y-137350024D01*
X180034921Y-137348533D01*
X180098758Y-137197032D01*
X180156663Y-137059608D01*
X180208927Y-136935577D01*
X180255841Y-136824254D01*
X180297699Y-136724955D01*
X180334790Y-136636997D01*
X180367407Y-136559696D01*
X180395841Y-136492367D01*
X180420383Y-136434326D01*
X180441326Y-136384890D01*
X180458960Y-136343374D01*
X180473578Y-136309094D01*
X180485470Y-136281366D01*
X180494929Y-136259507D01*
X180502245Y-136242832D01*
X180507711Y-136230657D01*
X180511618Y-136222298D01*
X180514257Y-136217072D01*
X180515920Y-136214293D01*
X180516898Y-136213279D01*
X180517484Y-136213345D01*
D12*
%TO.C,J1*%
X180780000Y-111500000D02*
G75*
G03*
X180780000Y-111500000I-1680000J0D01*
G01*
X180780000Y-119000000D02*
G75*
G03*
X180780000Y-119000000I-1680000J0D01*
G01*
X180780000Y-126500000D02*
G75*
G03*
X180780000Y-126500000I-1680000J0D01*
G01*
X174700000Y-100190000D02*
X174700000Y-130310000D01*
X175300000Y-100190000D02*
X175300000Y-130310000D01*
X182401000Y-100190000D02*
X182401000Y-130310000D01*
X184460000Y-100190000D02*
X184460000Y-130310000D01*
X174040000Y-100190000D02*
X174040000Y-130310000D01*
X184460000Y-100190000D02*
X174040000Y-100190000D01*
X184460000Y-130310000D02*
X174040000Y-130310000D01*
X184401000Y-102750000D02*
X184401000Y-105250000D01*
X183401000Y-102750000D02*
X183401000Y-105250000D01*
X184401000Y-102750000D02*
X183401000Y-102750000D01*
X184401000Y-105250000D02*
X183401000Y-105250000D01*
X184401000Y-110250000D02*
X184401000Y-112750000D01*
X183401000Y-110250000D02*
X183401000Y-112750000D01*
X184401000Y-110250000D02*
X183401000Y-110250000D01*
X184401000Y-112750000D02*
X183401000Y-112750000D01*
X184401000Y-117750000D02*
X184401000Y-120250000D01*
X183401000Y-117750000D02*
X183401000Y-120250000D01*
X184401000Y-117750000D02*
X183401000Y-117750000D01*
X184401000Y-120250000D02*
X183401000Y-120250000D01*
X184401000Y-125250000D02*
X184401000Y-127750000D01*
X183401000Y-125250000D02*
X183401000Y-127750000D01*
X184401000Y-125250000D02*
X183401000Y-125250000D01*
X184401000Y-127750000D02*
X183401000Y-127750000D01*
X174640000Y-99950000D02*
X173800000Y-99950000D01*
X173800000Y-99950000D02*
X173800000Y-100550000D01*
X177419550Y-104029383D02*
G75*
G02*
X177616000Y-103211000I1680450J29383D01*
G01*
X178310912Y-102516047D02*
G75*
G02*
X179889000Y-102516000I789088J-1483953D01*
G01*
X180583953Y-103210912D02*
G75*
G02*
X180584000Y-104789000I-1483953J-789088D01*
G01*
X179889088Y-105483953D02*
G75*
G02*
X178311000Y-105484000I-789088J1483953D01*
G01*
X177616648Y-104788712D02*
G75*
G02*
X177420000Y-104000000I1483352J788712D01*
G01*
D13*
%TO.C,P3*%
X118450000Y-68000000D02*
X118450000Y-133000000D01*
X142850000Y-123800000D02*
X142850000Y-109600000D01*
X142850000Y-109600000D02*
X153050000Y-109600000D01*
X153050000Y-109600000D02*
X153050000Y-77200000D01*
X118450000Y-68000000D02*
X132450000Y-68000000D01*
X132450000Y-68000000D02*
X132450000Y-77200000D01*
X132450000Y-77200000D02*
X153050000Y-77200000D01*
X118450000Y-133000000D02*
X132450000Y-133000000D01*
X132450000Y-133000000D02*
X132450000Y-123800000D01*
X132450000Y-123800000D02*
X142850000Y-123800000D01*
%TO.C,S1*%
X183350000Y-97095000D02*
X166850000Y-97095000D01*
X166850000Y-97095000D02*
X166850000Y-70905000D01*
X166850000Y-70905000D02*
X183350000Y-70905000D01*
X183350000Y-70905000D02*
X183350000Y-97095000D01*
D14*
X184200000Y-84000000D02*
G75*
G03*
X184200000Y-84000000I-100000J0D01*
G01*
D10*
%TO.C,TH1*%
X160450000Y-121000000D02*
X148450000Y-121000000D01*
X160450000Y-128100000D02*
X148450000Y-128100000D01*
X148450000Y-128100000D02*
X148450000Y-121000000D01*
X160450000Y-128100000D02*
X160450000Y-121000000D01*
%TO.C,MOV2*%
X164700000Y-113750000D02*
X169700000Y-113750000D01*
X164700000Y-101750000D02*
X169700000Y-101750000D01*
X164700000Y-113750000D02*
X164700000Y-101750000D01*
X169700000Y-113750000D02*
X169700000Y-101750000D01*
%TO.C,TH2*%
X150750000Y-118800000D02*
X162750000Y-118800000D01*
X150750000Y-111700000D02*
X162750000Y-111700000D01*
X162750000Y-111700000D02*
X162750000Y-118800000D01*
X150750000Y-111700000D02*
X150750000Y-118800000D01*
%TO.C,MOV1*%
X164700000Y-128750000D02*
X169700000Y-128750000D01*
X164700000Y-116750000D02*
X169700000Y-116750000D01*
X164700000Y-128750000D02*
X164700000Y-116750000D01*
X169700000Y-128750000D02*
X169700000Y-116750000D01*
D11*
%TO.C,G\u002A\u002A\u002A*%
G36*
X178041097Y-65201110D02*
G01*
X178073828Y-65203929D01*
X178107840Y-65214691D01*
X178148115Y-65238091D01*
X178199633Y-65278822D01*
X178267375Y-65341577D01*
X178356324Y-65431050D01*
X178471460Y-65551933D01*
X178617764Y-65708921D01*
X178800218Y-65906705D01*
X178866689Y-65978985D01*
X179037729Y-66164449D01*
X179195198Y-66334044D01*
X179333950Y-66482319D01*
X179448839Y-66603823D01*
X179534722Y-66693103D01*
X179586452Y-66744708D01*
X179599533Y-66755500D01*
X179624755Y-66732938D01*
X179687598Y-66668895D01*
X179782924Y-66568833D01*
X179905592Y-66438214D01*
X180050464Y-66282503D01*
X180212399Y-66107159D01*
X180330344Y-65978732D01*
X180524753Y-65766933D01*
X180681485Y-65597463D01*
X180805530Y-65465618D01*
X180901873Y-65366692D01*
X180975503Y-65295983D01*
X181031407Y-65248786D01*
X181074573Y-65220397D01*
X181109988Y-65206111D01*
X181142640Y-65201225D01*
X181155078Y-65200857D01*
X181268031Y-65199750D01*
X181418008Y-67192062D01*
X181444279Y-67541613D01*
X181469054Y-67872385D01*
X181491933Y-68178950D01*
X181512516Y-68455880D01*
X181530400Y-68697746D01*
X181545184Y-68899118D01*
X181556468Y-69054570D01*
X181563850Y-69158670D01*
X181566929Y-69205993D01*
X181566992Y-69208187D01*
X181536862Y-69217240D01*
X181455342Y-69224709D01*
X181334536Y-69229867D01*
X181186549Y-69231983D01*
X181171915Y-69232000D01*
X180777831Y-69232000D01*
X180760351Y-69112937D01*
X180753662Y-69051249D01*
X180743341Y-68935387D01*
X180730119Y-68774527D01*
X180714727Y-68577845D01*
X180697895Y-68354515D01*
X180680353Y-68113716D01*
X180676325Y-68057250D01*
X180658609Y-67814773D01*
X180641162Y-67588606D01*
X180624747Y-67387725D01*
X180610130Y-67221107D01*
X180598074Y-67097731D01*
X180589345Y-67026572D01*
X180587826Y-67018244D01*
X180565875Y-66915863D01*
X180092032Y-67430994D01*
X179953380Y-67581097D01*
X179829078Y-67714463D01*
X179725542Y-67824307D01*
X179649188Y-67903844D01*
X179606431Y-67946290D01*
X179599907Y-67951469D01*
X179574162Y-67930626D01*
X179512195Y-67869285D01*
X179420354Y-67774068D01*
X179304985Y-67651597D01*
X179172431Y-67508495D01*
X179106744Y-67436808D01*
X178968836Y-67286851D01*
X178845620Y-67154879D01*
X178743329Y-67047406D01*
X178668197Y-66970943D01*
X178626459Y-66932002D01*
X178620142Y-66928524D01*
X178614994Y-66961762D01*
X178605538Y-67051142D01*
X178592417Y-67189498D01*
X178576272Y-67369665D01*
X178557748Y-67584478D01*
X178537486Y-67826771D01*
X178517027Y-68078185D01*
X178495987Y-68339879D01*
X178476577Y-68580795D01*
X178459373Y-68793802D01*
X178444954Y-68971767D01*
X178433897Y-69107557D01*
X178426781Y-69194041D01*
X178424191Y-69224062D01*
X178393868Y-69227054D01*
X178312055Y-69229530D01*
X178190765Y-69231254D01*
X178042008Y-69231989D01*
X178021270Y-69232000D01*
X177619790Y-69232000D01*
X177637308Y-69017687D01*
X177642973Y-68946233D01*
X177652949Y-68818006D01*
X177666734Y-68639551D01*
X177683825Y-68417411D01*
X177703720Y-68158130D01*
X177725917Y-67868254D01*
X177749913Y-67554326D01*
X177775205Y-67222890D01*
X177792073Y-67001562D01*
X177929320Y-65199749D01*
X178041097Y-65201110D01*
G37*
X178041097Y-65201110D02*
X178073828Y-65203929D01*
X178107840Y-65214691D01*
X178148115Y-65238091D01*
X178199633Y-65278822D01*
X178267375Y-65341577D01*
X178356324Y-65431050D01*
X178471460Y-65551933D01*
X178617764Y-65708921D01*
X178800218Y-65906705D01*
X178866689Y-65978985D01*
X179037729Y-66164449D01*
X179195198Y-66334044D01*
X179333950Y-66482319D01*
X179448839Y-66603823D01*
X179534722Y-66693103D01*
X179586452Y-66744708D01*
X179599533Y-66755500D01*
X179624755Y-66732938D01*
X179687598Y-66668895D01*
X179782924Y-66568833D01*
X179905592Y-66438214D01*
X180050464Y-66282503D01*
X180212399Y-66107159D01*
X180330344Y-65978732D01*
X180524753Y-65766933D01*
X180681485Y-65597463D01*
X180805530Y-65465618D01*
X180901873Y-65366692D01*
X180975503Y-65295983D01*
X181031407Y-65248786D01*
X181074573Y-65220397D01*
X181109988Y-65206111D01*
X181142640Y-65201225D01*
X181155078Y-65200857D01*
X181268031Y-65199750D01*
X181418008Y-67192062D01*
X181444279Y-67541613D01*
X181469054Y-67872385D01*
X181491933Y-68178950D01*
X181512516Y-68455880D01*
X181530400Y-68697746D01*
X181545184Y-68899118D01*
X181556468Y-69054570D01*
X181563850Y-69158670D01*
X181566929Y-69205993D01*
X181566992Y-69208187D01*
X181536862Y-69217240D01*
X181455342Y-69224709D01*
X181334536Y-69229867D01*
X181186549Y-69231983D01*
X181171915Y-69232000D01*
X180777831Y-69232000D01*
X180760351Y-69112937D01*
X180753662Y-69051249D01*
X180743341Y-68935387D01*
X180730119Y-68774527D01*
X180714727Y-68577845D01*
X180697895Y-68354515D01*
X180680353Y-68113716D01*
X180676325Y-68057250D01*
X180658609Y-67814773D01*
X180641162Y-67588606D01*
X180624747Y-67387725D01*
X180610130Y-67221107D01*
X180598074Y-67097731D01*
X180589345Y-67026572D01*
X180587826Y-67018244D01*
X180565875Y-66915863D01*
X180092032Y-67430994D01*
X179953380Y-67581097D01*
X179829078Y-67714463D01*
X179725542Y-67824307D01*
X179649188Y-67903844D01*
X179606431Y-67946290D01*
X179599907Y-67951469D01*
X179574162Y-67930626D01*
X179512195Y-67869285D01*
X179420354Y-67774068D01*
X179304985Y-67651597D01*
X179172431Y-67508495D01*
X179106744Y-67436808D01*
X178968836Y-67286851D01*
X178845620Y-67154879D01*
X178743329Y-67047406D01*
X178668197Y-66970943D01*
X178626459Y-66932002D01*
X178620142Y-66928524D01*
X178614994Y-66961762D01*
X178605538Y-67051142D01*
X178592417Y-67189498D01*
X178576272Y-67369665D01*
X178557748Y-67584478D01*
X178537486Y-67826771D01*
X178517027Y-68078185D01*
X178495987Y-68339879D01*
X178476577Y-68580795D01*
X178459373Y-68793802D01*
X178444954Y-68971767D01*
X178433897Y-69107557D01*
X178426781Y-69194041D01*
X178424191Y-69224062D01*
X178393868Y-69227054D01*
X178312055Y-69229530D01*
X178190765Y-69231254D01*
X178042008Y-69231989D01*
X178021270Y-69232000D01*
X177619790Y-69232000D01*
X177637308Y-69017687D01*
X177642973Y-68946233D01*
X177652949Y-68818006D01*
X177666734Y-68639551D01*
X177683825Y-68417411D01*
X177703720Y-68158130D01*
X177725917Y-67868254D01*
X177749913Y-67554326D01*
X177775205Y-67222890D01*
X177792073Y-67001562D01*
X177929320Y-65199749D01*
X178041097Y-65201110D01*
G36*
X173977750Y-65209236D02*
G01*
X174334791Y-65257498D01*
X174666393Y-65362678D01*
X174968907Y-65522053D01*
X175238684Y-65732896D01*
X175472078Y-65992484D01*
X175665440Y-66298090D01*
X175782562Y-66557330D01*
X175816075Y-66650282D01*
X175839073Y-66734313D01*
X175853498Y-66824957D01*
X175861288Y-66937749D01*
X175864385Y-67088226D01*
X175864799Y-67215875D01*
X175863740Y-67399771D01*
X175859268Y-67535719D01*
X175849444Y-67639255D01*
X175832328Y-67725914D01*
X175805979Y-67811230D01*
X175782562Y-67874419D01*
X175623495Y-68207343D01*
X175418844Y-68501881D01*
X175173362Y-68753389D01*
X174891805Y-68957222D01*
X174578927Y-69108734D01*
X174485750Y-69141345D01*
X174298173Y-69185148D01*
X174073003Y-69212419D01*
X173834211Y-69222177D01*
X173605769Y-69213443D01*
X173411650Y-69185239D01*
X173411575Y-69185222D01*
X173117133Y-69092435D01*
X172844351Y-68950140D01*
X172583628Y-68752775D01*
X172452966Y-68629880D01*
X172264381Y-68423407D01*
X172122270Y-68222452D01*
X172015042Y-68006823D01*
X171931110Y-67756329D01*
X171913447Y-67689965D01*
X171859242Y-67351422D01*
X171860882Y-67275106D01*
X172664919Y-67275106D01*
X172705090Y-67527354D01*
X172800267Y-67769038D01*
X172950684Y-67991328D01*
X173004604Y-68050834D01*
X173219517Y-68230793D01*
X173457915Y-68353222D01*
X173713589Y-68416721D01*
X173980329Y-68419887D01*
X174251926Y-68361322D01*
X174302275Y-68343584D01*
X174540403Y-68223535D01*
X174737153Y-68062103D01*
X174890810Y-67867495D01*
X174999660Y-67647916D01*
X175061989Y-67411571D01*
X175076081Y-67166668D01*
X175040224Y-66921411D01*
X174952702Y-66684006D01*
X174811800Y-66462660D01*
X174717305Y-66357068D01*
X174505996Y-66187721D01*
X174271527Y-66073407D01*
X174022599Y-66014229D01*
X173767913Y-66010291D01*
X173516169Y-66061697D01*
X173276070Y-66168552D01*
X173056315Y-66330959D01*
X173049662Y-66337126D01*
X172872127Y-66543306D01*
X172748670Y-66774251D01*
X172679523Y-67021128D01*
X172664919Y-67275106D01*
X171860882Y-67275106D01*
X171866666Y-67006032D01*
X171935066Y-66659325D01*
X172063791Y-66316831D01*
X172079351Y-66284267D01*
X172193283Y-66097329D01*
X172351206Y-65903069D01*
X172537721Y-65716636D01*
X172737428Y-65553180D01*
X172934926Y-65427851D01*
X172966033Y-65411985D01*
X173267208Y-65290434D01*
X173571637Y-65223083D01*
X173897433Y-65206301D01*
X173977750Y-65209236D01*
G37*
X173977750Y-65209236D02*
X174334791Y-65257498D01*
X174666393Y-65362678D01*
X174968907Y-65522053D01*
X175238684Y-65732896D01*
X175472078Y-65992484D01*
X175665440Y-66298090D01*
X175782562Y-66557330D01*
X175816075Y-66650282D01*
X175839073Y-66734313D01*
X175853498Y-66824957D01*
X175861288Y-66937749D01*
X175864385Y-67088226D01*
X175864799Y-67215875D01*
X175863740Y-67399771D01*
X175859268Y-67535719D01*
X175849444Y-67639255D01*
X175832328Y-67725914D01*
X175805979Y-67811230D01*
X175782562Y-67874419D01*
X175623495Y-68207343D01*
X175418844Y-68501881D01*
X175173362Y-68753389D01*
X174891805Y-68957222D01*
X174578927Y-69108734D01*
X174485750Y-69141345D01*
X174298173Y-69185148D01*
X174073003Y-69212419D01*
X173834211Y-69222177D01*
X173605769Y-69213443D01*
X173411650Y-69185239D01*
X173411575Y-69185222D01*
X173117133Y-69092435D01*
X172844351Y-68950140D01*
X172583628Y-68752775D01*
X172452966Y-68629880D01*
X172264381Y-68423407D01*
X172122270Y-68222452D01*
X172015042Y-68006823D01*
X171931110Y-67756329D01*
X171913447Y-67689965D01*
X171859242Y-67351422D01*
X171860882Y-67275106D01*
X172664919Y-67275106D01*
X172705090Y-67527354D01*
X172800267Y-67769038D01*
X172950684Y-67991328D01*
X173004604Y-68050834D01*
X173219517Y-68230793D01*
X173457915Y-68353222D01*
X173713589Y-68416721D01*
X173980329Y-68419887D01*
X174251926Y-68361322D01*
X174302275Y-68343584D01*
X174540403Y-68223535D01*
X174737153Y-68062103D01*
X174890810Y-67867495D01*
X174999660Y-67647916D01*
X175061989Y-67411571D01*
X175076081Y-67166668D01*
X175040224Y-66921411D01*
X174952702Y-66684006D01*
X174811800Y-66462660D01*
X174717305Y-66357068D01*
X174505996Y-66187721D01*
X174271527Y-66073407D01*
X174022599Y-66014229D01*
X173767913Y-66010291D01*
X173516169Y-66061697D01*
X173276070Y-66168552D01*
X173056315Y-66330959D01*
X173049662Y-66337126D01*
X172872127Y-66543306D01*
X172748670Y-66774251D01*
X172679523Y-67021128D01*
X172664919Y-67275106D01*
X171860882Y-67275106D01*
X171866666Y-67006032D01*
X171935066Y-66659325D01*
X172063791Y-66316831D01*
X172079351Y-66284267D01*
X172193283Y-66097329D01*
X172351206Y-65903069D01*
X172537721Y-65716636D01*
X172737428Y-65553180D01*
X172934926Y-65427851D01*
X172966033Y-65411985D01*
X173267208Y-65290434D01*
X173571637Y-65223083D01*
X173897433Y-65206301D01*
X173977750Y-65209236D01*
G36*
X167937312Y-65200093D02*
G01*
X168266094Y-65200624D01*
X168538548Y-65202784D01*
X168761841Y-65207758D01*
X168943144Y-65216731D01*
X169089626Y-65230890D01*
X169208456Y-65251419D01*
X169306804Y-65279505D01*
X169391838Y-65316332D01*
X169470729Y-65363087D01*
X169550645Y-65420955D01*
X169623749Y-65478968D01*
X169810235Y-65668708D01*
X169946305Y-65890997D01*
X170029889Y-66137213D01*
X170058915Y-66398735D01*
X170031315Y-66666942D01*
X169962858Y-66891089D01*
X169884534Y-67084999D01*
X170027148Y-67237465D01*
X170149606Y-67383680D01*
X170232320Y-67525406D01*
X170281944Y-67680861D01*
X170305132Y-67868264D01*
X170309156Y-68009625D01*
X170308136Y-68161945D01*
X170300836Y-68271658D01*
X170283406Y-68359612D01*
X170251995Y-68446651D01*
X170212373Y-68533500D01*
X170065482Y-68771510D01*
X169872945Y-68965490D01*
X169636327Y-69113873D01*
X169628000Y-69117873D01*
X169421625Y-69216125D01*
X168127812Y-69225084D01*
X166834000Y-69234043D01*
X166834000Y-67612750D01*
X167627750Y-67612750D01*
X167627750Y-68438250D01*
X168414057Y-68438250D01*
X168662097Y-68437827D01*
X168855037Y-68436198D01*
X169001273Y-68432816D01*
X169109202Y-68427138D01*
X169187220Y-68418619D01*
X169243724Y-68406714D01*
X169287111Y-68390879D01*
X169308542Y-68380234D01*
X169411482Y-68296858D01*
X169490753Y-68180738D01*
X169530723Y-68056608D01*
X169532750Y-68025499D01*
X169505816Y-67903394D01*
X169435437Y-67782742D01*
X169337247Y-67688279D01*
X169308542Y-67670765D01*
X169268804Y-67652522D01*
X169220593Y-67638511D01*
X169155511Y-67628186D01*
X169065163Y-67621004D01*
X168941151Y-67616420D01*
X168775080Y-67613889D01*
X168558552Y-67612866D01*
X168414057Y-67612750D01*
X167627750Y-67612750D01*
X166834000Y-67612750D01*
X166834000Y-66521055D01*
X167632321Y-66521055D01*
X167633025Y-66647998D01*
X167636454Y-66738838D01*
X167641532Y-66777371D01*
X167678038Y-66793135D01*
X167766531Y-66805492D01*
X167895590Y-66814460D01*
X168053796Y-66820057D01*
X168229729Y-66822301D01*
X168411967Y-66821210D01*
X168589090Y-66816801D01*
X168749679Y-66809094D01*
X168882312Y-66798106D01*
X168975569Y-66783855D01*
X169004563Y-66775222D01*
X169130350Y-66693559D01*
X169211325Y-66581384D01*
X169248151Y-66451880D01*
X169241490Y-66318232D01*
X169192003Y-66193627D01*
X169100354Y-66091247D01*
X168967204Y-66024279D01*
X168966847Y-66024176D01*
X168889624Y-66012159D01*
X168757831Y-66003661D01*
X168580319Y-65998982D01*
X168365937Y-65998420D01*
X168246875Y-65999790D01*
X167643625Y-66009375D01*
X167634591Y-66372558D01*
X167632321Y-66521055D01*
X166834000Y-66521055D01*
X166834000Y-65199750D01*
X167937312Y-65200093D01*
G37*
X167937312Y-65200093D02*
X168266094Y-65200624D01*
X168538548Y-65202784D01*
X168761841Y-65207758D01*
X168943144Y-65216731D01*
X169089626Y-65230890D01*
X169208456Y-65251419D01*
X169306804Y-65279505D01*
X169391838Y-65316332D01*
X169470729Y-65363087D01*
X169550645Y-65420955D01*
X169623749Y-65478968D01*
X169810235Y-65668708D01*
X169946305Y-65890997D01*
X170029889Y-66137213D01*
X170058915Y-66398735D01*
X170031315Y-66666942D01*
X169962858Y-66891089D01*
X169884534Y-67084999D01*
X170027148Y-67237465D01*
X170149606Y-67383680D01*
X170232320Y-67525406D01*
X170281944Y-67680861D01*
X170305132Y-67868264D01*
X170309156Y-68009625D01*
X170308136Y-68161945D01*
X170300836Y-68271658D01*
X170283406Y-68359612D01*
X170251995Y-68446651D01*
X170212373Y-68533500D01*
X170065482Y-68771510D01*
X169872945Y-68965490D01*
X169636327Y-69113873D01*
X169628000Y-69117873D01*
X169421625Y-69216125D01*
X168127812Y-69225084D01*
X166834000Y-69234043D01*
X166834000Y-67612750D01*
X167627750Y-67612750D01*
X167627750Y-68438250D01*
X168414057Y-68438250D01*
X168662097Y-68437827D01*
X168855037Y-68436198D01*
X169001273Y-68432816D01*
X169109202Y-68427138D01*
X169187220Y-68418619D01*
X169243724Y-68406714D01*
X169287111Y-68390879D01*
X169308542Y-68380234D01*
X169411482Y-68296858D01*
X169490753Y-68180738D01*
X169530723Y-68056608D01*
X169532750Y-68025499D01*
X169505816Y-67903394D01*
X169435437Y-67782742D01*
X169337247Y-67688279D01*
X169308542Y-67670765D01*
X169268804Y-67652522D01*
X169220593Y-67638511D01*
X169155511Y-67628186D01*
X169065163Y-67621004D01*
X168941151Y-67616420D01*
X168775080Y-67613889D01*
X168558552Y-67612866D01*
X168414057Y-67612750D01*
X167627750Y-67612750D01*
X166834000Y-67612750D01*
X166834000Y-66521055D01*
X167632321Y-66521055D01*
X167633025Y-66647998D01*
X167636454Y-66738838D01*
X167641532Y-66777371D01*
X167678038Y-66793135D01*
X167766531Y-66805492D01*
X167895590Y-66814460D01*
X168053796Y-66820057D01*
X168229729Y-66822301D01*
X168411967Y-66821210D01*
X168589090Y-66816801D01*
X168749679Y-66809094D01*
X168882312Y-66798106D01*
X168975569Y-66783855D01*
X169004563Y-66775222D01*
X169130350Y-66693559D01*
X169211325Y-66581384D01*
X169248151Y-66451880D01*
X169241490Y-66318232D01*
X169192003Y-66193627D01*
X169100354Y-66091247D01*
X168967204Y-66024279D01*
X168966847Y-66024176D01*
X168889624Y-66012159D01*
X168757831Y-66003661D01*
X168580319Y-65998982D01*
X168365937Y-65998420D01*
X168246875Y-65999790D01*
X167643625Y-66009375D01*
X167634591Y-66372558D01*
X167632321Y-66521055D01*
X166834000Y-66521055D01*
X166834000Y-65199750D01*
X167937312Y-65200093D01*
%TO.C,J1*%
D10*
X171478571Y-126592857D02*
X171478571Y-125735714D01*
X172978571Y-126164285D02*
X171478571Y-126164285D01*
X172978571Y-125235714D02*
X171978571Y-125235714D01*
X172264285Y-125235714D02*
X172121428Y-125164285D01*
X172050000Y-125092857D01*
X171978571Y-124950000D01*
X171978571Y-124807142D01*
X172978571Y-123664285D02*
X172192857Y-123664285D01*
X172050000Y-123735714D01*
X171978571Y-123878571D01*
X171978571Y-124164285D01*
X172050000Y-124307142D01*
X172907142Y-123664285D02*
X172978571Y-123807142D01*
X172978571Y-124164285D01*
X172907142Y-124307142D01*
X172764285Y-124378571D01*
X172621428Y-124378571D01*
X172478571Y-124307142D01*
X172407142Y-124164285D01*
X172407142Y-123807142D01*
X172335714Y-123664285D01*
X171978571Y-122950000D02*
X172978571Y-122950000D01*
X172121428Y-122950000D02*
X172050000Y-122878571D01*
X171978571Y-122735714D01*
X171978571Y-122521428D01*
X172050000Y-122378571D01*
X172192857Y-122307142D01*
X172978571Y-122307142D01*
X172907142Y-121664285D02*
X172978571Y-121521428D01*
X172978571Y-121235714D01*
X172907142Y-121092857D01*
X172764285Y-121021428D01*
X172692857Y-121021428D01*
X172550000Y-121092857D01*
X172478571Y-121235714D01*
X172478571Y-121450000D01*
X172407142Y-121592857D01*
X172264285Y-121664285D01*
X172192857Y-121664285D01*
X172050000Y-121592857D01*
X171978571Y-121450000D01*
X171978571Y-121235714D01*
X172050000Y-121092857D01*
X171978571Y-120592857D02*
X171978571Y-120021428D01*
X172978571Y-120378571D02*
X171692857Y-120378571D01*
X171550000Y-120307142D01*
X171478571Y-120164285D01*
X171478571Y-120021428D01*
X172978571Y-119307142D02*
X172907142Y-119450000D01*
X172835714Y-119521428D01*
X172692857Y-119592857D01*
X172264285Y-119592857D01*
X172121428Y-119521428D01*
X172050000Y-119450000D01*
X171978571Y-119307142D01*
X171978571Y-119092857D01*
X172050000Y-118950000D01*
X172121428Y-118878571D01*
X172264285Y-118807142D01*
X172692857Y-118807142D01*
X172835714Y-118878571D01*
X172907142Y-118950000D01*
X172978571Y-119092857D01*
X172978571Y-119307142D01*
X172978571Y-118164285D02*
X171978571Y-118164285D01*
X172264285Y-118164285D02*
X172121428Y-118092857D01*
X172050000Y-118021428D01*
X171978571Y-117878571D01*
X171978571Y-117735714D01*
X172978571Y-117235714D02*
X171978571Y-117235714D01*
X172121428Y-117235714D02*
X172050000Y-117164285D01*
X171978571Y-117021428D01*
X171978571Y-116807142D01*
X172050000Y-116664285D01*
X172192857Y-116592857D01*
X172978571Y-116592857D01*
X172192857Y-116592857D02*
X172050000Y-116521428D01*
X171978571Y-116378571D01*
X171978571Y-116164285D01*
X172050000Y-116021428D01*
X172192857Y-115950000D01*
X172978571Y-115950000D01*
X172907142Y-114664285D02*
X172978571Y-114807142D01*
X172978571Y-115092857D01*
X172907142Y-115235714D01*
X172764285Y-115307142D01*
X172192857Y-115307142D01*
X172050000Y-115235714D01*
X171978571Y-115092857D01*
X171978571Y-114807142D01*
X172050000Y-114664285D01*
X172192857Y-114592857D01*
X172335714Y-114592857D01*
X172478571Y-115307142D01*
X172978571Y-113950000D02*
X171978571Y-113950000D01*
X172264285Y-113950000D02*
X172121428Y-113878571D01*
X172050000Y-113807142D01*
X171978571Y-113664285D01*
X171978571Y-113521428D01*
X172978571Y-111878571D02*
X171478571Y-111878571D01*
X171478571Y-111307142D01*
X171550000Y-111164285D01*
X171621428Y-111092857D01*
X171764285Y-111021428D01*
X171978571Y-111021428D01*
X172121428Y-111092857D01*
X172192857Y-111164285D01*
X172264285Y-111307142D01*
X172264285Y-111878571D01*
X172978571Y-110378571D02*
X171978571Y-110378571D01*
X172264285Y-110378571D02*
X172121428Y-110307142D01*
X172050000Y-110235714D01*
X171978571Y-110092857D01*
X171978571Y-109950000D01*
X172978571Y-109450000D02*
X171978571Y-109450000D01*
X171478571Y-109450000D02*
X171550000Y-109521428D01*
X171621428Y-109450000D01*
X171550000Y-109378571D01*
X171478571Y-109450000D01*
X171621428Y-109450000D01*
X172978571Y-108735714D02*
X171978571Y-108735714D01*
X172121428Y-108735714D02*
X172050000Y-108664285D01*
X171978571Y-108521428D01*
X171978571Y-108307142D01*
X172050000Y-108164285D01*
X172192857Y-108092857D01*
X172978571Y-108092857D01*
X172192857Y-108092857D02*
X172050000Y-108021428D01*
X171978571Y-107878571D01*
X171978571Y-107664285D01*
X172050000Y-107521428D01*
X172192857Y-107450000D01*
X172978571Y-107450000D01*
X172978571Y-106092857D02*
X172192857Y-106092857D01*
X172050000Y-106164285D01*
X171978571Y-106307142D01*
X171978571Y-106592857D01*
X172050000Y-106735714D01*
X172907142Y-106092857D02*
X172978571Y-106235714D01*
X172978571Y-106592857D01*
X172907142Y-106735714D01*
X172764285Y-106807142D01*
X172621428Y-106807142D01*
X172478571Y-106735714D01*
X172407142Y-106592857D01*
X172407142Y-106235714D01*
X172335714Y-106092857D01*
X172978571Y-105378571D02*
X171978571Y-105378571D01*
X172264285Y-105378571D02*
X172121428Y-105307142D01*
X172050000Y-105235714D01*
X171978571Y-105092857D01*
X171978571Y-104950000D01*
X171978571Y-104592857D02*
X172978571Y-104235714D01*
X171978571Y-103878571D02*
X172978571Y-104235714D01*
X173335714Y-104378571D01*
X173407142Y-104450000D01*
X173478571Y-104592857D01*
X187578571Y-126750000D02*
X187578571Y-127464285D01*
X186078571Y-127464285D01*
X187578571Y-125464285D02*
X187578571Y-126321428D01*
X187578571Y-125892857D02*
X186078571Y-125892857D01*
X186292857Y-126035714D01*
X186435714Y-126178571D01*
X186507142Y-126321428D01*
X187578571Y-120142857D02*
X186078571Y-120142857D01*
X187578571Y-119285714D01*
X186078571Y-119285714D01*
X187578571Y-117785714D02*
X187578571Y-118642857D01*
X187578571Y-118214285D02*
X186078571Y-118214285D01*
X186292857Y-118357142D01*
X186435714Y-118500000D01*
X186507142Y-118642857D01*
X187578571Y-111750000D02*
X187578571Y-112464285D01*
X186078571Y-112464285D01*
X186221428Y-111321428D02*
X186150000Y-111250000D01*
X186078571Y-111107142D01*
X186078571Y-110750000D01*
X186150000Y-110607142D01*
X186221428Y-110535714D01*
X186364285Y-110464285D01*
X186507142Y-110464285D01*
X186721428Y-110535714D01*
X187578571Y-111392857D01*
X187578571Y-110464285D01*
X187578571Y-105142857D02*
X186078571Y-105142857D01*
X187578571Y-104285714D01*
X186078571Y-104285714D01*
X186221428Y-103642857D02*
X186150000Y-103571428D01*
X186078571Y-103428571D01*
X186078571Y-103071428D01*
X186150000Y-102928571D01*
X186221428Y-102857142D01*
X186364285Y-102785714D01*
X186507142Y-102785714D01*
X186721428Y-102857142D01*
X187578571Y-103714285D01*
X187578571Y-102785714D01*
%TO.C,TH1*%
X148914285Y-126602380D02*
X149485714Y-126602380D01*
X149200000Y-127602380D02*
X149200000Y-126602380D01*
X149819047Y-127602380D02*
X149819047Y-126602380D01*
X149819047Y-127078571D02*
X150390476Y-127078571D01*
X150390476Y-127602380D02*
X150390476Y-126602380D01*
X151390476Y-127602380D02*
X150819047Y-127602380D01*
X151104761Y-127602380D02*
X151104761Y-126602380D01*
X151009523Y-126745238D01*
X150914285Y-126840476D01*
X150819047Y-126888095D01*
%TO.C,MOV2*%
X169052380Y-113161904D02*
X168052380Y-113161904D01*
X168766666Y-112828571D01*
X168052380Y-112495238D01*
X169052380Y-112495238D01*
X168052380Y-111828571D02*
X168052380Y-111638095D01*
X168100000Y-111542857D01*
X168195238Y-111447619D01*
X168385714Y-111400000D01*
X168719047Y-111400000D01*
X168909523Y-111447619D01*
X169004761Y-111542857D01*
X169052380Y-111638095D01*
X169052380Y-111828571D01*
X169004761Y-111923809D01*
X168909523Y-112019047D01*
X168719047Y-112066666D01*
X168385714Y-112066666D01*
X168195238Y-112019047D01*
X168100000Y-111923809D01*
X168052380Y-111828571D01*
X168052380Y-111114285D02*
X169052380Y-110780952D01*
X168052380Y-110447619D01*
X168147619Y-110161904D02*
X168100000Y-110114285D01*
X168052380Y-110019047D01*
X168052380Y-109780952D01*
X168100000Y-109685714D01*
X168147619Y-109638095D01*
X168242857Y-109590476D01*
X168338095Y-109590476D01*
X168480952Y-109638095D01*
X169052380Y-110209523D01*
X169052380Y-109590476D01*
%TO.C,TH2*%
X151214285Y-117252380D02*
X151785714Y-117252380D01*
X151500000Y-118252380D02*
X151500000Y-117252380D01*
X152119047Y-118252380D02*
X152119047Y-117252380D01*
X152119047Y-117728571D02*
X152690476Y-117728571D01*
X152690476Y-118252380D02*
X152690476Y-117252380D01*
X153119047Y-117347619D02*
X153166666Y-117300000D01*
X153261904Y-117252380D01*
X153500000Y-117252380D01*
X153595238Y-117300000D01*
X153642857Y-117347619D01*
X153690476Y-117442857D01*
X153690476Y-117538095D01*
X153642857Y-117680952D01*
X153071428Y-118252380D01*
X153690476Y-118252380D01*
%TO.C,MOV1*%
X169052380Y-128161904D02*
X168052380Y-128161904D01*
X168766666Y-127828571D01*
X168052380Y-127495238D01*
X169052380Y-127495238D01*
X168052380Y-126828571D02*
X168052380Y-126638095D01*
X168100000Y-126542857D01*
X168195238Y-126447619D01*
X168385714Y-126400000D01*
X168719047Y-126400000D01*
X168909523Y-126447619D01*
X169004761Y-126542857D01*
X169052380Y-126638095D01*
X169052380Y-126828571D01*
X169004761Y-126923809D01*
X168909523Y-127019047D01*
X168719047Y-127066666D01*
X168385714Y-127066666D01*
X168195238Y-127019047D01*
X168100000Y-126923809D01*
X168052380Y-126828571D01*
X168052380Y-126114285D02*
X169052380Y-125780952D01*
X168052380Y-125447619D01*
X169052380Y-124590476D02*
X169052380Y-125161904D01*
X169052380Y-124876190D02*
X168052380Y-124876190D01*
X168195238Y-124971428D01*
X168290476Y-125066666D01*
X168338095Y-125161904D01*
%TD*%
M02*
