%TF.GenerationSoftware,KiCad,Pcbnew,(5.1.6-0-10_14)*%
%TF.CreationDate,2020-08-18T22:59:50+01:00*%
%TF.ProjectId,IEC Power Entry,49454320-506f-4776-9572-20456e747279,1.0a*%
%TF.SameCoordinates,Original*%
%TF.FileFunction,Legend,Top*%
%TF.FilePolarity,Positive*%
%FSLAX46Y46*%
G04 Gerber Fmt 4.6, Leading zero omitted, Abs format (unit mm)*
G04 Created by KiCad (PCBNEW (5.1.6-0-10_14)) date 2020-08-18 22:59:50*
%MOMM*%
%LPD*%
G01*
G04 APERTURE LIST*
%ADD10C,0.150000*%
%ADD11C,0.010000*%
%ADD12C,0.127000*%
%ADD13C,0.120000*%
%ADD14C,0.200000*%
%ADD15C,0.015000*%
G04 APERTURE END LIST*
D10*
X155765619Y-131945071D02*
X155908476Y-131992690D01*
X155956095Y-132040309D01*
X156003714Y-132135547D01*
X156003714Y-132278404D01*
X155956095Y-132373642D01*
X155908476Y-132421261D01*
X155813238Y-132468880D01*
X155432285Y-132468880D01*
X155432285Y-131468880D01*
X155765619Y-131468880D01*
X155860857Y-131516500D01*
X155908476Y-131564119D01*
X155956095Y-131659357D01*
X155956095Y-131754595D01*
X155908476Y-131849833D01*
X155860857Y-131897452D01*
X155765619Y-131945071D01*
X155432285Y-131945071D01*
X156575142Y-132468880D02*
X156479904Y-132421261D01*
X156432285Y-132373642D01*
X156384666Y-132278404D01*
X156384666Y-131992690D01*
X156432285Y-131897452D01*
X156479904Y-131849833D01*
X156575142Y-131802214D01*
X156718000Y-131802214D01*
X156813238Y-131849833D01*
X156860857Y-131897452D01*
X156908476Y-131992690D01*
X156908476Y-132278404D01*
X156860857Y-132373642D01*
X156813238Y-132421261D01*
X156718000Y-132468880D01*
X156575142Y-132468880D01*
X157337047Y-132468880D02*
X157337047Y-131468880D01*
X157670380Y-132183166D01*
X158003714Y-131468880D01*
X158003714Y-132468880D01*
X141202185Y-63930780D02*
X141202185Y-64740304D01*
X141249804Y-64835542D01*
X141297423Y-64883161D01*
X141392661Y-64930780D01*
X141583138Y-64930780D01*
X141678376Y-64883161D01*
X141725995Y-64835542D01*
X141773614Y-64740304D01*
X141773614Y-63930780D01*
X142249804Y-64264114D02*
X142249804Y-64930780D01*
X142249804Y-64359352D02*
X142297423Y-64311733D01*
X142392661Y-64264114D01*
X142535519Y-64264114D01*
X142630757Y-64311733D01*
X142678376Y-64406971D01*
X142678376Y-64930780D01*
X143154566Y-64930780D02*
X143154566Y-64264114D01*
X143154566Y-63930780D02*
X143106947Y-63978400D01*
X143154566Y-64026019D01*
X143202185Y-63978400D01*
X143154566Y-63930780D01*
X143154566Y-64026019D01*
X143535519Y-64264114D02*
X143773614Y-64930780D01*
X144011709Y-64264114D01*
X144773614Y-64883161D02*
X144678376Y-64930780D01*
X144487900Y-64930780D01*
X144392661Y-64883161D01*
X144345042Y-64787923D01*
X144345042Y-64406971D01*
X144392661Y-64311733D01*
X144487900Y-64264114D01*
X144678376Y-64264114D01*
X144773614Y-64311733D01*
X144821233Y-64406971D01*
X144821233Y-64502209D01*
X144345042Y-64597447D01*
X145249804Y-64930780D02*
X145249804Y-64264114D01*
X145249804Y-64454590D02*
X145297423Y-64359352D01*
X145345042Y-64311733D01*
X145440280Y-64264114D01*
X145535519Y-64264114D01*
X145821233Y-64883161D02*
X145916471Y-64930780D01*
X146106947Y-64930780D01*
X146202185Y-64883161D01*
X146249804Y-64787923D01*
X146249804Y-64740304D01*
X146202185Y-64645066D01*
X146106947Y-64597447D01*
X145964090Y-64597447D01*
X145868852Y-64549828D01*
X145821233Y-64454590D01*
X145821233Y-64406971D01*
X145868852Y-64311733D01*
X145964090Y-64264114D01*
X146106947Y-64264114D01*
X146202185Y-64311733D01*
X147106947Y-64930780D02*
X147106947Y-64406971D01*
X147059328Y-64311733D01*
X146964090Y-64264114D01*
X146773614Y-64264114D01*
X146678376Y-64311733D01*
X147106947Y-64883161D02*
X147011709Y-64930780D01*
X146773614Y-64930780D01*
X146678376Y-64883161D01*
X146630757Y-64787923D01*
X146630757Y-64692685D01*
X146678376Y-64597447D01*
X146773614Y-64549828D01*
X147011709Y-64549828D01*
X147106947Y-64502209D01*
X147725995Y-64930780D02*
X147630757Y-64883161D01*
X147583138Y-64787923D01*
X147583138Y-63930780D01*
X148868852Y-64930780D02*
X148868852Y-63930780D01*
X149249804Y-63930780D01*
X149345042Y-63978400D01*
X149392661Y-64026019D01*
X149440280Y-64121257D01*
X149440280Y-64264114D01*
X149392661Y-64359352D01*
X149345042Y-64406971D01*
X149249804Y-64454590D01*
X148868852Y-64454590D01*
X150011709Y-64930780D02*
X149916471Y-64883161D01*
X149868852Y-64835542D01*
X149821233Y-64740304D01*
X149821233Y-64454590D01*
X149868852Y-64359352D01*
X149916471Y-64311733D01*
X150011709Y-64264114D01*
X150154566Y-64264114D01*
X150249804Y-64311733D01*
X150297423Y-64359352D01*
X150345042Y-64454590D01*
X150345042Y-64740304D01*
X150297423Y-64835542D01*
X150249804Y-64883161D01*
X150154566Y-64930780D01*
X150011709Y-64930780D01*
X150678376Y-64264114D02*
X150868852Y-64930780D01*
X151059328Y-64454590D01*
X151249804Y-64930780D01*
X151440280Y-64264114D01*
X152202185Y-64883161D02*
X152106947Y-64930780D01*
X151916471Y-64930780D01*
X151821233Y-64883161D01*
X151773614Y-64787923D01*
X151773614Y-64406971D01*
X151821233Y-64311733D01*
X151916471Y-64264114D01*
X152106947Y-64264114D01*
X152202185Y-64311733D01*
X152249804Y-64406971D01*
X152249804Y-64502209D01*
X151773614Y-64597447D01*
X152678376Y-64930780D02*
X152678376Y-64264114D01*
X152678376Y-64454590D02*
X152725995Y-64359352D01*
X152773614Y-64311733D01*
X152868852Y-64264114D01*
X152964090Y-64264114D01*
X154059328Y-64406971D02*
X154392661Y-64406971D01*
X154535519Y-64930780D02*
X154059328Y-64930780D01*
X154059328Y-63930780D01*
X154535519Y-63930780D01*
X154964090Y-64264114D02*
X154964090Y-64930780D01*
X154964090Y-64359352D02*
X155011709Y-64311733D01*
X155106947Y-64264114D01*
X155249804Y-64264114D01*
X155345042Y-64311733D01*
X155392661Y-64406971D01*
X155392661Y-64930780D01*
X155725995Y-64264114D02*
X156106947Y-64264114D01*
X155868852Y-63930780D02*
X155868852Y-64787923D01*
X155916471Y-64883161D01*
X156011709Y-64930780D01*
X156106947Y-64930780D01*
X156440280Y-64930780D02*
X156440280Y-64264114D01*
X156440280Y-64454590D02*
X156487900Y-64359352D01*
X156535519Y-64311733D01*
X156630757Y-64264114D01*
X156725995Y-64264114D01*
X156964090Y-64264114D02*
X157202185Y-64930780D01*
X157440280Y-64264114D02*
X157202185Y-64930780D01*
X157106947Y-65168876D01*
X157059328Y-65216495D01*
X156964090Y-65264114D01*
X158440280Y-63930780D02*
X158773614Y-64930780D01*
X159106947Y-63930780D01*
X159964090Y-64930780D02*
X159392661Y-64930780D01*
X159678376Y-64930780D02*
X159678376Y-63930780D01*
X159583138Y-64073638D01*
X159487900Y-64168876D01*
X159392661Y-64216495D01*
X160392661Y-64835542D02*
X160440280Y-64883161D01*
X160392661Y-64930780D01*
X160345042Y-64883161D01*
X160392661Y-64835542D01*
X160392661Y-64930780D01*
X161059328Y-63930780D02*
X161154566Y-63930780D01*
X161249804Y-63978400D01*
X161297423Y-64026019D01*
X161345042Y-64121257D01*
X161392661Y-64311733D01*
X161392661Y-64549828D01*
X161345042Y-64740304D01*
X161297423Y-64835542D01*
X161249804Y-64883161D01*
X161154566Y-64930780D01*
X161059328Y-64930780D01*
X160964090Y-64883161D01*
X160916471Y-64835542D01*
X160868852Y-64740304D01*
X160821233Y-64549828D01*
X160821233Y-64311733D01*
X160868852Y-64121257D01*
X160916471Y-64026019D01*
X160964090Y-63978400D01*
X161059328Y-63930780D01*
X162249804Y-64930780D02*
X162249804Y-64406971D01*
X162202185Y-64311733D01*
X162106947Y-64264114D01*
X161916471Y-64264114D01*
X161821233Y-64311733D01*
X162249804Y-64883161D02*
X162154566Y-64930780D01*
X161916471Y-64930780D01*
X161821233Y-64883161D01*
X161773614Y-64787923D01*
X161773614Y-64692685D01*
X161821233Y-64597447D01*
X161916471Y-64549828D01*
X162154566Y-64549828D01*
X162249804Y-64502209D01*
X153154566Y-66295066D02*
X153630757Y-66295066D01*
X153059328Y-66580780D02*
X153392661Y-65580780D01*
X153725995Y-66580780D01*
X154487900Y-65914114D02*
X154487900Y-66580780D01*
X154059328Y-65914114D02*
X154059328Y-66437923D01*
X154106947Y-66533161D01*
X154202185Y-66580780D01*
X154345042Y-66580780D01*
X154440280Y-66533161D01*
X154487900Y-66485542D01*
X155392661Y-65914114D02*
X155392661Y-66723638D01*
X155345042Y-66818876D01*
X155297423Y-66866495D01*
X155202185Y-66914114D01*
X155059328Y-66914114D01*
X154964090Y-66866495D01*
X155392661Y-66533161D02*
X155297423Y-66580780D01*
X155106947Y-66580780D01*
X155011709Y-66533161D01*
X154964090Y-66485542D01*
X154916471Y-66390304D01*
X154916471Y-66104590D01*
X154964090Y-66009352D01*
X155011709Y-65961733D01*
X155106947Y-65914114D01*
X155297423Y-65914114D01*
X155392661Y-65961733D01*
X156297423Y-65914114D02*
X156297423Y-66580780D01*
X155868852Y-65914114D02*
X155868852Y-66437923D01*
X155916471Y-66533161D01*
X156011709Y-66580780D01*
X156154566Y-66580780D01*
X156249804Y-66533161D01*
X156297423Y-66485542D01*
X156725995Y-66533161D02*
X156821233Y-66580780D01*
X157011709Y-66580780D01*
X157106947Y-66533161D01*
X157154566Y-66437923D01*
X157154566Y-66390304D01*
X157106947Y-66295066D01*
X157011709Y-66247447D01*
X156868852Y-66247447D01*
X156773614Y-66199828D01*
X156725995Y-66104590D01*
X156725995Y-66056971D01*
X156773614Y-65961733D01*
X156868852Y-65914114D01*
X157011709Y-65914114D01*
X157106947Y-65961733D01*
X157440280Y-65914114D02*
X157821233Y-65914114D01*
X157583138Y-65580780D02*
X157583138Y-66437923D01*
X157630757Y-66533161D01*
X157725995Y-66580780D01*
X157821233Y-66580780D01*
X158868852Y-65676019D02*
X158916471Y-65628400D01*
X159011709Y-65580780D01*
X159249804Y-65580780D01*
X159345042Y-65628400D01*
X159392661Y-65676019D01*
X159440280Y-65771257D01*
X159440280Y-65866495D01*
X159392661Y-66009352D01*
X158821233Y-66580780D01*
X159440280Y-66580780D01*
X160059328Y-65580780D02*
X160154566Y-65580780D01*
X160249804Y-65628400D01*
X160297423Y-65676019D01*
X160345042Y-65771257D01*
X160392661Y-65961733D01*
X160392661Y-66199828D01*
X160345042Y-66390304D01*
X160297423Y-66485542D01*
X160249804Y-66533161D01*
X160154566Y-66580780D01*
X160059328Y-66580780D01*
X159964090Y-66533161D01*
X159916471Y-66485542D01*
X159868852Y-66390304D01*
X159821233Y-66199828D01*
X159821233Y-65961733D01*
X159868852Y-65771257D01*
X159916471Y-65676019D01*
X159964090Y-65628400D01*
X160059328Y-65580780D01*
X160773614Y-65676019D02*
X160821233Y-65628400D01*
X160916471Y-65580780D01*
X161154566Y-65580780D01*
X161249804Y-65628400D01*
X161297423Y-65676019D01*
X161345042Y-65771257D01*
X161345042Y-65866495D01*
X161297423Y-66009352D01*
X160725995Y-66580780D01*
X161345042Y-66580780D01*
X161964090Y-65580780D02*
X162059328Y-65580780D01*
X162154566Y-65628400D01*
X162202185Y-65676019D01*
X162249804Y-65771257D01*
X162297423Y-65961733D01*
X162297423Y-66199828D01*
X162249804Y-66390304D01*
X162202185Y-66485542D01*
X162154566Y-66533161D01*
X162059328Y-66580780D01*
X161964090Y-66580780D01*
X161868852Y-66533161D01*
X161821233Y-66485542D01*
X161773614Y-66390304D01*
X161725995Y-66199828D01*
X161725995Y-65961733D01*
X161773614Y-65771257D01*
X161821233Y-65676019D01*
X161868852Y-65628400D01*
X161964090Y-65580780D01*
X118726180Y-105290242D02*
X117726180Y-105290242D01*
X117726180Y-105052147D01*
X117773800Y-104909290D01*
X117869038Y-104814052D01*
X117964276Y-104766433D01*
X118154752Y-104718814D01*
X118297609Y-104718814D01*
X118488085Y-104766433D01*
X118583323Y-104814052D01*
X118678561Y-104909290D01*
X118726180Y-105052147D01*
X118726180Y-105290242D01*
X118726180Y-104290242D02*
X117726180Y-104290242D01*
X117726180Y-104052147D01*
X117773800Y-103909290D01*
X117869038Y-103814052D01*
X117964276Y-103766433D01*
X118154752Y-103718814D01*
X118297609Y-103718814D01*
X118488085Y-103766433D01*
X118583323Y-103814052D01*
X118678561Y-103909290D01*
X118726180Y-104052147D01*
X118726180Y-104290242D01*
X117821419Y-103337861D02*
X117773800Y-103290242D01*
X117726180Y-103195004D01*
X117726180Y-102956909D01*
X117773800Y-102861671D01*
X117821419Y-102814052D01*
X117916657Y-102766433D01*
X118011895Y-102766433D01*
X118154752Y-102814052D01*
X118726180Y-103385480D01*
X118726180Y-102766433D01*
X118726180Y-101814052D02*
X118726180Y-102385480D01*
X118726180Y-102099766D02*
X117726180Y-102099766D01*
X117869038Y-102195004D01*
X117964276Y-102290242D01*
X118011895Y-102385480D01*
X118726180Y-100623576D02*
X117726180Y-100623576D01*
X117726180Y-100242623D01*
X117773800Y-100147385D01*
X117821419Y-100099766D01*
X117916657Y-100052147D01*
X118059514Y-100052147D01*
X118154752Y-100099766D01*
X118202371Y-100147385D01*
X118249990Y-100242623D01*
X118249990Y-100623576D01*
X118726180Y-99480719D02*
X118678561Y-99575957D01*
X118630942Y-99623576D01*
X118535704Y-99671195D01*
X118249990Y-99671195D01*
X118154752Y-99623576D01*
X118107133Y-99575957D01*
X118059514Y-99480719D01*
X118059514Y-99337861D01*
X118107133Y-99242623D01*
X118154752Y-99195004D01*
X118249990Y-99147385D01*
X118535704Y-99147385D01*
X118630942Y-99195004D01*
X118678561Y-99242623D01*
X118726180Y-99337861D01*
X118726180Y-99480719D01*
X118059514Y-98814052D02*
X118726180Y-98623576D01*
X118249990Y-98433100D01*
X118726180Y-98242623D01*
X118059514Y-98052147D01*
X118678561Y-97290242D02*
X118726180Y-97385480D01*
X118726180Y-97575957D01*
X118678561Y-97671195D01*
X118583323Y-97718814D01*
X118202371Y-97718814D01*
X118107133Y-97671195D01*
X118059514Y-97575957D01*
X118059514Y-97385480D01*
X118107133Y-97290242D01*
X118202371Y-97242623D01*
X118297609Y-97242623D01*
X118392847Y-97718814D01*
X118726180Y-96814052D02*
X118059514Y-96814052D01*
X118249990Y-96814052D02*
X118154752Y-96766433D01*
X118107133Y-96718814D01*
X118059514Y-96623576D01*
X118059514Y-96528338D01*
X118726180Y-95433100D02*
X117726180Y-95433100D01*
X118059514Y-94956909D02*
X118726180Y-94956909D01*
X118154752Y-94956909D02*
X118107133Y-94909290D01*
X118059514Y-94814052D01*
X118059514Y-94671195D01*
X118107133Y-94575957D01*
X118202371Y-94528338D01*
X118726180Y-94528338D01*
X118726180Y-93909290D02*
X118678561Y-94004528D01*
X118583323Y-94052147D01*
X117726180Y-94052147D01*
X118678561Y-93147385D02*
X118726180Y-93242623D01*
X118726180Y-93433100D01*
X118678561Y-93528338D01*
X118583323Y-93575957D01*
X118202371Y-93575957D01*
X118107133Y-93528338D01*
X118059514Y-93433100D01*
X118059514Y-93242623D01*
X118107133Y-93147385D01*
X118202371Y-93099766D01*
X118297609Y-93099766D01*
X118392847Y-93575957D01*
X118059514Y-92814052D02*
X118059514Y-92433100D01*
X117726180Y-92671195D02*
X118583323Y-92671195D01*
X118678561Y-92623576D01*
X118726180Y-92528338D01*
X118726180Y-92433100D01*
X171800780Y-104292304D02*
X170800780Y-104292304D01*
X171800780Y-103720876D01*
X170800780Y-103720876D01*
X170896019Y-103292304D02*
X170848400Y-103244685D01*
X170800780Y-103149447D01*
X170800780Y-102911352D01*
X170848400Y-102816114D01*
X170896019Y-102768495D01*
X170991257Y-102720876D01*
X171086495Y-102720876D01*
X171229352Y-102768495D01*
X171800780Y-103339923D01*
X171800780Y-102720876D01*
X171800780Y-108904066D02*
X171800780Y-109380257D01*
X170800780Y-109380257D01*
X170896019Y-108618352D02*
X170848400Y-108570733D01*
X170800780Y-108475495D01*
X170800780Y-108237400D01*
X170848400Y-108142161D01*
X170896019Y-108094542D01*
X170991257Y-108046923D01*
X171086495Y-108046923D01*
X171229352Y-108094542D01*
X171800780Y-108665971D01*
X171800780Y-108046923D01*
X171800780Y-114452304D02*
X170800780Y-114452304D01*
X171800780Y-113880876D01*
X170800780Y-113880876D01*
X171800780Y-112880876D02*
X171800780Y-113452304D01*
X171800780Y-113166590D02*
X170800780Y-113166590D01*
X170943638Y-113261828D01*
X171038876Y-113357066D01*
X171086495Y-113452304D01*
X171800780Y-118937066D02*
X171800780Y-119413257D01*
X170800780Y-119413257D01*
X171800780Y-118079923D02*
X171800780Y-118651352D01*
X171800780Y-118365638D02*
X170800780Y-118365638D01*
X170943638Y-118460876D01*
X171038876Y-118556114D01*
X171086495Y-118651352D01*
D11*
%TO.C,G\u002A\u002A\u002A*%
G36*
X159488402Y-124487060D02*
G01*
X159659803Y-124611613D01*
X159824921Y-124731848D01*
X159981998Y-124846470D01*
X160129275Y-124954187D01*
X160264997Y-125053704D01*
X160387406Y-125143728D01*
X160494744Y-125222967D01*
X160585253Y-125290125D01*
X160657177Y-125343910D01*
X160708759Y-125383029D01*
X160738240Y-125406188D01*
X160743810Y-125411042D01*
X160752483Y-125420941D01*
X160761872Y-125434988D01*
X160772570Y-125454895D01*
X160785175Y-125482376D01*
X160800279Y-125519148D01*
X160818479Y-125566923D01*
X160840370Y-125627417D01*
X160866547Y-125702343D01*
X160897604Y-125793416D01*
X160934137Y-125902350D01*
X160976740Y-126030860D01*
X161026010Y-126180660D01*
X161082540Y-126353465D01*
X161146926Y-126550988D01*
X161219763Y-126774944D01*
X161257134Y-126889972D01*
X161343182Y-127155546D01*
X161420827Y-127396535D01*
X161489922Y-127612469D01*
X161550322Y-127802878D01*
X161601881Y-127967294D01*
X161644453Y-128105248D01*
X161677891Y-128216271D01*
X161702050Y-128299892D01*
X161716784Y-128355644D01*
X161721946Y-128383058D01*
X161721952Y-128383483D01*
X161719707Y-128414200D01*
X161710703Y-128443583D01*
X161691529Y-128477848D01*
X161658780Y-128523212D01*
X161615098Y-128578397D01*
X161582049Y-128620769D01*
X161534025Y-128684290D01*
X161473697Y-128765331D01*
X161403738Y-128860264D01*
X161326820Y-128965462D01*
X161245615Y-129077295D01*
X161162794Y-129192136D01*
X161150687Y-129208992D01*
X161072234Y-129318034D01*
X160998823Y-129419584D01*
X160932446Y-129510924D01*
X160875095Y-129589334D01*
X160828762Y-129652094D01*
X160795440Y-129696483D01*
X160777120Y-129719783D01*
X160774637Y-129722439D01*
X160757651Y-129729281D01*
X160713812Y-129744624D01*
X160645260Y-129767767D01*
X160554135Y-129798013D01*
X160442580Y-129834662D01*
X160312735Y-129877016D01*
X160166742Y-129924375D01*
X160006740Y-129976040D01*
X159834871Y-130031313D01*
X159653275Y-130089495D01*
X159516562Y-130133159D01*
X158276982Y-130528544D01*
X156725604Y-130536807D01*
X155174227Y-130545070D01*
X154739018Y-130403113D01*
X155333928Y-130403113D01*
X155348783Y-130404060D01*
X155391928Y-130404965D01*
X155461237Y-130405818D01*
X155554580Y-130406611D01*
X155669830Y-130407332D01*
X155804858Y-130407972D01*
X155957536Y-130408521D01*
X156125736Y-130408969D01*
X156307330Y-130409305D01*
X156500189Y-130409521D01*
X156702186Y-130409607D01*
X156726360Y-130409608D01*
X156968515Y-130409547D01*
X157181913Y-130409350D01*
X157368216Y-130408992D01*
X157529086Y-130408448D01*
X157666186Y-130407694D01*
X157781177Y-130406705D01*
X157875722Y-130405456D01*
X157951482Y-130403924D01*
X158010120Y-130402084D01*
X158053298Y-130399911D01*
X158082677Y-130397381D01*
X158099921Y-130394469D01*
X158106690Y-130391151D01*
X158106630Y-130389268D01*
X158095927Y-130373984D01*
X158093132Y-130370087D01*
X158360634Y-130370087D01*
X158371602Y-130377184D01*
X158379646Y-130375350D01*
X158396823Y-130369624D01*
X158440671Y-130355240D01*
X158508928Y-130332936D01*
X158599333Y-130303448D01*
X158709623Y-130267513D01*
X158837537Y-130225866D01*
X158980813Y-130179245D01*
X159137191Y-130128386D01*
X159304407Y-130074027D01*
X159480201Y-130016902D01*
X159508759Y-130007624D01*
X159685217Y-129950275D01*
X159853090Y-129895669D01*
X160010161Y-129844530D01*
X160154212Y-129797582D01*
X160283025Y-129755550D01*
X160394381Y-129719159D01*
X160486064Y-129689131D01*
X160555856Y-129666193D01*
X160601538Y-129651067D01*
X160620892Y-129644479D01*
X160621407Y-129644258D01*
X160613092Y-129631832D01*
X160588228Y-129596677D01*
X160548163Y-129540660D01*
X160494245Y-129465650D01*
X160427823Y-129373515D01*
X160350244Y-129266121D01*
X160262859Y-129145337D01*
X160167014Y-129013030D01*
X160064057Y-128871069D01*
X159955339Y-128721320D01*
X159924239Y-128678512D01*
X159814087Y-128527049D01*
X159709152Y-128383028D01*
X159610795Y-128248302D01*
X159520379Y-128124723D01*
X159439263Y-128014143D01*
X159368811Y-127918414D01*
X159310382Y-127839388D01*
X159265338Y-127778918D01*
X159235042Y-127738855D01*
X159220853Y-127721052D01*
X159219952Y-127720308D01*
X159214520Y-127735313D01*
X159200556Y-127776787D01*
X159178863Y-127842249D01*
X159150245Y-127929219D01*
X159115509Y-128035215D01*
X159075457Y-128157756D01*
X159030895Y-128294360D01*
X158982628Y-128442548D01*
X158931459Y-128599838D01*
X158878195Y-128763748D01*
X158823638Y-128931798D01*
X158768594Y-129101507D01*
X158713867Y-129270393D01*
X158660263Y-129435976D01*
X158608585Y-129595774D01*
X158559638Y-129747306D01*
X158514228Y-129888092D01*
X158473157Y-130015650D01*
X158437232Y-130127499D01*
X158407256Y-130221158D01*
X158384035Y-130294145D01*
X158368372Y-130343981D01*
X158361073Y-130368183D01*
X158360634Y-130370087D01*
X158093132Y-130370087D01*
X158068719Y-130336052D01*
X158026411Y-130277408D01*
X157970409Y-130199993D01*
X157902118Y-130105744D01*
X157822943Y-129996600D01*
X157734290Y-129874498D01*
X157637565Y-129741378D01*
X157534172Y-129599178D01*
X157425518Y-129449835D01*
X157411268Y-129430255D01*
X157284403Y-129256013D01*
X157174175Y-129104824D01*
X157079362Y-128975118D01*
X156998741Y-128865325D01*
X156931089Y-128773874D01*
X156875185Y-128699193D01*
X156829805Y-128639713D01*
X156793728Y-128593863D01*
X156765730Y-128560071D01*
X156744590Y-128536768D01*
X156729086Y-128522383D01*
X156717994Y-128515344D01*
X156710092Y-128514081D01*
X156704158Y-128517023D01*
X156702079Y-128519008D01*
X156689314Y-128535274D01*
X156660695Y-128573504D01*
X156617897Y-128631390D01*
X156562598Y-128706622D01*
X156496473Y-128796893D01*
X156421199Y-128899893D01*
X156338453Y-129013314D01*
X156249910Y-129134848D01*
X156157247Y-129262185D01*
X156062140Y-129393017D01*
X155966267Y-129525036D01*
X155871303Y-129655933D01*
X155778924Y-129783399D01*
X155690808Y-129905127D01*
X155608629Y-130018806D01*
X155534066Y-130122129D01*
X155468794Y-130212787D01*
X155414490Y-130288472D01*
X155372829Y-130346874D01*
X155345489Y-130385686D01*
X155334146Y-130402598D01*
X155333928Y-130403113D01*
X154739018Y-130403113D01*
X153951737Y-130146317D01*
X152729246Y-129747564D01*
X152650686Y-129644626D01*
X152829984Y-129644626D01*
X152844897Y-129650059D01*
X152886058Y-129663988D01*
X152950776Y-129685538D01*
X153036362Y-129713831D01*
X153140123Y-129747991D01*
X153259371Y-129787140D01*
X153391413Y-129830403D01*
X153533560Y-129876903D01*
X153683120Y-129925762D01*
X153837404Y-129976105D01*
X153993720Y-130027053D01*
X154149377Y-130077731D01*
X154301686Y-130127262D01*
X154447956Y-130174768D01*
X154585495Y-130219374D01*
X154711613Y-130260203D01*
X154823620Y-130296377D01*
X154918825Y-130327020D01*
X154994537Y-130351255D01*
X155048066Y-130368206D01*
X155076720Y-130376995D01*
X155080795Y-130378056D01*
X155088718Y-130368170D01*
X155087102Y-130360177D01*
X155081526Y-130343211D01*
X155067256Y-130299379D01*
X155044966Y-130230754D01*
X155015326Y-130139411D01*
X154979011Y-130027425D01*
X154936692Y-129896870D01*
X154889041Y-129749821D01*
X154836732Y-129588351D01*
X154780436Y-129414537D01*
X154720826Y-129230451D01*
X154658574Y-129038169D01*
X154655804Y-129029612D01*
X154593534Y-128837513D01*
X154533849Y-128653896D01*
X154477421Y-128480797D01*
X154424920Y-128320250D01*
X154377016Y-128174290D01*
X154334381Y-128044951D01*
X154297686Y-127934269D01*
X154267600Y-127844277D01*
X154244796Y-127777010D01*
X154229943Y-127734504D01*
X154223713Y-127718792D01*
X154223628Y-127718746D01*
X154213503Y-127730828D01*
X154187327Y-127765277D01*
X154146748Y-127819815D01*
X154093415Y-127892163D01*
X154028975Y-127980043D01*
X153955079Y-128081178D01*
X153873374Y-128193289D01*
X153785508Y-128314099D01*
X153693131Y-128441328D01*
X153597890Y-128572700D01*
X153501434Y-128705936D01*
X153405412Y-128838758D01*
X153311472Y-128968889D01*
X153221263Y-129094049D01*
X153136432Y-129211961D01*
X153058630Y-129320347D01*
X152989503Y-129416929D01*
X152930700Y-129499429D01*
X152883871Y-129565569D01*
X152850663Y-129613070D01*
X152832725Y-129639655D01*
X152829984Y-129644626D01*
X152650686Y-129644626D01*
X152433411Y-129359933D01*
X152302726Y-129188652D01*
X152189296Y-129039798D01*
X152091902Y-128911637D01*
X152009321Y-128802432D01*
X151940332Y-128710446D01*
X151883713Y-128633945D01*
X151838244Y-128571191D01*
X151802704Y-128520448D01*
X151775870Y-128479981D01*
X151756521Y-128448053D01*
X151743437Y-128422929D01*
X151735396Y-128402871D01*
X151731177Y-128386144D01*
X151729580Y-128371209D01*
X151848305Y-128371209D01*
X151906655Y-128452344D01*
X151982426Y-128557479D01*
X152062015Y-128667511D01*
X152143457Y-128779758D01*
X152224787Y-128891540D01*
X152304042Y-129000176D01*
X152379258Y-129102985D01*
X152448469Y-129197288D01*
X152509713Y-129280402D01*
X152561024Y-129349648D01*
X152600438Y-129402344D01*
X152625992Y-129435811D01*
X152635720Y-129447367D01*
X152635740Y-129447356D01*
X152635259Y-129431923D01*
X152632582Y-129388599D01*
X152627887Y-129319818D01*
X152621355Y-129228016D01*
X152613163Y-129115628D01*
X152603491Y-128985089D01*
X152592516Y-128838833D01*
X152580417Y-128679297D01*
X152567374Y-128508914D01*
X152557345Y-128378915D01*
X152543611Y-128201049D01*
X152530574Y-128031424D01*
X152518425Y-127872580D01*
X152507357Y-127727057D01*
X152497559Y-127597394D01*
X152489223Y-127486132D01*
X152482542Y-127395809D01*
X152477706Y-127328967D01*
X152474907Y-127288144D01*
X152474262Y-127276434D01*
X152472366Y-127250191D01*
X152463952Y-127251943D01*
X152451384Y-127267721D01*
X152439453Y-127287220D01*
X152414786Y-127330466D01*
X152379061Y-127394415D01*
X152333956Y-127476028D01*
X152281152Y-127572262D01*
X152222325Y-127680076D01*
X152159155Y-127796429D01*
X152138757Y-127834120D01*
X151848305Y-128371209D01*
X151729580Y-128371209D01*
X151729558Y-128371012D01*
X151729314Y-128359036D01*
X151733892Y-128338962D01*
X151747116Y-128292410D01*
X151768206Y-128221825D01*
X151796377Y-128129649D01*
X151830848Y-128018326D01*
X151870835Y-127890300D01*
X151915556Y-127748013D01*
X151930908Y-127699405D01*
X152063868Y-127699405D01*
X152070624Y-127690298D01*
X152089352Y-127658575D01*
X152117742Y-127608480D01*
X152153484Y-127544253D01*
X152194268Y-127470139D01*
X152237783Y-127390380D01*
X152281720Y-127309217D01*
X152323768Y-127230893D01*
X152361617Y-127159651D01*
X152366590Y-127150143D01*
X152585139Y-127150143D01*
X152588526Y-127196584D01*
X152591149Y-127225808D01*
X152595760Y-127281478D01*
X152602135Y-127360673D01*
X152610050Y-127460468D01*
X152619281Y-127577941D01*
X152629604Y-127710170D01*
X152640795Y-127854232D01*
X152652629Y-128007204D01*
X152664884Y-128166164D01*
X152677334Y-128328189D01*
X152689755Y-128490356D01*
X152701924Y-128649744D01*
X152713616Y-128803428D01*
X152724608Y-128948486D01*
X152734675Y-129081996D01*
X152743594Y-129201036D01*
X152751139Y-129302682D01*
X152757088Y-129384011D01*
X152761215Y-129442102D01*
X152763298Y-129474031D01*
X152763509Y-129478965D01*
X152769098Y-129493350D01*
X152776907Y-129488668D01*
X152787797Y-129474305D01*
X152815124Y-129437254D01*
X152857473Y-129379459D01*
X152913428Y-129302861D01*
X152981575Y-129209403D01*
X153060498Y-129101027D01*
X153148782Y-128979674D01*
X153245012Y-128847289D01*
X153347773Y-128705812D01*
X153455648Y-128557186D01*
X153461338Y-128549343D01*
X153569160Y-128400584D01*
X153671621Y-128258931D01*
X153767339Y-128126313D01*
X153854930Y-128004660D01*
X153933010Y-127895904D01*
X154000197Y-127801975D01*
X154055106Y-127724802D01*
X154089283Y-127676343D01*
X154351635Y-127676343D01*
X154355872Y-127690931D01*
X154368889Y-127732409D01*
X154390028Y-127798745D01*
X154418636Y-127887910D01*
X154454054Y-127997874D01*
X154495629Y-128126607D01*
X154542705Y-128272078D01*
X154594624Y-128432259D01*
X154650733Y-128605118D01*
X154710376Y-128788626D01*
X154772895Y-128980752D01*
X154780049Y-129002721D01*
X154842906Y-129195794D01*
X154903021Y-129380544D01*
X154959731Y-129554934D01*
X155012377Y-129716925D01*
X155060297Y-129864479D01*
X155102829Y-129995560D01*
X155139313Y-130108128D01*
X155169088Y-130200146D01*
X155191491Y-130269576D01*
X155205862Y-130314381D01*
X155211539Y-130332521D01*
X155211605Y-130332799D01*
X155212794Y-130334431D01*
X155216544Y-130332119D01*
X155224000Y-130324314D01*
X155236310Y-130309467D01*
X155254619Y-130286030D01*
X155280074Y-130252454D01*
X155313821Y-130207189D01*
X155357008Y-130148688D01*
X155410779Y-130075401D01*
X155476283Y-129985779D01*
X155554665Y-129878273D01*
X155647071Y-129751336D01*
X155754649Y-129603417D01*
X155878544Y-129432968D01*
X155925938Y-129367751D01*
X156034956Y-129217626D01*
X156138629Y-129074654D01*
X156235586Y-128940738D01*
X156324456Y-128817781D01*
X156403870Y-128707685D01*
X156472457Y-128612353D01*
X156528846Y-128533689D01*
X156571667Y-128473593D01*
X156599549Y-128433969D01*
X156611044Y-128416837D01*
X156839676Y-128416837D01*
X156848400Y-128431023D01*
X156873622Y-128467794D01*
X156913913Y-128525158D01*
X156967848Y-128601120D01*
X157033999Y-128693689D01*
X157110940Y-128800871D01*
X157197244Y-128920674D01*
X157291484Y-129051104D01*
X157392233Y-129190170D01*
X157473398Y-129301950D01*
X157606823Y-129485528D01*
X157723490Y-129646040D01*
X157824532Y-129785022D01*
X157911081Y-129904007D01*
X157984271Y-130004530D01*
X158045235Y-130088128D01*
X158095106Y-130156333D01*
X158135018Y-130210683D01*
X158166104Y-130252710D01*
X158189497Y-130283950D01*
X158206330Y-130305939D01*
X158217736Y-130320210D01*
X158224849Y-130328300D01*
X158228802Y-130331742D01*
X158230728Y-130332071D01*
X158231760Y-130330823D01*
X158232395Y-130329982D01*
X158237860Y-130314969D01*
X158252034Y-130273064D01*
X158274247Y-130206313D01*
X158303828Y-130116762D01*
X158340107Y-130006455D01*
X158382413Y-129877439D01*
X158430075Y-129731758D01*
X158482423Y-129571459D01*
X158538787Y-129398585D01*
X158598494Y-129215184D01*
X158660875Y-129023300D01*
X158664964Y-129010714D01*
X158727390Y-128818288D01*
X158786976Y-128634122D01*
X158843067Y-128460268D01*
X158895008Y-128298780D01*
X158942143Y-128151711D01*
X158983818Y-128021115D01*
X159019377Y-127909043D01*
X159048167Y-127817549D01*
X159069530Y-127748686D01*
X159082814Y-127704507D01*
X159087361Y-127687065D01*
X159087340Y-127686908D01*
X159072545Y-127689693D01*
X159031249Y-127701218D01*
X158965852Y-127720732D01*
X158878753Y-127747483D01*
X158772351Y-127780719D01*
X158649047Y-127819689D01*
X158511238Y-127863641D01*
X158361326Y-127911824D01*
X158201709Y-127963486D01*
X158132491Y-127985995D01*
X157963696Y-128040938D01*
X157799170Y-128094442D01*
X157641906Y-128145536D01*
X157494900Y-128193250D01*
X157361148Y-128236612D01*
X157243645Y-128274652D01*
X157145387Y-128306398D01*
X157069369Y-128330880D01*
X157018587Y-128347126D01*
X157010784Y-128349598D01*
X156944057Y-128371721D01*
X156889502Y-128391811D01*
X156852812Y-128407629D01*
X156839676Y-128416837D01*
X156611044Y-128416837D01*
X156611123Y-128416720D01*
X156611370Y-128416156D01*
X156597367Y-128410480D01*
X156557097Y-128396310D01*
X156493235Y-128374523D01*
X156408453Y-128345992D01*
X156305427Y-128311594D01*
X156186830Y-128272204D01*
X156055335Y-128228698D01*
X155913617Y-128181951D01*
X155764349Y-128132837D01*
X155610205Y-128082234D01*
X155453860Y-128031015D01*
X155297986Y-127980057D01*
X155145259Y-127930234D01*
X154998351Y-127882423D01*
X154859936Y-127837498D01*
X154732689Y-127796335D01*
X154619283Y-127759809D01*
X154522392Y-127728797D01*
X154444690Y-127704172D01*
X154388851Y-127686811D01*
X154357548Y-127677589D01*
X154351635Y-127676343D01*
X154089283Y-127676343D01*
X154096355Y-127666317D01*
X154122559Y-127628450D01*
X154132337Y-127613131D01*
X154132371Y-127612967D01*
X154118429Y-127606542D01*
X154078771Y-127591893D01*
X154016644Y-127570089D01*
X153979788Y-127557451D01*
X154408063Y-127557451D01*
X154433991Y-127566393D01*
X154485146Y-127583445D01*
X154558812Y-127607728D01*
X154652273Y-127638363D01*
X154762814Y-127674472D01*
X154887719Y-127715174D01*
X155024271Y-127759592D01*
X155169756Y-127806845D01*
X155321458Y-127856056D01*
X155476660Y-127906344D01*
X155632647Y-127956831D01*
X155786703Y-128006639D01*
X155936113Y-128054887D01*
X156078160Y-128100697D01*
X156210130Y-128143190D01*
X156329305Y-128181487D01*
X156432971Y-128214708D01*
X156518412Y-128241976D01*
X156582912Y-128262410D01*
X156623755Y-128275132D01*
X156638149Y-128279273D01*
X156641773Y-128273764D01*
X156644936Y-128255718D01*
X156647665Y-128223463D01*
X156649989Y-128175327D01*
X156651932Y-128109638D01*
X156653522Y-128024725D01*
X156654787Y-127918914D01*
X156655752Y-127790533D01*
X156656444Y-127637911D01*
X156656890Y-127459376D01*
X156657118Y-127253255D01*
X156657160Y-127095145D01*
X156794048Y-127095145D01*
X156794074Y-127313424D01*
X156794182Y-127503250D01*
X156794418Y-127666588D01*
X156794826Y-127805403D01*
X156795450Y-127921661D01*
X156796337Y-128017326D01*
X156797530Y-128094365D01*
X156799074Y-128154743D01*
X156801015Y-128200425D01*
X156803397Y-128233377D01*
X156806265Y-128255564D01*
X156809663Y-128268952D01*
X156813638Y-128275506D01*
X156818232Y-128277192D01*
X156821011Y-128276763D01*
X156839503Y-128271040D01*
X156884632Y-128256671D01*
X156954103Y-128234396D01*
X157045620Y-128204957D01*
X157156886Y-128169093D01*
X157285605Y-128127545D01*
X157429481Y-128081055D01*
X157586216Y-128030363D01*
X157753516Y-127976209D01*
X157929083Y-127919336D01*
X157946283Y-127913762D01*
X158121769Y-127856768D01*
X158288601Y-127802351D01*
X158444553Y-127751250D01*
X158587399Y-127704206D01*
X158714914Y-127661960D01*
X158824872Y-127625251D01*
X158886726Y-127604378D01*
X159306357Y-127604378D01*
X159314302Y-127616960D01*
X159338813Y-127652239D01*
X159378534Y-127708331D01*
X159432111Y-127783353D01*
X159498188Y-127875420D01*
X159575411Y-127982650D01*
X159662426Y-128103159D01*
X159757877Y-128235063D01*
X159860409Y-128376479D01*
X159968669Y-128525522D01*
X159990754Y-128555895D01*
X160680027Y-129503668D01*
X160685007Y-129438855D01*
X160809204Y-129438855D01*
X160809686Y-129443588D01*
X160812321Y-129444374D01*
X160818607Y-129439248D01*
X160830042Y-129426249D01*
X160848126Y-129403414D01*
X160874356Y-129368778D01*
X160910232Y-129320380D01*
X160957251Y-129256256D01*
X161016911Y-129174443D01*
X161090713Y-129072979D01*
X161180153Y-128949899D01*
X161232794Y-128877456D01*
X161600143Y-128371950D01*
X161301545Y-127820390D01*
X161236907Y-127701197D01*
X161176518Y-127590229D01*
X161121961Y-127490366D01*
X161074818Y-127404488D01*
X161036673Y-127335476D01*
X161009110Y-127286211D01*
X160993712Y-127259574D01*
X160991202Y-127255768D01*
X160983914Y-127262592D01*
X160976199Y-127293104D01*
X160969874Y-127339421D01*
X160967056Y-127371227D01*
X160962288Y-127429011D01*
X160955802Y-127509718D01*
X160947833Y-127610295D01*
X160938616Y-127727688D01*
X160928384Y-127858845D01*
X160917372Y-128000711D01*
X160905813Y-128150233D01*
X160893943Y-128304357D01*
X160881995Y-128460030D01*
X160870203Y-128614199D01*
X160858802Y-128763811D01*
X160848026Y-128905810D01*
X160838108Y-129037145D01*
X160829284Y-129154761D01*
X160821787Y-129255606D01*
X160815852Y-129336624D01*
X160811712Y-129394765D01*
X160809602Y-129426972D01*
X160809377Y-129432137D01*
X160809204Y-129438855D01*
X160685007Y-129438855D01*
X160771731Y-128310201D01*
X160785972Y-128122765D01*
X160799222Y-127944240D01*
X160811329Y-127776928D01*
X160822141Y-127623130D01*
X160831507Y-127485149D01*
X160839275Y-127365286D01*
X160845292Y-127265842D01*
X160849408Y-127189119D01*
X160851469Y-127137419D01*
X160851325Y-127113042D01*
X160850822Y-127111399D01*
X160835169Y-127115185D01*
X160793846Y-127127309D01*
X160730119Y-127146730D01*
X160647256Y-127172404D01*
X160548521Y-127203289D01*
X160437182Y-127238343D01*
X160316506Y-127276522D01*
X160189757Y-127316785D01*
X160060204Y-127358088D01*
X159931111Y-127399389D01*
X159805746Y-127439645D01*
X159687376Y-127477814D01*
X159579266Y-127512853D01*
X159484682Y-127543720D01*
X159406892Y-127569372D01*
X159349161Y-127588766D01*
X159314757Y-127600860D01*
X159306357Y-127604378D01*
X158886726Y-127604378D01*
X158915047Y-127594821D01*
X158983213Y-127571409D01*
X159027145Y-127555757D01*
X159044616Y-127548603D01*
X159044828Y-127548351D01*
X159032902Y-127538650D01*
X158998483Y-127512615D01*
X158943689Y-127471794D01*
X158870637Y-127417732D01*
X158781444Y-127351975D01*
X158678228Y-127276071D01*
X158563107Y-127191566D01*
X158438197Y-127100005D01*
X158305615Y-127002936D01*
X158167480Y-126901904D01*
X158025908Y-126798456D01*
X157883016Y-126694138D01*
X157740923Y-126590498D01*
X157601745Y-126489080D01*
X157467600Y-126391432D01*
X157340604Y-126299099D01*
X157222876Y-126213629D01*
X157116533Y-126136567D01*
X157023691Y-126069460D01*
X156946469Y-126013854D01*
X156886983Y-125971296D01*
X156847351Y-125943332D01*
X156844341Y-125941245D01*
X156794048Y-125906475D01*
X156794048Y-127095145D01*
X156657160Y-127095145D01*
X156657161Y-127093021D01*
X156657074Y-126867628D01*
X156656792Y-126670982D01*
X156656291Y-126501413D01*
X156655542Y-126357248D01*
X156654518Y-126236817D01*
X156653193Y-126138448D01*
X156651539Y-126060470D01*
X156649530Y-126001212D01*
X156647138Y-125959003D01*
X156644336Y-125932171D01*
X156641098Y-125919045D01*
X156638149Y-125917304D01*
X156623300Y-125927754D01*
X156585611Y-125954804D01*
X156526853Y-125997174D01*
X156448794Y-126053582D01*
X156353204Y-126122747D01*
X156241851Y-126203388D01*
X156116505Y-126294223D01*
X155978936Y-126393971D01*
X155830911Y-126501352D01*
X155674201Y-126615083D01*
X155510574Y-126733884D01*
X155503152Y-126739274D01*
X155329416Y-126865690D01*
X155166186Y-126984950D01*
X155014914Y-127095968D01*
X154877053Y-127197661D01*
X154754053Y-127288943D01*
X154647366Y-127368729D01*
X154558444Y-127435937D01*
X154488739Y-127489480D01*
X154439702Y-127528275D01*
X154412784Y-127551236D01*
X154408063Y-127557451D01*
X153979788Y-127557451D01*
X153935298Y-127542196D01*
X153837982Y-127509281D01*
X153727944Y-127472411D01*
X153608435Y-127432652D01*
X153482701Y-127391072D01*
X153353993Y-127348738D01*
X153225560Y-127306716D01*
X153100650Y-127266074D01*
X152982512Y-127227877D01*
X152874396Y-127193194D01*
X152779550Y-127163091D01*
X152701223Y-127138635D01*
X152642664Y-127120892D01*
X152607122Y-127110930D01*
X152598054Y-127109129D01*
X152587763Y-127118682D01*
X152585139Y-127150143D01*
X152366590Y-127150143D01*
X152392957Y-127099733D01*
X152415478Y-127055381D01*
X152422562Y-127040686D01*
X152436025Y-127005853D01*
X152442333Y-126982843D01*
X152636246Y-126982843D01*
X152652861Y-126988235D01*
X152695639Y-127002151D01*
X152761817Y-127023693D01*
X152848634Y-127051962D01*
X152953331Y-127086058D01*
X153073145Y-127125083D01*
X153205316Y-127168137D01*
X153347083Y-127214322D01*
X153394706Y-127229837D01*
X153539483Y-127276856D01*
X153676002Y-127320903D01*
X153801440Y-127361089D01*
X153912972Y-127396522D01*
X154007775Y-127426311D01*
X154083025Y-127449564D01*
X154135897Y-127465392D01*
X154163569Y-127472902D01*
X154166592Y-127473403D01*
X154171525Y-127472250D01*
X154175810Y-127467165D01*
X154179492Y-127456156D01*
X154180945Y-127447350D01*
X154314886Y-127447350D01*
X154364317Y-127410303D01*
X154383823Y-127395963D01*
X154426081Y-127365102D01*
X154489229Y-127319074D01*
X154571404Y-127259236D01*
X154670746Y-127186939D01*
X154785391Y-127103540D01*
X154913479Y-127010392D01*
X155053148Y-126908850D01*
X155202536Y-126800269D01*
X155359781Y-126686001D01*
X155499899Y-126584201D01*
X155660781Y-126467165D01*
X155814160Y-126355275D01*
X155958310Y-126249809D01*
X156091503Y-126152046D01*
X156212010Y-126063264D01*
X156318106Y-125984741D01*
X156408062Y-125917754D01*
X156480151Y-125863584D01*
X156532646Y-125823507D01*
X156547767Y-125811523D01*
X156889254Y-125811523D01*
X156904097Y-125823056D01*
X156941787Y-125851152D01*
X157000551Y-125894515D01*
X157078612Y-125951845D01*
X157174196Y-126021846D01*
X157285527Y-126103220D01*
X157410830Y-126194669D01*
X157548330Y-126294896D01*
X157696251Y-126402604D01*
X157852819Y-126516495D01*
X158016257Y-126635271D01*
X158018419Y-126636841D01*
X159128718Y-127443343D01*
X159132696Y-126851499D01*
X159133556Y-126686452D01*
X159134100Y-126500315D01*
X159134315Y-126314144D01*
X159258000Y-126314144D01*
X159258000Y-127487278D01*
X159368269Y-127450945D01*
X159405750Y-127438677D01*
X159468634Y-127418191D01*
X159553385Y-127390635D01*
X159656466Y-127357158D01*
X159774338Y-127318908D01*
X159903464Y-127277033D01*
X160040308Y-127232683D01*
X160140155Y-127200339D01*
X160275890Y-127156390D01*
X160402731Y-127115342D01*
X160517748Y-127078141D01*
X160618012Y-127045734D01*
X160700595Y-127019067D01*
X160762565Y-126999086D01*
X160800994Y-126986738D01*
X160812944Y-126982957D01*
X160804586Y-126971388D01*
X160778341Y-126938766D01*
X160736009Y-126887227D01*
X160679390Y-126818906D01*
X160610284Y-126735938D01*
X160530493Y-126640459D01*
X160441816Y-126534604D01*
X160346054Y-126420509D01*
X160245007Y-126300309D01*
X160140477Y-126176140D01*
X160034262Y-126050137D01*
X159928164Y-125924436D01*
X159823983Y-125801171D01*
X159723519Y-125682480D01*
X159628573Y-125570496D01*
X159540945Y-125467356D01*
X159462436Y-125375195D01*
X159394846Y-125296149D01*
X159339975Y-125232352D01*
X159299625Y-125185941D01*
X159275595Y-125159051D01*
X159272181Y-125155458D01*
X159269507Y-125167625D01*
X159267074Y-125209013D01*
X159264897Y-125278424D01*
X159262991Y-125374661D01*
X159261370Y-125496526D01*
X159260050Y-125642822D01*
X159259043Y-125812351D01*
X159258366Y-126003916D01*
X159258033Y-126216320D01*
X159258000Y-126314144D01*
X159134315Y-126314144D01*
X159134329Y-126302416D01*
X159134242Y-126102083D01*
X159133840Y-125908643D01*
X159133122Y-125731425D01*
X159132696Y-125659394D01*
X159129030Y-125106164D01*
X159401044Y-125106164D01*
X159410024Y-125118130D01*
X159436924Y-125150923D01*
X159479850Y-125202329D01*
X159536910Y-125270130D01*
X159606210Y-125352112D01*
X159685858Y-125446058D01*
X159773959Y-125549753D01*
X159868621Y-125660980D01*
X159967950Y-125777524D01*
X160070054Y-125897168D01*
X160173039Y-126017697D01*
X160275011Y-126136895D01*
X160374079Y-126252546D01*
X160468347Y-126362434D01*
X160555924Y-126464343D01*
X160634916Y-126556057D01*
X160703430Y-126635360D01*
X160759572Y-126700037D01*
X160801450Y-126747871D01*
X160827170Y-126776646D01*
X160834926Y-126784458D01*
X160834060Y-126768815D01*
X160829534Y-126726184D01*
X160821737Y-126659724D01*
X160811059Y-126572595D01*
X160797891Y-126467957D01*
X160782623Y-126348968D01*
X160765644Y-126218790D01*
X160761427Y-126186810D01*
X160890098Y-126186810D01*
X160890527Y-126202770D01*
X160894802Y-126244022D01*
X160902253Y-126305776D01*
X160912213Y-126383244D01*
X160924014Y-126471634D01*
X160936986Y-126566157D01*
X160950463Y-126662023D01*
X160963775Y-126754441D01*
X160976254Y-126838623D01*
X160987233Y-126909779D01*
X160996041Y-126963117D01*
X161002013Y-126993849D01*
X161003345Y-126998471D01*
X161014270Y-127021417D01*
X161036600Y-127064958D01*
X161068035Y-127124844D01*
X161106276Y-127196821D01*
X161149023Y-127276639D01*
X161193976Y-127360044D01*
X161238836Y-127442786D01*
X161281303Y-127520611D01*
X161319077Y-127589268D01*
X161349860Y-127644506D01*
X161371352Y-127682071D01*
X161381252Y-127697713D01*
X161381609Y-127697894D01*
X161377789Y-127683130D01*
X161365389Y-127642142D01*
X161345268Y-127577628D01*
X161318284Y-127492282D01*
X161285293Y-127388800D01*
X161247153Y-127269878D01*
X161204723Y-127138212D01*
X161158859Y-126996497D01*
X161139955Y-126938251D01*
X161092851Y-126793561D01*
X161048551Y-126658122D01*
X161007940Y-126534596D01*
X160971903Y-126425642D01*
X160941325Y-126333923D01*
X160917090Y-126262098D01*
X160900083Y-126212828D01*
X160891188Y-126188774D01*
X160890098Y-126186810D01*
X160761427Y-126186810D01*
X160756761Y-126151440D01*
X160738820Y-126016824D01*
X160721922Y-125891804D01*
X160706514Y-125779549D01*
X160693043Y-125683228D01*
X160681952Y-125606011D01*
X160673688Y-125551066D01*
X160668698Y-125521562D01*
X160667582Y-125517354D01*
X160652395Y-125511546D01*
X160611988Y-125497666D01*
X160549938Y-125476876D01*
X160469823Y-125450336D01*
X160375219Y-125419209D01*
X160269703Y-125384655D01*
X160156853Y-125347836D01*
X160040246Y-125309913D01*
X159923458Y-125272048D01*
X159810066Y-125235401D01*
X159703648Y-125201134D01*
X159607781Y-125170409D01*
X159526041Y-125144386D01*
X159462006Y-125124227D01*
X159419253Y-125111093D01*
X159401358Y-125106146D01*
X159401044Y-125106164D01*
X159129030Y-125106164D01*
X159128718Y-125059134D01*
X157999554Y-125425921D01*
X157785066Y-125495709D01*
X157598005Y-125556846D01*
X157436798Y-125609877D01*
X157299878Y-125655346D01*
X157185673Y-125693799D01*
X157092614Y-125725782D01*
X157019130Y-125751838D01*
X156963652Y-125772515D01*
X156924611Y-125788357D01*
X156900435Y-125799908D01*
X156889555Y-125807715D01*
X156889254Y-125811523D01*
X156547767Y-125811523D01*
X156563819Y-125798802D01*
X156572174Y-125790745D01*
X156549963Y-125783596D01*
X156501714Y-125767990D01*
X156430239Y-125744842D01*
X156338351Y-125715063D01*
X156228865Y-125679567D01*
X156104592Y-125639267D01*
X155968347Y-125595076D01*
X155822943Y-125547906D01*
X155671193Y-125498671D01*
X155515910Y-125448284D01*
X155359907Y-125397657D01*
X155205998Y-125347704D01*
X155056996Y-125299337D01*
X154915715Y-125253469D01*
X154784967Y-125211014D01*
X154667565Y-125172884D01*
X154566324Y-125139992D01*
X154484056Y-125113252D01*
X154423574Y-125093575D01*
X154387692Y-125081876D01*
X154379527Y-125079194D01*
X154314886Y-125057682D01*
X154314886Y-127447350D01*
X154180945Y-127447350D01*
X154182616Y-127437231D01*
X154185229Y-127408396D01*
X154187375Y-127367662D01*
X154189100Y-127313034D01*
X154190450Y-127242522D01*
X154191469Y-127154134D01*
X154192204Y-127045876D01*
X154192700Y-126915758D01*
X154193002Y-126761787D01*
X154193156Y-126581970D01*
X154193207Y-126374317D01*
X154193209Y-126307169D01*
X154193209Y-125140179D01*
X154156999Y-125177858D01*
X154132074Y-125205181D01*
X154090951Y-125251956D01*
X154035440Y-125316037D01*
X153967347Y-125395279D01*
X153888480Y-125487536D01*
X153800648Y-125590662D01*
X153705658Y-125702511D01*
X153605318Y-125820937D01*
X153501436Y-125943795D01*
X153395820Y-126068939D01*
X153290277Y-126194223D01*
X153186617Y-126317502D01*
X153086646Y-126436628D01*
X152992172Y-126549458D01*
X152905004Y-126653844D01*
X152826950Y-126747641D01*
X152759816Y-126828704D01*
X152705411Y-126894886D01*
X152665543Y-126944042D01*
X152642021Y-126974026D01*
X152636246Y-126982843D01*
X152442333Y-126982843D01*
X152448886Y-126958946D01*
X152461865Y-126896149D01*
X152475683Y-126813644D01*
X152483674Y-126758548D01*
X152612143Y-126758548D01*
X152615728Y-126782236D01*
X152624845Y-126781362D01*
X152636687Y-126767648D01*
X152666619Y-126732629D01*
X152713040Y-126678185D01*
X152774350Y-126606198D01*
X152848948Y-126518549D01*
X152935234Y-126417119D01*
X153031606Y-126303789D01*
X153136465Y-126180440D01*
X153248209Y-126048953D01*
X153340622Y-125940185D01*
X153456208Y-125804003D01*
X153565734Y-125674713D01*
X153667650Y-125554160D01*
X153760405Y-125444192D01*
X153842450Y-125346652D01*
X153912233Y-125263389D01*
X153968204Y-125196246D01*
X154008813Y-125147069D01*
X154032509Y-125117706D01*
X154038238Y-125109710D01*
X154023156Y-125113320D01*
X153982807Y-125125345D01*
X153920791Y-125144611D01*
X153840710Y-125169943D01*
X153746164Y-125200167D01*
X153640755Y-125234109D01*
X153528083Y-125270594D01*
X153411750Y-125308447D01*
X153295355Y-125346495D01*
X153182500Y-125383563D01*
X153076786Y-125418476D01*
X152981813Y-125450061D01*
X152901183Y-125477142D01*
X152838497Y-125498546D01*
X152797355Y-125513098D01*
X152781358Y-125519623D01*
X152781347Y-125519634D01*
X152777652Y-125535897D01*
X152770576Y-125578444D01*
X152760649Y-125643391D01*
X152748402Y-125726854D01*
X152734365Y-125824950D01*
X152719068Y-125933796D01*
X152703042Y-126049508D01*
X152686816Y-126168204D01*
X152670923Y-126285998D01*
X152655891Y-126399009D01*
X152642251Y-126503353D01*
X152630533Y-126595146D01*
X152621269Y-126670506D01*
X152614988Y-126725548D01*
X152612220Y-126756389D01*
X152612143Y-126758548D01*
X152483674Y-126758548D01*
X152491062Y-126707617D01*
X152504464Y-126607213D01*
X152518005Y-126504260D01*
X152530737Y-126409649D01*
X152541999Y-126328138D01*
X152551125Y-126264485D01*
X152557452Y-126223449D01*
X152559600Y-126211795D01*
X152562974Y-126187034D01*
X152558999Y-126183059D01*
X152552919Y-126198580D01*
X152538584Y-126239757D01*
X152517071Y-126303292D01*
X152489456Y-126385889D01*
X152456817Y-126484251D01*
X152420229Y-126595081D01*
X152380769Y-126715081D01*
X152339513Y-126840956D01*
X152297539Y-126969407D01*
X152255923Y-127097139D01*
X152215741Y-127220853D01*
X152178070Y-127337254D01*
X152143986Y-127443044D01*
X152114566Y-127534926D01*
X152090887Y-127609603D01*
X152074024Y-127663779D01*
X152065056Y-127694156D01*
X152063868Y-127699405D01*
X151930908Y-127699405D01*
X151964228Y-127593911D01*
X152016069Y-127430435D01*
X152070296Y-127260029D01*
X152126126Y-127085137D01*
X152182777Y-126908202D01*
X152239466Y-126731667D01*
X152295411Y-126557977D01*
X152349828Y-126389574D01*
X152401935Y-126228902D01*
X152450950Y-126078404D01*
X152496089Y-125940524D01*
X152536571Y-125817705D01*
X152571612Y-125712390D01*
X152600431Y-125627024D01*
X152622243Y-125564049D01*
X152636267Y-125525909D01*
X152638615Y-125520190D01*
X152658696Y-125478859D01*
X152683139Y-125441470D01*
X152715953Y-125404083D01*
X152761146Y-125362757D01*
X152822727Y-125313554D01*
X152884584Y-125267509D01*
X153113285Y-125267509D01*
X153115338Y-125268769D01*
X153131144Y-125264221D01*
X153172629Y-125251268D01*
X153236558Y-125230948D01*
X153319694Y-125204300D01*
X153418799Y-125172359D01*
X153530637Y-125136165D01*
X153651972Y-125096756D01*
X153661598Y-125093624D01*
X153783806Y-125053639D01*
X153896925Y-125016222D01*
X153997681Y-124982485D01*
X154046306Y-124965951D01*
X154462767Y-124965951D01*
X154478613Y-124972240D01*
X154520651Y-124986993D01*
X154586131Y-125009309D01*
X154672303Y-125038290D01*
X154776416Y-125073033D01*
X154895722Y-125112639D01*
X155027469Y-125156209D01*
X155168908Y-125202840D01*
X155317289Y-125251634D01*
X155469862Y-125301690D01*
X155623876Y-125352107D01*
X155776582Y-125401986D01*
X155925230Y-125450426D01*
X156067070Y-125496527D01*
X156199352Y-125539388D01*
X156319325Y-125578110D01*
X156424240Y-125611791D01*
X156511347Y-125639532D01*
X156577895Y-125660433D01*
X156621135Y-125673593D01*
X156638149Y-125678108D01*
X156642470Y-125672500D01*
X156646128Y-125653698D01*
X156649171Y-125619708D01*
X156651645Y-125568535D01*
X156653596Y-125498184D01*
X156655071Y-125406659D01*
X156656117Y-125291968D01*
X156656780Y-125152114D01*
X156657107Y-124985103D01*
X156657161Y-124864088D01*
X156657130Y-124735752D01*
X156778293Y-124735752D01*
X156778526Y-124871523D01*
X156779110Y-125007143D01*
X156780036Y-125139219D01*
X156781293Y-125264356D01*
X156782871Y-125379158D01*
X156784761Y-125480230D01*
X156786952Y-125564177D01*
X156789436Y-125627604D01*
X156792201Y-125667117D01*
X156794972Y-125679428D01*
X156811705Y-125674839D01*
X156855080Y-125661560D01*
X156922814Y-125640320D01*
X157012625Y-125611850D01*
X157122231Y-125576879D01*
X157249348Y-125536138D01*
X157391696Y-125490356D01*
X157546991Y-125440264D01*
X157712951Y-125386591D01*
X157887294Y-125330068D01*
X157893864Y-125327935D01*
X158068382Y-125271196D01*
X158234481Y-125217025D01*
X158389890Y-125166175D01*
X158532339Y-125119397D01*
X158659556Y-125077440D01*
X158769270Y-125041056D01*
X158859211Y-125010997D01*
X158927108Y-124988012D01*
X158970690Y-124972853D01*
X158987685Y-124966272D01*
X158987777Y-124966200D01*
X158975499Y-124959355D01*
X158937660Y-124942041D01*
X158876844Y-124915333D01*
X158795633Y-124880305D01*
X158696610Y-124838032D01*
X158582358Y-124789590D01*
X158455461Y-124736053D01*
X158318501Y-124678496D01*
X158174060Y-124617995D01*
X158024723Y-124555624D01*
X157873071Y-124492458D01*
X157721688Y-124429573D01*
X157573157Y-124368043D01*
X157430060Y-124308943D01*
X157294981Y-124253348D01*
X157170502Y-124202333D01*
X157059206Y-124156973D01*
X156963677Y-124118344D01*
X156886497Y-124087520D01*
X156830249Y-124065575D01*
X156797516Y-124053586D01*
X156790245Y-124051618D01*
X156787315Y-124066361D01*
X156784816Y-124108116D01*
X156782736Y-124173486D01*
X156781066Y-124259078D01*
X156779797Y-124361496D01*
X156778918Y-124477344D01*
X156778420Y-124603228D01*
X156778293Y-124735752D01*
X156657130Y-124735752D01*
X156657117Y-124685762D01*
X156656934Y-124535501D01*
X156656532Y-124410950D01*
X156655836Y-124309755D01*
X156654766Y-124229562D01*
X156653245Y-124168016D01*
X156651196Y-124122763D01*
X156648540Y-124091450D01*
X156645200Y-124071720D01*
X156641098Y-124061221D01*
X156636156Y-124057598D01*
X156630545Y-124058405D01*
X156587611Y-124074739D01*
X156522276Y-124100619D01*
X156437129Y-124134962D01*
X156334757Y-124176684D01*
X156217748Y-124224702D01*
X156088690Y-124277932D01*
X155950171Y-124335292D01*
X155804778Y-124395697D01*
X155655099Y-124458065D01*
X155503722Y-124521311D01*
X155353235Y-124584353D01*
X155206226Y-124646107D01*
X155065282Y-124705490D01*
X154932991Y-124761418D01*
X154811942Y-124812808D01*
X154704721Y-124858577D01*
X154613917Y-124897641D01*
X154542118Y-124928916D01*
X154491911Y-124951320D01*
X154465884Y-124963769D01*
X154462767Y-124965951D01*
X154046306Y-124965951D01*
X154082798Y-124953543D01*
X154149001Y-124930510D01*
X154193018Y-124914500D01*
X154211571Y-124906627D01*
X154211822Y-124906420D01*
X154225366Y-124889639D01*
X154253686Y-124852209D01*
X154284150Y-124811209D01*
X154449069Y-124811209D01*
X154451421Y-124811913D01*
X154458688Y-124810313D01*
X154472734Y-124805668D01*
X154495425Y-124797236D01*
X154528624Y-124784275D01*
X154574196Y-124766043D01*
X154634007Y-124741796D01*
X154709919Y-124710795D01*
X154803797Y-124672295D01*
X154917507Y-124625556D01*
X155052913Y-124569835D01*
X155211878Y-124504390D01*
X155396268Y-124428479D01*
X155489619Y-124390055D01*
X155653323Y-124322562D01*
X155808519Y-124258351D01*
X155952955Y-124198367D01*
X156084379Y-124143557D01*
X156200539Y-124094867D01*
X156299181Y-124053243D01*
X156378055Y-124019631D01*
X156434907Y-123994978D01*
X156467485Y-123980228D01*
X156474646Y-123976273D01*
X156460319Y-123972411D01*
X156456726Y-123971643D01*
X156953748Y-123971643D01*
X157006982Y-123996799D01*
X157032563Y-124008049D01*
X157082445Y-124029217D01*
X157153867Y-124059168D01*
X157244068Y-124096766D01*
X157350289Y-124140876D01*
X157469770Y-124190363D01*
X157599749Y-124244092D01*
X157737467Y-124300927D01*
X157880163Y-124359732D01*
X158025077Y-124419374D01*
X158169449Y-124478715D01*
X158310519Y-124536622D01*
X158445526Y-124591958D01*
X158571710Y-124643589D01*
X158686310Y-124690378D01*
X158786567Y-124731192D01*
X158869720Y-124764894D01*
X158933009Y-124790349D01*
X158973674Y-124806422D01*
X158988927Y-124811977D01*
X158993627Y-124802493D01*
X158989551Y-124793470D01*
X158978367Y-124777445D01*
X158951214Y-124739471D01*
X158910008Y-124682205D01*
X158856668Y-124608301D01*
X158793112Y-124520416D01*
X158721257Y-124421206D01*
X158643022Y-124313325D01*
X158599624Y-124253538D01*
X158506207Y-124125139D01*
X158428790Y-124019431D01*
X158404110Y-123986138D01*
X158569174Y-123986138D01*
X158575815Y-123998874D01*
X158590488Y-124021871D01*
X158614553Y-124057074D01*
X158649370Y-124106426D01*
X158696299Y-124171873D01*
X158756702Y-124255357D01*
X158831938Y-124358823D01*
X158923368Y-124484216D01*
X158957592Y-124531105D01*
X159235185Y-124911344D01*
X159790335Y-125096135D01*
X159914057Y-125137297D01*
X160028548Y-125175348D01*
X160130640Y-125209239D01*
X160217167Y-125237919D01*
X160284960Y-125260339D01*
X160330851Y-125275449D01*
X160351674Y-125282199D01*
X160352546Y-125282452D01*
X160349191Y-125275323D01*
X160337337Y-125263355D01*
X160321876Y-125251458D01*
X160284195Y-125223501D01*
X160226724Y-125181247D01*
X160151892Y-125126461D01*
X160062130Y-125060905D01*
X159959866Y-124986345D01*
X159847531Y-124904544D01*
X159727555Y-124817265D01*
X159602367Y-124726274D01*
X159474397Y-124633333D01*
X159346075Y-124540206D01*
X159219831Y-124448658D01*
X159098095Y-124360452D01*
X158983295Y-124277353D01*
X158877863Y-124201123D01*
X158784228Y-124133527D01*
X158704819Y-124076329D01*
X158642066Y-124031293D01*
X158598400Y-124000182D01*
X158576250Y-123984761D01*
X158574544Y-123983672D01*
X158569204Y-123981718D01*
X158569174Y-123986138D01*
X158404110Y-123986138D01*
X158365710Y-123934339D01*
X158315302Y-123867787D01*
X158275902Y-123817703D01*
X158245846Y-123782011D01*
X158223469Y-123758637D01*
X158207109Y-123745506D01*
X158195099Y-123740544D01*
X158188341Y-123740832D01*
X158166502Y-123745337D01*
X158118143Y-123754720D01*
X158046661Y-123768340D01*
X157955451Y-123785558D01*
X157847908Y-123805734D01*
X157727428Y-123828227D01*
X157597407Y-123852396D01*
X157554527Y-123860345D01*
X156953748Y-123971643D01*
X156456726Y-123971643D01*
X156419865Y-123963764D01*
X156357074Y-123951048D01*
X156275736Y-123934981D01*
X156179641Y-123916281D01*
X156072578Y-123895666D01*
X155958339Y-123873853D01*
X155840712Y-123851561D01*
X155723489Y-123829505D01*
X155610458Y-123808405D01*
X155505411Y-123788978D01*
X155412136Y-123771942D01*
X155334424Y-123758013D01*
X155276066Y-123747911D01*
X155240850Y-123742352D01*
X155236225Y-123741770D01*
X155224983Y-123753282D01*
X155198170Y-123786380D01*
X155158045Y-123838005D01*
X155106867Y-123905098D01*
X155046895Y-123984598D01*
X154980388Y-124073446D01*
X154909605Y-124168583D01*
X154836806Y-124266950D01*
X154764249Y-124365486D01*
X154694193Y-124461132D01*
X154628898Y-124550829D01*
X154570622Y-124631518D01*
X154521625Y-124700138D01*
X154484165Y-124753631D01*
X154460502Y-124788936D01*
X154452860Y-124802702D01*
X154451653Y-124805862D01*
X154449768Y-124808945D01*
X154449069Y-124811209D01*
X154284150Y-124811209D01*
X154294404Y-124797410D01*
X154345140Y-124728522D01*
X154403515Y-124648826D01*
X154467151Y-124561602D01*
X154533668Y-124470130D01*
X154600687Y-124377690D01*
X154665830Y-124287564D01*
X154726716Y-124203030D01*
X154780967Y-124127370D01*
X154826205Y-124063864D01*
X154860049Y-124015792D01*
X154880121Y-123986434D01*
X154884692Y-123978643D01*
X154872230Y-123986651D01*
X154837557Y-124010845D01*
X154783052Y-124049502D01*
X154711094Y-124100900D01*
X154624060Y-124163317D01*
X154524331Y-124235031D01*
X154414284Y-124314319D01*
X154296299Y-124399459D01*
X154172753Y-124488729D01*
X154046026Y-124580406D01*
X153918497Y-124672769D01*
X153792543Y-124764095D01*
X153670543Y-124852662D01*
X153554877Y-124936748D01*
X153447922Y-125014630D01*
X153352058Y-125084586D01*
X153269663Y-125144895D01*
X153203115Y-125193832D01*
X153154795Y-125229678D01*
X153127079Y-125250708D01*
X153121694Y-125255127D01*
X153113285Y-125267509D01*
X152884584Y-125267509D01*
X152904705Y-125252532D01*
X152928688Y-125235091D01*
X152972512Y-125203307D01*
X153038523Y-125155415D01*
X153124290Y-125093178D01*
X153227385Y-125018361D01*
X153345378Y-124932725D01*
X153475839Y-124838035D01*
X153616339Y-124736054D01*
X153764447Y-124628545D01*
X153917736Y-124517271D01*
X154063928Y-124411145D01*
X154216366Y-124300507D01*
X154363311Y-124193905D01*
X154502657Y-124092865D01*
X154632296Y-123998912D01*
X154750119Y-123913573D01*
X154854021Y-123838372D01*
X154941893Y-123774837D01*
X154989860Y-123740207D01*
X155919497Y-123740207D01*
X156299736Y-123810622D01*
X156404359Y-123829911D01*
X156499773Y-123847339D01*
X156581683Y-123862135D01*
X156645797Y-123873528D01*
X156687823Y-123880748D01*
X156702790Y-123883012D01*
X156723348Y-123880925D01*
X156769661Y-123874034D01*
X156837567Y-123863030D01*
X156922902Y-123848603D01*
X157021503Y-123831445D01*
X157127261Y-123812597D01*
X157528917Y-123740207D01*
X157132133Y-123736154D01*
X156995904Y-123735134D01*
X156840433Y-123734586D01*
X156676896Y-123734509D01*
X156516468Y-123734902D01*
X156370323Y-123735768D01*
X156327423Y-123736154D01*
X155919497Y-123740207D01*
X154989860Y-123740207D01*
X155011628Y-123724492D01*
X155061119Y-123688864D01*
X155088258Y-123669478D01*
X155089294Y-123668749D01*
X155171665Y-123610925D01*
X158281499Y-123610925D01*
X159488402Y-124487060D01*
G37*
X159488402Y-124487060D02*
X159659803Y-124611613D01*
X159824921Y-124731848D01*
X159981998Y-124846470D01*
X160129275Y-124954187D01*
X160264997Y-125053704D01*
X160387406Y-125143728D01*
X160494744Y-125222967D01*
X160585253Y-125290125D01*
X160657177Y-125343910D01*
X160708759Y-125383029D01*
X160738240Y-125406188D01*
X160743810Y-125411042D01*
X160752483Y-125420941D01*
X160761872Y-125434988D01*
X160772570Y-125454895D01*
X160785175Y-125482376D01*
X160800279Y-125519148D01*
X160818479Y-125566923D01*
X160840370Y-125627417D01*
X160866547Y-125702343D01*
X160897604Y-125793416D01*
X160934137Y-125902350D01*
X160976740Y-126030860D01*
X161026010Y-126180660D01*
X161082540Y-126353465D01*
X161146926Y-126550988D01*
X161219763Y-126774944D01*
X161257134Y-126889972D01*
X161343182Y-127155546D01*
X161420827Y-127396535D01*
X161489922Y-127612469D01*
X161550322Y-127802878D01*
X161601881Y-127967294D01*
X161644453Y-128105248D01*
X161677891Y-128216271D01*
X161702050Y-128299892D01*
X161716784Y-128355644D01*
X161721946Y-128383058D01*
X161721952Y-128383483D01*
X161719707Y-128414200D01*
X161710703Y-128443583D01*
X161691529Y-128477848D01*
X161658780Y-128523212D01*
X161615098Y-128578397D01*
X161582049Y-128620769D01*
X161534025Y-128684290D01*
X161473697Y-128765331D01*
X161403738Y-128860264D01*
X161326820Y-128965462D01*
X161245615Y-129077295D01*
X161162794Y-129192136D01*
X161150687Y-129208992D01*
X161072234Y-129318034D01*
X160998823Y-129419584D01*
X160932446Y-129510924D01*
X160875095Y-129589334D01*
X160828762Y-129652094D01*
X160795440Y-129696483D01*
X160777120Y-129719783D01*
X160774637Y-129722439D01*
X160757651Y-129729281D01*
X160713812Y-129744624D01*
X160645260Y-129767767D01*
X160554135Y-129798013D01*
X160442580Y-129834662D01*
X160312735Y-129877016D01*
X160166742Y-129924375D01*
X160006740Y-129976040D01*
X159834871Y-130031313D01*
X159653275Y-130089495D01*
X159516562Y-130133159D01*
X158276982Y-130528544D01*
X156725604Y-130536807D01*
X155174227Y-130545070D01*
X154739018Y-130403113D01*
X155333928Y-130403113D01*
X155348783Y-130404060D01*
X155391928Y-130404965D01*
X155461237Y-130405818D01*
X155554580Y-130406611D01*
X155669830Y-130407332D01*
X155804858Y-130407972D01*
X155957536Y-130408521D01*
X156125736Y-130408969D01*
X156307330Y-130409305D01*
X156500189Y-130409521D01*
X156702186Y-130409607D01*
X156726360Y-130409608D01*
X156968515Y-130409547D01*
X157181913Y-130409350D01*
X157368216Y-130408992D01*
X157529086Y-130408448D01*
X157666186Y-130407694D01*
X157781177Y-130406705D01*
X157875722Y-130405456D01*
X157951482Y-130403924D01*
X158010120Y-130402084D01*
X158053298Y-130399911D01*
X158082677Y-130397381D01*
X158099921Y-130394469D01*
X158106690Y-130391151D01*
X158106630Y-130389268D01*
X158095927Y-130373984D01*
X158093132Y-130370087D01*
X158360634Y-130370087D01*
X158371602Y-130377184D01*
X158379646Y-130375350D01*
X158396823Y-130369624D01*
X158440671Y-130355240D01*
X158508928Y-130332936D01*
X158599333Y-130303448D01*
X158709623Y-130267513D01*
X158837537Y-130225866D01*
X158980813Y-130179245D01*
X159137191Y-130128386D01*
X159304407Y-130074027D01*
X159480201Y-130016902D01*
X159508759Y-130007624D01*
X159685217Y-129950275D01*
X159853090Y-129895669D01*
X160010161Y-129844530D01*
X160154212Y-129797582D01*
X160283025Y-129755550D01*
X160394381Y-129719159D01*
X160486064Y-129689131D01*
X160555856Y-129666193D01*
X160601538Y-129651067D01*
X160620892Y-129644479D01*
X160621407Y-129644258D01*
X160613092Y-129631832D01*
X160588228Y-129596677D01*
X160548163Y-129540660D01*
X160494245Y-129465650D01*
X160427823Y-129373515D01*
X160350244Y-129266121D01*
X160262859Y-129145337D01*
X160167014Y-129013030D01*
X160064057Y-128871069D01*
X159955339Y-128721320D01*
X159924239Y-128678512D01*
X159814087Y-128527049D01*
X159709152Y-128383028D01*
X159610795Y-128248302D01*
X159520379Y-128124723D01*
X159439263Y-128014143D01*
X159368811Y-127918414D01*
X159310382Y-127839388D01*
X159265338Y-127778918D01*
X159235042Y-127738855D01*
X159220853Y-127721052D01*
X159219952Y-127720308D01*
X159214520Y-127735313D01*
X159200556Y-127776787D01*
X159178863Y-127842249D01*
X159150245Y-127929219D01*
X159115509Y-128035215D01*
X159075457Y-128157756D01*
X159030895Y-128294360D01*
X158982628Y-128442548D01*
X158931459Y-128599838D01*
X158878195Y-128763748D01*
X158823638Y-128931798D01*
X158768594Y-129101507D01*
X158713867Y-129270393D01*
X158660263Y-129435976D01*
X158608585Y-129595774D01*
X158559638Y-129747306D01*
X158514228Y-129888092D01*
X158473157Y-130015650D01*
X158437232Y-130127499D01*
X158407256Y-130221158D01*
X158384035Y-130294145D01*
X158368372Y-130343981D01*
X158361073Y-130368183D01*
X158360634Y-130370087D01*
X158093132Y-130370087D01*
X158068719Y-130336052D01*
X158026411Y-130277408D01*
X157970409Y-130199993D01*
X157902118Y-130105744D01*
X157822943Y-129996600D01*
X157734290Y-129874498D01*
X157637565Y-129741378D01*
X157534172Y-129599178D01*
X157425518Y-129449835D01*
X157411268Y-129430255D01*
X157284403Y-129256013D01*
X157174175Y-129104824D01*
X157079362Y-128975118D01*
X156998741Y-128865325D01*
X156931089Y-128773874D01*
X156875185Y-128699193D01*
X156829805Y-128639713D01*
X156793728Y-128593863D01*
X156765730Y-128560071D01*
X156744590Y-128536768D01*
X156729086Y-128522383D01*
X156717994Y-128515344D01*
X156710092Y-128514081D01*
X156704158Y-128517023D01*
X156702079Y-128519008D01*
X156689314Y-128535274D01*
X156660695Y-128573504D01*
X156617897Y-128631390D01*
X156562598Y-128706622D01*
X156496473Y-128796893D01*
X156421199Y-128899893D01*
X156338453Y-129013314D01*
X156249910Y-129134848D01*
X156157247Y-129262185D01*
X156062140Y-129393017D01*
X155966267Y-129525036D01*
X155871303Y-129655933D01*
X155778924Y-129783399D01*
X155690808Y-129905127D01*
X155608629Y-130018806D01*
X155534066Y-130122129D01*
X155468794Y-130212787D01*
X155414490Y-130288472D01*
X155372829Y-130346874D01*
X155345489Y-130385686D01*
X155334146Y-130402598D01*
X155333928Y-130403113D01*
X154739018Y-130403113D01*
X153951737Y-130146317D01*
X152729246Y-129747564D01*
X152650686Y-129644626D01*
X152829984Y-129644626D01*
X152844897Y-129650059D01*
X152886058Y-129663988D01*
X152950776Y-129685538D01*
X153036362Y-129713831D01*
X153140123Y-129747991D01*
X153259371Y-129787140D01*
X153391413Y-129830403D01*
X153533560Y-129876903D01*
X153683120Y-129925762D01*
X153837404Y-129976105D01*
X153993720Y-130027053D01*
X154149377Y-130077731D01*
X154301686Y-130127262D01*
X154447956Y-130174768D01*
X154585495Y-130219374D01*
X154711613Y-130260203D01*
X154823620Y-130296377D01*
X154918825Y-130327020D01*
X154994537Y-130351255D01*
X155048066Y-130368206D01*
X155076720Y-130376995D01*
X155080795Y-130378056D01*
X155088718Y-130368170D01*
X155087102Y-130360177D01*
X155081526Y-130343211D01*
X155067256Y-130299379D01*
X155044966Y-130230754D01*
X155015326Y-130139411D01*
X154979011Y-130027425D01*
X154936692Y-129896870D01*
X154889041Y-129749821D01*
X154836732Y-129588351D01*
X154780436Y-129414537D01*
X154720826Y-129230451D01*
X154658574Y-129038169D01*
X154655804Y-129029612D01*
X154593534Y-128837513D01*
X154533849Y-128653896D01*
X154477421Y-128480797D01*
X154424920Y-128320250D01*
X154377016Y-128174290D01*
X154334381Y-128044951D01*
X154297686Y-127934269D01*
X154267600Y-127844277D01*
X154244796Y-127777010D01*
X154229943Y-127734504D01*
X154223713Y-127718792D01*
X154223628Y-127718746D01*
X154213503Y-127730828D01*
X154187327Y-127765277D01*
X154146748Y-127819815D01*
X154093415Y-127892163D01*
X154028975Y-127980043D01*
X153955079Y-128081178D01*
X153873374Y-128193289D01*
X153785508Y-128314099D01*
X153693131Y-128441328D01*
X153597890Y-128572700D01*
X153501434Y-128705936D01*
X153405412Y-128838758D01*
X153311472Y-128968889D01*
X153221263Y-129094049D01*
X153136432Y-129211961D01*
X153058630Y-129320347D01*
X152989503Y-129416929D01*
X152930700Y-129499429D01*
X152883871Y-129565569D01*
X152850663Y-129613070D01*
X152832725Y-129639655D01*
X152829984Y-129644626D01*
X152650686Y-129644626D01*
X152433411Y-129359933D01*
X152302726Y-129188652D01*
X152189296Y-129039798D01*
X152091902Y-128911637D01*
X152009321Y-128802432D01*
X151940332Y-128710446D01*
X151883713Y-128633945D01*
X151838244Y-128571191D01*
X151802704Y-128520448D01*
X151775870Y-128479981D01*
X151756521Y-128448053D01*
X151743437Y-128422929D01*
X151735396Y-128402871D01*
X151731177Y-128386144D01*
X151729580Y-128371209D01*
X151848305Y-128371209D01*
X151906655Y-128452344D01*
X151982426Y-128557479D01*
X152062015Y-128667511D01*
X152143457Y-128779758D01*
X152224787Y-128891540D01*
X152304042Y-129000176D01*
X152379258Y-129102985D01*
X152448469Y-129197288D01*
X152509713Y-129280402D01*
X152561024Y-129349648D01*
X152600438Y-129402344D01*
X152625992Y-129435811D01*
X152635720Y-129447367D01*
X152635740Y-129447356D01*
X152635259Y-129431923D01*
X152632582Y-129388599D01*
X152627887Y-129319818D01*
X152621355Y-129228016D01*
X152613163Y-129115628D01*
X152603491Y-128985089D01*
X152592516Y-128838833D01*
X152580417Y-128679297D01*
X152567374Y-128508914D01*
X152557345Y-128378915D01*
X152543611Y-128201049D01*
X152530574Y-128031424D01*
X152518425Y-127872580D01*
X152507357Y-127727057D01*
X152497559Y-127597394D01*
X152489223Y-127486132D01*
X152482542Y-127395809D01*
X152477706Y-127328967D01*
X152474907Y-127288144D01*
X152474262Y-127276434D01*
X152472366Y-127250191D01*
X152463952Y-127251943D01*
X152451384Y-127267721D01*
X152439453Y-127287220D01*
X152414786Y-127330466D01*
X152379061Y-127394415D01*
X152333956Y-127476028D01*
X152281152Y-127572262D01*
X152222325Y-127680076D01*
X152159155Y-127796429D01*
X152138757Y-127834120D01*
X151848305Y-128371209D01*
X151729580Y-128371209D01*
X151729558Y-128371012D01*
X151729314Y-128359036D01*
X151733892Y-128338962D01*
X151747116Y-128292410D01*
X151768206Y-128221825D01*
X151796377Y-128129649D01*
X151830848Y-128018326D01*
X151870835Y-127890300D01*
X151915556Y-127748013D01*
X151930908Y-127699405D01*
X152063868Y-127699405D01*
X152070624Y-127690298D01*
X152089352Y-127658575D01*
X152117742Y-127608480D01*
X152153484Y-127544253D01*
X152194268Y-127470139D01*
X152237783Y-127390380D01*
X152281720Y-127309217D01*
X152323768Y-127230893D01*
X152361617Y-127159651D01*
X152366590Y-127150143D01*
X152585139Y-127150143D01*
X152588526Y-127196584D01*
X152591149Y-127225808D01*
X152595760Y-127281478D01*
X152602135Y-127360673D01*
X152610050Y-127460468D01*
X152619281Y-127577941D01*
X152629604Y-127710170D01*
X152640795Y-127854232D01*
X152652629Y-128007204D01*
X152664884Y-128166164D01*
X152677334Y-128328189D01*
X152689755Y-128490356D01*
X152701924Y-128649744D01*
X152713616Y-128803428D01*
X152724608Y-128948486D01*
X152734675Y-129081996D01*
X152743594Y-129201036D01*
X152751139Y-129302682D01*
X152757088Y-129384011D01*
X152761215Y-129442102D01*
X152763298Y-129474031D01*
X152763509Y-129478965D01*
X152769098Y-129493350D01*
X152776907Y-129488668D01*
X152787797Y-129474305D01*
X152815124Y-129437254D01*
X152857473Y-129379459D01*
X152913428Y-129302861D01*
X152981575Y-129209403D01*
X153060498Y-129101027D01*
X153148782Y-128979674D01*
X153245012Y-128847289D01*
X153347773Y-128705812D01*
X153455648Y-128557186D01*
X153461338Y-128549343D01*
X153569160Y-128400584D01*
X153671621Y-128258931D01*
X153767339Y-128126313D01*
X153854930Y-128004660D01*
X153933010Y-127895904D01*
X154000197Y-127801975D01*
X154055106Y-127724802D01*
X154089283Y-127676343D01*
X154351635Y-127676343D01*
X154355872Y-127690931D01*
X154368889Y-127732409D01*
X154390028Y-127798745D01*
X154418636Y-127887910D01*
X154454054Y-127997874D01*
X154495629Y-128126607D01*
X154542705Y-128272078D01*
X154594624Y-128432259D01*
X154650733Y-128605118D01*
X154710376Y-128788626D01*
X154772895Y-128980752D01*
X154780049Y-129002721D01*
X154842906Y-129195794D01*
X154903021Y-129380544D01*
X154959731Y-129554934D01*
X155012377Y-129716925D01*
X155060297Y-129864479D01*
X155102829Y-129995560D01*
X155139313Y-130108128D01*
X155169088Y-130200146D01*
X155191491Y-130269576D01*
X155205862Y-130314381D01*
X155211539Y-130332521D01*
X155211605Y-130332799D01*
X155212794Y-130334431D01*
X155216544Y-130332119D01*
X155224000Y-130324314D01*
X155236310Y-130309467D01*
X155254619Y-130286030D01*
X155280074Y-130252454D01*
X155313821Y-130207189D01*
X155357008Y-130148688D01*
X155410779Y-130075401D01*
X155476283Y-129985779D01*
X155554665Y-129878273D01*
X155647071Y-129751336D01*
X155754649Y-129603417D01*
X155878544Y-129432968D01*
X155925938Y-129367751D01*
X156034956Y-129217626D01*
X156138629Y-129074654D01*
X156235586Y-128940738D01*
X156324456Y-128817781D01*
X156403870Y-128707685D01*
X156472457Y-128612353D01*
X156528846Y-128533689D01*
X156571667Y-128473593D01*
X156599549Y-128433969D01*
X156611044Y-128416837D01*
X156839676Y-128416837D01*
X156848400Y-128431023D01*
X156873622Y-128467794D01*
X156913913Y-128525158D01*
X156967848Y-128601120D01*
X157033999Y-128693689D01*
X157110940Y-128800871D01*
X157197244Y-128920674D01*
X157291484Y-129051104D01*
X157392233Y-129190170D01*
X157473398Y-129301950D01*
X157606823Y-129485528D01*
X157723490Y-129646040D01*
X157824532Y-129785022D01*
X157911081Y-129904007D01*
X157984271Y-130004530D01*
X158045235Y-130088128D01*
X158095106Y-130156333D01*
X158135018Y-130210683D01*
X158166104Y-130252710D01*
X158189497Y-130283950D01*
X158206330Y-130305939D01*
X158217736Y-130320210D01*
X158224849Y-130328300D01*
X158228802Y-130331742D01*
X158230728Y-130332071D01*
X158231760Y-130330823D01*
X158232395Y-130329982D01*
X158237860Y-130314969D01*
X158252034Y-130273064D01*
X158274247Y-130206313D01*
X158303828Y-130116762D01*
X158340107Y-130006455D01*
X158382413Y-129877439D01*
X158430075Y-129731758D01*
X158482423Y-129571459D01*
X158538787Y-129398585D01*
X158598494Y-129215184D01*
X158660875Y-129023300D01*
X158664964Y-129010714D01*
X158727390Y-128818288D01*
X158786976Y-128634122D01*
X158843067Y-128460268D01*
X158895008Y-128298780D01*
X158942143Y-128151711D01*
X158983818Y-128021115D01*
X159019377Y-127909043D01*
X159048167Y-127817549D01*
X159069530Y-127748686D01*
X159082814Y-127704507D01*
X159087361Y-127687065D01*
X159087340Y-127686908D01*
X159072545Y-127689693D01*
X159031249Y-127701218D01*
X158965852Y-127720732D01*
X158878753Y-127747483D01*
X158772351Y-127780719D01*
X158649047Y-127819689D01*
X158511238Y-127863641D01*
X158361326Y-127911824D01*
X158201709Y-127963486D01*
X158132491Y-127985995D01*
X157963696Y-128040938D01*
X157799170Y-128094442D01*
X157641906Y-128145536D01*
X157494900Y-128193250D01*
X157361148Y-128236612D01*
X157243645Y-128274652D01*
X157145387Y-128306398D01*
X157069369Y-128330880D01*
X157018587Y-128347126D01*
X157010784Y-128349598D01*
X156944057Y-128371721D01*
X156889502Y-128391811D01*
X156852812Y-128407629D01*
X156839676Y-128416837D01*
X156611044Y-128416837D01*
X156611123Y-128416720D01*
X156611370Y-128416156D01*
X156597367Y-128410480D01*
X156557097Y-128396310D01*
X156493235Y-128374523D01*
X156408453Y-128345992D01*
X156305427Y-128311594D01*
X156186830Y-128272204D01*
X156055335Y-128228698D01*
X155913617Y-128181951D01*
X155764349Y-128132837D01*
X155610205Y-128082234D01*
X155453860Y-128031015D01*
X155297986Y-127980057D01*
X155145259Y-127930234D01*
X154998351Y-127882423D01*
X154859936Y-127837498D01*
X154732689Y-127796335D01*
X154619283Y-127759809D01*
X154522392Y-127728797D01*
X154444690Y-127704172D01*
X154388851Y-127686811D01*
X154357548Y-127677589D01*
X154351635Y-127676343D01*
X154089283Y-127676343D01*
X154096355Y-127666317D01*
X154122559Y-127628450D01*
X154132337Y-127613131D01*
X154132371Y-127612967D01*
X154118429Y-127606542D01*
X154078771Y-127591893D01*
X154016644Y-127570089D01*
X153979788Y-127557451D01*
X154408063Y-127557451D01*
X154433991Y-127566393D01*
X154485146Y-127583445D01*
X154558812Y-127607728D01*
X154652273Y-127638363D01*
X154762814Y-127674472D01*
X154887719Y-127715174D01*
X155024271Y-127759592D01*
X155169756Y-127806845D01*
X155321458Y-127856056D01*
X155476660Y-127906344D01*
X155632647Y-127956831D01*
X155786703Y-128006639D01*
X155936113Y-128054887D01*
X156078160Y-128100697D01*
X156210130Y-128143190D01*
X156329305Y-128181487D01*
X156432971Y-128214708D01*
X156518412Y-128241976D01*
X156582912Y-128262410D01*
X156623755Y-128275132D01*
X156638149Y-128279273D01*
X156641773Y-128273764D01*
X156644936Y-128255718D01*
X156647665Y-128223463D01*
X156649989Y-128175327D01*
X156651932Y-128109638D01*
X156653522Y-128024725D01*
X156654787Y-127918914D01*
X156655752Y-127790533D01*
X156656444Y-127637911D01*
X156656890Y-127459376D01*
X156657118Y-127253255D01*
X156657160Y-127095145D01*
X156794048Y-127095145D01*
X156794074Y-127313424D01*
X156794182Y-127503250D01*
X156794418Y-127666588D01*
X156794826Y-127805403D01*
X156795450Y-127921661D01*
X156796337Y-128017326D01*
X156797530Y-128094365D01*
X156799074Y-128154743D01*
X156801015Y-128200425D01*
X156803397Y-128233377D01*
X156806265Y-128255564D01*
X156809663Y-128268952D01*
X156813638Y-128275506D01*
X156818232Y-128277192D01*
X156821011Y-128276763D01*
X156839503Y-128271040D01*
X156884632Y-128256671D01*
X156954103Y-128234396D01*
X157045620Y-128204957D01*
X157156886Y-128169093D01*
X157285605Y-128127545D01*
X157429481Y-128081055D01*
X157586216Y-128030363D01*
X157753516Y-127976209D01*
X157929083Y-127919336D01*
X157946283Y-127913762D01*
X158121769Y-127856768D01*
X158288601Y-127802351D01*
X158444553Y-127751250D01*
X158587399Y-127704206D01*
X158714914Y-127661960D01*
X158824872Y-127625251D01*
X158886726Y-127604378D01*
X159306357Y-127604378D01*
X159314302Y-127616960D01*
X159338813Y-127652239D01*
X159378534Y-127708331D01*
X159432111Y-127783353D01*
X159498188Y-127875420D01*
X159575411Y-127982650D01*
X159662426Y-128103159D01*
X159757877Y-128235063D01*
X159860409Y-128376479D01*
X159968669Y-128525522D01*
X159990754Y-128555895D01*
X160680027Y-129503668D01*
X160685007Y-129438855D01*
X160809204Y-129438855D01*
X160809686Y-129443588D01*
X160812321Y-129444374D01*
X160818607Y-129439248D01*
X160830042Y-129426249D01*
X160848126Y-129403414D01*
X160874356Y-129368778D01*
X160910232Y-129320380D01*
X160957251Y-129256256D01*
X161016911Y-129174443D01*
X161090713Y-129072979D01*
X161180153Y-128949899D01*
X161232794Y-128877456D01*
X161600143Y-128371950D01*
X161301545Y-127820390D01*
X161236907Y-127701197D01*
X161176518Y-127590229D01*
X161121961Y-127490366D01*
X161074818Y-127404488D01*
X161036673Y-127335476D01*
X161009110Y-127286211D01*
X160993712Y-127259574D01*
X160991202Y-127255768D01*
X160983914Y-127262592D01*
X160976199Y-127293104D01*
X160969874Y-127339421D01*
X160967056Y-127371227D01*
X160962288Y-127429011D01*
X160955802Y-127509718D01*
X160947833Y-127610295D01*
X160938616Y-127727688D01*
X160928384Y-127858845D01*
X160917372Y-128000711D01*
X160905813Y-128150233D01*
X160893943Y-128304357D01*
X160881995Y-128460030D01*
X160870203Y-128614199D01*
X160858802Y-128763811D01*
X160848026Y-128905810D01*
X160838108Y-129037145D01*
X160829284Y-129154761D01*
X160821787Y-129255606D01*
X160815852Y-129336624D01*
X160811712Y-129394765D01*
X160809602Y-129426972D01*
X160809377Y-129432137D01*
X160809204Y-129438855D01*
X160685007Y-129438855D01*
X160771731Y-128310201D01*
X160785972Y-128122765D01*
X160799222Y-127944240D01*
X160811329Y-127776928D01*
X160822141Y-127623130D01*
X160831507Y-127485149D01*
X160839275Y-127365286D01*
X160845292Y-127265842D01*
X160849408Y-127189119D01*
X160851469Y-127137419D01*
X160851325Y-127113042D01*
X160850822Y-127111399D01*
X160835169Y-127115185D01*
X160793846Y-127127309D01*
X160730119Y-127146730D01*
X160647256Y-127172404D01*
X160548521Y-127203289D01*
X160437182Y-127238343D01*
X160316506Y-127276522D01*
X160189757Y-127316785D01*
X160060204Y-127358088D01*
X159931111Y-127399389D01*
X159805746Y-127439645D01*
X159687376Y-127477814D01*
X159579266Y-127512853D01*
X159484682Y-127543720D01*
X159406892Y-127569372D01*
X159349161Y-127588766D01*
X159314757Y-127600860D01*
X159306357Y-127604378D01*
X158886726Y-127604378D01*
X158915047Y-127594821D01*
X158983213Y-127571409D01*
X159027145Y-127555757D01*
X159044616Y-127548603D01*
X159044828Y-127548351D01*
X159032902Y-127538650D01*
X158998483Y-127512615D01*
X158943689Y-127471794D01*
X158870637Y-127417732D01*
X158781444Y-127351975D01*
X158678228Y-127276071D01*
X158563107Y-127191566D01*
X158438197Y-127100005D01*
X158305615Y-127002936D01*
X158167480Y-126901904D01*
X158025908Y-126798456D01*
X157883016Y-126694138D01*
X157740923Y-126590498D01*
X157601745Y-126489080D01*
X157467600Y-126391432D01*
X157340604Y-126299099D01*
X157222876Y-126213629D01*
X157116533Y-126136567D01*
X157023691Y-126069460D01*
X156946469Y-126013854D01*
X156886983Y-125971296D01*
X156847351Y-125943332D01*
X156844341Y-125941245D01*
X156794048Y-125906475D01*
X156794048Y-127095145D01*
X156657160Y-127095145D01*
X156657161Y-127093021D01*
X156657074Y-126867628D01*
X156656792Y-126670982D01*
X156656291Y-126501413D01*
X156655542Y-126357248D01*
X156654518Y-126236817D01*
X156653193Y-126138448D01*
X156651539Y-126060470D01*
X156649530Y-126001212D01*
X156647138Y-125959003D01*
X156644336Y-125932171D01*
X156641098Y-125919045D01*
X156638149Y-125917304D01*
X156623300Y-125927754D01*
X156585611Y-125954804D01*
X156526853Y-125997174D01*
X156448794Y-126053582D01*
X156353204Y-126122747D01*
X156241851Y-126203388D01*
X156116505Y-126294223D01*
X155978936Y-126393971D01*
X155830911Y-126501352D01*
X155674201Y-126615083D01*
X155510574Y-126733884D01*
X155503152Y-126739274D01*
X155329416Y-126865690D01*
X155166186Y-126984950D01*
X155014914Y-127095968D01*
X154877053Y-127197661D01*
X154754053Y-127288943D01*
X154647366Y-127368729D01*
X154558444Y-127435937D01*
X154488739Y-127489480D01*
X154439702Y-127528275D01*
X154412784Y-127551236D01*
X154408063Y-127557451D01*
X153979788Y-127557451D01*
X153935298Y-127542196D01*
X153837982Y-127509281D01*
X153727944Y-127472411D01*
X153608435Y-127432652D01*
X153482701Y-127391072D01*
X153353993Y-127348738D01*
X153225560Y-127306716D01*
X153100650Y-127266074D01*
X152982512Y-127227877D01*
X152874396Y-127193194D01*
X152779550Y-127163091D01*
X152701223Y-127138635D01*
X152642664Y-127120892D01*
X152607122Y-127110930D01*
X152598054Y-127109129D01*
X152587763Y-127118682D01*
X152585139Y-127150143D01*
X152366590Y-127150143D01*
X152392957Y-127099733D01*
X152415478Y-127055381D01*
X152422562Y-127040686D01*
X152436025Y-127005853D01*
X152442333Y-126982843D01*
X152636246Y-126982843D01*
X152652861Y-126988235D01*
X152695639Y-127002151D01*
X152761817Y-127023693D01*
X152848634Y-127051962D01*
X152953331Y-127086058D01*
X153073145Y-127125083D01*
X153205316Y-127168137D01*
X153347083Y-127214322D01*
X153394706Y-127229837D01*
X153539483Y-127276856D01*
X153676002Y-127320903D01*
X153801440Y-127361089D01*
X153912972Y-127396522D01*
X154007775Y-127426311D01*
X154083025Y-127449564D01*
X154135897Y-127465392D01*
X154163569Y-127472902D01*
X154166592Y-127473403D01*
X154171525Y-127472250D01*
X154175810Y-127467165D01*
X154179492Y-127456156D01*
X154180945Y-127447350D01*
X154314886Y-127447350D01*
X154364317Y-127410303D01*
X154383823Y-127395963D01*
X154426081Y-127365102D01*
X154489229Y-127319074D01*
X154571404Y-127259236D01*
X154670746Y-127186939D01*
X154785391Y-127103540D01*
X154913479Y-127010392D01*
X155053148Y-126908850D01*
X155202536Y-126800269D01*
X155359781Y-126686001D01*
X155499899Y-126584201D01*
X155660781Y-126467165D01*
X155814160Y-126355275D01*
X155958310Y-126249809D01*
X156091503Y-126152046D01*
X156212010Y-126063264D01*
X156318106Y-125984741D01*
X156408062Y-125917754D01*
X156480151Y-125863584D01*
X156532646Y-125823507D01*
X156547767Y-125811523D01*
X156889254Y-125811523D01*
X156904097Y-125823056D01*
X156941787Y-125851152D01*
X157000551Y-125894515D01*
X157078612Y-125951845D01*
X157174196Y-126021846D01*
X157285527Y-126103220D01*
X157410830Y-126194669D01*
X157548330Y-126294896D01*
X157696251Y-126402604D01*
X157852819Y-126516495D01*
X158016257Y-126635271D01*
X158018419Y-126636841D01*
X159128718Y-127443343D01*
X159132696Y-126851499D01*
X159133556Y-126686452D01*
X159134100Y-126500315D01*
X159134315Y-126314144D01*
X159258000Y-126314144D01*
X159258000Y-127487278D01*
X159368269Y-127450945D01*
X159405750Y-127438677D01*
X159468634Y-127418191D01*
X159553385Y-127390635D01*
X159656466Y-127357158D01*
X159774338Y-127318908D01*
X159903464Y-127277033D01*
X160040308Y-127232683D01*
X160140155Y-127200339D01*
X160275890Y-127156390D01*
X160402731Y-127115342D01*
X160517748Y-127078141D01*
X160618012Y-127045734D01*
X160700595Y-127019067D01*
X160762565Y-126999086D01*
X160800994Y-126986738D01*
X160812944Y-126982957D01*
X160804586Y-126971388D01*
X160778341Y-126938766D01*
X160736009Y-126887227D01*
X160679390Y-126818906D01*
X160610284Y-126735938D01*
X160530493Y-126640459D01*
X160441816Y-126534604D01*
X160346054Y-126420509D01*
X160245007Y-126300309D01*
X160140477Y-126176140D01*
X160034262Y-126050137D01*
X159928164Y-125924436D01*
X159823983Y-125801171D01*
X159723519Y-125682480D01*
X159628573Y-125570496D01*
X159540945Y-125467356D01*
X159462436Y-125375195D01*
X159394846Y-125296149D01*
X159339975Y-125232352D01*
X159299625Y-125185941D01*
X159275595Y-125159051D01*
X159272181Y-125155458D01*
X159269507Y-125167625D01*
X159267074Y-125209013D01*
X159264897Y-125278424D01*
X159262991Y-125374661D01*
X159261370Y-125496526D01*
X159260050Y-125642822D01*
X159259043Y-125812351D01*
X159258366Y-126003916D01*
X159258033Y-126216320D01*
X159258000Y-126314144D01*
X159134315Y-126314144D01*
X159134329Y-126302416D01*
X159134242Y-126102083D01*
X159133840Y-125908643D01*
X159133122Y-125731425D01*
X159132696Y-125659394D01*
X159129030Y-125106164D01*
X159401044Y-125106164D01*
X159410024Y-125118130D01*
X159436924Y-125150923D01*
X159479850Y-125202329D01*
X159536910Y-125270130D01*
X159606210Y-125352112D01*
X159685858Y-125446058D01*
X159773959Y-125549753D01*
X159868621Y-125660980D01*
X159967950Y-125777524D01*
X160070054Y-125897168D01*
X160173039Y-126017697D01*
X160275011Y-126136895D01*
X160374079Y-126252546D01*
X160468347Y-126362434D01*
X160555924Y-126464343D01*
X160634916Y-126556057D01*
X160703430Y-126635360D01*
X160759572Y-126700037D01*
X160801450Y-126747871D01*
X160827170Y-126776646D01*
X160834926Y-126784458D01*
X160834060Y-126768815D01*
X160829534Y-126726184D01*
X160821737Y-126659724D01*
X160811059Y-126572595D01*
X160797891Y-126467957D01*
X160782623Y-126348968D01*
X160765644Y-126218790D01*
X160761427Y-126186810D01*
X160890098Y-126186810D01*
X160890527Y-126202770D01*
X160894802Y-126244022D01*
X160902253Y-126305776D01*
X160912213Y-126383244D01*
X160924014Y-126471634D01*
X160936986Y-126566157D01*
X160950463Y-126662023D01*
X160963775Y-126754441D01*
X160976254Y-126838623D01*
X160987233Y-126909779D01*
X160996041Y-126963117D01*
X161002013Y-126993849D01*
X161003345Y-126998471D01*
X161014270Y-127021417D01*
X161036600Y-127064958D01*
X161068035Y-127124844D01*
X161106276Y-127196821D01*
X161149023Y-127276639D01*
X161193976Y-127360044D01*
X161238836Y-127442786D01*
X161281303Y-127520611D01*
X161319077Y-127589268D01*
X161349860Y-127644506D01*
X161371352Y-127682071D01*
X161381252Y-127697713D01*
X161381609Y-127697894D01*
X161377789Y-127683130D01*
X161365389Y-127642142D01*
X161345268Y-127577628D01*
X161318284Y-127492282D01*
X161285293Y-127388800D01*
X161247153Y-127269878D01*
X161204723Y-127138212D01*
X161158859Y-126996497D01*
X161139955Y-126938251D01*
X161092851Y-126793561D01*
X161048551Y-126658122D01*
X161007940Y-126534596D01*
X160971903Y-126425642D01*
X160941325Y-126333923D01*
X160917090Y-126262098D01*
X160900083Y-126212828D01*
X160891188Y-126188774D01*
X160890098Y-126186810D01*
X160761427Y-126186810D01*
X160756761Y-126151440D01*
X160738820Y-126016824D01*
X160721922Y-125891804D01*
X160706514Y-125779549D01*
X160693043Y-125683228D01*
X160681952Y-125606011D01*
X160673688Y-125551066D01*
X160668698Y-125521562D01*
X160667582Y-125517354D01*
X160652395Y-125511546D01*
X160611988Y-125497666D01*
X160549938Y-125476876D01*
X160469823Y-125450336D01*
X160375219Y-125419209D01*
X160269703Y-125384655D01*
X160156853Y-125347836D01*
X160040246Y-125309913D01*
X159923458Y-125272048D01*
X159810066Y-125235401D01*
X159703648Y-125201134D01*
X159607781Y-125170409D01*
X159526041Y-125144386D01*
X159462006Y-125124227D01*
X159419253Y-125111093D01*
X159401358Y-125106146D01*
X159401044Y-125106164D01*
X159129030Y-125106164D01*
X159128718Y-125059134D01*
X157999554Y-125425921D01*
X157785066Y-125495709D01*
X157598005Y-125556846D01*
X157436798Y-125609877D01*
X157299878Y-125655346D01*
X157185673Y-125693799D01*
X157092614Y-125725782D01*
X157019130Y-125751838D01*
X156963652Y-125772515D01*
X156924611Y-125788357D01*
X156900435Y-125799908D01*
X156889555Y-125807715D01*
X156889254Y-125811523D01*
X156547767Y-125811523D01*
X156563819Y-125798802D01*
X156572174Y-125790745D01*
X156549963Y-125783596D01*
X156501714Y-125767990D01*
X156430239Y-125744842D01*
X156338351Y-125715063D01*
X156228865Y-125679567D01*
X156104592Y-125639267D01*
X155968347Y-125595076D01*
X155822943Y-125547906D01*
X155671193Y-125498671D01*
X155515910Y-125448284D01*
X155359907Y-125397657D01*
X155205998Y-125347704D01*
X155056996Y-125299337D01*
X154915715Y-125253469D01*
X154784967Y-125211014D01*
X154667565Y-125172884D01*
X154566324Y-125139992D01*
X154484056Y-125113252D01*
X154423574Y-125093575D01*
X154387692Y-125081876D01*
X154379527Y-125079194D01*
X154314886Y-125057682D01*
X154314886Y-127447350D01*
X154180945Y-127447350D01*
X154182616Y-127437231D01*
X154185229Y-127408396D01*
X154187375Y-127367662D01*
X154189100Y-127313034D01*
X154190450Y-127242522D01*
X154191469Y-127154134D01*
X154192204Y-127045876D01*
X154192700Y-126915758D01*
X154193002Y-126761787D01*
X154193156Y-126581970D01*
X154193207Y-126374317D01*
X154193209Y-126307169D01*
X154193209Y-125140179D01*
X154156999Y-125177858D01*
X154132074Y-125205181D01*
X154090951Y-125251956D01*
X154035440Y-125316037D01*
X153967347Y-125395279D01*
X153888480Y-125487536D01*
X153800648Y-125590662D01*
X153705658Y-125702511D01*
X153605318Y-125820937D01*
X153501436Y-125943795D01*
X153395820Y-126068939D01*
X153290277Y-126194223D01*
X153186617Y-126317502D01*
X153086646Y-126436628D01*
X152992172Y-126549458D01*
X152905004Y-126653844D01*
X152826950Y-126747641D01*
X152759816Y-126828704D01*
X152705411Y-126894886D01*
X152665543Y-126944042D01*
X152642021Y-126974026D01*
X152636246Y-126982843D01*
X152442333Y-126982843D01*
X152448886Y-126958946D01*
X152461865Y-126896149D01*
X152475683Y-126813644D01*
X152483674Y-126758548D01*
X152612143Y-126758548D01*
X152615728Y-126782236D01*
X152624845Y-126781362D01*
X152636687Y-126767648D01*
X152666619Y-126732629D01*
X152713040Y-126678185D01*
X152774350Y-126606198D01*
X152848948Y-126518549D01*
X152935234Y-126417119D01*
X153031606Y-126303789D01*
X153136465Y-126180440D01*
X153248209Y-126048953D01*
X153340622Y-125940185D01*
X153456208Y-125804003D01*
X153565734Y-125674713D01*
X153667650Y-125554160D01*
X153760405Y-125444192D01*
X153842450Y-125346652D01*
X153912233Y-125263389D01*
X153968204Y-125196246D01*
X154008813Y-125147069D01*
X154032509Y-125117706D01*
X154038238Y-125109710D01*
X154023156Y-125113320D01*
X153982807Y-125125345D01*
X153920791Y-125144611D01*
X153840710Y-125169943D01*
X153746164Y-125200167D01*
X153640755Y-125234109D01*
X153528083Y-125270594D01*
X153411750Y-125308447D01*
X153295355Y-125346495D01*
X153182500Y-125383563D01*
X153076786Y-125418476D01*
X152981813Y-125450061D01*
X152901183Y-125477142D01*
X152838497Y-125498546D01*
X152797355Y-125513098D01*
X152781358Y-125519623D01*
X152781347Y-125519634D01*
X152777652Y-125535897D01*
X152770576Y-125578444D01*
X152760649Y-125643391D01*
X152748402Y-125726854D01*
X152734365Y-125824950D01*
X152719068Y-125933796D01*
X152703042Y-126049508D01*
X152686816Y-126168204D01*
X152670923Y-126285998D01*
X152655891Y-126399009D01*
X152642251Y-126503353D01*
X152630533Y-126595146D01*
X152621269Y-126670506D01*
X152614988Y-126725548D01*
X152612220Y-126756389D01*
X152612143Y-126758548D01*
X152483674Y-126758548D01*
X152491062Y-126707617D01*
X152504464Y-126607213D01*
X152518005Y-126504260D01*
X152530737Y-126409649D01*
X152541999Y-126328138D01*
X152551125Y-126264485D01*
X152557452Y-126223449D01*
X152559600Y-126211795D01*
X152562974Y-126187034D01*
X152558999Y-126183059D01*
X152552919Y-126198580D01*
X152538584Y-126239757D01*
X152517071Y-126303292D01*
X152489456Y-126385889D01*
X152456817Y-126484251D01*
X152420229Y-126595081D01*
X152380769Y-126715081D01*
X152339513Y-126840956D01*
X152297539Y-126969407D01*
X152255923Y-127097139D01*
X152215741Y-127220853D01*
X152178070Y-127337254D01*
X152143986Y-127443044D01*
X152114566Y-127534926D01*
X152090887Y-127609603D01*
X152074024Y-127663779D01*
X152065056Y-127694156D01*
X152063868Y-127699405D01*
X151930908Y-127699405D01*
X151964228Y-127593911D01*
X152016069Y-127430435D01*
X152070296Y-127260029D01*
X152126126Y-127085137D01*
X152182777Y-126908202D01*
X152239466Y-126731667D01*
X152295411Y-126557977D01*
X152349828Y-126389574D01*
X152401935Y-126228902D01*
X152450950Y-126078404D01*
X152496089Y-125940524D01*
X152536571Y-125817705D01*
X152571612Y-125712390D01*
X152600431Y-125627024D01*
X152622243Y-125564049D01*
X152636267Y-125525909D01*
X152638615Y-125520190D01*
X152658696Y-125478859D01*
X152683139Y-125441470D01*
X152715953Y-125404083D01*
X152761146Y-125362757D01*
X152822727Y-125313554D01*
X152884584Y-125267509D01*
X153113285Y-125267509D01*
X153115338Y-125268769D01*
X153131144Y-125264221D01*
X153172629Y-125251268D01*
X153236558Y-125230948D01*
X153319694Y-125204300D01*
X153418799Y-125172359D01*
X153530637Y-125136165D01*
X153651972Y-125096756D01*
X153661598Y-125093624D01*
X153783806Y-125053639D01*
X153896925Y-125016222D01*
X153997681Y-124982485D01*
X154046306Y-124965951D01*
X154462767Y-124965951D01*
X154478613Y-124972240D01*
X154520651Y-124986993D01*
X154586131Y-125009309D01*
X154672303Y-125038290D01*
X154776416Y-125073033D01*
X154895722Y-125112639D01*
X155027469Y-125156209D01*
X155168908Y-125202840D01*
X155317289Y-125251634D01*
X155469862Y-125301690D01*
X155623876Y-125352107D01*
X155776582Y-125401986D01*
X155925230Y-125450426D01*
X156067070Y-125496527D01*
X156199352Y-125539388D01*
X156319325Y-125578110D01*
X156424240Y-125611791D01*
X156511347Y-125639532D01*
X156577895Y-125660433D01*
X156621135Y-125673593D01*
X156638149Y-125678108D01*
X156642470Y-125672500D01*
X156646128Y-125653698D01*
X156649171Y-125619708D01*
X156651645Y-125568535D01*
X156653596Y-125498184D01*
X156655071Y-125406659D01*
X156656117Y-125291968D01*
X156656780Y-125152114D01*
X156657107Y-124985103D01*
X156657161Y-124864088D01*
X156657130Y-124735752D01*
X156778293Y-124735752D01*
X156778526Y-124871523D01*
X156779110Y-125007143D01*
X156780036Y-125139219D01*
X156781293Y-125264356D01*
X156782871Y-125379158D01*
X156784761Y-125480230D01*
X156786952Y-125564177D01*
X156789436Y-125627604D01*
X156792201Y-125667117D01*
X156794972Y-125679428D01*
X156811705Y-125674839D01*
X156855080Y-125661560D01*
X156922814Y-125640320D01*
X157012625Y-125611850D01*
X157122231Y-125576879D01*
X157249348Y-125536138D01*
X157391696Y-125490356D01*
X157546991Y-125440264D01*
X157712951Y-125386591D01*
X157887294Y-125330068D01*
X157893864Y-125327935D01*
X158068382Y-125271196D01*
X158234481Y-125217025D01*
X158389890Y-125166175D01*
X158532339Y-125119397D01*
X158659556Y-125077440D01*
X158769270Y-125041056D01*
X158859211Y-125010997D01*
X158927108Y-124988012D01*
X158970690Y-124972853D01*
X158987685Y-124966272D01*
X158987777Y-124966200D01*
X158975499Y-124959355D01*
X158937660Y-124942041D01*
X158876844Y-124915333D01*
X158795633Y-124880305D01*
X158696610Y-124838032D01*
X158582358Y-124789590D01*
X158455461Y-124736053D01*
X158318501Y-124678496D01*
X158174060Y-124617995D01*
X158024723Y-124555624D01*
X157873071Y-124492458D01*
X157721688Y-124429573D01*
X157573157Y-124368043D01*
X157430060Y-124308943D01*
X157294981Y-124253348D01*
X157170502Y-124202333D01*
X157059206Y-124156973D01*
X156963677Y-124118344D01*
X156886497Y-124087520D01*
X156830249Y-124065575D01*
X156797516Y-124053586D01*
X156790245Y-124051618D01*
X156787315Y-124066361D01*
X156784816Y-124108116D01*
X156782736Y-124173486D01*
X156781066Y-124259078D01*
X156779797Y-124361496D01*
X156778918Y-124477344D01*
X156778420Y-124603228D01*
X156778293Y-124735752D01*
X156657130Y-124735752D01*
X156657117Y-124685762D01*
X156656934Y-124535501D01*
X156656532Y-124410950D01*
X156655836Y-124309755D01*
X156654766Y-124229562D01*
X156653245Y-124168016D01*
X156651196Y-124122763D01*
X156648540Y-124091450D01*
X156645200Y-124071720D01*
X156641098Y-124061221D01*
X156636156Y-124057598D01*
X156630545Y-124058405D01*
X156587611Y-124074739D01*
X156522276Y-124100619D01*
X156437129Y-124134962D01*
X156334757Y-124176684D01*
X156217748Y-124224702D01*
X156088690Y-124277932D01*
X155950171Y-124335292D01*
X155804778Y-124395697D01*
X155655099Y-124458065D01*
X155503722Y-124521311D01*
X155353235Y-124584353D01*
X155206226Y-124646107D01*
X155065282Y-124705490D01*
X154932991Y-124761418D01*
X154811942Y-124812808D01*
X154704721Y-124858577D01*
X154613917Y-124897641D01*
X154542118Y-124928916D01*
X154491911Y-124951320D01*
X154465884Y-124963769D01*
X154462767Y-124965951D01*
X154046306Y-124965951D01*
X154082798Y-124953543D01*
X154149001Y-124930510D01*
X154193018Y-124914500D01*
X154211571Y-124906627D01*
X154211822Y-124906420D01*
X154225366Y-124889639D01*
X154253686Y-124852209D01*
X154284150Y-124811209D01*
X154449069Y-124811209D01*
X154451421Y-124811913D01*
X154458688Y-124810313D01*
X154472734Y-124805668D01*
X154495425Y-124797236D01*
X154528624Y-124784275D01*
X154574196Y-124766043D01*
X154634007Y-124741796D01*
X154709919Y-124710795D01*
X154803797Y-124672295D01*
X154917507Y-124625556D01*
X155052913Y-124569835D01*
X155211878Y-124504390D01*
X155396268Y-124428479D01*
X155489619Y-124390055D01*
X155653323Y-124322562D01*
X155808519Y-124258351D01*
X155952955Y-124198367D01*
X156084379Y-124143557D01*
X156200539Y-124094867D01*
X156299181Y-124053243D01*
X156378055Y-124019631D01*
X156434907Y-123994978D01*
X156467485Y-123980228D01*
X156474646Y-123976273D01*
X156460319Y-123972411D01*
X156456726Y-123971643D01*
X156953748Y-123971643D01*
X157006982Y-123996799D01*
X157032563Y-124008049D01*
X157082445Y-124029217D01*
X157153867Y-124059168D01*
X157244068Y-124096766D01*
X157350289Y-124140876D01*
X157469770Y-124190363D01*
X157599749Y-124244092D01*
X157737467Y-124300927D01*
X157880163Y-124359732D01*
X158025077Y-124419374D01*
X158169449Y-124478715D01*
X158310519Y-124536622D01*
X158445526Y-124591958D01*
X158571710Y-124643589D01*
X158686310Y-124690378D01*
X158786567Y-124731192D01*
X158869720Y-124764894D01*
X158933009Y-124790349D01*
X158973674Y-124806422D01*
X158988927Y-124811977D01*
X158993627Y-124802493D01*
X158989551Y-124793470D01*
X158978367Y-124777445D01*
X158951214Y-124739471D01*
X158910008Y-124682205D01*
X158856668Y-124608301D01*
X158793112Y-124520416D01*
X158721257Y-124421206D01*
X158643022Y-124313325D01*
X158599624Y-124253538D01*
X158506207Y-124125139D01*
X158428790Y-124019431D01*
X158404110Y-123986138D01*
X158569174Y-123986138D01*
X158575815Y-123998874D01*
X158590488Y-124021871D01*
X158614553Y-124057074D01*
X158649370Y-124106426D01*
X158696299Y-124171873D01*
X158756702Y-124255357D01*
X158831938Y-124358823D01*
X158923368Y-124484216D01*
X158957592Y-124531105D01*
X159235185Y-124911344D01*
X159790335Y-125096135D01*
X159914057Y-125137297D01*
X160028548Y-125175348D01*
X160130640Y-125209239D01*
X160217167Y-125237919D01*
X160284960Y-125260339D01*
X160330851Y-125275449D01*
X160351674Y-125282199D01*
X160352546Y-125282452D01*
X160349191Y-125275323D01*
X160337337Y-125263355D01*
X160321876Y-125251458D01*
X160284195Y-125223501D01*
X160226724Y-125181247D01*
X160151892Y-125126461D01*
X160062130Y-125060905D01*
X159959866Y-124986345D01*
X159847531Y-124904544D01*
X159727555Y-124817265D01*
X159602367Y-124726274D01*
X159474397Y-124633333D01*
X159346075Y-124540206D01*
X159219831Y-124448658D01*
X159098095Y-124360452D01*
X158983295Y-124277353D01*
X158877863Y-124201123D01*
X158784228Y-124133527D01*
X158704819Y-124076329D01*
X158642066Y-124031293D01*
X158598400Y-124000182D01*
X158576250Y-123984761D01*
X158574544Y-123983672D01*
X158569204Y-123981718D01*
X158569174Y-123986138D01*
X158404110Y-123986138D01*
X158365710Y-123934339D01*
X158315302Y-123867787D01*
X158275902Y-123817703D01*
X158245846Y-123782011D01*
X158223469Y-123758637D01*
X158207109Y-123745506D01*
X158195099Y-123740544D01*
X158188341Y-123740832D01*
X158166502Y-123745337D01*
X158118143Y-123754720D01*
X158046661Y-123768340D01*
X157955451Y-123785558D01*
X157847908Y-123805734D01*
X157727428Y-123828227D01*
X157597407Y-123852396D01*
X157554527Y-123860345D01*
X156953748Y-123971643D01*
X156456726Y-123971643D01*
X156419865Y-123963764D01*
X156357074Y-123951048D01*
X156275736Y-123934981D01*
X156179641Y-123916281D01*
X156072578Y-123895666D01*
X155958339Y-123873853D01*
X155840712Y-123851561D01*
X155723489Y-123829505D01*
X155610458Y-123808405D01*
X155505411Y-123788978D01*
X155412136Y-123771942D01*
X155334424Y-123758013D01*
X155276066Y-123747911D01*
X155240850Y-123742352D01*
X155236225Y-123741770D01*
X155224983Y-123753282D01*
X155198170Y-123786380D01*
X155158045Y-123838005D01*
X155106867Y-123905098D01*
X155046895Y-123984598D01*
X154980388Y-124073446D01*
X154909605Y-124168583D01*
X154836806Y-124266950D01*
X154764249Y-124365486D01*
X154694193Y-124461132D01*
X154628898Y-124550829D01*
X154570622Y-124631518D01*
X154521625Y-124700138D01*
X154484165Y-124753631D01*
X154460502Y-124788936D01*
X154452860Y-124802702D01*
X154451653Y-124805862D01*
X154449768Y-124808945D01*
X154449069Y-124811209D01*
X154284150Y-124811209D01*
X154294404Y-124797410D01*
X154345140Y-124728522D01*
X154403515Y-124648826D01*
X154467151Y-124561602D01*
X154533668Y-124470130D01*
X154600687Y-124377690D01*
X154665830Y-124287564D01*
X154726716Y-124203030D01*
X154780967Y-124127370D01*
X154826205Y-124063864D01*
X154860049Y-124015792D01*
X154880121Y-123986434D01*
X154884692Y-123978643D01*
X154872230Y-123986651D01*
X154837557Y-124010845D01*
X154783052Y-124049502D01*
X154711094Y-124100900D01*
X154624060Y-124163317D01*
X154524331Y-124235031D01*
X154414284Y-124314319D01*
X154296299Y-124399459D01*
X154172753Y-124488729D01*
X154046026Y-124580406D01*
X153918497Y-124672769D01*
X153792543Y-124764095D01*
X153670543Y-124852662D01*
X153554877Y-124936748D01*
X153447922Y-125014630D01*
X153352058Y-125084586D01*
X153269663Y-125144895D01*
X153203115Y-125193832D01*
X153154795Y-125229678D01*
X153127079Y-125250708D01*
X153121694Y-125255127D01*
X153113285Y-125267509D01*
X152884584Y-125267509D01*
X152904705Y-125252532D01*
X152928688Y-125235091D01*
X152972512Y-125203307D01*
X153038523Y-125155415D01*
X153124290Y-125093178D01*
X153227385Y-125018361D01*
X153345378Y-124932725D01*
X153475839Y-124838035D01*
X153616339Y-124736054D01*
X153764447Y-124628545D01*
X153917736Y-124517271D01*
X154063928Y-124411145D01*
X154216366Y-124300507D01*
X154363311Y-124193905D01*
X154502657Y-124092865D01*
X154632296Y-123998912D01*
X154750119Y-123913573D01*
X154854021Y-123838372D01*
X154941893Y-123774837D01*
X154989860Y-123740207D01*
X155919497Y-123740207D01*
X156299736Y-123810622D01*
X156404359Y-123829911D01*
X156499773Y-123847339D01*
X156581683Y-123862135D01*
X156645797Y-123873528D01*
X156687823Y-123880748D01*
X156702790Y-123883012D01*
X156723348Y-123880925D01*
X156769661Y-123874034D01*
X156837567Y-123863030D01*
X156922902Y-123848603D01*
X157021503Y-123831445D01*
X157127261Y-123812597D01*
X157528917Y-123740207D01*
X157132133Y-123736154D01*
X156995904Y-123735134D01*
X156840433Y-123734586D01*
X156676896Y-123734509D01*
X156516468Y-123734902D01*
X156370323Y-123735768D01*
X156327423Y-123736154D01*
X155919497Y-123740207D01*
X154989860Y-123740207D01*
X155011628Y-123724492D01*
X155061119Y-123688864D01*
X155088258Y-123669478D01*
X155089294Y-123668749D01*
X155171665Y-123610925D01*
X158281499Y-123610925D01*
X159488402Y-124487060D01*
D12*
%TO.C,PowerEntry1*%
X123662800Y-119058100D02*
X134062800Y-119058100D01*
X123662800Y-128258100D02*
X123662800Y-119058100D01*
X109662800Y-128258100D02*
X123662800Y-128258100D01*
X123662800Y-72458100D02*
X144262800Y-72458100D01*
X123662800Y-63258100D02*
X123662800Y-72458100D01*
X109662800Y-63258100D02*
X123662800Y-63258100D01*
X144262800Y-104858100D02*
X144262800Y-72458100D01*
X134062800Y-104858100D02*
X144262800Y-104858100D01*
X134062800Y-119058100D02*
X134062800Y-104858100D01*
X109662800Y-63258100D02*
X109662800Y-128258100D01*
D13*
%TO.C,J1*%
X158520800Y-100792100D02*
X158520800Y-101392100D01*
X159360800Y-100792100D02*
X158520800Y-100792100D01*
X169170800Y-120122100D02*
X168670800Y-120122100D01*
X169170800Y-117622100D02*
X168670800Y-117622100D01*
X168670800Y-117622100D02*
X168670800Y-120122100D01*
X169170800Y-117622100D02*
X169170800Y-120122100D01*
X163144800Y-117692100D02*
X163051800Y-117598100D01*
X165395800Y-119942100D02*
X165336800Y-119883100D01*
X162904800Y-117862100D02*
X162846800Y-117803100D01*
X165189800Y-120147100D02*
X165096800Y-120053100D01*
X169170800Y-115042100D02*
X168670800Y-115042100D01*
X169170800Y-112542100D02*
X168670800Y-112542100D01*
X168670800Y-112542100D02*
X168670800Y-115042100D01*
X169170800Y-112542100D02*
X169170800Y-115042100D01*
X163144800Y-112612100D02*
X163051800Y-112518100D01*
X165395800Y-114862100D02*
X165336800Y-114803100D01*
X162904800Y-112782100D02*
X162846800Y-112723100D01*
X165189800Y-115067100D02*
X165096800Y-114973100D01*
X169170800Y-109962100D02*
X168670800Y-109962100D01*
X169170800Y-107462100D02*
X168670800Y-107462100D01*
X168670800Y-107462100D02*
X168670800Y-109962100D01*
X169170800Y-107462100D02*
X169170800Y-109962100D01*
X163144800Y-107532100D02*
X163051800Y-107438100D01*
X165395800Y-109782100D02*
X165336800Y-109723100D01*
X162904800Y-107702100D02*
X162846800Y-107643100D01*
X165189800Y-109987100D02*
X165096800Y-109893100D01*
X169170800Y-104882100D02*
X168670800Y-104882100D01*
X169170800Y-102382100D02*
X168670800Y-102382100D01*
X168670800Y-102382100D02*
X168670800Y-104882100D01*
X169170800Y-102382100D02*
X169170800Y-104882100D01*
X169480800Y-121472100D02*
X158760800Y-121472100D01*
X169480800Y-101032100D02*
X158760800Y-101032100D01*
X158760800Y-101032100D02*
X158760800Y-121472100D01*
X169480800Y-101032100D02*
X169480800Y-121472100D01*
X167420800Y-101032100D02*
X167420800Y-121472100D01*
X161620800Y-101032100D02*
X161620800Y-121472100D01*
X159420800Y-101032100D02*
X159420800Y-121472100D01*
X165800800Y-118872100D02*
G75*
G03*
X165800800Y-118872100I-1680000J0D01*
G01*
X165800800Y-113792100D02*
G75*
G03*
X165800800Y-113792100I-1680000J0D01*
G01*
X165800800Y-108712100D02*
G75*
G03*
X165800800Y-108712100I-1680000J0D01*
G01*
X162440350Y-103661483D02*
G75*
G02*
X162636800Y-102843100I1680450J29383D01*
G01*
X163331712Y-102148147D02*
G75*
G02*
X164909800Y-102148100I789088J-1483953D01*
G01*
X165604753Y-102843012D02*
G75*
G02*
X165604800Y-104421100I-1483953J-789088D01*
G01*
X164909888Y-105116053D02*
G75*
G02*
X163331800Y-105116100I-789088J1483953D01*
G01*
X162637448Y-104420812D02*
G75*
G02*
X162440800Y-103632100I1483352J788712D01*
G01*
D10*
%TO.C,TH2*%
X156918800Y-101545600D02*
X150518800Y-101545600D01*
X156918800Y-110845600D02*
X150518800Y-110845600D01*
X156918800Y-101545600D02*
X156918800Y-110845600D01*
X150518800Y-101545600D02*
X150518800Y-110845600D01*
%TO.C,TH1*%
X156918800Y-111642100D02*
X150518800Y-111642100D01*
X156918800Y-120942100D02*
X150518800Y-120942100D01*
X156918800Y-111642100D02*
X156918800Y-120942100D01*
X150518800Y-111642100D02*
X150518800Y-120942100D01*
D14*
%TO.C,S1*%
X170553800Y-86868100D02*
G75*
G03*
X170553800Y-86868100I-100000J0D01*
G01*
D12*
X169703800Y-73773100D02*
X169703800Y-99963100D01*
X153203800Y-73773100D02*
X169703800Y-73773100D01*
X153203800Y-99963100D02*
X153203800Y-73773100D01*
X169703800Y-99963100D02*
X153203800Y-99963100D01*
D10*
%TO.C,MOV*%
X144045800Y-121322100D02*
X144045800Y-114922100D01*
X134745800Y-121322100D02*
X134745800Y-114922100D01*
X144045800Y-121322100D02*
X134745800Y-121322100D01*
X144045800Y-114922100D02*
X134745800Y-114922100D01*
X149252800Y-113194100D02*
X149252800Y-106794100D01*
X139952800Y-113194100D02*
X139952800Y-106794100D01*
X149252800Y-113194100D02*
X139952800Y-113194100D01*
X149252800Y-106794100D02*
X139952800Y-106794100D01*
%TO.C,P2*%
X135890214Y-127500071D02*
X136223547Y-127500071D01*
X136366404Y-128023880D02*
X135890214Y-128023880D01*
X135890214Y-127023880D01*
X136366404Y-127023880D01*
X137223547Y-128023880D02*
X137223547Y-127500071D01*
X137175928Y-127404833D01*
X137080690Y-127357214D01*
X136890214Y-127357214D01*
X136794976Y-127404833D01*
X137223547Y-127976261D02*
X137128309Y-128023880D01*
X136890214Y-128023880D01*
X136794976Y-127976261D01*
X136747357Y-127881023D01*
X136747357Y-127785785D01*
X136794976Y-127690547D01*
X136890214Y-127642928D01*
X137128309Y-127642928D01*
X137223547Y-127595309D01*
X137699738Y-128023880D02*
X137699738Y-127357214D01*
X137699738Y-127547690D02*
X137747357Y-127452452D01*
X137794976Y-127404833D01*
X137890214Y-127357214D01*
X137985452Y-127357214D01*
X138175928Y-127357214D02*
X138556880Y-127357214D01*
X138318785Y-127023880D02*
X138318785Y-127881023D01*
X138366404Y-127976261D01*
X138461642Y-128023880D01*
X138556880Y-128023880D01*
X138890214Y-128023880D02*
X138890214Y-127023880D01*
X139318785Y-128023880D02*
X139318785Y-127500071D01*
X139271166Y-127404833D01*
X139175928Y-127357214D01*
X139033071Y-127357214D01*
X138937833Y-127404833D01*
X138890214Y-127452452D01*
%TO.C,TH2*%
X151000180Y-107481314D02*
X151000180Y-106909885D01*
X152000180Y-107195600D02*
X151000180Y-107195600D01*
X152000180Y-106576552D02*
X151000180Y-106576552D01*
X151476371Y-106576552D02*
X151476371Y-106005123D01*
X152000180Y-106005123D02*
X151000180Y-106005123D01*
X151095419Y-105576552D02*
X151047800Y-105528933D01*
X151000180Y-105433695D01*
X151000180Y-105195600D01*
X151047800Y-105100361D01*
X151095419Y-105052742D01*
X151190657Y-105005123D01*
X151285895Y-105005123D01*
X151428752Y-105052742D01*
X152000180Y-105624171D01*
X152000180Y-105005123D01*
%TO.C,TH1*%
X151000180Y-117577814D02*
X151000180Y-117006385D01*
X152000180Y-117292100D02*
X151000180Y-117292100D01*
X152000180Y-116673052D02*
X151000180Y-116673052D01*
X151476371Y-116673052D02*
X151476371Y-116101623D01*
X152000180Y-116101623D02*
X151000180Y-116101623D01*
X152000180Y-115101623D02*
X152000180Y-115673052D01*
X152000180Y-115387338D02*
X151000180Y-115387338D01*
X151143038Y-115482576D01*
X151238276Y-115577814D01*
X151285895Y-115673052D01*
%TO.C,S1*%
D15*
X165766895Y-101407861D02*
X165909752Y-101455480D01*
X166147847Y-101455480D01*
X166243085Y-101407861D01*
X166290704Y-101360242D01*
X166338323Y-101265004D01*
X166338323Y-101169766D01*
X166290704Y-101074528D01*
X166243085Y-101026909D01*
X166147847Y-100979290D01*
X165957371Y-100931671D01*
X165862133Y-100884052D01*
X165814514Y-100836433D01*
X165766895Y-100741195D01*
X165766895Y-100645957D01*
X165814514Y-100550719D01*
X165862133Y-100503100D01*
X165957371Y-100455480D01*
X166195466Y-100455480D01*
X166338323Y-100503100D01*
X167290704Y-101455480D02*
X166719276Y-101455480D01*
X167004990Y-101455480D02*
X167004990Y-100455480D01*
X166909752Y-100598338D01*
X166814514Y-100693576D01*
X166719276Y-100741195D01*
%TO.C,MOV*%
D10*
X138197085Y-116530480D02*
X138197085Y-115530480D01*
X138530419Y-116244766D01*
X138863752Y-115530480D01*
X138863752Y-116530480D01*
X139530419Y-115530480D02*
X139720895Y-115530480D01*
X139816133Y-115578100D01*
X139911371Y-115673338D01*
X139958990Y-115863814D01*
X139958990Y-116197147D01*
X139911371Y-116387623D01*
X139816133Y-116482861D01*
X139720895Y-116530480D01*
X139530419Y-116530480D01*
X139435180Y-116482861D01*
X139339942Y-116387623D01*
X139292323Y-116197147D01*
X139292323Y-115863814D01*
X139339942Y-115673338D01*
X139435180Y-115578100D01*
X139530419Y-115530480D01*
X140244704Y-115530480D02*
X140578038Y-116530480D01*
X140911371Y-115530480D01*
X143317085Y-108402480D02*
X143317085Y-107402480D01*
X143650419Y-108116766D01*
X143983752Y-107402480D01*
X143983752Y-108402480D01*
X144650419Y-107402480D02*
X144840895Y-107402480D01*
X144936133Y-107450100D01*
X145031371Y-107545338D01*
X145078990Y-107735814D01*
X145078990Y-108069147D01*
X145031371Y-108259623D01*
X144936133Y-108354861D01*
X144840895Y-108402480D01*
X144650419Y-108402480D01*
X144555180Y-108354861D01*
X144459942Y-108259623D01*
X144412323Y-108069147D01*
X144412323Y-107735814D01*
X144459942Y-107545338D01*
X144555180Y-107450100D01*
X144650419Y-107402480D01*
X145364704Y-107402480D02*
X145698038Y-108402480D01*
X146031371Y-107402480D01*
%TD*%
M02*
