M48
; DRILL file {KiCad (5.1.6-0-10_14)} date Sunday, August 23, 2020 at 11:08:51 PM
; FORMAT={-:-/ absolute / inch / decimal}
; #@! TF.CreationDate,2020-08-23T23:08:51+01:00
; #@! TF.GenerationSoftware,Kicad,Pcbnew,(5.1.6-0-10_14)
; #@! TF.FileFunction,Plated,1,2,PTH
FMAT,2
INCH
T1C0.0348
T2C0.0472
T3C0.0512
T4C0.0630
T5C0.0728
T6C0.1378
%
G90
G05
T1
X5.689Y-4.7638
X5.8858Y-4.7638
X6.2205Y-4.4488
X6.3189Y-4.252
X5.689Y-4.3141
X5.8858Y-4.3141
X6.2205Y-4.9606
X6.3189Y-4.7638
T2
X6.7323Y-4.252
X6.7323Y-4.4488
X6.7323Y-4.6457
X6.7323Y-4.8425
T3
X5.062Y-3.0721
X5.062Y-3.3083
T4
X5.062Y-4.4579
T5
X6.378Y-3.0787
X6.378Y-3.4252
X6.378Y-3.7717
X6.6929Y-3.0787
X6.6929Y-3.4252
X6.6929Y-3.7717
T6
X5.6402Y-5.2268
X5.089Y-5.2268
T0
M30
