%FSLAX45Y45*%
G04 Gerber Fmt 4.5, Leading zero omitted, Abs format (unit mm)*
G04 Created by KiCad (PCBNEW (5.1.6-0-10_14)) date 2020-08-18 22:59:48*
%MOMM*%
%LPD*%
G01*
G04 APERTURE LIST*
%TA.AperFunction,Profile*%
%ADD10C,0.050000*%
%TD*%
%ADD11C,0.200000*%
%ADD12C,0.300000*%
G04 APERTURE END LIST*
D10*
X17376140Y-6273810D02*
X10922000Y-6273800D01*
X17376140Y-13292160D02*
X17376140Y-6273810D01*
X10926140Y-13290810D02*
X17376140Y-13292160D01*
X10922000Y-6273800D02*
X10926140Y-13290810D01*
D11*
X11736280Y-6595810D02*
X12096280Y-6955810D01*
X12096280Y-6595810D02*
X11736280Y-6955810D01*
X11736280Y-12195810D02*
X12096280Y-12555810D01*
X12096280Y-12195810D02*
X11736280Y-12555810D01*
X13096480Y-6756410D02*
G75*
G03*
X13096480Y-6756410I-215000J0D01*
G01*
X17096480Y-6756410D02*
G75*
G03*
X17096480Y-6756410I-215000J0D01*
G01*
X17096480Y-12756410D02*
G75*
G03*
X17096480Y-12756410I-215000J0D01*
G01*
D12*
X11205928Y-13760374D02*
X11205928Y-13460374D01*
X11277357Y-13460374D01*
X11320214Y-13474660D01*
X11348786Y-13503231D01*
X11363071Y-13531803D01*
X11377357Y-13588946D01*
X11377357Y-13631803D01*
X11363071Y-13688946D01*
X11348786Y-13717517D01*
X11320214Y-13746089D01*
X11277357Y-13760374D01*
X11205928Y-13760374D01*
X11505928Y-13760374D02*
X11505928Y-13560374D01*
X11505928Y-13617517D02*
X11520214Y-13588946D01*
X11534500Y-13574660D01*
X11563071Y-13560374D01*
X11591643Y-13560374D01*
X11691643Y-13760374D02*
X11691643Y-13560374D01*
X11691643Y-13460374D02*
X11677357Y-13474660D01*
X11691643Y-13488946D01*
X11705928Y-13474660D01*
X11691643Y-13460374D01*
X11691643Y-13488946D01*
X11877357Y-13760374D02*
X11848786Y-13746089D01*
X11834500Y-13717517D01*
X11834500Y-13460374D01*
X12034500Y-13760374D02*
X12005928Y-13746089D01*
X11991643Y-13717517D01*
X11991643Y-13460374D01*
X12377357Y-13760374D02*
X12377357Y-13460374D01*
X12477357Y-13674660D01*
X12577357Y-13460374D01*
X12577357Y-13760374D01*
X12848786Y-13760374D02*
X12848786Y-13603231D01*
X12834500Y-13574660D01*
X12805928Y-13560374D01*
X12748786Y-13560374D01*
X12720214Y-13574660D01*
X12848786Y-13746089D02*
X12820214Y-13760374D01*
X12748786Y-13760374D01*
X12720214Y-13746089D01*
X12705928Y-13717517D01*
X12705928Y-13688946D01*
X12720214Y-13660374D01*
X12748786Y-13646089D01*
X12820214Y-13646089D01*
X12848786Y-13631803D01*
X12991643Y-13560374D02*
X12991643Y-13860374D01*
X12991643Y-13574660D02*
X13020214Y-13560374D01*
X13077357Y-13560374D01*
X13105928Y-13574660D01*
X13120214Y-13588946D01*
X13134500Y-13617517D01*
X13134500Y-13703231D01*
X13120214Y-13731803D01*
X13105928Y-13746089D01*
X13077357Y-13760374D01*
X13020214Y-13760374D01*
X12991643Y-13746089D01*
X13263071Y-13731803D02*
X13277357Y-13746089D01*
X13263071Y-13760374D01*
X13248786Y-13746089D01*
X13263071Y-13731803D01*
X13263071Y-13760374D01*
X13263071Y-13574660D02*
X13277357Y-13588946D01*
X13263071Y-13603231D01*
X13248786Y-13588946D01*
X13263071Y-13574660D01*
X13263071Y-13603231D01*
X10559500Y-14074660D02*
X10919500Y-14434660D01*
X10919500Y-14074660D02*
X10559500Y-14434660D01*
X11177357Y-14090374D02*
X11363071Y-14090374D01*
X11263071Y-14204660D01*
X11305928Y-14204660D01*
X11334500Y-14218946D01*
X11348786Y-14233231D01*
X11363071Y-14261803D01*
X11363071Y-14333231D01*
X11348786Y-14361803D01*
X11334500Y-14376089D01*
X11305928Y-14390374D01*
X11220214Y-14390374D01*
X11191643Y-14376089D01*
X11177357Y-14361803D01*
X11491643Y-14361803D02*
X11505928Y-14376089D01*
X11491643Y-14390374D01*
X11477357Y-14376089D01*
X11491643Y-14361803D01*
X11491643Y-14390374D01*
X11763071Y-14090374D02*
X11705928Y-14090374D01*
X11677357Y-14104660D01*
X11663071Y-14118946D01*
X11634500Y-14161803D01*
X11620214Y-14218946D01*
X11620214Y-14333231D01*
X11634500Y-14361803D01*
X11648786Y-14376089D01*
X11677357Y-14390374D01*
X11734500Y-14390374D01*
X11763071Y-14376089D01*
X11777357Y-14361803D01*
X11791643Y-14333231D01*
X11791643Y-14261803D01*
X11777357Y-14233231D01*
X11763071Y-14218946D01*
X11734500Y-14204660D01*
X11677357Y-14204660D01*
X11648786Y-14218946D01*
X11634500Y-14233231D01*
X11620214Y-14261803D01*
X11977357Y-14090374D02*
X12005928Y-14090374D01*
X12034500Y-14104660D01*
X12048786Y-14118946D01*
X12063071Y-14147517D01*
X12077357Y-14204660D01*
X12077357Y-14276089D01*
X12063071Y-14333231D01*
X12048786Y-14361803D01*
X12034500Y-14376089D01*
X12005928Y-14390374D01*
X11977357Y-14390374D01*
X11948786Y-14376089D01*
X11934500Y-14361803D01*
X11920214Y-14333231D01*
X11905928Y-14276089D01*
X11905928Y-14204660D01*
X11920214Y-14147517D01*
X11934500Y-14118946D01*
X11948786Y-14104660D01*
X11977357Y-14090374D01*
X12205928Y-14390374D02*
X12205928Y-14190374D01*
X12205928Y-14218946D02*
X12220214Y-14204660D01*
X12248786Y-14190374D01*
X12291643Y-14190374D01*
X12320214Y-14204660D01*
X12334500Y-14233231D01*
X12334500Y-14390374D01*
X12334500Y-14233231D02*
X12348786Y-14204660D01*
X12377357Y-14190374D01*
X12420214Y-14190374D01*
X12448786Y-14204660D01*
X12463071Y-14233231D01*
X12463071Y-14390374D01*
X12605928Y-14390374D02*
X12605928Y-14190374D01*
X12605928Y-14218946D02*
X12620214Y-14204660D01*
X12648786Y-14190374D01*
X12691643Y-14190374D01*
X12720214Y-14204660D01*
X12734500Y-14233231D01*
X12734500Y-14390374D01*
X12734500Y-14233231D02*
X12748786Y-14204660D01*
X12777357Y-14190374D01*
X12820214Y-14190374D01*
X12848786Y-14204660D01*
X12863071Y-14233231D01*
X12863071Y-14390374D01*
X13448786Y-14076089D02*
X13191643Y-14461803D01*
X13834500Y-14090374D02*
X13863071Y-14090374D01*
X13891643Y-14104660D01*
X13905928Y-14118946D01*
X13920214Y-14147517D01*
X13934500Y-14204660D01*
X13934500Y-14276089D01*
X13920214Y-14333231D01*
X13905928Y-14361803D01*
X13891643Y-14376089D01*
X13863071Y-14390374D01*
X13834500Y-14390374D01*
X13805928Y-14376089D01*
X13791643Y-14361803D01*
X13777357Y-14333231D01*
X13763071Y-14276089D01*
X13763071Y-14204660D01*
X13777357Y-14147517D01*
X13791643Y-14118946D01*
X13805928Y-14104660D01*
X13834500Y-14090374D01*
X14063071Y-14361803D02*
X14077357Y-14376089D01*
X14063071Y-14390374D01*
X14048786Y-14376089D01*
X14063071Y-14361803D01*
X14063071Y-14390374D01*
X14363071Y-14390374D02*
X14191643Y-14390374D01*
X14277357Y-14390374D02*
X14277357Y-14090374D01*
X14248786Y-14133231D01*
X14220214Y-14161803D01*
X14191643Y-14176089D01*
X14620214Y-14190374D02*
X14620214Y-14390374D01*
X14548786Y-14076089D02*
X14477357Y-14290374D01*
X14663071Y-14290374D01*
X14763071Y-14118946D02*
X14777357Y-14104660D01*
X14805928Y-14090374D01*
X14877357Y-14090374D01*
X14905928Y-14104660D01*
X14920214Y-14118946D01*
X14934500Y-14147517D01*
X14934500Y-14176089D01*
X14920214Y-14218946D01*
X14748786Y-14390374D01*
X14934500Y-14390374D01*
X15048786Y-14090374D02*
X15048786Y-14147517D01*
X15163071Y-14090374D02*
X15163071Y-14147517D01*
X15605928Y-14504660D02*
X15591643Y-14490374D01*
X15563071Y-14447517D01*
X15548786Y-14418946D01*
X15534500Y-14376089D01*
X15520214Y-14304660D01*
X15520214Y-14247517D01*
X15534500Y-14176089D01*
X15548786Y-14133231D01*
X15563071Y-14104660D01*
X15591643Y-14061803D01*
X15605928Y-14047517D01*
X15705928Y-14118946D02*
X15720214Y-14104660D01*
X15748786Y-14090374D01*
X15820214Y-14090374D01*
X15848786Y-14104660D01*
X15863071Y-14118946D01*
X15877357Y-14147517D01*
X15877357Y-14176089D01*
X15863071Y-14218946D01*
X15691643Y-14390374D01*
X15877357Y-14390374D01*
X16234500Y-14390374D02*
X16234500Y-14090374D01*
X16363071Y-14390374D02*
X16363071Y-14233231D01*
X16348786Y-14204660D01*
X16320214Y-14190374D01*
X16277357Y-14190374D01*
X16248786Y-14204660D01*
X16234500Y-14218946D01*
X16548786Y-14390374D02*
X16520214Y-14376089D01*
X16505928Y-14361803D01*
X16491643Y-14333231D01*
X16491643Y-14247517D01*
X16505928Y-14218946D01*
X16520214Y-14204660D01*
X16548786Y-14190374D01*
X16591643Y-14190374D01*
X16620214Y-14204660D01*
X16634500Y-14218946D01*
X16648786Y-14247517D01*
X16648786Y-14333231D01*
X16634500Y-14361803D01*
X16620214Y-14376089D01*
X16591643Y-14390374D01*
X16548786Y-14390374D01*
X16820214Y-14390374D02*
X16791643Y-14376089D01*
X16777357Y-14347517D01*
X16777357Y-14090374D01*
X17048786Y-14376089D02*
X17020214Y-14390374D01*
X16963071Y-14390374D01*
X16934500Y-14376089D01*
X16920214Y-14347517D01*
X16920214Y-14233231D01*
X16934500Y-14204660D01*
X16963071Y-14190374D01*
X17020214Y-14190374D01*
X17048786Y-14204660D01*
X17063071Y-14233231D01*
X17063071Y-14261803D01*
X16920214Y-14290374D01*
X17177357Y-14376089D02*
X17205928Y-14390374D01*
X17263071Y-14390374D01*
X17291643Y-14376089D01*
X17305928Y-14347517D01*
X17305928Y-14333231D01*
X17291643Y-14304660D01*
X17263071Y-14290374D01*
X17220214Y-14290374D01*
X17191643Y-14276089D01*
X17177357Y-14247517D01*
X17177357Y-14233231D01*
X17191643Y-14204660D01*
X17220214Y-14190374D01*
X17263071Y-14190374D01*
X17291643Y-14204660D01*
X17405928Y-14504660D02*
X17420214Y-14490374D01*
X17448786Y-14447517D01*
X17463071Y-14418946D01*
X17477357Y-14376089D01*
X17491643Y-14304660D01*
X17491643Y-14247517D01*
X17477357Y-14176089D01*
X17463071Y-14133231D01*
X17448786Y-14104660D01*
X17420214Y-14061803D01*
X17405928Y-14047517D01*
X17948786Y-14504660D02*
X17934500Y-14490374D01*
X17905928Y-14447517D01*
X17891643Y-14418946D01*
X17877357Y-14376089D01*
X17863071Y-14304660D01*
X17863071Y-14247517D01*
X17877357Y-14176089D01*
X17891643Y-14133231D01*
X17905928Y-14104660D01*
X17934500Y-14061803D01*
X17948786Y-14047517D01*
X18063071Y-14190374D02*
X18063071Y-14390374D01*
X18063071Y-14218946D02*
X18077357Y-14204660D01*
X18105928Y-14190374D01*
X18148786Y-14190374D01*
X18177357Y-14204660D01*
X18191643Y-14233231D01*
X18191643Y-14390374D01*
X18377357Y-14390374D02*
X18348786Y-14376089D01*
X18334500Y-14361803D01*
X18320214Y-14333231D01*
X18320214Y-14247517D01*
X18334500Y-14218946D01*
X18348786Y-14204660D01*
X18377357Y-14190374D01*
X18420214Y-14190374D01*
X18448786Y-14204660D01*
X18463071Y-14218946D01*
X18477357Y-14247517D01*
X18477357Y-14333231D01*
X18463071Y-14361803D01*
X18448786Y-14376089D01*
X18420214Y-14390374D01*
X18377357Y-14390374D01*
X18563071Y-14190374D02*
X18677357Y-14190374D01*
X18605928Y-14090374D02*
X18605928Y-14347517D01*
X18620214Y-14376089D01*
X18648786Y-14390374D01*
X18677357Y-14390374D01*
X19005928Y-14190374D02*
X19005928Y-14490374D01*
X19005928Y-14204660D02*
X19034500Y-14190374D01*
X19091643Y-14190374D01*
X19120214Y-14204660D01*
X19134500Y-14218946D01*
X19148786Y-14247517D01*
X19148786Y-14333231D01*
X19134500Y-14361803D01*
X19120214Y-14376089D01*
X19091643Y-14390374D01*
X19034500Y-14390374D01*
X19005928Y-14376089D01*
X19320214Y-14390374D02*
X19291643Y-14376089D01*
X19277357Y-14347517D01*
X19277357Y-14090374D01*
X19563071Y-14390374D02*
X19563071Y-14233231D01*
X19548786Y-14204660D01*
X19520214Y-14190374D01*
X19463071Y-14190374D01*
X19434500Y-14204660D01*
X19563071Y-14376089D02*
X19534500Y-14390374D01*
X19463071Y-14390374D01*
X19434500Y-14376089D01*
X19420214Y-14347517D01*
X19420214Y-14318946D01*
X19434500Y-14290374D01*
X19463071Y-14276089D01*
X19534500Y-14276089D01*
X19563071Y-14261803D01*
X19663071Y-14190374D02*
X19777357Y-14190374D01*
X19705928Y-14090374D02*
X19705928Y-14347517D01*
X19720214Y-14376089D01*
X19748786Y-14390374D01*
X19777357Y-14390374D01*
X19991643Y-14376089D02*
X19963071Y-14390374D01*
X19905928Y-14390374D01*
X19877357Y-14376089D01*
X19863071Y-14347517D01*
X19863071Y-14233231D01*
X19877357Y-14204660D01*
X19905928Y-14190374D01*
X19963071Y-14190374D01*
X19991643Y-14204660D01*
X20005928Y-14233231D01*
X20005928Y-14261803D01*
X19863071Y-14290374D01*
X20263071Y-14390374D02*
X20263071Y-14090374D01*
X20263071Y-14376089D02*
X20234500Y-14390374D01*
X20177357Y-14390374D01*
X20148786Y-14376089D01*
X20134500Y-14361803D01*
X20120214Y-14333231D01*
X20120214Y-14247517D01*
X20134500Y-14218946D01*
X20148786Y-14204660D01*
X20177357Y-14190374D01*
X20234500Y-14190374D01*
X20263071Y-14204660D01*
X20377357Y-14504660D02*
X20391643Y-14490374D01*
X20420214Y-14447517D01*
X20434500Y-14418946D01*
X20448786Y-14376089D01*
X20463071Y-14304660D01*
X20463071Y-14247517D01*
X20448786Y-14176089D01*
X20434500Y-14133231D01*
X20420214Y-14104660D01*
X20391643Y-14061803D01*
X20377357Y-14047517D01*
X10919500Y-14744660D02*
G75*
G03*
X10919500Y-14744660I-215000J0D01*
G01*
X11334500Y-14680374D02*
X11334500Y-14880374D01*
X11263071Y-14566089D02*
X11191643Y-14780374D01*
X11377357Y-14780374D01*
X11491643Y-14851803D02*
X11505928Y-14866089D01*
X11491643Y-14880374D01*
X11477357Y-14866089D01*
X11491643Y-14851803D01*
X11491643Y-14880374D01*
X11605928Y-14580374D02*
X11791643Y-14580374D01*
X11691643Y-14694660D01*
X11734500Y-14694660D01*
X11763071Y-14708946D01*
X11777357Y-14723231D01*
X11791643Y-14751803D01*
X11791643Y-14823231D01*
X11777357Y-14851803D01*
X11763071Y-14866089D01*
X11734500Y-14880374D01*
X11648786Y-14880374D01*
X11620214Y-14866089D01*
X11605928Y-14851803D01*
X11977357Y-14580374D02*
X12005928Y-14580374D01*
X12034500Y-14594660D01*
X12048786Y-14608946D01*
X12063071Y-14637517D01*
X12077357Y-14694660D01*
X12077357Y-14766089D01*
X12063071Y-14823231D01*
X12048786Y-14851803D01*
X12034500Y-14866089D01*
X12005928Y-14880374D01*
X11977357Y-14880374D01*
X11948786Y-14866089D01*
X11934500Y-14851803D01*
X11920214Y-14823231D01*
X11905928Y-14766089D01*
X11905928Y-14694660D01*
X11920214Y-14637517D01*
X11934500Y-14608946D01*
X11948786Y-14594660D01*
X11977357Y-14580374D01*
X12205928Y-14880374D02*
X12205928Y-14680374D01*
X12205928Y-14708946D02*
X12220214Y-14694660D01*
X12248786Y-14680374D01*
X12291643Y-14680374D01*
X12320214Y-14694660D01*
X12334500Y-14723231D01*
X12334500Y-14880374D01*
X12334500Y-14723231D02*
X12348786Y-14694660D01*
X12377357Y-14680374D01*
X12420214Y-14680374D01*
X12448786Y-14694660D01*
X12463071Y-14723231D01*
X12463071Y-14880374D01*
X12605928Y-14880374D02*
X12605928Y-14680374D01*
X12605928Y-14708946D02*
X12620214Y-14694660D01*
X12648786Y-14680374D01*
X12691643Y-14680374D01*
X12720214Y-14694660D01*
X12734500Y-14723231D01*
X12734500Y-14880374D01*
X12734500Y-14723231D02*
X12748786Y-14694660D01*
X12777357Y-14680374D01*
X12820214Y-14680374D01*
X12848786Y-14694660D01*
X12863071Y-14723231D01*
X12863071Y-14880374D01*
X13448786Y-14566089D02*
X13191643Y-14951803D01*
X13834500Y-14580374D02*
X13863071Y-14580374D01*
X13891643Y-14594660D01*
X13905928Y-14608946D01*
X13920214Y-14637517D01*
X13934500Y-14694660D01*
X13934500Y-14766089D01*
X13920214Y-14823231D01*
X13905928Y-14851803D01*
X13891643Y-14866089D01*
X13863071Y-14880374D01*
X13834500Y-14880374D01*
X13805928Y-14866089D01*
X13791643Y-14851803D01*
X13777357Y-14823231D01*
X13763071Y-14766089D01*
X13763071Y-14694660D01*
X13777357Y-14637517D01*
X13791643Y-14608946D01*
X13805928Y-14594660D01*
X13834500Y-14580374D01*
X14063071Y-14851803D02*
X14077357Y-14866089D01*
X14063071Y-14880374D01*
X14048786Y-14866089D01*
X14063071Y-14851803D01*
X14063071Y-14880374D01*
X14363071Y-14880374D02*
X14191643Y-14880374D01*
X14277357Y-14880374D02*
X14277357Y-14580374D01*
X14248786Y-14623231D01*
X14220214Y-14651803D01*
X14191643Y-14666089D01*
X14620214Y-14580374D02*
X14563071Y-14580374D01*
X14534500Y-14594660D01*
X14520214Y-14608946D01*
X14491643Y-14651803D01*
X14477357Y-14708946D01*
X14477357Y-14823231D01*
X14491643Y-14851803D01*
X14505928Y-14866089D01*
X14534500Y-14880374D01*
X14591643Y-14880374D01*
X14620214Y-14866089D01*
X14634500Y-14851803D01*
X14648786Y-14823231D01*
X14648786Y-14751803D01*
X14634500Y-14723231D01*
X14620214Y-14708946D01*
X14591643Y-14694660D01*
X14534500Y-14694660D01*
X14505928Y-14708946D01*
X14491643Y-14723231D01*
X14477357Y-14751803D01*
X14791643Y-14880374D02*
X14848786Y-14880374D01*
X14877357Y-14866089D01*
X14891643Y-14851803D01*
X14920214Y-14808946D01*
X14934500Y-14751803D01*
X14934500Y-14637517D01*
X14920214Y-14608946D01*
X14905928Y-14594660D01*
X14877357Y-14580374D01*
X14820214Y-14580374D01*
X14791643Y-14594660D01*
X14777357Y-14608946D01*
X14763071Y-14637517D01*
X14763071Y-14708946D01*
X14777357Y-14737517D01*
X14791643Y-14751803D01*
X14820214Y-14766089D01*
X14877357Y-14766089D01*
X14905928Y-14751803D01*
X14920214Y-14737517D01*
X14934500Y-14708946D01*
X15048786Y-14580374D02*
X15048786Y-14637517D01*
X15163071Y-14580374D02*
X15163071Y-14637517D01*
X15605928Y-14994660D02*
X15591643Y-14980374D01*
X15563071Y-14937517D01*
X15548786Y-14908946D01*
X15534500Y-14866089D01*
X15520214Y-14794660D01*
X15520214Y-14737517D01*
X15534500Y-14666089D01*
X15548786Y-14623231D01*
X15563071Y-14594660D01*
X15591643Y-14551803D01*
X15605928Y-14537517D01*
X15691643Y-14580374D02*
X15877357Y-14580374D01*
X15777357Y-14694660D01*
X15820214Y-14694660D01*
X15848786Y-14708946D01*
X15863071Y-14723231D01*
X15877357Y-14751803D01*
X15877357Y-14823231D01*
X15863071Y-14851803D01*
X15848786Y-14866089D01*
X15820214Y-14880374D01*
X15734500Y-14880374D01*
X15705928Y-14866089D01*
X15691643Y-14851803D01*
X16234500Y-14880374D02*
X16234500Y-14580374D01*
X16363071Y-14880374D02*
X16363071Y-14723231D01*
X16348786Y-14694660D01*
X16320214Y-14680374D01*
X16277357Y-14680374D01*
X16248786Y-14694660D01*
X16234500Y-14708946D01*
X16548786Y-14880374D02*
X16520214Y-14866089D01*
X16505928Y-14851803D01*
X16491643Y-14823231D01*
X16491643Y-14737517D01*
X16505928Y-14708946D01*
X16520214Y-14694660D01*
X16548786Y-14680374D01*
X16591643Y-14680374D01*
X16620214Y-14694660D01*
X16634500Y-14708946D01*
X16648786Y-14737517D01*
X16648786Y-14823231D01*
X16634500Y-14851803D01*
X16620214Y-14866089D01*
X16591643Y-14880374D01*
X16548786Y-14880374D01*
X16820214Y-14880374D02*
X16791643Y-14866089D01*
X16777357Y-14837517D01*
X16777357Y-14580374D01*
X17048786Y-14866089D02*
X17020214Y-14880374D01*
X16963071Y-14880374D01*
X16934500Y-14866089D01*
X16920214Y-14837517D01*
X16920214Y-14723231D01*
X16934500Y-14694660D01*
X16963071Y-14680374D01*
X17020214Y-14680374D01*
X17048786Y-14694660D01*
X17063071Y-14723231D01*
X17063071Y-14751803D01*
X16920214Y-14780374D01*
X17177357Y-14866089D02*
X17205928Y-14880374D01*
X17263071Y-14880374D01*
X17291643Y-14866089D01*
X17305928Y-14837517D01*
X17305928Y-14823231D01*
X17291643Y-14794660D01*
X17263071Y-14780374D01*
X17220214Y-14780374D01*
X17191643Y-14766089D01*
X17177357Y-14737517D01*
X17177357Y-14723231D01*
X17191643Y-14694660D01*
X17220214Y-14680374D01*
X17263071Y-14680374D01*
X17291643Y-14694660D01*
X17405928Y-14994660D02*
X17420214Y-14980374D01*
X17448786Y-14937517D01*
X17463071Y-14908946D01*
X17477357Y-14866089D01*
X17491643Y-14794660D01*
X17491643Y-14737517D01*
X17477357Y-14666089D01*
X17463071Y-14623231D01*
X17448786Y-14594660D01*
X17420214Y-14551803D01*
X17405928Y-14537517D01*
X17948786Y-14994660D02*
X17934500Y-14980374D01*
X17905928Y-14937517D01*
X17891643Y-14908946D01*
X17877357Y-14866089D01*
X17863071Y-14794660D01*
X17863071Y-14737517D01*
X17877357Y-14666089D01*
X17891643Y-14623231D01*
X17905928Y-14594660D01*
X17934500Y-14551803D01*
X17948786Y-14537517D01*
X18063071Y-14680374D02*
X18063071Y-14880374D01*
X18063071Y-14708946D02*
X18077357Y-14694660D01*
X18105928Y-14680374D01*
X18148786Y-14680374D01*
X18177357Y-14694660D01*
X18191643Y-14723231D01*
X18191643Y-14880374D01*
X18377357Y-14880374D02*
X18348786Y-14866089D01*
X18334500Y-14851803D01*
X18320214Y-14823231D01*
X18320214Y-14737517D01*
X18334500Y-14708946D01*
X18348786Y-14694660D01*
X18377357Y-14680374D01*
X18420214Y-14680374D01*
X18448786Y-14694660D01*
X18463071Y-14708946D01*
X18477357Y-14737517D01*
X18477357Y-14823231D01*
X18463071Y-14851803D01*
X18448786Y-14866089D01*
X18420214Y-14880374D01*
X18377357Y-14880374D01*
X18563071Y-14680374D02*
X18677357Y-14680374D01*
X18605928Y-14580374D02*
X18605928Y-14837517D01*
X18620214Y-14866089D01*
X18648786Y-14880374D01*
X18677357Y-14880374D01*
X19005928Y-14680374D02*
X19005928Y-14980374D01*
X19005928Y-14694660D02*
X19034500Y-14680374D01*
X19091643Y-14680374D01*
X19120214Y-14694660D01*
X19134500Y-14708946D01*
X19148786Y-14737517D01*
X19148786Y-14823231D01*
X19134500Y-14851803D01*
X19120214Y-14866089D01*
X19091643Y-14880374D01*
X19034500Y-14880374D01*
X19005928Y-14866089D01*
X19320214Y-14880374D02*
X19291643Y-14866089D01*
X19277357Y-14837517D01*
X19277357Y-14580374D01*
X19563071Y-14880374D02*
X19563071Y-14723231D01*
X19548786Y-14694660D01*
X19520214Y-14680374D01*
X19463071Y-14680374D01*
X19434500Y-14694660D01*
X19563071Y-14866089D02*
X19534500Y-14880374D01*
X19463071Y-14880374D01*
X19434500Y-14866089D01*
X19420214Y-14837517D01*
X19420214Y-14808946D01*
X19434500Y-14780374D01*
X19463071Y-14766089D01*
X19534500Y-14766089D01*
X19563071Y-14751803D01*
X19663071Y-14680374D02*
X19777357Y-14680374D01*
X19705928Y-14580374D02*
X19705928Y-14837517D01*
X19720214Y-14866089D01*
X19748786Y-14880374D01*
X19777357Y-14880374D01*
X19991643Y-14866089D02*
X19963071Y-14880374D01*
X19905928Y-14880374D01*
X19877357Y-14866089D01*
X19863071Y-14837517D01*
X19863071Y-14723231D01*
X19877357Y-14694660D01*
X19905928Y-14680374D01*
X19963071Y-14680374D01*
X19991643Y-14694660D01*
X20005928Y-14723231D01*
X20005928Y-14751803D01*
X19863071Y-14780374D01*
X20263071Y-14880374D02*
X20263071Y-14580374D01*
X20263071Y-14866089D02*
X20234500Y-14880374D01*
X20177357Y-14880374D01*
X20148786Y-14866089D01*
X20134500Y-14851803D01*
X20120214Y-14823231D01*
X20120214Y-14737517D01*
X20134500Y-14708946D01*
X20148786Y-14694660D01*
X20177357Y-14680374D01*
X20234500Y-14680374D01*
X20263071Y-14694660D01*
X20377357Y-14994660D02*
X20391643Y-14980374D01*
X20420214Y-14937517D01*
X20434500Y-14908946D01*
X20448786Y-14866089D01*
X20463071Y-14794660D01*
X20463071Y-14737517D01*
X20448786Y-14666089D01*
X20434500Y-14623231D01*
X20420214Y-14594660D01*
X20391643Y-14551803D01*
X20377357Y-14537517D01*
M02*
