%FSLAX45Y45*%
G04 Gerber Fmt 4.5, Leading zero omitted, Abs format (unit mm)*
G04 Created by KiCad (PCBNEW (5.1.6-0-10_14)) date 2020-08-23 23:08:51*
%MOMM*%
%LPD*%
G01*
G04 APERTURE LIST*
%TA.AperFunction,Profile*%
%ADD10C,0.050000*%
%TD*%
%ADD11C,0.200000*%
%ADD12C,0.300000*%
G04 APERTURE END LIST*
D10*
X18026000Y-6273800D02*
X10922000Y-6273800D01*
X18026000Y-13800000D02*
X18026000Y-6273800D01*
X10926140Y-13800000D02*
X18026000Y-13800000D01*
X10922000Y-6273800D02*
X10926140Y-13800000D01*
D11*
X17255000Y-6575000D02*
X17605000Y-6925000D01*
X17605000Y-6575000D02*
X17255000Y-6925000D01*
X17255000Y-13075000D02*
X17605000Y-13425000D01*
X17605000Y-13075000D02*
X17255000Y-13425000D01*
X12755000Y-6575000D02*
X13105000Y-6925000D01*
X13105000Y-6575000D02*
X12755000Y-6925000D01*
X12082440Y-6768180D02*
G75*
G03*
X12082440Y-6768180I-180000J0D01*
G01*
X12082440Y-12368180D02*
G75*
G03*
X12082440Y-12368180I-180000J0D01*
G01*
D12*
X11205928Y-14268214D02*
X11205928Y-13968214D01*
X11277357Y-13968214D01*
X11320214Y-13982500D01*
X11348786Y-14011071D01*
X11363071Y-14039643D01*
X11377357Y-14096786D01*
X11377357Y-14139643D01*
X11363071Y-14196786D01*
X11348786Y-14225357D01*
X11320214Y-14253929D01*
X11277357Y-14268214D01*
X11205928Y-14268214D01*
X11505928Y-14268214D02*
X11505928Y-14068214D01*
X11505928Y-14125357D02*
X11520214Y-14096786D01*
X11534500Y-14082500D01*
X11563071Y-14068214D01*
X11591643Y-14068214D01*
X11691643Y-14268214D02*
X11691643Y-14068214D01*
X11691643Y-13968214D02*
X11677357Y-13982500D01*
X11691643Y-13996786D01*
X11705928Y-13982500D01*
X11691643Y-13968214D01*
X11691643Y-13996786D01*
X11877357Y-14268214D02*
X11848786Y-14253929D01*
X11834500Y-14225357D01*
X11834500Y-13968214D01*
X12034500Y-14268214D02*
X12005928Y-14253929D01*
X11991643Y-14225357D01*
X11991643Y-13968214D01*
X12377357Y-14268214D02*
X12377357Y-13968214D01*
X12477357Y-14182500D01*
X12577357Y-13968214D01*
X12577357Y-14268214D01*
X12848786Y-14268214D02*
X12848786Y-14111071D01*
X12834500Y-14082500D01*
X12805928Y-14068214D01*
X12748786Y-14068214D01*
X12720214Y-14082500D01*
X12848786Y-14253929D02*
X12820214Y-14268214D01*
X12748786Y-14268214D01*
X12720214Y-14253929D01*
X12705928Y-14225357D01*
X12705928Y-14196786D01*
X12720214Y-14168214D01*
X12748786Y-14153929D01*
X12820214Y-14153929D01*
X12848786Y-14139643D01*
X12991643Y-14068214D02*
X12991643Y-14368214D01*
X12991643Y-14082500D02*
X13020214Y-14068214D01*
X13077357Y-14068214D01*
X13105928Y-14082500D01*
X13120214Y-14096786D01*
X13134500Y-14125357D01*
X13134500Y-14211071D01*
X13120214Y-14239643D01*
X13105928Y-14253929D01*
X13077357Y-14268214D01*
X13020214Y-14268214D01*
X12991643Y-14253929D01*
X13263071Y-14239643D02*
X13277357Y-14253929D01*
X13263071Y-14268214D01*
X13248786Y-14253929D01*
X13263071Y-14239643D01*
X13263071Y-14268214D01*
X13263071Y-14082500D02*
X13277357Y-14096786D01*
X13263071Y-14111071D01*
X13248786Y-14096786D01*
X13263071Y-14082500D01*
X13263071Y-14111071D01*
X10569500Y-14587500D02*
X10919500Y-14937500D01*
X10919500Y-14587500D02*
X10569500Y-14937500D01*
X11177357Y-14598214D02*
X11363071Y-14598214D01*
X11263071Y-14712500D01*
X11305928Y-14712500D01*
X11334500Y-14726786D01*
X11348786Y-14741071D01*
X11363071Y-14769643D01*
X11363071Y-14841071D01*
X11348786Y-14869643D01*
X11334500Y-14883929D01*
X11305928Y-14898214D01*
X11220214Y-14898214D01*
X11191643Y-14883929D01*
X11177357Y-14869643D01*
X11491643Y-14869643D02*
X11505928Y-14883929D01*
X11491643Y-14898214D01*
X11477357Y-14883929D01*
X11491643Y-14869643D01*
X11491643Y-14898214D01*
X11777357Y-14598214D02*
X11634500Y-14598214D01*
X11620214Y-14741071D01*
X11634500Y-14726786D01*
X11663071Y-14712500D01*
X11734500Y-14712500D01*
X11763071Y-14726786D01*
X11777357Y-14741071D01*
X11791643Y-14769643D01*
X11791643Y-14841071D01*
X11777357Y-14869643D01*
X11763071Y-14883929D01*
X11734500Y-14898214D01*
X11663071Y-14898214D01*
X11634500Y-14883929D01*
X11620214Y-14869643D01*
X11977357Y-14598214D02*
X12005928Y-14598214D01*
X12034500Y-14612500D01*
X12048786Y-14626786D01*
X12063071Y-14655357D01*
X12077357Y-14712500D01*
X12077357Y-14783929D01*
X12063071Y-14841071D01*
X12048786Y-14869643D01*
X12034500Y-14883929D01*
X12005928Y-14898214D01*
X11977357Y-14898214D01*
X11948786Y-14883929D01*
X11934500Y-14869643D01*
X11920214Y-14841071D01*
X11905928Y-14783929D01*
X11905928Y-14712500D01*
X11920214Y-14655357D01*
X11934500Y-14626786D01*
X11948786Y-14612500D01*
X11977357Y-14598214D01*
X12205928Y-14898214D02*
X12205928Y-14698214D01*
X12205928Y-14726786D02*
X12220214Y-14712500D01*
X12248786Y-14698214D01*
X12291643Y-14698214D01*
X12320214Y-14712500D01*
X12334500Y-14741071D01*
X12334500Y-14898214D01*
X12334500Y-14741071D02*
X12348786Y-14712500D01*
X12377357Y-14698214D01*
X12420214Y-14698214D01*
X12448786Y-14712500D01*
X12463071Y-14741071D01*
X12463071Y-14898214D01*
X12605928Y-14898214D02*
X12605928Y-14698214D01*
X12605928Y-14726786D02*
X12620214Y-14712500D01*
X12648786Y-14698214D01*
X12691643Y-14698214D01*
X12720214Y-14712500D01*
X12734500Y-14741071D01*
X12734500Y-14898214D01*
X12734500Y-14741071D02*
X12748786Y-14712500D01*
X12777357Y-14698214D01*
X12820214Y-14698214D01*
X12848786Y-14712500D01*
X12863071Y-14741071D01*
X12863071Y-14898214D01*
X13448786Y-14583929D02*
X13191643Y-14969643D01*
X13834500Y-14598214D02*
X13863071Y-14598214D01*
X13891643Y-14612500D01*
X13905928Y-14626786D01*
X13920214Y-14655357D01*
X13934500Y-14712500D01*
X13934500Y-14783929D01*
X13920214Y-14841071D01*
X13905928Y-14869643D01*
X13891643Y-14883929D01*
X13863071Y-14898214D01*
X13834500Y-14898214D01*
X13805928Y-14883929D01*
X13791643Y-14869643D01*
X13777357Y-14841071D01*
X13763071Y-14783929D01*
X13763071Y-14712500D01*
X13777357Y-14655357D01*
X13791643Y-14626786D01*
X13805928Y-14612500D01*
X13834500Y-14598214D01*
X14063071Y-14869643D02*
X14077357Y-14883929D01*
X14063071Y-14898214D01*
X14048786Y-14883929D01*
X14063071Y-14869643D01*
X14063071Y-14898214D01*
X14363071Y-14898214D02*
X14191643Y-14898214D01*
X14277357Y-14898214D02*
X14277357Y-14598214D01*
X14248786Y-14641071D01*
X14220214Y-14669643D01*
X14191643Y-14683929D01*
X14463071Y-14598214D02*
X14648786Y-14598214D01*
X14548786Y-14712500D01*
X14591643Y-14712500D01*
X14620214Y-14726786D01*
X14634500Y-14741071D01*
X14648786Y-14769643D01*
X14648786Y-14841071D01*
X14634500Y-14869643D01*
X14620214Y-14883929D01*
X14591643Y-14898214D01*
X14505928Y-14898214D01*
X14477357Y-14883929D01*
X14463071Y-14869643D01*
X14820214Y-14726786D02*
X14791643Y-14712500D01*
X14777357Y-14698214D01*
X14763071Y-14669643D01*
X14763071Y-14655357D01*
X14777357Y-14626786D01*
X14791643Y-14612500D01*
X14820214Y-14598214D01*
X14877357Y-14598214D01*
X14905928Y-14612500D01*
X14920214Y-14626786D01*
X14934500Y-14655357D01*
X14934500Y-14669643D01*
X14920214Y-14698214D01*
X14905928Y-14712500D01*
X14877357Y-14726786D01*
X14820214Y-14726786D01*
X14791643Y-14741071D01*
X14777357Y-14755357D01*
X14763071Y-14783929D01*
X14763071Y-14841071D01*
X14777357Y-14869643D01*
X14791643Y-14883929D01*
X14820214Y-14898214D01*
X14877357Y-14898214D01*
X14905928Y-14883929D01*
X14920214Y-14869643D01*
X14934500Y-14841071D01*
X14934500Y-14783929D01*
X14920214Y-14755357D01*
X14905928Y-14741071D01*
X14877357Y-14726786D01*
X15048786Y-14598214D02*
X15048786Y-14655357D01*
X15163071Y-14598214D02*
X15163071Y-14655357D01*
X15605928Y-15012500D02*
X15591643Y-14998214D01*
X15563071Y-14955357D01*
X15548786Y-14926786D01*
X15534500Y-14883929D01*
X15520214Y-14812500D01*
X15520214Y-14755357D01*
X15534500Y-14683929D01*
X15548786Y-14641071D01*
X15563071Y-14612500D01*
X15591643Y-14569643D01*
X15605928Y-14555357D01*
X15691643Y-14598214D02*
X15877357Y-14598214D01*
X15777357Y-14712500D01*
X15820214Y-14712500D01*
X15848786Y-14726786D01*
X15863071Y-14741071D01*
X15877357Y-14769643D01*
X15877357Y-14841071D01*
X15863071Y-14869643D01*
X15848786Y-14883929D01*
X15820214Y-14898214D01*
X15734500Y-14898214D01*
X15705928Y-14883929D01*
X15691643Y-14869643D01*
X16234500Y-14898214D02*
X16234500Y-14598214D01*
X16363071Y-14898214D02*
X16363071Y-14741071D01*
X16348786Y-14712500D01*
X16320214Y-14698214D01*
X16277357Y-14698214D01*
X16248786Y-14712500D01*
X16234500Y-14726786D01*
X16548786Y-14898214D02*
X16520214Y-14883929D01*
X16505928Y-14869643D01*
X16491643Y-14841071D01*
X16491643Y-14755357D01*
X16505928Y-14726786D01*
X16520214Y-14712500D01*
X16548786Y-14698214D01*
X16591643Y-14698214D01*
X16620214Y-14712500D01*
X16634500Y-14726786D01*
X16648786Y-14755357D01*
X16648786Y-14841071D01*
X16634500Y-14869643D01*
X16620214Y-14883929D01*
X16591643Y-14898214D01*
X16548786Y-14898214D01*
X16820214Y-14898214D02*
X16791643Y-14883929D01*
X16777357Y-14855357D01*
X16777357Y-14598214D01*
X17048786Y-14883929D02*
X17020214Y-14898214D01*
X16963071Y-14898214D01*
X16934500Y-14883929D01*
X16920214Y-14855357D01*
X16920214Y-14741071D01*
X16934500Y-14712500D01*
X16963071Y-14698214D01*
X17020214Y-14698214D01*
X17048786Y-14712500D01*
X17063071Y-14741071D01*
X17063071Y-14769643D01*
X16920214Y-14798214D01*
X17177357Y-14883929D02*
X17205928Y-14898214D01*
X17263071Y-14898214D01*
X17291643Y-14883929D01*
X17305928Y-14855357D01*
X17305928Y-14841071D01*
X17291643Y-14812500D01*
X17263071Y-14798214D01*
X17220214Y-14798214D01*
X17191643Y-14783929D01*
X17177357Y-14755357D01*
X17177357Y-14741071D01*
X17191643Y-14712500D01*
X17220214Y-14698214D01*
X17263071Y-14698214D01*
X17291643Y-14712500D01*
X17405928Y-15012500D02*
X17420214Y-14998214D01*
X17448786Y-14955357D01*
X17463071Y-14926786D01*
X17477357Y-14883929D01*
X17491643Y-14812500D01*
X17491643Y-14755357D01*
X17477357Y-14683929D01*
X17463071Y-14641071D01*
X17448786Y-14612500D01*
X17420214Y-14569643D01*
X17405928Y-14555357D01*
X17948786Y-15012500D02*
X17934500Y-14998214D01*
X17905928Y-14955357D01*
X17891643Y-14926786D01*
X17877357Y-14883929D01*
X17863071Y-14812500D01*
X17863071Y-14755357D01*
X17877357Y-14683929D01*
X17891643Y-14641071D01*
X17905928Y-14612500D01*
X17934500Y-14569643D01*
X17948786Y-14555357D01*
X18063071Y-14698214D02*
X18063071Y-14898214D01*
X18063071Y-14726786D02*
X18077357Y-14712500D01*
X18105928Y-14698214D01*
X18148786Y-14698214D01*
X18177357Y-14712500D01*
X18191643Y-14741071D01*
X18191643Y-14898214D01*
X18377357Y-14898214D02*
X18348786Y-14883929D01*
X18334500Y-14869643D01*
X18320214Y-14841071D01*
X18320214Y-14755357D01*
X18334500Y-14726786D01*
X18348786Y-14712500D01*
X18377357Y-14698214D01*
X18420214Y-14698214D01*
X18448786Y-14712500D01*
X18463071Y-14726786D01*
X18477357Y-14755357D01*
X18477357Y-14841071D01*
X18463071Y-14869643D01*
X18448786Y-14883929D01*
X18420214Y-14898214D01*
X18377357Y-14898214D01*
X18563071Y-14698214D02*
X18677357Y-14698214D01*
X18605928Y-14598214D02*
X18605928Y-14855357D01*
X18620214Y-14883929D01*
X18648786Y-14898214D01*
X18677357Y-14898214D01*
X19005928Y-14698214D02*
X19005928Y-14998214D01*
X19005928Y-14712500D02*
X19034500Y-14698214D01*
X19091643Y-14698214D01*
X19120214Y-14712500D01*
X19134500Y-14726786D01*
X19148786Y-14755357D01*
X19148786Y-14841071D01*
X19134500Y-14869643D01*
X19120214Y-14883929D01*
X19091643Y-14898214D01*
X19034500Y-14898214D01*
X19005928Y-14883929D01*
X19320214Y-14898214D02*
X19291643Y-14883929D01*
X19277357Y-14855357D01*
X19277357Y-14598214D01*
X19563071Y-14898214D02*
X19563071Y-14741071D01*
X19548786Y-14712500D01*
X19520214Y-14698214D01*
X19463071Y-14698214D01*
X19434500Y-14712500D01*
X19563071Y-14883929D02*
X19534500Y-14898214D01*
X19463071Y-14898214D01*
X19434500Y-14883929D01*
X19420214Y-14855357D01*
X19420214Y-14826786D01*
X19434500Y-14798214D01*
X19463071Y-14783929D01*
X19534500Y-14783929D01*
X19563071Y-14769643D01*
X19663071Y-14698214D02*
X19777357Y-14698214D01*
X19705928Y-14598214D02*
X19705928Y-14855357D01*
X19720214Y-14883929D01*
X19748786Y-14898214D01*
X19777357Y-14898214D01*
X19991643Y-14883929D02*
X19963071Y-14898214D01*
X19905928Y-14898214D01*
X19877357Y-14883929D01*
X19863071Y-14855357D01*
X19863071Y-14741071D01*
X19877357Y-14712500D01*
X19905928Y-14698214D01*
X19963071Y-14698214D01*
X19991643Y-14712500D01*
X20005928Y-14741071D01*
X20005928Y-14769643D01*
X19863071Y-14798214D01*
X20263071Y-14898214D02*
X20263071Y-14598214D01*
X20263071Y-14883929D02*
X20234500Y-14898214D01*
X20177357Y-14898214D01*
X20148786Y-14883929D01*
X20134500Y-14869643D01*
X20120214Y-14841071D01*
X20120214Y-14755357D01*
X20134500Y-14726786D01*
X20148786Y-14712500D01*
X20177357Y-14698214D01*
X20234500Y-14698214D01*
X20263071Y-14712500D01*
X20377357Y-15012500D02*
X20391643Y-14998214D01*
X20420214Y-14955357D01*
X20434500Y-14926786D01*
X20448786Y-14883929D01*
X20463071Y-14812500D01*
X20463071Y-14755357D01*
X20448786Y-14683929D01*
X20434500Y-14641071D01*
X20420214Y-14612500D01*
X20391643Y-14569643D01*
X20377357Y-14555357D01*
X10919500Y-15242500D02*
G75*
G03*
X10919500Y-15242500I-180000J0D01*
G01*
X11177357Y-15078214D02*
X11363071Y-15078214D01*
X11263071Y-15192500D01*
X11305928Y-15192500D01*
X11334500Y-15206786D01*
X11348786Y-15221071D01*
X11363071Y-15249643D01*
X11363071Y-15321071D01*
X11348786Y-15349643D01*
X11334500Y-15363929D01*
X11305928Y-15378214D01*
X11220214Y-15378214D01*
X11191643Y-15363929D01*
X11177357Y-15349643D01*
X11491643Y-15349643D02*
X11505928Y-15363929D01*
X11491643Y-15378214D01*
X11477357Y-15363929D01*
X11491643Y-15349643D01*
X11491643Y-15378214D01*
X11763071Y-15078214D02*
X11705928Y-15078214D01*
X11677357Y-15092500D01*
X11663071Y-15106786D01*
X11634500Y-15149643D01*
X11620214Y-15206786D01*
X11620214Y-15321071D01*
X11634500Y-15349643D01*
X11648786Y-15363929D01*
X11677357Y-15378214D01*
X11734500Y-15378214D01*
X11763071Y-15363929D01*
X11777357Y-15349643D01*
X11791643Y-15321071D01*
X11791643Y-15249643D01*
X11777357Y-15221071D01*
X11763071Y-15206786D01*
X11734500Y-15192500D01*
X11677357Y-15192500D01*
X11648786Y-15206786D01*
X11634500Y-15221071D01*
X11620214Y-15249643D01*
X11977357Y-15078214D02*
X12005928Y-15078214D01*
X12034500Y-15092500D01*
X12048786Y-15106786D01*
X12063071Y-15135357D01*
X12077357Y-15192500D01*
X12077357Y-15263929D01*
X12063071Y-15321071D01*
X12048786Y-15349643D01*
X12034500Y-15363929D01*
X12005928Y-15378214D01*
X11977357Y-15378214D01*
X11948786Y-15363929D01*
X11934500Y-15349643D01*
X11920214Y-15321071D01*
X11905928Y-15263929D01*
X11905928Y-15192500D01*
X11920214Y-15135357D01*
X11934500Y-15106786D01*
X11948786Y-15092500D01*
X11977357Y-15078214D01*
X12205928Y-15378214D02*
X12205928Y-15178214D01*
X12205928Y-15206786D02*
X12220214Y-15192500D01*
X12248786Y-15178214D01*
X12291643Y-15178214D01*
X12320214Y-15192500D01*
X12334500Y-15221071D01*
X12334500Y-15378214D01*
X12334500Y-15221071D02*
X12348786Y-15192500D01*
X12377357Y-15178214D01*
X12420214Y-15178214D01*
X12448786Y-15192500D01*
X12463071Y-15221071D01*
X12463071Y-15378214D01*
X12605928Y-15378214D02*
X12605928Y-15178214D01*
X12605928Y-15206786D02*
X12620214Y-15192500D01*
X12648786Y-15178214D01*
X12691643Y-15178214D01*
X12720214Y-15192500D01*
X12734500Y-15221071D01*
X12734500Y-15378214D01*
X12734500Y-15221071D02*
X12748786Y-15192500D01*
X12777357Y-15178214D01*
X12820214Y-15178214D01*
X12848786Y-15192500D01*
X12863071Y-15221071D01*
X12863071Y-15378214D01*
X13448786Y-15063929D02*
X13191643Y-15449643D01*
X13834500Y-15078214D02*
X13863071Y-15078214D01*
X13891643Y-15092500D01*
X13905928Y-15106786D01*
X13920214Y-15135357D01*
X13934500Y-15192500D01*
X13934500Y-15263929D01*
X13920214Y-15321071D01*
X13905928Y-15349643D01*
X13891643Y-15363929D01*
X13863071Y-15378214D01*
X13834500Y-15378214D01*
X13805928Y-15363929D01*
X13791643Y-15349643D01*
X13777357Y-15321071D01*
X13763071Y-15263929D01*
X13763071Y-15192500D01*
X13777357Y-15135357D01*
X13791643Y-15106786D01*
X13805928Y-15092500D01*
X13834500Y-15078214D01*
X14063071Y-15349643D02*
X14077357Y-15363929D01*
X14063071Y-15378214D01*
X14048786Y-15363929D01*
X14063071Y-15349643D01*
X14063071Y-15378214D01*
X14363071Y-15378214D02*
X14191643Y-15378214D01*
X14277357Y-15378214D02*
X14277357Y-15078214D01*
X14248786Y-15121071D01*
X14220214Y-15149643D01*
X14191643Y-15163929D01*
X14620214Y-15178214D02*
X14620214Y-15378214D01*
X14548786Y-15063929D02*
X14477357Y-15278214D01*
X14663071Y-15278214D01*
X14763071Y-15106786D02*
X14777357Y-15092500D01*
X14805928Y-15078214D01*
X14877357Y-15078214D01*
X14905928Y-15092500D01*
X14920214Y-15106786D01*
X14934500Y-15135357D01*
X14934500Y-15163929D01*
X14920214Y-15206786D01*
X14748786Y-15378214D01*
X14934500Y-15378214D01*
X15048786Y-15078214D02*
X15048786Y-15135357D01*
X15163071Y-15078214D02*
X15163071Y-15135357D01*
X15605928Y-15492500D02*
X15591643Y-15478214D01*
X15563071Y-15435357D01*
X15548786Y-15406786D01*
X15534500Y-15363929D01*
X15520214Y-15292500D01*
X15520214Y-15235357D01*
X15534500Y-15163929D01*
X15548786Y-15121071D01*
X15563071Y-15092500D01*
X15591643Y-15049643D01*
X15605928Y-15035357D01*
X15705928Y-15106786D02*
X15720214Y-15092500D01*
X15748786Y-15078214D01*
X15820214Y-15078214D01*
X15848786Y-15092500D01*
X15863071Y-15106786D01*
X15877357Y-15135357D01*
X15877357Y-15163929D01*
X15863071Y-15206786D01*
X15691643Y-15378214D01*
X15877357Y-15378214D01*
X16234500Y-15378214D02*
X16234500Y-15078214D01*
X16363071Y-15378214D02*
X16363071Y-15221071D01*
X16348786Y-15192500D01*
X16320214Y-15178214D01*
X16277357Y-15178214D01*
X16248786Y-15192500D01*
X16234500Y-15206786D01*
X16548786Y-15378214D02*
X16520214Y-15363929D01*
X16505928Y-15349643D01*
X16491643Y-15321071D01*
X16491643Y-15235357D01*
X16505928Y-15206786D01*
X16520214Y-15192500D01*
X16548786Y-15178214D01*
X16591643Y-15178214D01*
X16620214Y-15192500D01*
X16634500Y-15206786D01*
X16648786Y-15235357D01*
X16648786Y-15321071D01*
X16634500Y-15349643D01*
X16620214Y-15363929D01*
X16591643Y-15378214D01*
X16548786Y-15378214D01*
X16820214Y-15378214D02*
X16791643Y-15363929D01*
X16777357Y-15335357D01*
X16777357Y-15078214D01*
X17048786Y-15363929D02*
X17020214Y-15378214D01*
X16963071Y-15378214D01*
X16934500Y-15363929D01*
X16920214Y-15335357D01*
X16920214Y-15221071D01*
X16934500Y-15192500D01*
X16963071Y-15178214D01*
X17020214Y-15178214D01*
X17048786Y-15192500D01*
X17063071Y-15221071D01*
X17063071Y-15249643D01*
X16920214Y-15278214D01*
X17177357Y-15363929D02*
X17205928Y-15378214D01*
X17263071Y-15378214D01*
X17291643Y-15363929D01*
X17305928Y-15335357D01*
X17305928Y-15321071D01*
X17291643Y-15292500D01*
X17263071Y-15278214D01*
X17220214Y-15278214D01*
X17191643Y-15263929D01*
X17177357Y-15235357D01*
X17177357Y-15221071D01*
X17191643Y-15192500D01*
X17220214Y-15178214D01*
X17263071Y-15178214D01*
X17291643Y-15192500D01*
X17405928Y-15492500D02*
X17420214Y-15478214D01*
X17448786Y-15435357D01*
X17463071Y-15406786D01*
X17477357Y-15363929D01*
X17491643Y-15292500D01*
X17491643Y-15235357D01*
X17477357Y-15163929D01*
X17463071Y-15121071D01*
X17448786Y-15092500D01*
X17420214Y-15049643D01*
X17405928Y-15035357D01*
X17948786Y-15492500D02*
X17934500Y-15478214D01*
X17905928Y-15435357D01*
X17891643Y-15406786D01*
X17877357Y-15363929D01*
X17863071Y-15292500D01*
X17863071Y-15235357D01*
X17877357Y-15163929D01*
X17891643Y-15121071D01*
X17905928Y-15092500D01*
X17934500Y-15049643D01*
X17948786Y-15035357D01*
X18063071Y-15178214D02*
X18063071Y-15378214D01*
X18063071Y-15206786D02*
X18077357Y-15192500D01*
X18105928Y-15178214D01*
X18148786Y-15178214D01*
X18177357Y-15192500D01*
X18191643Y-15221071D01*
X18191643Y-15378214D01*
X18377357Y-15378214D02*
X18348786Y-15363929D01*
X18334500Y-15349643D01*
X18320214Y-15321071D01*
X18320214Y-15235357D01*
X18334500Y-15206786D01*
X18348786Y-15192500D01*
X18377357Y-15178214D01*
X18420214Y-15178214D01*
X18448786Y-15192500D01*
X18463071Y-15206786D01*
X18477357Y-15235357D01*
X18477357Y-15321071D01*
X18463071Y-15349643D01*
X18448786Y-15363929D01*
X18420214Y-15378214D01*
X18377357Y-15378214D01*
X18563071Y-15178214D02*
X18677357Y-15178214D01*
X18605928Y-15078214D02*
X18605928Y-15335357D01*
X18620214Y-15363929D01*
X18648786Y-15378214D01*
X18677357Y-15378214D01*
X19005928Y-15178214D02*
X19005928Y-15478214D01*
X19005928Y-15192500D02*
X19034500Y-15178214D01*
X19091643Y-15178214D01*
X19120214Y-15192500D01*
X19134500Y-15206786D01*
X19148786Y-15235357D01*
X19148786Y-15321071D01*
X19134500Y-15349643D01*
X19120214Y-15363929D01*
X19091643Y-15378214D01*
X19034500Y-15378214D01*
X19005928Y-15363929D01*
X19320214Y-15378214D02*
X19291643Y-15363929D01*
X19277357Y-15335357D01*
X19277357Y-15078214D01*
X19563071Y-15378214D02*
X19563071Y-15221071D01*
X19548786Y-15192500D01*
X19520214Y-15178214D01*
X19463071Y-15178214D01*
X19434500Y-15192500D01*
X19563071Y-15363929D02*
X19534500Y-15378214D01*
X19463071Y-15378214D01*
X19434500Y-15363929D01*
X19420214Y-15335357D01*
X19420214Y-15306786D01*
X19434500Y-15278214D01*
X19463071Y-15263929D01*
X19534500Y-15263929D01*
X19563071Y-15249643D01*
X19663071Y-15178214D02*
X19777357Y-15178214D01*
X19705928Y-15078214D02*
X19705928Y-15335357D01*
X19720214Y-15363929D01*
X19748786Y-15378214D01*
X19777357Y-15378214D01*
X19991643Y-15363929D02*
X19963071Y-15378214D01*
X19905928Y-15378214D01*
X19877357Y-15363929D01*
X19863071Y-15335357D01*
X19863071Y-15221071D01*
X19877357Y-15192500D01*
X19905928Y-15178214D01*
X19963071Y-15178214D01*
X19991643Y-15192500D01*
X20005928Y-15221071D01*
X20005928Y-15249643D01*
X19863071Y-15278214D01*
X20263071Y-15378214D02*
X20263071Y-15078214D01*
X20263071Y-15363929D02*
X20234500Y-15378214D01*
X20177357Y-15378214D01*
X20148786Y-15363929D01*
X20134500Y-15349643D01*
X20120214Y-15321071D01*
X20120214Y-15235357D01*
X20134500Y-15206786D01*
X20148786Y-15192500D01*
X20177357Y-15178214D01*
X20234500Y-15178214D01*
X20263071Y-15192500D01*
X20377357Y-15492500D02*
X20391643Y-15478214D01*
X20420214Y-15435357D01*
X20434500Y-15406786D01*
X20448786Y-15363929D01*
X20463071Y-15292500D01*
X20463071Y-15235357D01*
X20448786Y-15163929D01*
X20434500Y-15121071D01*
X20420214Y-15092500D01*
X20391643Y-15049643D01*
X20377357Y-15035357D01*
M02*
