%FSLAX45Y45*%
G04 Gerber Fmt 4.5, Leading zero omitted, Abs format (unit mm)*
G04 Created by KiCad (PCBNEW (5.1.6-0-10_14)) date 2020-08-26 18:43:04*
%MOMM*%
%LPD*%
G01*
G04 APERTURE LIST*
%TA.AperFunction,Profile*%
%ADD10C,0.050000*%
%TD*%
%ADD11C,0.200000*%
%ADD12C,0.300000*%
G04 APERTURE END LIST*
D10*
X19500000Y-6700000D02*
X19500000Y-13900000D01*
X19500000Y-13900000D02*
G75*
G02*
X19000000Y-14400000I-500000J0D01*
G01*
X19000000Y-6200000D02*
G75*
G02*
X19500000Y-6700000I0J-500000D01*
G01*
X11800000Y-6200000D02*
X19000000Y-6200000D01*
X11800000Y-14400000D02*
X11800000Y-6200000D01*
X19000000Y-14400000D02*
X11800000Y-14400000D01*
D11*
X15030000Y-12230000D02*
X15110000Y-12310000D01*
X15110000Y-12230000D02*
X15030000Y-12310000D01*
X15780000Y-12600000D02*
X15860000Y-12680000D01*
X15860000Y-12600000D02*
X15780000Y-12680000D01*
X16570000Y-11110000D02*
X16650000Y-11190000D01*
X16650000Y-11110000D02*
X16570000Y-11190000D01*
X16790000Y-10360000D02*
X16870000Y-10440000D01*
X16870000Y-10360000D02*
X16790000Y-10440000D01*
X15260000Y-11300000D02*
X15340000Y-11380000D01*
X15340000Y-11300000D02*
X15260000Y-11380000D01*
X16010000Y-11670000D02*
X16090000Y-11750000D01*
X16090000Y-11670000D02*
X16010000Y-11750000D01*
X16570000Y-12610000D02*
X16650000Y-12690000D01*
X16650000Y-12610000D02*
X16570000Y-12690000D01*
X16790000Y-11860000D02*
X16870000Y-11940000D01*
X16870000Y-11860000D02*
X16790000Y-11940000D01*
X13815000Y-8285000D02*
G75*
G03*
X13815000Y-8285000I-65000J0D01*
G01*
X13815000Y-8885000D02*
G75*
G03*
X13815000Y-8885000I-65000J0D01*
G01*
X17975000Y-10400000D02*
G75*
G03*
X17975000Y-10400000I-65000J0D01*
G01*
X17975000Y-11150000D02*
G75*
G03*
X17975000Y-11150000I-65000J0D01*
G01*
X17975000Y-11900000D02*
G75*
G03*
X17975000Y-11900000I-65000J0D01*
G01*
X17975000Y-12650000D02*
G75*
G03*
X17975000Y-12650000I-65000J0D01*
G01*
X13750000Y-11725000D02*
X13750000Y-11885000D01*
X13670000Y-11805000D02*
X13830000Y-11805000D01*
X17175408Y-7585408D02*
X17175408Y-7454592D01*
X17044592Y-7454592D01*
X17044592Y-7585408D01*
X17175408Y-7585408D01*
X17175408Y-8465408D02*
X17175408Y-8334592D01*
X17044592Y-8334592D01*
X17044592Y-8465408D01*
X17175408Y-8465408D01*
X17175408Y-9345408D02*
X17175408Y-9214592D01*
X17044592Y-9214592D01*
X17044592Y-9345408D01*
X17175408Y-9345408D01*
X17975408Y-7585408D02*
X17975408Y-7454592D01*
X17844592Y-7454592D01*
X17844592Y-7585408D01*
X17975408Y-7585408D01*
X17975408Y-8465408D02*
X17975408Y-8334592D01*
X17844592Y-8334592D01*
X17844592Y-8465408D01*
X17975408Y-8465408D01*
X17975408Y-9345408D02*
X17975408Y-9214592D01*
X17844592Y-9214592D01*
X17844592Y-9345408D01*
X17975408Y-9345408D01*
X16200000Y-14010000D02*
X16310000Y-13900000D01*
X16200000Y-13790000D01*
X16090000Y-13900000D01*
X16200000Y-14010000D01*
X13573600Y-13728200D02*
X13923600Y-14078200D01*
X13923600Y-13728200D02*
X13573600Y-14078200D01*
X13923600Y-13903200D02*
G75*
G03*
X13923600Y-13903200I-175000J0D01*
G01*
D12*
X12083928Y-14868214D02*
X12083928Y-14568214D01*
X12155357Y-14568214D01*
X12198214Y-14582500D01*
X12226786Y-14611071D01*
X12241071Y-14639643D01*
X12255357Y-14696786D01*
X12255357Y-14739643D01*
X12241071Y-14796786D01*
X12226786Y-14825357D01*
X12198214Y-14853929D01*
X12155357Y-14868214D01*
X12083928Y-14868214D01*
X12383928Y-14868214D02*
X12383928Y-14668214D01*
X12383928Y-14725357D02*
X12398214Y-14696786D01*
X12412500Y-14682500D01*
X12441071Y-14668214D01*
X12469643Y-14668214D01*
X12569643Y-14868214D02*
X12569643Y-14668214D01*
X12569643Y-14568214D02*
X12555357Y-14582500D01*
X12569643Y-14596786D01*
X12583928Y-14582500D01*
X12569643Y-14568214D01*
X12569643Y-14596786D01*
X12755357Y-14868214D02*
X12726786Y-14853929D01*
X12712500Y-14825357D01*
X12712500Y-14568214D01*
X12912500Y-14868214D02*
X12883928Y-14853929D01*
X12869643Y-14825357D01*
X12869643Y-14568214D01*
X13255357Y-14868214D02*
X13255357Y-14568214D01*
X13355357Y-14782500D01*
X13455357Y-14568214D01*
X13455357Y-14868214D01*
X13726786Y-14868214D02*
X13726786Y-14711071D01*
X13712500Y-14682500D01*
X13683928Y-14668214D01*
X13626786Y-14668214D01*
X13598214Y-14682500D01*
X13726786Y-14853929D02*
X13698214Y-14868214D01*
X13626786Y-14868214D01*
X13598214Y-14853929D01*
X13583928Y-14825357D01*
X13583928Y-14796786D01*
X13598214Y-14768214D01*
X13626786Y-14753929D01*
X13698214Y-14753929D01*
X13726786Y-14739643D01*
X13869643Y-14668214D02*
X13869643Y-14968214D01*
X13869643Y-14682500D02*
X13898214Y-14668214D01*
X13955357Y-14668214D01*
X13983928Y-14682500D01*
X13998214Y-14696786D01*
X14012500Y-14725357D01*
X14012500Y-14811071D01*
X13998214Y-14839643D01*
X13983928Y-14853929D01*
X13955357Y-14868214D01*
X13898214Y-14868214D01*
X13869643Y-14853929D01*
X14141071Y-14839643D02*
X14155357Y-14853929D01*
X14141071Y-14868214D01*
X14126786Y-14853929D01*
X14141071Y-14839643D01*
X14141071Y-14868214D01*
X14141071Y-14682500D02*
X14155357Y-14696786D01*
X14141071Y-14711071D01*
X14126786Y-14696786D01*
X14141071Y-14682500D01*
X14141071Y-14711071D01*
X11717500Y-15322500D02*
X11797500Y-15402500D01*
X11797500Y-15322500D02*
X11717500Y-15402500D01*
X12141071Y-15198214D02*
X12169643Y-15198214D01*
X12198214Y-15212500D01*
X12212500Y-15226786D01*
X12226786Y-15255357D01*
X12241071Y-15312500D01*
X12241071Y-15383929D01*
X12226786Y-15441071D01*
X12212500Y-15469643D01*
X12198214Y-15483929D01*
X12169643Y-15498214D01*
X12141071Y-15498214D01*
X12112500Y-15483929D01*
X12098214Y-15469643D01*
X12083928Y-15441071D01*
X12069643Y-15383929D01*
X12069643Y-15312500D01*
X12083928Y-15255357D01*
X12098214Y-15226786D01*
X12112500Y-15212500D01*
X12141071Y-15198214D01*
X12369643Y-15469643D02*
X12383928Y-15483929D01*
X12369643Y-15498214D01*
X12355357Y-15483929D01*
X12369643Y-15469643D01*
X12369643Y-15498214D01*
X12555357Y-15326786D02*
X12526786Y-15312500D01*
X12512500Y-15298214D01*
X12498214Y-15269643D01*
X12498214Y-15255357D01*
X12512500Y-15226786D01*
X12526786Y-15212500D01*
X12555357Y-15198214D01*
X12612500Y-15198214D01*
X12641071Y-15212500D01*
X12655357Y-15226786D01*
X12669643Y-15255357D01*
X12669643Y-15269643D01*
X12655357Y-15298214D01*
X12641071Y-15312500D01*
X12612500Y-15326786D01*
X12555357Y-15326786D01*
X12526786Y-15341071D01*
X12512500Y-15355357D01*
X12498214Y-15383929D01*
X12498214Y-15441071D01*
X12512500Y-15469643D01*
X12526786Y-15483929D01*
X12555357Y-15498214D01*
X12612500Y-15498214D01*
X12641071Y-15483929D01*
X12655357Y-15469643D01*
X12669643Y-15441071D01*
X12669643Y-15383929D01*
X12655357Y-15355357D01*
X12641071Y-15341071D01*
X12612500Y-15326786D01*
X12855357Y-15198214D02*
X12883928Y-15198214D01*
X12912500Y-15212500D01*
X12926786Y-15226786D01*
X12941071Y-15255357D01*
X12955357Y-15312500D01*
X12955357Y-15383929D01*
X12941071Y-15441071D01*
X12926786Y-15469643D01*
X12912500Y-15483929D01*
X12883928Y-15498214D01*
X12855357Y-15498214D01*
X12826786Y-15483929D01*
X12812500Y-15469643D01*
X12798214Y-15441071D01*
X12783928Y-15383929D01*
X12783928Y-15312500D01*
X12798214Y-15255357D01*
X12812500Y-15226786D01*
X12826786Y-15212500D01*
X12855357Y-15198214D01*
X13083928Y-15498214D02*
X13083928Y-15298214D01*
X13083928Y-15326786D02*
X13098214Y-15312500D01*
X13126786Y-15298214D01*
X13169643Y-15298214D01*
X13198214Y-15312500D01*
X13212500Y-15341071D01*
X13212500Y-15498214D01*
X13212500Y-15341071D02*
X13226786Y-15312500D01*
X13255357Y-15298214D01*
X13298214Y-15298214D01*
X13326786Y-15312500D01*
X13341071Y-15341071D01*
X13341071Y-15498214D01*
X13483928Y-15498214D02*
X13483928Y-15298214D01*
X13483928Y-15326786D02*
X13498214Y-15312500D01*
X13526786Y-15298214D01*
X13569643Y-15298214D01*
X13598214Y-15312500D01*
X13612500Y-15341071D01*
X13612500Y-15498214D01*
X13612500Y-15341071D02*
X13626786Y-15312500D01*
X13655357Y-15298214D01*
X13698214Y-15298214D01*
X13726786Y-15312500D01*
X13741071Y-15341071D01*
X13741071Y-15498214D01*
X14326786Y-15183929D02*
X14069643Y-15569643D01*
X14712500Y-15198214D02*
X14741071Y-15198214D01*
X14769643Y-15212500D01*
X14783928Y-15226786D01*
X14798214Y-15255357D01*
X14812500Y-15312500D01*
X14812500Y-15383929D01*
X14798214Y-15441071D01*
X14783928Y-15469643D01*
X14769643Y-15483929D01*
X14741071Y-15498214D01*
X14712500Y-15498214D01*
X14683928Y-15483929D01*
X14669643Y-15469643D01*
X14655357Y-15441071D01*
X14641071Y-15383929D01*
X14641071Y-15312500D01*
X14655357Y-15255357D01*
X14669643Y-15226786D01*
X14683928Y-15212500D01*
X14712500Y-15198214D01*
X14941071Y-15469643D02*
X14955357Y-15483929D01*
X14941071Y-15498214D01*
X14926786Y-15483929D01*
X14941071Y-15469643D01*
X14941071Y-15498214D01*
X15141071Y-15198214D02*
X15169643Y-15198214D01*
X15198214Y-15212500D01*
X15212500Y-15226786D01*
X15226786Y-15255357D01*
X15241071Y-15312500D01*
X15241071Y-15383929D01*
X15226786Y-15441071D01*
X15212500Y-15469643D01*
X15198214Y-15483929D01*
X15169643Y-15498214D01*
X15141071Y-15498214D01*
X15112500Y-15483929D01*
X15098214Y-15469643D01*
X15083928Y-15441071D01*
X15069643Y-15383929D01*
X15069643Y-15312500D01*
X15083928Y-15255357D01*
X15098214Y-15226786D01*
X15112500Y-15212500D01*
X15141071Y-15198214D01*
X15341071Y-15198214D02*
X15526786Y-15198214D01*
X15426786Y-15312500D01*
X15469643Y-15312500D01*
X15498214Y-15326786D01*
X15512500Y-15341071D01*
X15526786Y-15369643D01*
X15526786Y-15441071D01*
X15512500Y-15469643D01*
X15498214Y-15483929D01*
X15469643Y-15498214D01*
X15383928Y-15498214D01*
X15355357Y-15483929D01*
X15341071Y-15469643D01*
X15812500Y-15498214D02*
X15641071Y-15498214D01*
X15726786Y-15498214D02*
X15726786Y-15198214D01*
X15698214Y-15241071D01*
X15669643Y-15269643D01*
X15641071Y-15283929D01*
X15926786Y-15198214D02*
X15926786Y-15255357D01*
X16041071Y-15198214D02*
X16041071Y-15255357D01*
X16483928Y-15612500D02*
X16469643Y-15598214D01*
X16441071Y-15555357D01*
X16426786Y-15526786D01*
X16412500Y-15483929D01*
X16398214Y-15412500D01*
X16398214Y-15355357D01*
X16412500Y-15283929D01*
X16426786Y-15241071D01*
X16441071Y-15212500D01*
X16469643Y-15169643D01*
X16483928Y-15155357D01*
X16641071Y-15326786D02*
X16612500Y-15312500D01*
X16598214Y-15298214D01*
X16583928Y-15269643D01*
X16583928Y-15255357D01*
X16598214Y-15226786D01*
X16612500Y-15212500D01*
X16641071Y-15198214D01*
X16698214Y-15198214D01*
X16726786Y-15212500D01*
X16741071Y-15226786D01*
X16755357Y-15255357D01*
X16755357Y-15269643D01*
X16741071Y-15298214D01*
X16726786Y-15312500D01*
X16698214Y-15326786D01*
X16641071Y-15326786D01*
X16612500Y-15341071D01*
X16598214Y-15355357D01*
X16583928Y-15383929D01*
X16583928Y-15441071D01*
X16598214Y-15469643D01*
X16612500Y-15483929D01*
X16641071Y-15498214D01*
X16698214Y-15498214D01*
X16726786Y-15483929D01*
X16741071Y-15469643D01*
X16755357Y-15441071D01*
X16755357Y-15383929D01*
X16741071Y-15355357D01*
X16726786Y-15341071D01*
X16698214Y-15326786D01*
X17112500Y-15498214D02*
X17112500Y-15198214D01*
X17241071Y-15498214D02*
X17241071Y-15341071D01*
X17226786Y-15312500D01*
X17198214Y-15298214D01*
X17155357Y-15298214D01*
X17126786Y-15312500D01*
X17112500Y-15326786D01*
X17426786Y-15498214D02*
X17398214Y-15483929D01*
X17383928Y-15469643D01*
X17369643Y-15441071D01*
X17369643Y-15355357D01*
X17383928Y-15326786D01*
X17398214Y-15312500D01*
X17426786Y-15298214D01*
X17469643Y-15298214D01*
X17498214Y-15312500D01*
X17512500Y-15326786D01*
X17526786Y-15355357D01*
X17526786Y-15441071D01*
X17512500Y-15469643D01*
X17498214Y-15483929D01*
X17469643Y-15498214D01*
X17426786Y-15498214D01*
X17698214Y-15498214D02*
X17669643Y-15483929D01*
X17655357Y-15455357D01*
X17655357Y-15198214D01*
X17926786Y-15483929D02*
X17898214Y-15498214D01*
X17841071Y-15498214D01*
X17812500Y-15483929D01*
X17798214Y-15455357D01*
X17798214Y-15341071D01*
X17812500Y-15312500D01*
X17841071Y-15298214D01*
X17898214Y-15298214D01*
X17926786Y-15312500D01*
X17941071Y-15341071D01*
X17941071Y-15369643D01*
X17798214Y-15398214D01*
X18055357Y-15483929D02*
X18083928Y-15498214D01*
X18141071Y-15498214D01*
X18169643Y-15483929D01*
X18183928Y-15455357D01*
X18183928Y-15441071D01*
X18169643Y-15412500D01*
X18141071Y-15398214D01*
X18098214Y-15398214D01*
X18069643Y-15383929D01*
X18055357Y-15355357D01*
X18055357Y-15341071D01*
X18069643Y-15312500D01*
X18098214Y-15298214D01*
X18141071Y-15298214D01*
X18169643Y-15312500D01*
X18283928Y-15612500D02*
X18298214Y-15598214D01*
X18326786Y-15555357D01*
X18341071Y-15526786D01*
X18355357Y-15483929D01*
X18369643Y-15412500D01*
X18369643Y-15355357D01*
X18355357Y-15283929D01*
X18341071Y-15241071D01*
X18326786Y-15212500D01*
X18298214Y-15169643D01*
X18283928Y-15155357D01*
X11797500Y-15758500D02*
G75*
G03*
X11797500Y-15758500I-65000J0D01*
G01*
X12241071Y-15894214D02*
X12069643Y-15894214D01*
X12155357Y-15894214D02*
X12155357Y-15594214D01*
X12126786Y-15637071D01*
X12098214Y-15665643D01*
X12069643Y-15679929D01*
X12369643Y-15865643D02*
X12383928Y-15879929D01*
X12369643Y-15894214D01*
X12355357Y-15879929D01*
X12369643Y-15865643D01*
X12369643Y-15894214D01*
X12483928Y-15594214D02*
X12669643Y-15594214D01*
X12569643Y-15708500D01*
X12612500Y-15708500D01*
X12641071Y-15722786D01*
X12655357Y-15737071D01*
X12669643Y-15765643D01*
X12669643Y-15837071D01*
X12655357Y-15865643D01*
X12641071Y-15879929D01*
X12612500Y-15894214D01*
X12526786Y-15894214D01*
X12498214Y-15879929D01*
X12483928Y-15865643D01*
X12855357Y-15594214D02*
X12883928Y-15594214D01*
X12912500Y-15608500D01*
X12926786Y-15622786D01*
X12941071Y-15651357D01*
X12955357Y-15708500D01*
X12955357Y-15779929D01*
X12941071Y-15837071D01*
X12926786Y-15865643D01*
X12912500Y-15879929D01*
X12883928Y-15894214D01*
X12855357Y-15894214D01*
X12826786Y-15879929D01*
X12812500Y-15865643D01*
X12798214Y-15837071D01*
X12783928Y-15779929D01*
X12783928Y-15708500D01*
X12798214Y-15651357D01*
X12812500Y-15622786D01*
X12826786Y-15608500D01*
X12855357Y-15594214D01*
X13083928Y-15894214D02*
X13083928Y-15694214D01*
X13083928Y-15722786D02*
X13098214Y-15708500D01*
X13126786Y-15694214D01*
X13169643Y-15694214D01*
X13198214Y-15708500D01*
X13212500Y-15737071D01*
X13212500Y-15894214D01*
X13212500Y-15737071D02*
X13226786Y-15708500D01*
X13255357Y-15694214D01*
X13298214Y-15694214D01*
X13326786Y-15708500D01*
X13341071Y-15737071D01*
X13341071Y-15894214D01*
X13483928Y-15894214D02*
X13483928Y-15694214D01*
X13483928Y-15722786D02*
X13498214Y-15708500D01*
X13526786Y-15694214D01*
X13569643Y-15694214D01*
X13598214Y-15708500D01*
X13612500Y-15737071D01*
X13612500Y-15894214D01*
X13612500Y-15737071D02*
X13626786Y-15708500D01*
X13655357Y-15694214D01*
X13698214Y-15694214D01*
X13726786Y-15708500D01*
X13741071Y-15737071D01*
X13741071Y-15894214D01*
X14326786Y-15579929D02*
X14069643Y-15965643D01*
X14712500Y-15594214D02*
X14741071Y-15594214D01*
X14769643Y-15608500D01*
X14783928Y-15622786D01*
X14798214Y-15651357D01*
X14812500Y-15708500D01*
X14812500Y-15779929D01*
X14798214Y-15837071D01*
X14783928Y-15865643D01*
X14769643Y-15879929D01*
X14741071Y-15894214D01*
X14712500Y-15894214D01*
X14683928Y-15879929D01*
X14669643Y-15865643D01*
X14655357Y-15837071D01*
X14641071Y-15779929D01*
X14641071Y-15708500D01*
X14655357Y-15651357D01*
X14669643Y-15622786D01*
X14683928Y-15608500D01*
X14712500Y-15594214D01*
X14941071Y-15865643D02*
X14955357Y-15879929D01*
X14941071Y-15894214D01*
X14926786Y-15879929D01*
X14941071Y-15865643D01*
X14941071Y-15894214D01*
X15141071Y-15594214D02*
X15169643Y-15594214D01*
X15198214Y-15608500D01*
X15212500Y-15622786D01*
X15226786Y-15651357D01*
X15241071Y-15708500D01*
X15241071Y-15779929D01*
X15226786Y-15837071D01*
X15212500Y-15865643D01*
X15198214Y-15879929D01*
X15169643Y-15894214D01*
X15141071Y-15894214D01*
X15112500Y-15879929D01*
X15098214Y-15865643D01*
X15083928Y-15837071D01*
X15069643Y-15779929D01*
X15069643Y-15708500D01*
X15083928Y-15651357D01*
X15098214Y-15622786D01*
X15112500Y-15608500D01*
X15141071Y-15594214D01*
X15512500Y-15594214D02*
X15369643Y-15594214D01*
X15355357Y-15737071D01*
X15369643Y-15722786D01*
X15398214Y-15708500D01*
X15469643Y-15708500D01*
X15498214Y-15722786D01*
X15512500Y-15737071D01*
X15526786Y-15765643D01*
X15526786Y-15837071D01*
X15512500Y-15865643D01*
X15498214Y-15879929D01*
X15469643Y-15894214D01*
X15398214Y-15894214D01*
X15369643Y-15879929D01*
X15355357Y-15865643D01*
X15812500Y-15894214D02*
X15641071Y-15894214D01*
X15726786Y-15894214D02*
X15726786Y-15594214D01*
X15698214Y-15637071D01*
X15669643Y-15665643D01*
X15641071Y-15679929D01*
X15926786Y-15594214D02*
X15926786Y-15651357D01*
X16041071Y-15594214D02*
X16041071Y-15651357D01*
X16483928Y-16008500D02*
X16469643Y-15994214D01*
X16441071Y-15951357D01*
X16426786Y-15922786D01*
X16412500Y-15879929D01*
X16398214Y-15808500D01*
X16398214Y-15751357D01*
X16412500Y-15679929D01*
X16426786Y-15637071D01*
X16441071Y-15608500D01*
X16469643Y-15565643D01*
X16483928Y-15551357D01*
X16726786Y-15594214D02*
X16669643Y-15594214D01*
X16641071Y-15608500D01*
X16626786Y-15622786D01*
X16598214Y-15665643D01*
X16583928Y-15722786D01*
X16583928Y-15837071D01*
X16598214Y-15865643D01*
X16612500Y-15879929D01*
X16641071Y-15894214D01*
X16698214Y-15894214D01*
X16726786Y-15879929D01*
X16741071Y-15865643D01*
X16755357Y-15837071D01*
X16755357Y-15765643D01*
X16741071Y-15737071D01*
X16726786Y-15722786D01*
X16698214Y-15708500D01*
X16641071Y-15708500D01*
X16612500Y-15722786D01*
X16598214Y-15737071D01*
X16583928Y-15765643D01*
X17112500Y-15894214D02*
X17112500Y-15594214D01*
X17241071Y-15894214D02*
X17241071Y-15737071D01*
X17226786Y-15708500D01*
X17198214Y-15694214D01*
X17155357Y-15694214D01*
X17126786Y-15708500D01*
X17112500Y-15722786D01*
X17426786Y-15894214D02*
X17398214Y-15879929D01*
X17383928Y-15865643D01*
X17369643Y-15837071D01*
X17369643Y-15751357D01*
X17383928Y-15722786D01*
X17398214Y-15708500D01*
X17426786Y-15694214D01*
X17469643Y-15694214D01*
X17498214Y-15708500D01*
X17512500Y-15722786D01*
X17526786Y-15751357D01*
X17526786Y-15837071D01*
X17512500Y-15865643D01*
X17498214Y-15879929D01*
X17469643Y-15894214D01*
X17426786Y-15894214D01*
X17698214Y-15894214D02*
X17669643Y-15879929D01*
X17655357Y-15851357D01*
X17655357Y-15594214D01*
X17926786Y-15879929D02*
X17898214Y-15894214D01*
X17841071Y-15894214D01*
X17812500Y-15879929D01*
X17798214Y-15851357D01*
X17798214Y-15737071D01*
X17812500Y-15708500D01*
X17841071Y-15694214D01*
X17898214Y-15694214D01*
X17926786Y-15708500D01*
X17941071Y-15737071D01*
X17941071Y-15765643D01*
X17798214Y-15794214D01*
X18055357Y-15879929D02*
X18083928Y-15894214D01*
X18141071Y-15894214D01*
X18169643Y-15879929D01*
X18183928Y-15851357D01*
X18183928Y-15837071D01*
X18169643Y-15808500D01*
X18141071Y-15794214D01*
X18098214Y-15794214D01*
X18069643Y-15779929D01*
X18055357Y-15751357D01*
X18055357Y-15737071D01*
X18069643Y-15708500D01*
X18098214Y-15694214D01*
X18141071Y-15694214D01*
X18169643Y-15708500D01*
X18283928Y-16008500D02*
X18298214Y-15994214D01*
X18326786Y-15951357D01*
X18341071Y-15922786D01*
X18355357Y-15879929D01*
X18369643Y-15808500D01*
X18369643Y-15751357D01*
X18355357Y-15679929D01*
X18341071Y-15637071D01*
X18326786Y-15608500D01*
X18298214Y-15565643D01*
X18283928Y-15551357D01*
X11717500Y-16074500D02*
X11717500Y-16234500D01*
X11637500Y-16154500D02*
X11797500Y-16154500D01*
X12241071Y-16290214D02*
X12069643Y-16290214D01*
X12155357Y-16290214D02*
X12155357Y-15990214D01*
X12126786Y-16033071D01*
X12098214Y-16061643D01*
X12069643Y-16075929D01*
X12369643Y-16261643D02*
X12383928Y-16275929D01*
X12369643Y-16290214D01*
X12355357Y-16275929D01*
X12369643Y-16261643D01*
X12369643Y-16290214D01*
X12641071Y-15990214D02*
X12583928Y-15990214D01*
X12555357Y-16004500D01*
X12541071Y-16018786D01*
X12512500Y-16061643D01*
X12498214Y-16118786D01*
X12498214Y-16233071D01*
X12512500Y-16261643D01*
X12526786Y-16275929D01*
X12555357Y-16290214D01*
X12612500Y-16290214D01*
X12641071Y-16275929D01*
X12655357Y-16261643D01*
X12669643Y-16233071D01*
X12669643Y-16161643D01*
X12655357Y-16133071D01*
X12641071Y-16118786D01*
X12612500Y-16104500D01*
X12555357Y-16104500D01*
X12526786Y-16118786D01*
X12512500Y-16133071D01*
X12498214Y-16161643D01*
X12855357Y-15990214D02*
X12883928Y-15990214D01*
X12912500Y-16004500D01*
X12926786Y-16018786D01*
X12941071Y-16047357D01*
X12955357Y-16104500D01*
X12955357Y-16175929D01*
X12941071Y-16233071D01*
X12926786Y-16261643D01*
X12912500Y-16275929D01*
X12883928Y-16290214D01*
X12855357Y-16290214D01*
X12826786Y-16275929D01*
X12812500Y-16261643D01*
X12798214Y-16233071D01*
X12783928Y-16175929D01*
X12783928Y-16104500D01*
X12798214Y-16047357D01*
X12812500Y-16018786D01*
X12826786Y-16004500D01*
X12855357Y-15990214D01*
X13083928Y-16290214D02*
X13083928Y-16090214D01*
X13083928Y-16118786D02*
X13098214Y-16104500D01*
X13126786Y-16090214D01*
X13169643Y-16090214D01*
X13198214Y-16104500D01*
X13212500Y-16133071D01*
X13212500Y-16290214D01*
X13212500Y-16133071D02*
X13226786Y-16104500D01*
X13255357Y-16090214D01*
X13298214Y-16090214D01*
X13326786Y-16104500D01*
X13341071Y-16133071D01*
X13341071Y-16290214D01*
X13483928Y-16290214D02*
X13483928Y-16090214D01*
X13483928Y-16118786D02*
X13498214Y-16104500D01*
X13526786Y-16090214D01*
X13569643Y-16090214D01*
X13598214Y-16104500D01*
X13612500Y-16133071D01*
X13612500Y-16290214D01*
X13612500Y-16133071D02*
X13626786Y-16104500D01*
X13655357Y-16090214D01*
X13698214Y-16090214D01*
X13726786Y-16104500D01*
X13741071Y-16133071D01*
X13741071Y-16290214D01*
X14326786Y-15975929D02*
X14069643Y-16361643D01*
X14712500Y-15990214D02*
X14741071Y-15990214D01*
X14769643Y-16004500D01*
X14783928Y-16018786D01*
X14798214Y-16047357D01*
X14812500Y-16104500D01*
X14812500Y-16175929D01*
X14798214Y-16233071D01*
X14783928Y-16261643D01*
X14769643Y-16275929D01*
X14741071Y-16290214D01*
X14712500Y-16290214D01*
X14683928Y-16275929D01*
X14669643Y-16261643D01*
X14655357Y-16233071D01*
X14641071Y-16175929D01*
X14641071Y-16104500D01*
X14655357Y-16047357D01*
X14669643Y-16018786D01*
X14683928Y-16004500D01*
X14712500Y-15990214D01*
X14941071Y-16261643D02*
X14955357Y-16275929D01*
X14941071Y-16290214D01*
X14926786Y-16275929D01*
X14941071Y-16261643D01*
X14941071Y-16290214D01*
X15141071Y-15990214D02*
X15169643Y-15990214D01*
X15198214Y-16004500D01*
X15212500Y-16018786D01*
X15226786Y-16047357D01*
X15241071Y-16104500D01*
X15241071Y-16175929D01*
X15226786Y-16233071D01*
X15212500Y-16261643D01*
X15198214Y-16275929D01*
X15169643Y-16290214D01*
X15141071Y-16290214D01*
X15112500Y-16275929D01*
X15098214Y-16261643D01*
X15083928Y-16233071D01*
X15069643Y-16175929D01*
X15069643Y-16104500D01*
X15083928Y-16047357D01*
X15098214Y-16018786D01*
X15112500Y-16004500D01*
X15141071Y-15990214D01*
X15498214Y-15990214D02*
X15441071Y-15990214D01*
X15412500Y-16004500D01*
X15398214Y-16018786D01*
X15369643Y-16061643D01*
X15355357Y-16118786D01*
X15355357Y-16233071D01*
X15369643Y-16261643D01*
X15383928Y-16275929D01*
X15412500Y-16290214D01*
X15469643Y-16290214D01*
X15498214Y-16275929D01*
X15512500Y-16261643D01*
X15526786Y-16233071D01*
X15526786Y-16161643D01*
X15512500Y-16133071D01*
X15498214Y-16118786D01*
X15469643Y-16104500D01*
X15412500Y-16104500D01*
X15383928Y-16118786D01*
X15369643Y-16133071D01*
X15355357Y-16161643D01*
X15626786Y-15990214D02*
X15812500Y-15990214D01*
X15712500Y-16104500D01*
X15755357Y-16104500D01*
X15783928Y-16118786D01*
X15798214Y-16133071D01*
X15812500Y-16161643D01*
X15812500Y-16233071D01*
X15798214Y-16261643D01*
X15783928Y-16275929D01*
X15755357Y-16290214D01*
X15669643Y-16290214D01*
X15641071Y-16275929D01*
X15626786Y-16261643D01*
X15926786Y-15990214D02*
X15926786Y-16047357D01*
X16041071Y-15990214D02*
X16041071Y-16047357D01*
X16483928Y-16404500D02*
X16469643Y-16390214D01*
X16441071Y-16347357D01*
X16426786Y-16318786D01*
X16412500Y-16275929D01*
X16398214Y-16204500D01*
X16398214Y-16147357D01*
X16412500Y-16075929D01*
X16426786Y-16033071D01*
X16441071Y-16004500D01*
X16469643Y-15961643D01*
X16483928Y-15947357D01*
X16755357Y-16290214D02*
X16583928Y-16290214D01*
X16669643Y-16290214D02*
X16669643Y-15990214D01*
X16641071Y-16033071D01*
X16612500Y-16061643D01*
X16583928Y-16075929D01*
X17112500Y-16290214D02*
X17112500Y-15990214D01*
X17241071Y-16290214D02*
X17241071Y-16133071D01*
X17226786Y-16104500D01*
X17198214Y-16090214D01*
X17155357Y-16090214D01*
X17126786Y-16104500D01*
X17112500Y-16118786D01*
X17426786Y-16290214D02*
X17398214Y-16275929D01*
X17383928Y-16261643D01*
X17369643Y-16233071D01*
X17369643Y-16147357D01*
X17383928Y-16118786D01*
X17398214Y-16104500D01*
X17426786Y-16090214D01*
X17469643Y-16090214D01*
X17498214Y-16104500D01*
X17512500Y-16118786D01*
X17526786Y-16147357D01*
X17526786Y-16233071D01*
X17512500Y-16261643D01*
X17498214Y-16275929D01*
X17469643Y-16290214D01*
X17426786Y-16290214D01*
X17698214Y-16290214D02*
X17669643Y-16275929D01*
X17655357Y-16247357D01*
X17655357Y-15990214D01*
X17926786Y-16275929D02*
X17898214Y-16290214D01*
X17841071Y-16290214D01*
X17812500Y-16275929D01*
X17798214Y-16247357D01*
X17798214Y-16133071D01*
X17812500Y-16104500D01*
X17841071Y-16090214D01*
X17898214Y-16090214D01*
X17926786Y-16104500D01*
X17941071Y-16133071D01*
X17941071Y-16161643D01*
X17798214Y-16190214D01*
X18041071Y-16404500D02*
X18055357Y-16390214D01*
X18083928Y-16347357D01*
X18098214Y-16318786D01*
X18112500Y-16275929D01*
X18126786Y-16204500D01*
X18126786Y-16147357D01*
X18112500Y-16075929D01*
X18098214Y-16033071D01*
X18083928Y-16004500D01*
X18055357Y-15961643D01*
X18041071Y-15947357D01*
X11770408Y-16615908D02*
X11770408Y-16485092D01*
X11639592Y-16485092D01*
X11639592Y-16615908D01*
X11770408Y-16615908D01*
X12241071Y-16686214D02*
X12069643Y-16686214D01*
X12155357Y-16686214D02*
X12155357Y-16386214D01*
X12126786Y-16429071D01*
X12098214Y-16457643D01*
X12069643Y-16471929D01*
X12369643Y-16657643D02*
X12383928Y-16671929D01*
X12369643Y-16686214D01*
X12355357Y-16671929D01*
X12369643Y-16657643D01*
X12369643Y-16686214D01*
X12555357Y-16514786D02*
X12526786Y-16500500D01*
X12512500Y-16486214D01*
X12498214Y-16457643D01*
X12498214Y-16443357D01*
X12512500Y-16414786D01*
X12526786Y-16400500D01*
X12555357Y-16386214D01*
X12612500Y-16386214D01*
X12641071Y-16400500D01*
X12655357Y-16414786D01*
X12669643Y-16443357D01*
X12669643Y-16457643D01*
X12655357Y-16486214D01*
X12641071Y-16500500D01*
X12612500Y-16514786D01*
X12555357Y-16514786D01*
X12526786Y-16529071D01*
X12512500Y-16543357D01*
X12498214Y-16571929D01*
X12498214Y-16629071D01*
X12512500Y-16657643D01*
X12526786Y-16671929D01*
X12555357Y-16686214D01*
X12612500Y-16686214D01*
X12641071Y-16671929D01*
X12655357Y-16657643D01*
X12669643Y-16629071D01*
X12669643Y-16571929D01*
X12655357Y-16543357D01*
X12641071Y-16529071D01*
X12612500Y-16514786D01*
X12941071Y-16386214D02*
X12798214Y-16386214D01*
X12783928Y-16529071D01*
X12798214Y-16514786D01*
X12826786Y-16500500D01*
X12898214Y-16500500D01*
X12926786Y-16514786D01*
X12941071Y-16529071D01*
X12955357Y-16557643D01*
X12955357Y-16629071D01*
X12941071Y-16657643D01*
X12926786Y-16671929D01*
X12898214Y-16686214D01*
X12826786Y-16686214D01*
X12798214Y-16671929D01*
X12783928Y-16657643D01*
X13083928Y-16686214D02*
X13083928Y-16486214D01*
X13083928Y-16514786D02*
X13098214Y-16500500D01*
X13126786Y-16486214D01*
X13169643Y-16486214D01*
X13198214Y-16500500D01*
X13212500Y-16529071D01*
X13212500Y-16686214D01*
X13212500Y-16529071D02*
X13226786Y-16500500D01*
X13255357Y-16486214D01*
X13298214Y-16486214D01*
X13326786Y-16500500D01*
X13341071Y-16529071D01*
X13341071Y-16686214D01*
X13483928Y-16686214D02*
X13483928Y-16486214D01*
X13483928Y-16514786D02*
X13498214Y-16500500D01*
X13526786Y-16486214D01*
X13569643Y-16486214D01*
X13598214Y-16500500D01*
X13612500Y-16529071D01*
X13612500Y-16686214D01*
X13612500Y-16529071D02*
X13626786Y-16500500D01*
X13655357Y-16486214D01*
X13698214Y-16486214D01*
X13726786Y-16500500D01*
X13741071Y-16529071D01*
X13741071Y-16686214D01*
X14326786Y-16371929D02*
X14069643Y-16757643D01*
X14712500Y-16386214D02*
X14741071Y-16386214D01*
X14769643Y-16400500D01*
X14783928Y-16414786D01*
X14798214Y-16443357D01*
X14812500Y-16500500D01*
X14812500Y-16571929D01*
X14798214Y-16629071D01*
X14783928Y-16657643D01*
X14769643Y-16671929D01*
X14741071Y-16686214D01*
X14712500Y-16686214D01*
X14683928Y-16671929D01*
X14669643Y-16657643D01*
X14655357Y-16629071D01*
X14641071Y-16571929D01*
X14641071Y-16500500D01*
X14655357Y-16443357D01*
X14669643Y-16414786D01*
X14683928Y-16400500D01*
X14712500Y-16386214D01*
X14941071Y-16657643D02*
X14955357Y-16671929D01*
X14941071Y-16686214D01*
X14926786Y-16671929D01*
X14941071Y-16657643D01*
X14941071Y-16686214D01*
X15141071Y-16386214D02*
X15169643Y-16386214D01*
X15198214Y-16400500D01*
X15212500Y-16414786D01*
X15226786Y-16443357D01*
X15241071Y-16500500D01*
X15241071Y-16571929D01*
X15226786Y-16629071D01*
X15212500Y-16657643D01*
X15198214Y-16671929D01*
X15169643Y-16686214D01*
X15141071Y-16686214D01*
X15112500Y-16671929D01*
X15098214Y-16657643D01*
X15083928Y-16629071D01*
X15069643Y-16571929D01*
X15069643Y-16500500D01*
X15083928Y-16443357D01*
X15098214Y-16414786D01*
X15112500Y-16400500D01*
X15141071Y-16386214D01*
X15341071Y-16386214D02*
X15541071Y-16386214D01*
X15412500Y-16686214D01*
X15626786Y-16386214D02*
X15812500Y-16386214D01*
X15712500Y-16500500D01*
X15755357Y-16500500D01*
X15783928Y-16514786D01*
X15798214Y-16529071D01*
X15812500Y-16557643D01*
X15812500Y-16629071D01*
X15798214Y-16657643D01*
X15783928Y-16671929D01*
X15755357Y-16686214D01*
X15669643Y-16686214D01*
X15641071Y-16671929D01*
X15626786Y-16657643D01*
X15926786Y-16386214D02*
X15926786Y-16443357D01*
X16041071Y-16386214D02*
X16041071Y-16443357D01*
X16483928Y-16800500D02*
X16469643Y-16786214D01*
X16441071Y-16743357D01*
X16426786Y-16714786D01*
X16412500Y-16671929D01*
X16398214Y-16600500D01*
X16398214Y-16543357D01*
X16412500Y-16471929D01*
X16426786Y-16429071D01*
X16441071Y-16400500D01*
X16469643Y-16357643D01*
X16483928Y-16343357D01*
X16726786Y-16386214D02*
X16669643Y-16386214D01*
X16641071Y-16400500D01*
X16626786Y-16414786D01*
X16598214Y-16457643D01*
X16583928Y-16514786D01*
X16583928Y-16629071D01*
X16598214Y-16657643D01*
X16612500Y-16671929D01*
X16641071Y-16686214D01*
X16698214Y-16686214D01*
X16726786Y-16671929D01*
X16741071Y-16657643D01*
X16755357Y-16629071D01*
X16755357Y-16557643D01*
X16741071Y-16529071D01*
X16726786Y-16514786D01*
X16698214Y-16500500D01*
X16641071Y-16500500D01*
X16612500Y-16514786D01*
X16598214Y-16529071D01*
X16583928Y-16557643D01*
X17112500Y-16686214D02*
X17112500Y-16386214D01*
X17241071Y-16686214D02*
X17241071Y-16529071D01*
X17226786Y-16500500D01*
X17198214Y-16486214D01*
X17155357Y-16486214D01*
X17126786Y-16500500D01*
X17112500Y-16514786D01*
X17426786Y-16686214D02*
X17398214Y-16671929D01*
X17383928Y-16657643D01*
X17369643Y-16629071D01*
X17369643Y-16543357D01*
X17383928Y-16514786D01*
X17398214Y-16500500D01*
X17426786Y-16486214D01*
X17469643Y-16486214D01*
X17498214Y-16500500D01*
X17512500Y-16514786D01*
X17526786Y-16543357D01*
X17526786Y-16629071D01*
X17512500Y-16657643D01*
X17498214Y-16671929D01*
X17469643Y-16686214D01*
X17426786Y-16686214D01*
X17698214Y-16686214D02*
X17669643Y-16671929D01*
X17655357Y-16643357D01*
X17655357Y-16386214D01*
X17926786Y-16671929D02*
X17898214Y-16686214D01*
X17841071Y-16686214D01*
X17812500Y-16671929D01*
X17798214Y-16643357D01*
X17798214Y-16529071D01*
X17812500Y-16500500D01*
X17841071Y-16486214D01*
X17898214Y-16486214D01*
X17926786Y-16500500D01*
X17941071Y-16529071D01*
X17941071Y-16557643D01*
X17798214Y-16586214D01*
X18055357Y-16671929D02*
X18083928Y-16686214D01*
X18141071Y-16686214D01*
X18169643Y-16671929D01*
X18183928Y-16643357D01*
X18183928Y-16629071D01*
X18169643Y-16600500D01*
X18141071Y-16586214D01*
X18098214Y-16586214D01*
X18069643Y-16571929D01*
X18055357Y-16543357D01*
X18055357Y-16529071D01*
X18069643Y-16500500D01*
X18098214Y-16486214D01*
X18141071Y-16486214D01*
X18169643Y-16500500D01*
X18283928Y-16800500D02*
X18298214Y-16786214D01*
X18326786Y-16743357D01*
X18341071Y-16714786D01*
X18355357Y-16671929D01*
X18369643Y-16600500D01*
X18369643Y-16543357D01*
X18355357Y-16471929D01*
X18341071Y-16429071D01*
X18326786Y-16400500D01*
X18298214Y-16357643D01*
X18283928Y-16343357D01*
X11687500Y-17056500D02*
X11797500Y-16946500D01*
X11687500Y-16836500D01*
X11577500Y-16946500D01*
X11687500Y-17056500D01*
X12069643Y-16810786D02*
X12083928Y-16796500D01*
X12112500Y-16782214D01*
X12183928Y-16782214D01*
X12212500Y-16796500D01*
X12226786Y-16810786D01*
X12241071Y-16839357D01*
X12241071Y-16867929D01*
X12226786Y-16910786D01*
X12055357Y-17082214D01*
X12241071Y-17082214D01*
X12369643Y-17053643D02*
X12383928Y-17067929D01*
X12369643Y-17082214D01*
X12355357Y-17067929D01*
X12369643Y-17053643D01*
X12369643Y-17082214D01*
X12498214Y-16810786D02*
X12512500Y-16796500D01*
X12541071Y-16782214D01*
X12612500Y-16782214D01*
X12641071Y-16796500D01*
X12655357Y-16810786D01*
X12669643Y-16839357D01*
X12669643Y-16867929D01*
X12655357Y-16910786D01*
X12483928Y-17082214D01*
X12669643Y-17082214D01*
X12855357Y-16782214D02*
X12883928Y-16782214D01*
X12912500Y-16796500D01*
X12926786Y-16810786D01*
X12941071Y-16839357D01*
X12955357Y-16896500D01*
X12955357Y-16967929D01*
X12941071Y-17025072D01*
X12926786Y-17053643D01*
X12912500Y-17067929D01*
X12883928Y-17082214D01*
X12855357Y-17082214D01*
X12826786Y-17067929D01*
X12812500Y-17053643D01*
X12798214Y-17025072D01*
X12783928Y-16967929D01*
X12783928Y-16896500D01*
X12798214Y-16839357D01*
X12812500Y-16810786D01*
X12826786Y-16796500D01*
X12855357Y-16782214D01*
X13083928Y-17082214D02*
X13083928Y-16882214D01*
X13083928Y-16910786D02*
X13098214Y-16896500D01*
X13126786Y-16882214D01*
X13169643Y-16882214D01*
X13198214Y-16896500D01*
X13212500Y-16925072D01*
X13212500Y-17082214D01*
X13212500Y-16925072D02*
X13226786Y-16896500D01*
X13255357Y-16882214D01*
X13298214Y-16882214D01*
X13326786Y-16896500D01*
X13341071Y-16925072D01*
X13341071Y-17082214D01*
X13483928Y-17082214D02*
X13483928Y-16882214D01*
X13483928Y-16910786D02*
X13498214Y-16896500D01*
X13526786Y-16882214D01*
X13569643Y-16882214D01*
X13598214Y-16896500D01*
X13612500Y-16925072D01*
X13612500Y-17082214D01*
X13612500Y-16925072D02*
X13626786Y-16896500D01*
X13655357Y-16882214D01*
X13698214Y-16882214D01*
X13726786Y-16896500D01*
X13741071Y-16925072D01*
X13741071Y-17082214D01*
X14326786Y-16767929D02*
X14069643Y-17153643D01*
X14712500Y-16782214D02*
X14741071Y-16782214D01*
X14769643Y-16796500D01*
X14783928Y-16810786D01*
X14798214Y-16839357D01*
X14812500Y-16896500D01*
X14812500Y-16967929D01*
X14798214Y-17025072D01*
X14783928Y-17053643D01*
X14769643Y-17067929D01*
X14741071Y-17082214D01*
X14712500Y-17082214D01*
X14683928Y-17067929D01*
X14669643Y-17053643D01*
X14655357Y-17025072D01*
X14641071Y-16967929D01*
X14641071Y-16896500D01*
X14655357Y-16839357D01*
X14669643Y-16810786D01*
X14683928Y-16796500D01*
X14712500Y-16782214D01*
X14941071Y-17053643D02*
X14955357Y-17067929D01*
X14941071Y-17082214D01*
X14926786Y-17067929D01*
X14941071Y-17053643D01*
X14941071Y-17082214D01*
X15141071Y-16782214D02*
X15169643Y-16782214D01*
X15198214Y-16796500D01*
X15212500Y-16810786D01*
X15226786Y-16839357D01*
X15241071Y-16896500D01*
X15241071Y-16967929D01*
X15226786Y-17025072D01*
X15212500Y-17053643D01*
X15198214Y-17067929D01*
X15169643Y-17082214D01*
X15141071Y-17082214D01*
X15112500Y-17067929D01*
X15098214Y-17053643D01*
X15083928Y-17025072D01*
X15069643Y-16967929D01*
X15069643Y-16896500D01*
X15083928Y-16839357D01*
X15098214Y-16810786D01*
X15112500Y-16796500D01*
X15141071Y-16782214D01*
X15412500Y-16910786D02*
X15383928Y-16896500D01*
X15369643Y-16882214D01*
X15355357Y-16853643D01*
X15355357Y-16839357D01*
X15369643Y-16810786D01*
X15383928Y-16796500D01*
X15412500Y-16782214D01*
X15469643Y-16782214D01*
X15498214Y-16796500D01*
X15512500Y-16810786D01*
X15526786Y-16839357D01*
X15526786Y-16853643D01*
X15512500Y-16882214D01*
X15498214Y-16896500D01*
X15469643Y-16910786D01*
X15412500Y-16910786D01*
X15383928Y-16925072D01*
X15369643Y-16939357D01*
X15355357Y-16967929D01*
X15355357Y-17025072D01*
X15369643Y-17053643D01*
X15383928Y-17067929D01*
X15412500Y-17082214D01*
X15469643Y-17082214D01*
X15498214Y-17067929D01*
X15512500Y-17053643D01*
X15526786Y-17025072D01*
X15526786Y-16967929D01*
X15512500Y-16939357D01*
X15498214Y-16925072D01*
X15469643Y-16910786D01*
X15626786Y-16782214D02*
X15826786Y-16782214D01*
X15698214Y-17082214D01*
X15926786Y-16782214D02*
X15926786Y-16839357D01*
X16041071Y-16782214D02*
X16041071Y-16839357D01*
X16483928Y-17196500D02*
X16469643Y-17182214D01*
X16441071Y-17139357D01*
X16426786Y-17110786D01*
X16412500Y-17067929D01*
X16398214Y-16996500D01*
X16398214Y-16939357D01*
X16412500Y-16867929D01*
X16426786Y-16825072D01*
X16441071Y-16796500D01*
X16469643Y-16753643D01*
X16483928Y-16739357D01*
X16755357Y-17082214D02*
X16583928Y-17082214D01*
X16669643Y-17082214D02*
X16669643Y-16782214D01*
X16641071Y-16825072D01*
X16612500Y-16853643D01*
X16583928Y-16867929D01*
X17112500Y-17082214D02*
X17112500Y-16782214D01*
X17241071Y-17082214D02*
X17241071Y-16925072D01*
X17226786Y-16896500D01*
X17198214Y-16882214D01*
X17155357Y-16882214D01*
X17126786Y-16896500D01*
X17112500Y-16910786D01*
X17426786Y-17082214D02*
X17398214Y-17067929D01*
X17383928Y-17053643D01*
X17369643Y-17025072D01*
X17369643Y-16939357D01*
X17383928Y-16910786D01*
X17398214Y-16896500D01*
X17426786Y-16882214D01*
X17469643Y-16882214D01*
X17498214Y-16896500D01*
X17512500Y-16910786D01*
X17526786Y-16939357D01*
X17526786Y-17025072D01*
X17512500Y-17053643D01*
X17498214Y-17067929D01*
X17469643Y-17082214D01*
X17426786Y-17082214D01*
X17698214Y-17082214D02*
X17669643Y-17067929D01*
X17655357Y-17039357D01*
X17655357Y-16782214D01*
X17926786Y-17067929D02*
X17898214Y-17082214D01*
X17841071Y-17082214D01*
X17812500Y-17067929D01*
X17798214Y-17039357D01*
X17798214Y-16925072D01*
X17812500Y-16896500D01*
X17841071Y-16882214D01*
X17898214Y-16882214D01*
X17926786Y-16896500D01*
X17941071Y-16925072D01*
X17941071Y-16953643D01*
X17798214Y-16982214D01*
X18041071Y-17196500D02*
X18055357Y-17182214D01*
X18083928Y-17139357D01*
X18098214Y-17110786D01*
X18112500Y-17067929D01*
X18126786Y-16996500D01*
X18126786Y-16939357D01*
X18112500Y-16867929D01*
X18098214Y-16825072D01*
X18083928Y-16796500D01*
X18055357Y-16753643D01*
X18041071Y-16739357D01*
X11447500Y-17167500D02*
X11797500Y-17517500D01*
X11797500Y-17167500D02*
X11447500Y-17517500D01*
X11797500Y-17342500D02*
G75*
G03*
X11797500Y-17342500I-175000J0D01*
G01*
X12055357Y-17178214D02*
X12241071Y-17178214D01*
X12141071Y-17292500D01*
X12183928Y-17292500D01*
X12212500Y-17306786D01*
X12226786Y-17321072D01*
X12241071Y-17349643D01*
X12241071Y-17421072D01*
X12226786Y-17449643D01*
X12212500Y-17463929D01*
X12183928Y-17478214D01*
X12098214Y-17478214D01*
X12069643Y-17463929D01*
X12055357Y-17449643D01*
X12369643Y-17449643D02*
X12383928Y-17463929D01*
X12369643Y-17478214D01*
X12355357Y-17463929D01*
X12369643Y-17449643D01*
X12369643Y-17478214D01*
X12655357Y-17178214D02*
X12512500Y-17178214D01*
X12498214Y-17321072D01*
X12512500Y-17306786D01*
X12541071Y-17292500D01*
X12612500Y-17292500D01*
X12641071Y-17306786D01*
X12655357Y-17321072D01*
X12669643Y-17349643D01*
X12669643Y-17421072D01*
X12655357Y-17449643D01*
X12641071Y-17463929D01*
X12612500Y-17478214D01*
X12541071Y-17478214D01*
X12512500Y-17463929D01*
X12498214Y-17449643D01*
X12855357Y-17178214D02*
X12883928Y-17178214D01*
X12912500Y-17192500D01*
X12926786Y-17206786D01*
X12941071Y-17235357D01*
X12955357Y-17292500D01*
X12955357Y-17363929D01*
X12941071Y-17421072D01*
X12926786Y-17449643D01*
X12912500Y-17463929D01*
X12883928Y-17478214D01*
X12855357Y-17478214D01*
X12826786Y-17463929D01*
X12812500Y-17449643D01*
X12798214Y-17421072D01*
X12783928Y-17363929D01*
X12783928Y-17292500D01*
X12798214Y-17235357D01*
X12812500Y-17206786D01*
X12826786Y-17192500D01*
X12855357Y-17178214D01*
X13083928Y-17478214D02*
X13083928Y-17278214D01*
X13083928Y-17306786D02*
X13098214Y-17292500D01*
X13126786Y-17278214D01*
X13169643Y-17278214D01*
X13198214Y-17292500D01*
X13212500Y-17321072D01*
X13212500Y-17478214D01*
X13212500Y-17321072D02*
X13226786Y-17292500D01*
X13255357Y-17278214D01*
X13298214Y-17278214D01*
X13326786Y-17292500D01*
X13341071Y-17321072D01*
X13341071Y-17478214D01*
X13483928Y-17478214D02*
X13483928Y-17278214D01*
X13483928Y-17306786D02*
X13498214Y-17292500D01*
X13526786Y-17278214D01*
X13569643Y-17278214D01*
X13598214Y-17292500D01*
X13612500Y-17321072D01*
X13612500Y-17478214D01*
X13612500Y-17321072D02*
X13626786Y-17292500D01*
X13655357Y-17278214D01*
X13698214Y-17278214D01*
X13726786Y-17292500D01*
X13741071Y-17321072D01*
X13741071Y-17478214D01*
X14326786Y-17163929D02*
X14069643Y-17549643D01*
X14712500Y-17178214D02*
X14741071Y-17178214D01*
X14769643Y-17192500D01*
X14783928Y-17206786D01*
X14798214Y-17235357D01*
X14812500Y-17292500D01*
X14812500Y-17363929D01*
X14798214Y-17421072D01*
X14783928Y-17449643D01*
X14769643Y-17463929D01*
X14741071Y-17478214D01*
X14712500Y-17478214D01*
X14683928Y-17463929D01*
X14669643Y-17449643D01*
X14655357Y-17421072D01*
X14641071Y-17363929D01*
X14641071Y-17292500D01*
X14655357Y-17235357D01*
X14669643Y-17206786D01*
X14683928Y-17192500D01*
X14712500Y-17178214D01*
X14941071Y-17449643D02*
X14955357Y-17463929D01*
X14941071Y-17478214D01*
X14926786Y-17463929D01*
X14941071Y-17449643D01*
X14941071Y-17478214D01*
X15241071Y-17478214D02*
X15069643Y-17478214D01*
X15155357Y-17478214D02*
X15155357Y-17178214D01*
X15126786Y-17221072D01*
X15098214Y-17249643D01*
X15069643Y-17263929D01*
X15341071Y-17178214D02*
X15526786Y-17178214D01*
X15426786Y-17292500D01*
X15469643Y-17292500D01*
X15498214Y-17306786D01*
X15512500Y-17321072D01*
X15526786Y-17349643D01*
X15526786Y-17421072D01*
X15512500Y-17449643D01*
X15498214Y-17463929D01*
X15469643Y-17478214D01*
X15383928Y-17478214D01*
X15355357Y-17463929D01*
X15341071Y-17449643D01*
X15698214Y-17306786D02*
X15669643Y-17292500D01*
X15655357Y-17278214D01*
X15641071Y-17249643D01*
X15641071Y-17235357D01*
X15655357Y-17206786D01*
X15669643Y-17192500D01*
X15698214Y-17178214D01*
X15755357Y-17178214D01*
X15783928Y-17192500D01*
X15798214Y-17206786D01*
X15812500Y-17235357D01*
X15812500Y-17249643D01*
X15798214Y-17278214D01*
X15783928Y-17292500D01*
X15755357Y-17306786D01*
X15698214Y-17306786D01*
X15669643Y-17321072D01*
X15655357Y-17335357D01*
X15641071Y-17363929D01*
X15641071Y-17421072D01*
X15655357Y-17449643D01*
X15669643Y-17463929D01*
X15698214Y-17478214D01*
X15755357Y-17478214D01*
X15783928Y-17463929D01*
X15798214Y-17449643D01*
X15812500Y-17421072D01*
X15812500Y-17363929D01*
X15798214Y-17335357D01*
X15783928Y-17321072D01*
X15755357Y-17306786D01*
X15926786Y-17178214D02*
X15926786Y-17235357D01*
X16041071Y-17178214D02*
X16041071Y-17235357D01*
X16483928Y-17592500D02*
X16469643Y-17578214D01*
X16441071Y-17535357D01*
X16426786Y-17506786D01*
X16412500Y-17463929D01*
X16398214Y-17392500D01*
X16398214Y-17335357D01*
X16412500Y-17263929D01*
X16426786Y-17221072D01*
X16441071Y-17192500D01*
X16469643Y-17149643D01*
X16483928Y-17135357D01*
X16755357Y-17478214D02*
X16583928Y-17478214D01*
X16669643Y-17478214D02*
X16669643Y-17178214D01*
X16641071Y-17221072D01*
X16612500Y-17249643D01*
X16583928Y-17263929D01*
X17112500Y-17478214D02*
X17112500Y-17178214D01*
X17241071Y-17478214D02*
X17241071Y-17321072D01*
X17226786Y-17292500D01*
X17198214Y-17278214D01*
X17155357Y-17278214D01*
X17126786Y-17292500D01*
X17112500Y-17306786D01*
X17426786Y-17478214D02*
X17398214Y-17463929D01*
X17383928Y-17449643D01*
X17369643Y-17421072D01*
X17369643Y-17335357D01*
X17383928Y-17306786D01*
X17398214Y-17292500D01*
X17426786Y-17278214D01*
X17469643Y-17278214D01*
X17498214Y-17292500D01*
X17512500Y-17306786D01*
X17526786Y-17335357D01*
X17526786Y-17421072D01*
X17512500Y-17449643D01*
X17498214Y-17463929D01*
X17469643Y-17478214D01*
X17426786Y-17478214D01*
X17698214Y-17478214D02*
X17669643Y-17463929D01*
X17655357Y-17435357D01*
X17655357Y-17178214D01*
X17926786Y-17463929D02*
X17898214Y-17478214D01*
X17841071Y-17478214D01*
X17812500Y-17463929D01*
X17798214Y-17435357D01*
X17798214Y-17321072D01*
X17812500Y-17292500D01*
X17841071Y-17278214D01*
X17898214Y-17278214D01*
X17926786Y-17292500D01*
X17941071Y-17321072D01*
X17941071Y-17349643D01*
X17798214Y-17378214D01*
X18041071Y-17592500D02*
X18055357Y-17578214D01*
X18083928Y-17535357D01*
X18098214Y-17506786D01*
X18112500Y-17463929D01*
X18126786Y-17392500D01*
X18126786Y-17335357D01*
X18112500Y-17263929D01*
X18098214Y-17221072D01*
X18083928Y-17192500D01*
X18055357Y-17149643D01*
X18041071Y-17135357D01*
M02*
