%TF.GenerationSoftware,KiCad,Pcbnew,(5.1.6-0-10_14)*%
%TF.CreationDate,2020-08-18T22:59:50+01:00*%
%TF.ProjectId,IEC Power Entry,49454320-506f-4776-9572-20456e747279,1.0a*%
%TF.SameCoordinates,Original*%
%TF.FileFunction,Copper,L2,Bot*%
%TF.FilePolarity,Positive*%
%FSLAX46Y46*%
G04 Gerber Fmt 4.6, Leading zero omitted, Abs format (unit mm)*
G04 Created by KiCad (PCBNEW (5.1.6-0-10_14)) date 2020-08-18 22:59:50*
%MOMM*%
%LPD*%
G01*
G04 APERTURE LIST*
%TA.AperFunction,ComponentPad*%
%ADD10C,8.600000*%
%TD*%
%TA.AperFunction,ComponentPad*%
%ADD11C,6.400000*%
%TD*%
%TA.AperFunction,ComponentPad*%
%ADD12C,2.400000*%
%TD*%
%TA.AperFunction,ComponentPad*%
%ADD13C,1.950000*%
%TD*%
%TA.AperFunction,ComponentPad*%
%ADD14C,2.500000*%
%TD*%
%TA.AperFunction,ComponentPad*%
%ADD15R,2.500000X2.500000*%
%TD*%
%TA.AperFunction,ComponentPad*%
%ADD16C,1.600000*%
%TD*%
%TA.AperFunction,ComponentPad*%
%ADD17C,2.775000*%
%TD*%
%TA.AperFunction,ComponentPad*%
%ADD18R,2.775000X2.775000*%
%TD*%
%TA.AperFunction,Conductor*%
%ADD19C,2.000000*%
%TD*%
G04 APERTURE END LIST*
D10*
%TO.P,P1,1*%
%TO.N,Net-(P1-Pad1)*%
X128712800Y-127524000D03*
%TD*%
D11*
%TO.P,P2,1*%
%TO.N,Net-(P1-Pad1)*%
X144943800Y-127564100D03*
%TD*%
D12*
%TO.P,PowerEntry1,PE*%
%TO.N,Net-(P1-Pad1)*%
X128712800Y-113308100D03*
D13*
%TO.P,PowerEntry1,N*%
%TO.N,Net-(J1-Pad1)*%
X128712800Y-84108100D03*
%TO.P,PowerEntry1,L*%
%TO.N,Net-(PowerEntry1-PadL)*%
X128712800Y-78108100D03*
%TD*%
D14*
%TO.P,J1,4*%
%TO.N,Net-(J1-Pad4)*%
X164120800Y-118872100D03*
%TO.P,J1,3*%
%TO.N,Net-(J1-Pad3)*%
X164120800Y-113792100D03*
%TO.P,J1,2*%
%TO.N,Net-(J1-Pad2)*%
X164120800Y-108712100D03*
D15*
%TO.P,J1,1*%
%TO.N,Net-(J1-Pad1)*%
X164120800Y-103632100D03*
%TD*%
D16*
%TO.P,TH2,2*%
%TO.N,Net-(J1-Pad2)*%
X152968800Y-108695600D03*
%TO.P,TH2,1*%
%TO.N,Net-(J1-Pad1)*%
X154468800Y-103695600D03*
%TD*%
%TO.P,TH1,2*%
%TO.N,Net-(J1-Pad4)*%
X152968800Y-118792100D03*
%TO.P,TH1,1*%
%TO.N,Net-(J1-Pad3)*%
X154468800Y-113792100D03*
%TD*%
D17*
%TO.P,S1,2A*%
%TO.N,Net-(PowerEntry1-PadL)*%
X157453800Y-78068100D03*
%TO.P,S1,2*%
%TO.N,Net-(RRv2-Pad2)*%
X157453800Y-86868100D03*
%TO.P,S1,2B*%
%TO.N,Net-(S1-Pad1B)*%
X157453800Y-95668100D03*
%TO.P,S1,1B*%
X165453800Y-95668100D03*
D18*
%TO.P,S1,1*%
%TO.N,Net-(J1-Pad3)*%
X165453800Y-86868100D03*
D17*
%TO.P,S1,1A*%
%TO.N,Net-(J1-Pad1)*%
X165453800Y-78068100D03*
%TD*%
D16*
%TO.P,MOV,2*%
%TO.N,Net-(PowerEntry1-PadL)*%
X136895800Y-117372100D03*
%TO.P,MOV,1*%
%TO.N,Net-(J1-Pad4)*%
X141895800Y-118872100D03*
%TD*%
%TO.P,MOV,2*%
%TO.N,Net-(RRv2-Pad2)*%
X142102800Y-109244100D03*
%TO.P,MOV,1*%
%TO.N,Net-(J1-Pad2)*%
X147102800Y-110744100D03*
%TD*%
D19*
%TO.N,Net-(J1-Pad4)*%
X142657800Y-118872100D02*
X150023800Y-118872100D01*
X150047800Y-118919100D02*
X164708800Y-118919100D01*
%TO.N,Net-(J1-Pad3)*%
X165009800Y-113538100D02*
X164755800Y-113792100D01*
X165263800Y-113538100D02*
X164755800Y-113538100D01*
X169327800Y-109474100D02*
X165263800Y-113538100D01*
X169327800Y-90932100D02*
X169327800Y-109474100D01*
X168041301Y-89645601D02*
X169327800Y-90932100D01*
X168041301Y-89455601D02*
X168041301Y-89645601D01*
X165453800Y-86868100D02*
X168041301Y-89455601D01*
X154468800Y-113792100D02*
X164057300Y-113792100D01*
%TO.N,Net-(J1-Pad2)*%
X164120800Y-108712100D02*
X153008300Y-108712100D01*
X147102800Y-110744100D02*
X150976300Y-110744100D01*
X150976300Y-110744100D02*
X153008300Y-108712100D01*
%TO.N,Net-(J1-Pad1)*%
X154468800Y-103695600D02*
X164057300Y-103695600D01*
%TO.N,Net-(PowerEntry1-PadL)*%
X136979800Y-78068100D02*
X128777800Y-78068100D01*
X157453800Y-78068100D02*
X136979800Y-78068100D01*
X136895800Y-78152100D02*
X136979800Y-78068100D01*
X136895800Y-117372100D02*
X136895800Y-78152100D01*
%TO.N,Net-(RRv2-Pad2)*%
X153833800Y-86868100D02*
X142149800Y-98171100D01*
X142149800Y-98171100D02*
X142149800Y-109220100D01*
X157453800Y-86868100D02*
X153833800Y-86868100D01*
%TO.N,Net-(S1-Pad1B)*%
X157453800Y-95668100D02*
X165427800Y-95668100D01*
X165427800Y-95668100D02*
X165517800Y-95758100D01*
%TD*%
M02*
