%TF.GenerationSoftware,KiCad,Pcbnew,(5.1.6-0-10_14)*%
%TF.CreationDate,2020-08-23T23:08:53+01:00*%
%TF.ProjectId,IEC Power Entry,49454320-506f-4776-9572-20456e747279,1.0a*%
%TF.SameCoordinates,Original*%
%TF.FileFunction,Legend,Top*%
%TF.FilePolarity,Positive*%
%FSLAX46Y46*%
G04 Gerber Fmt 4.6, Leading zero omitted, Abs format (unit mm)*
G04 Created by KiCad (PCBNEW (5.1.6-0-10_14)) date 2020-08-23 23:08:53*
%MOMM*%
%LPD*%
G01*
G04 APERTURE LIST*
%ADD10C,0.150000*%
%ADD11C,0.127000*%
%ADD12C,0.200000*%
%ADD13C,0.120000*%
%ADD14C,0.100000*%
%ADD15C,0.010000*%
%ADD16C,0.015000*%
%ADD17C,0.254000*%
G04 APERTURE END LIST*
D10*
X176552380Y-118861904D02*
X175552380Y-118861904D01*
X176552380Y-118290476D01*
X175552380Y-118290476D01*
X176552380Y-117290476D02*
X176552380Y-117861904D01*
X176552380Y-117576190D02*
X175552380Y-117576190D01*
X175695238Y-117671428D01*
X175790476Y-117766666D01*
X175838095Y-117861904D01*
X176600780Y-124437066D02*
X176600780Y-124913257D01*
X175600780Y-124913257D01*
X176600780Y-123579923D02*
X176600780Y-124151352D01*
X176600780Y-123865638D02*
X175600780Y-123865638D01*
X175743638Y-123960876D01*
X175838876Y-124056114D01*
X175886495Y-124151352D01*
X176600780Y-114404066D02*
X176600780Y-114880257D01*
X175600780Y-114880257D01*
X175696019Y-114118352D02*
X175648400Y-114070733D01*
X175600780Y-113975495D01*
X175600780Y-113737400D01*
X175648400Y-113642161D01*
X175696019Y-113594542D01*
X175791257Y-113546923D01*
X175886495Y-113546923D01*
X176029352Y-113594542D01*
X176600780Y-114165971D01*
X176600780Y-113546923D01*
X176600780Y-109792304D02*
X175600780Y-109792304D01*
X176600780Y-109220876D01*
X175600780Y-109220876D01*
X175696019Y-108792304D02*
X175648400Y-108744685D01*
X175600780Y-108649447D01*
X175600780Y-108411352D01*
X175648400Y-108316114D01*
X175696019Y-108268495D01*
X175791257Y-108220876D01*
X175886495Y-108220876D01*
X176029352Y-108268495D01*
X176600780Y-108839923D01*
X176600780Y-108220876D01*
X155283452Y-66627380D02*
X155283452Y-65627380D01*
X155664404Y-65627380D01*
X155759642Y-65675000D01*
X155807261Y-65722619D01*
X155854880Y-65817857D01*
X155854880Y-65960714D01*
X155807261Y-66055952D01*
X155759642Y-66103571D01*
X155664404Y-66151190D01*
X155283452Y-66151190D01*
X156426309Y-66627380D02*
X156331071Y-66579761D01*
X156283452Y-66532142D01*
X156235833Y-66436904D01*
X156235833Y-66151190D01*
X156283452Y-66055952D01*
X156331071Y-66008333D01*
X156426309Y-65960714D01*
X156569166Y-65960714D01*
X156664404Y-66008333D01*
X156712023Y-66055952D01*
X156759642Y-66151190D01*
X156759642Y-66436904D01*
X156712023Y-66532142D01*
X156664404Y-66579761D01*
X156569166Y-66627380D01*
X156426309Y-66627380D01*
X157092976Y-65960714D02*
X157283452Y-66627380D01*
X157473928Y-66151190D01*
X157664404Y-66627380D01*
X157854880Y-65960714D01*
X158616785Y-66579761D02*
X158521547Y-66627380D01*
X158331071Y-66627380D01*
X158235833Y-66579761D01*
X158188214Y-66484523D01*
X158188214Y-66103571D01*
X158235833Y-66008333D01*
X158331071Y-65960714D01*
X158521547Y-65960714D01*
X158616785Y-66008333D01*
X158664404Y-66103571D01*
X158664404Y-66198809D01*
X158188214Y-66294047D01*
X159092976Y-66627380D02*
X159092976Y-65960714D01*
X159092976Y-66151190D02*
X159140595Y-66055952D01*
X159188214Y-66008333D01*
X159283452Y-65960714D01*
X159378690Y-65960714D01*
X160473928Y-66103571D02*
X160807261Y-66103571D01*
X160950119Y-66627380D02*
X160473928Y-66627380D01*
X160473928Y-65627380D01*
X160950119Y-65627380D01*
X161378690Y-65960714D02*
X161378690Y-66627380D01*
X161378690Y-66055952D02*
X161426309Y-66008333D01*
X161521547Y-65960714D01*
X161664404Y-65960714D01*
X161759642Y-66008333D01*
X161807261Y-66103571D01*
X161807261Y-66627380D01*
X162140595Y-65960714D02*
X162521547Y-65960714D01*
X162283452Y-65627380D02*
X162283452Y-66484523D01*
X162331071Y-66579761D01*
X162426309Y-66627380D01*
X162521547Y-66627380D01*
X162854880Y-66627380D02*
X162854880Y-65960714D01*
X162854880Y-66151190D02*
X162902500Y-66055952D01*
X162950119Y-66008333D01*
X163045357Y-65960714D01*
X163140595Y-65960714D01*
X163378690Y-65960714D02*
X163616785Y-66627380D01*
X163854880Y-65960714D02*
X163616785Y-66627380D01*
X163521547Y-66865476D01*
X163473928Y-66913095D01*
X163378690Y-66960714D01*
X164854880Y-65627380D02*
X165188214Y-66627380D01*
X165521547Y-65627380D01*
X166378690Y-66627380D02*
X165807261Y-66627380D01*
X166092976Y-66627380D02*
X166092976Y-65627380D01*
X165997738Y-65770238D01*
X165902500Y-65865476D01*
X165807261Y-65913095D01*
X166807261Y-66532142D02*
X166854880Y-66579761D01*
X166807261Y-66627380D01*
X166759642Y-66579761D01*
X166807261Y-66532142D01*
X166807261Y-66627380D01*
X167473928Y-65627380D02*
X167569166Y-65627380D01*
X167664404Y-65675000D01*
X167712023Y-65722619D01*
X167759642Y-65817857D01*
X167807261Y-66008333D01*
X167807261Y-66246428D01*
X167759642Y-66436904D01*
X167712023Y-66532142D01*
X167664404Y-66579761D01*
X167569166Y-66627380D01*
X167473928Y-66627380D01*
X167378690Y-66579761D01*
X167331071Y-66532142D01*
X167283452Y-66436904D01*
X167235833Y-66246428D01*
X167235833Y-66008333D01*
X167283452Y-65817857D01*
X167331071Y-65722619D01*
X167378690Y-65675000D01*
X167473928Y-65627380D01*
X168664404Y-66627380D02*
X168664404Y-66103571D01*
X168616785Y-66008333D01*
X168521547Y-65960714D01*
X168331071Y-65960714D01*
X168235833Y-66008333D01*
X168664404Y-66579761D02*
X168569166Y-66627380D01*
X168331071Y-66627380D01*
X168235833Y-66579761D01*
X168188214Y-66484523D01*
X168188214Y-66389285D01*
X168235833Y-66294047D01*
X168331071Y-66246428D01*
X168569166Y-66246428D01*
X168664404Y-66198809D01*
X159569166Y-67991666D02*
X160045357Y-67991666D01*
X159473928Y-68277380D02*
X159807261Y-67277380D01*
X160140595Y-68277380D01*
X160902500Y-67610714D02*
X160902500Y-68277380D01*
X160473928Y-67610714D02*
X160473928Y-68134523D01*
X160521547Y-68229761D01*
X160616785Y-68277380D01*
X160759642Y-68277380D01*
X160854880Y-68229761D01*
X160902500Y-68182142D01*
X161807261Y-67610714D02*
X161807261Y-68420238D01*
X161759642Y-68515476D01*
X161712023Y-68563095D01*
X161616785Y-68610714D01*
X161473928Y-68610714D01*
X161378690Y-68563095D01*
X161807261Y-68229761D02*
X161712023Y-68277380D01*
X161521547Y-68277380D01*
X161426309Y-68229761D01*
X161378690Y-68182142D01*
X161331071Y-68086904D01*
X161331071Y-67801190D01*
X161378690Y-67705952D01*
X161426309Y-67658333D01*
X161521547Y-67610714D01*
X161712023Y-67610714D01*
X161807261Y-67658333D01*
X162712023Y-67610714D02*
X162712023Y-68277380D01*
X162283452Y-67610714D02*
X162283452Y-68134523D01*
X162331071Y-68229761D01*
X162426309Y-68277380D01*
X162569166Y-68277380D01*
X162664404Y-68229761D01*
X162712023Y-68182142D01*
X163140595Y-68229761D02*
X163235833Y-68277380D01*
X163426309Y-68277380D01*
X163521547Y-68229761D01*
X163569166Y-68134523D01*
X163569166Y-68086904D01*
X163521547Y-67991666D01*
X163426309Y-67944047D01*
X163283452Y-67944047D01*
X163188214Y-67896428D01*
X163140595Y-67801190D01*
X163140595Y-67753571D01*
X163188214Y-67658333D01*
X163283452Y-67610714D01*
X163426309Y-67610714D01*
X163521547Y-67658333D01*
X163854880Y-67610714D02*
X164235833Y-67610714D01*
X163997738Y-67277380D02*
X163997738Y-68134523D01*
X164045357Y-68229761D01*
X164140595Y-68277380D01*
X164235833Y-68277380D01*
X165283452Y-67372619D02*
X165331071Y-67325000D01*
X165426309Y-67277380D01*
X165664404Y-67277380D01*
X165759642Y-67325000D01*
X165807261Y-67372619D01*
X165854880Y-67467857D01*
X165854880Y-67563095D01*
X165807261Y-67705952D01*
X165235833Y-68277380D01*
X165854880Y-68277380D01*
X166473928Y-67277380D02*
X166569166Y-67277380D01*
X166664404Y-67325000D01*
X166712023Y-67372619D01*
X166759642Y-67467857D01*
X166807261Y-67658333D01*
X166807261Y-67896428D01*
X166759642Y-68086904D01*
X166712023Y-68182142D01*
X166664404Y-68229761D01*
X166569166Y-68277380D01*
X166473928Y-68277380D01*
X166378690Y-68229761D01*
X166331071Y-68182142D01*
X166283452Y-68086904D01*
X166235833Y-67896428D01*
X166235833Y-67658333D01*
X166283452Y-67467857D01*
X166331071Y-67372619D01*
X166378690Y-67325000D01*
X166473928Y-67277380D01*
X167188214Y-67372619D02*
X167235833Y-67325000D01*
X167331071Y-67277380D01*
X167569166Y-67277380D01*
X167664404Y-67325000D01*
X167712023Y-67372619D01*
X167759642Y-67467857D01*
X167759642Y-67563095D01*
X167712023Y-67705952D01*
X167140595Y-68277380D01*
X167759642Y-68277380D01*
X168378690Y-67277380D02*
X168473928Y-67277380D01*
X168569166Y-67325000D01*
X168616785Y-67372619D01*
X168664404Y-67467857D01*
X168712023Y-67658333D01*
X168712023Y-67896428D01*
X168664404Y-68086904D01*
X168616785Y-68182142D01*
X168569166Y-68229761D01*
X168473928Y-68277380D01*
X168378690Y-68277380D01*
X168283452Y-68229761D01*
X168235833Y-68182142D01*
X168188214Y-68086904D01*
X168140595Y-67896428D01*
X168140595Y-67658333D01*
X168188214Y-67467857D01*
X168235833Y-67372619D01*
X168283452Y-67325000D01*
X168378690Y-67277380D01*
X118726180Y-105290242D02*
X117726180Y-105290242D01*
X117726180Y-105052147D01*
X117773800Y-104909290D01*
X117869038Y-104814052D01*
X117964276Y-104766433D01*
X118154752Y-104718814D01*
X118297609Y-104718814D01*
X118488085Y-104766433D01*
X118583323Y-104814052D01*
X118678561Y-104909290D01*
X118726180Y-105052147D01*
X118726180Y-105290242D01*
X118726180Y-104290242D02*
X117726180Y-104290242D01*
X117726180Y-104052147D01*
X117773800Y-103909290D01*
X117869038Y-103814052D01*
X117964276Y-103766433D01*
X118154752Y-103718814D01*
X118297609Y-103718814D01*
X118488085Y-103766433D01*
X118583323Y-103814052D01*
X118678561Y-103909290D01*
X118726180Y-104052147D01*
X118726180Y-104290242D01*
X117821419Y-103337861D02*
X117773800Y-103290242D01*
X117726180Y-103195004D01*
X117726180Y-102956909D01*
X117773800Y-102861671D01*
X117821419Y-102814052D01*
X117916657Y-102766433D01*
X118011895Y-102766433D01*
X118154752Y-102814052D01*
X118726180Y-103385480D01*
X118726180Y-102766433D01*
X118726180Y-101814052D02*
X118726180Y-102385480D01*
X118726180Y-102099766D02*
X117726180Y-102099766D01*
X117869038Y-102195004D01*
X117964276Y-102290242D01*
X118011895Y-102385480D01*
X118726180Y-100623576D02*
X117726180Y-100623576D01*
X117726180Y-100242623D01*
X117773800Y-100147385D01*
X117821419Y-100099766D01*
X117916657Y-100052147D01*
X118059514Y-100052147D01*
X118154752Y-100099766D01*
X118202371Y-100147385D01*
X118249990Y-100242623D01*
X118249990Y-100623576D01*
X118726180Y-99480719D02*
X118678561Y-99575957D01*
X118630942Y-99623576D01*
X118535704Y-99671195D01*
X118249990Y-99671195D01*
X118154752Y-99623576D01*
X118107133Y-99575957D01*
X118059514Y-99480719D01*
X118059514Y-99337861D01*
X118107133Y-99242623D01*
X118154752Y-99195004D01*
X118249990Y-99147385D01*
X118535704Y-99147385D01*
X118630942Y-99195004D01*
X118678561Y-99242623D01*
X118726180Y-99337861D01*
X118726180Y-99480719D01*
X118059514Y-98814052D02*
X118726180Y-98623576D01*
X118249990Y-98433100D01*
X118726180Y-98242623D01*
X118059514Y-98052147D01*
X118678561Y-97290242D02*
X118726180Y-97385480D01*
X118726180Y-97575957D01*
X118678561Y-97671195D01*
X118583323Y-97718814D01*
X118202371Y-97718814D01*
X118107133Y-97671195D01*
X118059514Y-97575957D01*
X118059514Y-97385480D01*
X118107133Y-97290242D01*
X118202371Y-97242623D01*
X118297609Y-97242623D01*
X118392847Y-97718814D01*
X118726180Y-96814052D02*
X118059514Y-96814052D01*
X118249990Y-96814052D02*
X118154752Y-96766433D01*
X118107133Y-96718814D01*
X118059514Y-96623576D01*
X118059514Y-96528338D01*
X118726180Y-95433100D02*
X117726180Y-95433100D01*
X118059514Y-94956909D02*
X118726180Y-94956909D01*
X118154752Y-94956909D02*
X118107133Y-94909290D01*
X118059514Y-94814052D01*
X118059514Y-94671195D01*
X118107133Y-94575957D01*
X118202371Y-94528338D01*
X118726180Y-94528338D01*
X118726180Y-93909290D02*
X118678561Y-94004528D01*
X118583323Y-94052147D01*
X117726180Y-94052147D01*
X118678561Y-93147385D02*
X118726180Y-93242623D01*
X118726180Y-93433100D01*
X118678561Y-93528338D01*
X118583323Y-93575957D01*
X118202371Y-93575957D01*
X118107133Y-93528338D01*
X118059514Y-93433100D01*
X118059514Y-93242623D01*
X118107133Y-93147385D01*
X118202371Y-93099766D01*
X118297609Y-93099766D01*
X118392847Y-93575957D01*
X118059514Y-92814052D02*
X118059514Y-92433100D01*
X117726180Y-92671195D02*
X118583323Y-92671195D01*
X118678561Y-92623576D01*
X118726180Y-92528338D01*
X118726180Y-92433100D01*
D11*
%TO.C,P3*%
X109524400Y-63181800D02*
X109524400Y-128181800D01*
X133924400Y-118981800D02*
X133924400Y-104781800D01*
X133924400Y-104781800D02*
X144124400Y-104781800D01*
X144124400Y-104781800D02*
X144124400Y-72381800D01*
X109524400Y-63181800D02*
X123524400Y-63181800D01*
X123524400Y-63181800D02*
X123524400Y-72381800D01*
X123524400Y-72381800D02*
X144124400Y-72381800D01*
X109524400Y-128181800D02*
X123524400Y-128181800D01*
X123524400Y-128181800D02*
X123524400Y-118981800D01*
X123524400Y-118981800D02*
X133924400Y-118981800D01*
D12*
%TO.C,J1*%
X171100000Y-104770000D02*
G75*
G03*
X171100000Y-104770000I-100000J0D01*
G01*
D11*
X174300000Y-125500000D02*
X174300000Y-105500000D01*
X166800000Y-125500000D02*
X174300000Y-125500000D01*
X166800000Y-105500000D02*
X166800000Y-125500000D01*
X174300000Y-105500000D02*
X166800000Y-105500000D01*
D13*
%TO.C,TH2*%
X141000000Y-112578400D02*
X141000000Y-106578400D01*
X153000000Y-112578400D02*
X141000000Y-112578400D01*
X153000000Y-106578400D02*
X153000000Y-112578400D01*
X141000000Y-106578400D02*
X153000000Y-106578400D01*
%TO.C,TH1*%
X153000000Y-118000000D02*
X153000000Y-124000000D01*
X141000000Y-118000000D02*
X153000000Y-118000000D01*
X141000000Y-124000000D02*
X141000000Y-118000000D01*
X153000000Y-124000000D02*
X141000000Y-124000000D01*
D14*
%TO.C,MOV1*%
X156450000Y-128000000D02*
X156450000Y-119000000D01*
X156450000Y-119000000D02*
X162050000Y-119000000D01*
X162050000Y-119000000D02*
X162050000Y-128000000D01*
X162050000Y-128000000D02*
X156450000Y-128000000D01*
%TO.C,MOV2*%
X156450000Y-115000000D02*
X156450000Y-106000000D01*
X156450000Y-106000000D02*
X162050000Y-106000000D01*
X162050000Y-106000000D02*
X162050000Y-115000000D01*
X162050000Y-115000000D02*
X156450000Y-115000000D01*
D12*
%TO.C,S1*%
X175100000Y-87000000D02*
G75*
G03*
X175100000Y-87000000I-100000J0D01*
G01*
D11*
X174250000Y-73905000D02*
X174250000Y-100095000D01*
X157750000Y-73905000D02*
X174250000Y-73905000D01*
X157750000Y-100095000D02*
X157750000Y-73905000D01*
X174250000Y-100095000D02*
X157750000Y-100095000D01*
D15*
%TO.C,G\u002A\u002A\u002A*%
G36*
X135737312Y-65500093D02*
G01*
X136066094Y-65500624D01*
X136338548Y-65502784D01*
X136561841Y-65507758D01*
X136743144Y-65516731D01*
X136889626Y-65530890D01*
X137008456Y-65551419D01*
X137106804Y-65579505D01*
X137191838Y-65616332D01*
X137270729Y-65663087D01*
X137350645Y-65720955D01*
X137423749Y-65778968D01*
X137610235Y-65968708D01*
X137746305Y-66190997D01*
X137829889Y-66437213D01*
X137858915Y-66698735D01*
X137831315Y-66966942D01*
X137762858Y-67191089D01*
X137684534Y-67384999D01*
X137827148Y-67537465D01*
X137949606Y-67683680D01*
X138032320Y-67825406D01*
X138081944Y-67980861D01*
X138105132Y-68168264D01*
X138109156Y-68309625D01*
X138108136Y-68461945D01*
X138100836Y-68571658D01*
X138083406Y-68659612D01*
X138051995Y-68746651D01*
X138012373Y-68833500D01*
X137865482Y-69071510D01*
X137672945Y-69265490D01*
X137436327Y-69413873D01*
X137428000Y-69417873D01*
X137221625Y-69516125D01*
X135927812Y-69525084D01*
X134634000Y-69534043D01*
X134634000Y-67912750D01*
X135427750Y-67912750D01*
X135427750Y-68738250D01*
X136214057Y-68738250D01*
X136462097Y-68737827D01*
X136655037Y-68736198D01*
X136801273Y-68732816D01*
X136909202Y-68727138D01*
X136987220Y-68718619D01*
X137043724Y-68706714D01*
X137087111Y-68690879D01*
X137108542Y-68680234D01*
X137211482Y-68596858D01*
X137290753Y-68480738D01*
X137330723Y-68356608D01*
X137332750Y-68325499D01*
X137305816Y-68203394D01*
X137235437Y-68082742D01*
X137137247Y-67988279D01*
X137108542Y-67970765D01*
X137068804Y-67952522D01*
X137020593Y-67938511D01*
X136955511Y-67928186D01*
X136865163Y-67921004D01*
X136741151Y-67916420D01*
X136575080Y-67913889D01*
X136358552Y-67912866D01*
X136214057Y-67912750D01*
X135427750Y-67912750D01*
X134634000Y-67912750D01*
X134634000Y-66821055D01*
X135432321Y-66821055D01*
X135433025Y-66947998D01*
X135436454Y-67038838D01*
X135441532Y-67077371D01*
X135478038Y-67093135D01*
X135566531Y-67105492D01*
X135695590Y-67114460D01*
X135853796Y-67120057D01*
X136029729Y-67122301D01*
X136211967Y-67121210D01*
X136389090Y-67116801D01*
X136549679Y-67109094D01*
X136682312Y-67098106D01*
X136775569Y-67083855D01*
X136804563Y-67075222D01*
X136930350Y-66993559D01*
X137011325Y-66881384D01*
X137048151Y-66751880D01*
X137041490Y-66618232D01*
X136992003Y-66493627D01*
X136900354Y-66391247D01*
X136767204Y-66324279D01*
X136766847Y-66324176D01*
X136689624Y-66312159D01*
X136557831Y-66303661D01*
X136380319Y-66298982D01*
X136165937Y-66298420D01*
X136046875Y-66299790D01*
X135443625Y-66309375D01*
X135434591Y-66672558D01*
X135432321Y-66821055D01*
X134634000Y-66821055D01*
X134634000Y-65499750D01*
X135737312Y-65500093D01*
G37*
X135737312Y-65500093D02*
X136066094Y-65500624D01*
X136338548Y-65502784D01*
X136561841Y-65507758D01*
X136743144Y-65516731D01*
X136889626Y-65530890D01*
X137008456Y-65551419D01*
X137106804Y-65579505D01*
X137191838Y-65616332D01*
X137270729Y-65663087D01*
X137350645Y-65720955D01*
X137423749Y-65778968D01*
X137610235Y-65968708D01*
X137746305Y-66190997D01*
X137829889Y-66437213D01*
X137858915Y-66698735D01*
X137831315Y-66966942D01*
X137762858Y-67191089D01*
X137684534Y-67384999D01*
X137827148Y-67537465D01*
X137949606Y-67683680D01*
X138032320Y-67825406D01*
X138081944Y-67980861D01*
X138105132Y-68168264D01*
X138109156Y-68309625D01*
X138108136Y-68461945D01*
X138100836Y-68571658D01*
X138083406Y-68659612D01*
X138051995Y-68746651D01*
X138012373Y-68833500D01*
X137865482Y-69071510D01*
X137672945Y-69265490D01*
X137436327Y-69413873D01*
X137428000Y-69417873D01*
X137221625Y-69516125D01*
X135927812Y-69525084D01*
X134634000Y-69534043D01*
X134634000Y-67912750D01*
X135427750Y-67912750D01*
X135427750Y-68738250D01*
X136214057Y-68738250D01*
X136462097Y-68737827D01*
X136655037Y-68736198D01*
X136801273Y-68732816D01*
X136909202Y-68727138D01*
X136987220Y-68718619D01*
X137043724Y-68706714D01*
X137087111Y-68690879D01*
X137108542Y-68680234D01*
X137211482Y-68596858D01*
X137290753Y-68480738D01*
X137330723Y-68356608D01*
X137332750Y-68325499D01*
X137305816Y-68203394D01*
X137235437Y-68082742D01*
X137137247Y-67988279D01*
X137108542Y-67970765D01*
X137068804Y-67952522D01*
X137020593Y-67938511D01*
X136955511Y-67928186D01*
X136865163Y-67921004D01*
X136741151Y-67916420D01*
X136575080Y-67913889D01*
X136358552Y-67912866D01*
X136214057Y-67912750D01*
X135427750Y-67912750D01*
X134634000Y-67912750D01*
X134634000Y-66821055D01*
X135432321Y-66821055D01*
X135433025Y-66947998D01*
X135436454Y-67038838D01*
X135441532Y-67077371D01*
X135478038Y-67093135D01*
X135566531Y-67105492D01*
X135695590Y-67114460D01*
X135853796Y-67120057D01*
X136029729Y-67122301D01*
X136211967Y-67121210D01*
X136389090Y-67116801D01*
X136549679Y-67109094D01*
X136682312Y-67098106D01*
X136775569Y-67083855D01*
X136804563Y-67075222D01*
X136930350Y-66993559D01*
X137011325Y-66881384D01*
X137048151Y-66751880D01*
X137041490Y-66618232D01*
X136992003Y-66493627D01*
X136900354Y-66391247D01*
X136767204Y-66324279D01*
X136766847Y-66324176D01*
X136689624Y-66312159D01*
X136557831Y-66303661D01*
X136380319Y-66298982D01*
X136165937Y-66298420D01*
X136046875Y-66299790D01*
X135443625Y-66309375D01*
X135434591Y-66672558D01*
X135432321Y-66821055D01*
X134634000Y-66821055D01*
X134634000Y-65499750D01*
X135737312Y-65500093D01*
G36*
X141777750Y-65509236D02*
G01*
X142134791Y-65557498D01*
X142466393Y-65662678D01*
X142768907Y-65822053D01*
X143038684Y-66032896D01*
X143272078Y-66292484D01*
X143465440Y-66598090D01*
X143582562Y-66857330D01*
X143616075Y-66950282D01*
X143639073Y-67034313D01*
X143653498Y-67124957D01*
X143661288Y-67237749D01*
X143664385Y-67388226D01*
X143664799Y-67515875D01*
X143663740Y-67699771D01*
X143659268Y-67835719D01*
X143649444Y-67939255D01*
X143632328Y-68025914D01*
X143605979Y-68111230D01*
X143582562Y-68174419D01*
X143423495Y-68507343D01*
X143218844Y-68801881D01*
X142973362Y-69053389D01*
X142691805Y-69257222D01*
X142378927Y-69408734D01*
X142285750Y-69441345D01*
X142098173Y-69485148D01*
X141873003Y-69512419D01*
X141634211Y-69522177D01*
X141405769Y-69513443D01*
X141211650Y-69485239D01*
X141211575Y-69485222D01*
X140917133Y-69392435D01*
X140644351Y-69250140D01*
X140383628Y-69052775D01*
X140252966Y-68929880D01*
X140064381Y-68723407D01*
X139922270Y-68522452D01*
X139815042Y-68306823D01*
X139731110Y-68056329D01*
X139713447Y-67989965D01*
X139659242Y-67651422D01*
X139660882Y-67575106D01*
X140464919Y-67575106D01*
X140505090Y-67827354D01*
X140600267Y-68069038D01*
X140750684Y-68291328D01*
X140804604Y-68350834D01*
X141019517Y-68530793D01*
X141257915Y-68653222D01*
X141513589Y-68716721D01*
X141780329Y-68719887D01*
X142051926Y-68661322D01*
X142102275Y-68643584D01*
X142340403Y-68523535D01*
X142537153Y-68362103D01*
X142690810Y-68167495D01*
X142799660Y-67947916D01*
X142861989Y-67711571D01*
X142876081Y-67466668D01*
X142840224Y-67221411D01*
X142752702Y-66984006D01*
X142611800Y-66762660D01*
X142517305Y-66657068D01*
X142305996Y-66487721D01*
X142071527Y-66373407D01*
X141822599Y-66314229D01*
X141567913Y-66310291D01*
X141316169Y-66361697D01*
X141076070Y-66468552D01*
X140856315Y-66630959D01*
X140849662Y-66637126D01*
X140672127Y-66843306D01*
X140548670Y-67074251D01*
X140479523Y-67321128D01*
X140464919Y-67575106D01*
X139660882Y-67575106D01*
X139666666Y-67306032D01*
X139735066Y-66959325D01*
X139863791Y-66616831D01*
X139879351Y-66584267D01*
X139993283Y-66397329D01*
X140151206Y-66203069D01*
X140337721Y-66016636D01*
X140537428Y-65853180D01*
X140734926Y-65727851D01*
X140766033Y-65711985D01*
X141067208Y-65590434D01*
X141371637Y-65523083D01*
X141697433Y-65506301D01*
X141777750Y-65509236D01*
G37*
X141777750Y-65509236D02*
X142134791Y-65557498D01*
X142466393Y-65662678D01*
X142768907Y-65822053D01*
X143038684Y-66032896D01*
X143272078Y-66292484D01*
X143465440Y-66598090D01*
X143582562Y-66857330D01*
X143616075Y-66950282D01*
X143639073Y-67034313D01*
X143653498Y-67124957D01*
X143661288Y-67237749D01*
X143664385Y-67388226D01*
X143664799Y-67515875D01*
X143663740Y-67699771D01*
X143659268Y-67835719D01*
X143649444Y-67939255D01*
X143632328Y-68025914D01*
X143605979Y-68111230D01*
X143582562Y-68174419D01*
X143423495Y-68507343D01*
X143218844Y-68801881D01*
X142973362Y-69053389D01*
X142691805Y-69257222D01*
X142378927Y-69408734D01*
X142285750Y-69441345D01*
X142098173Y-69485148D01*
X141873003Y-69512419D01*
X141634211Y-69522177D01*
X141405769Y-69513443D01*
X141211650Y-69485239D01*
X141211575Y-69485222D01*
X140917133Y-69392435D01*
X140644351Y-69250140D01*
X140383628Y-69052775D01*
X140252966Y-68929880D01*
X140064381Y-68723407D01*
X139922270Y-68522452D01*
X139815042Y-68306823D01*
X139731110Y-68056329D01*
X139713447Y-67989965D01*
X139659242Y-67651422D01*
X139660882Y-67575106D01*
X140464919Y-67575106D01*
X140505090Y-67827354D01*
X140600267Y-68069038D01*
X140750684Y-68291328D01*
X140804604Y-68350834D01*
X141019517Y-68530793D01*
X141257915Y-68653222D01*
X141513589Y-68716721D01*
X141780329Y-68719887D01*
X142051926Y-68661322D01*
X142102275Y-68643584D01*
X142340403Y-68523535D01*
X142537153Y-68362103D01*
X142690810Y-68167495D01*
X142799660Y-67947916D01*
X142861989Y-67711571D01*
X142876081Y-67466668D01*
X142840224Y-67221411D01*
X142752702Y-66984006D01*
X142611800Y-66762660D01*
X142517305Y-66657068D01*
X142305996Y-66487721D01*
X142071527Y-66373407D01*
X141822599Y-66314229D01*
X141567913Y-66310291D01*
X141316169Y-66361697D01*
X141076070Y-66468552D01*
X140856315Y-66630959D01*
X140849662Y-66637126D01*
X140672127Y-66843306D01*
X140548670Y-67074251D01*
X140479523Y-67321128D01*
X140464919Y-67575106D01*
X139660882Y-67575106D01*
X139666666Y-67306032D01*
X139735066Y-66959325D01*
X139863791Y-66616831D01*
X139879351Y-66584267D01*
X139993283Y-66397329D01*
X140151206Y-66203069D01*
X140337721Y-66016636D01*
X140537428Y-65853180D01*
X140734926Y-65727851D01*
X140766033Y-65711985D01*
X141067208Y-65590434D01*
X141371637Y-65523083D01*
X141697433Y-65506301D01*
X141777750Y-65509236D01*
G36*
X145841097Y-65501110D02*
G01*
X145873828Y-65503929D01*
X145907840Y-65514691D01*
X145948115Y-65538091D01*
X145999633Y-65578822D01*
X146067375Y-65641577D01*
X146156324Y-65731050D01*
X146271460Y-65851933D01*
X146417764Y-66008921D01*
X146600218Y-66206705D01*
X146666689Y-66278985D01*
X146837729Y-66464449D01*
X146995198Y-66634044D01*
X147133950Y-66782319D01*
X147248839Y-66903823D01*
X147334722Y-66993103D01*
X147386452Y-67044708D01*
X147399533Y-67055500D01*
X147424755Y-67032938D01*
X147487598Y-66968895D01*
X147582924Y-66868833D01*
X147705592Y-66738214D01*
X147850464Y-66582503D01*
X148012399Y-66407159D01*
X148130344Y-66278732D01*
X148324753Y-66066933D01*
X148481485Y-65897463D01*
X148605530Y-65765618D01*
X148701873Y-65666692D01*
X148775503Y-65595983D01*
X148831407Y-65548786D01*
X148874573Y-65520397D01*
X148909988Y-65506111D01*
X148942640Y-65501225D01*
X148955078Y-65500857D01*
X149068031Y-65499750D01*
X149218008Y-67492062D01*
X149244279Y-67841613D01*
X149269054Y-68172385D01*
X149291933Y-68478950D01*
X149312516Y-68755880D01*
X149330400Y-68997746D01*
X149345184Y-69199118D01*
X149356468Y-69354570D01*
X149363850Y-69458670D01*
X149366929Y-69505993D01*
X149366992Y-69508187D01*
X149336862Y-69517240D01*
X149255342Y-69524709D01*
X149134536Y-69529867D01*
X148986549Y-69531983D01*
X148971915Y-69532000D01*
X148577831Y-69532000D01*
X148560351Y-69412937D01*
X148553662Y-69351249D01*
X148543341Y-69235387D01*
X148530119Y-69074527D01*
X148514727Y-68877845D01*
X148497895Y-68654515D01*
X148480353Y-68413716D01*
X148476325Y-68357250D01*
X148458609Y-68114773D01*
X148441162Y-67888606D01*
X148424747Y-67687725D01*
X148410130Y-67521107D01*
X148398074Y-67397731D01*
X148389345Y-67326572D01*
X148387826Y-67318244D01*
X148365875Y-67215863D01*
X147892032Y-67730994D01*
X147753380Y-67881097D01*
X147629078Y-68014463D01*
X147525542Y-68124307D01*
X147449188Y-68203844D01*
X147406431Y-68246290D01*
X147399907Y-68251469D01*
X147374162Y-68230626D01*
X147312195Y-68169285D01*
X147220354Y-68074068D01*
X147104985Y-67951597D01*
X146972431Y-67808495D01*
X146906744Y-67736808D01*
X146768836Y-67586851D01*
X146645620Y-67454879D01*
X146543329Y-67347406D01*
X146468197Y-67270943D01*
X146426459Y-67232002D01*
X146420142Y-67228524D01*
X146414994Y-67261762D01*
X146405538Y-67351142D01*
X146392417Y-67489498D01*
X146376272Y-67669665D01*
X146357748Y-67884478D01*
X146337486Y-68126771D01*
X146317027Y-68378185D01*
X146295987Y-68639879D01*
X146276577Y-68880795D01*
X146259373Y-69093802D01*
X146244954Y-69271767D01*
X146233897Y-69407557D01*
X146226781Y-69494041D01*
X146224191Y-69524062D01*
X146193868Y-69527054D01*
X146112055Y-69529530D01*
X145990765Y-69531254D01*
X145842008Y-69531989D01*
X145821270Y-69532000D01*
X145419790Y-69532000D01*
X145437308Y-69317687D01*
X145442973Y-69246233D01*
X145452949Y-69118006D01*
X145466734Y-68939551D01*
X145483825Y-68717411D01*
X145503720Y-68458130D01*
X145525917Y-68168254D01*
X145549913Y-67854326D01*
X145575205Y-67522890D01*
X145592073Y-67301562D01*
X145729320Y-65499749D01*
X145841097Y-65501110D01*
G37*
X145841097Y-65501110D02*
X145873828Y-65503929D01*
X145907840Y-65514691D01*
X145948115Y-65538091D01*
X145999633Y-65578822D01*
X146067375Y-65641577D01*
X146156324Y-65731050D01*
X146271460Y-65851933D01*
X146417764Y-66008921D01*
X146600218Y-66206705D01*
X146666689Y-66278985D01*
X146837729Y-66464449D01*
X146995198Y-66634044D01*
X147133950Y-66782319D01*
X147248839Y-66903823D01*
X147334722Y-66993103D01*
X147386452Y-67044708D01*
X147399533Y-67055500D01*
X147424755Y-67032938D01*
X147487598Y-66968895D01*
X147582924Y-66868833D01*
X147705592Y-66738214D01*
X147850464Y-66582503D01*
X148012399Y-66407159D01*
X148130344Y-66278732D01*
X148324753Y-66066933D01*
X148481485Y-65897463D01*
X148605530Y-65765618D01*
X148701873Y-65666692D01*
X148775503Y-65595983D01*
X148831407Y-65548786D01*
X148874573Y-65520397D01*
X148909988Y-65506111D01*
X148942640Y-65501225D01*
X148955078Y-65500857D01*
X149068031Y-65499750D01*
X149218008Y-67492062D01*
X149244279Y-67841613D01*
X149269054Y-68172385D01*
X149291933Y-68478950D01*
X149312516Y-68755880D01*
X149330400Y-68997746D01*
X149345184Y-69199118D01*
X149356468Y-69354570D01*
X149363850Y-69458670D01*
X149366929Y-69505993D01*
X149366992Y-69508187D01*
X149336862Y-69517240D01*
X149255342Y-69524709D01*
X149134536Y-69529867D01*
X148986549Y-69531983D01*
X148971915Y-69532000D01*
X148577831Y-69532000D01*
X148560351Y-69412937D01*
X148553662Y-69351249D01*
X148543341Y-69235387D01*
X148530119Y-69074527D01*
X148514727Y-68877845D01*
X148497895Y-68654515D01*
X148480353Y-68413716D01*
X148476325Y-68357250D01*
X148458609Y-68114773D01*
X148441162Y-67888606D01*
X148424747Y-67687725D01*
X148410130Y-67521107D01*
X148398074Y-67397731D01*
X148389345Y-67326572D01*
X148387826Y-67318244D01*
X148365875Y-67215863D01*
X147892032Y-67730994D01*
X147753380Y-67881097D01*
X147629078Y-68014463D01*
X147525542Y-68124307D01*
X147449188Y-68203844D01*
X147406431Y-68246290D01*
X147399907Y-68251469D01*
X147374162Y-68230626D01*
X147312195Y-68169285D01*
X147220354Y-68074068D01*
X147104985Y-67951597D01*
X146972431Y-67808495D01*
X146906744Y-67736808D01*
X146768836Y-67586851D01*
X146645620Y-67454879D01*
X146543329Y-67347406D01*
X146468197Y-67270943D01*
X146426459Y-67232002D01*
X146420142Y-67228524D01*
X146414994Y-67261762D01*
X146405538Y-67351142D01*
X146392417Y-67489498D01*
X146376272Y-67669665D01*
X146357748Y-67884478D01*
X146337486Y-68126771D01*
X146317027Y-68378185D01*
X146295987Y-68639879D01*
X146276577Y-68880795D01*
X146259373Y-69093802D01*
X146244954Y-69271767D01*
X146233897Y-69407557D01*
X146226781Y-69494041D01*
X146224191Y-69524062D01*
X146193868Y-69527054D01*
X146112055Y-69529530D01*
X145990765Y-69531254D01*
X145842008Y-69531989D01*
X145821270Y-69532000D01*
X145419790Y-69532000D01*
X145437308Y-69317687D01*
X145442973Y-69246233D01*
X145452949Y-69118006D01*
X145466734Y-68939551D01*
X145483825Y-68717411D01*
X145503720Y-68458130D01*
X145525917Y-68168254D01*
X145549913Y-67854326D01*
X145575205Y-67522890D01*
X145592073Y-67301562D01*
X145729320Y-65499749D01*
X145841097Y-65501110D01*
%TO.C,P3*%
D16*
X145561210Y-76063397D02*
X144559344Y-76063397D01*
X144559344Y-75681734D01*
X144607052Y-75586318D01*
X144654759Y-75538610D01*
X144750175Y-75490902D01*
X144893299Y-75490902D01*
X144988715Y-75538610D01*
X145036423Y-75586318D01*
X145084131Y-75681734D01*
X145084131Y-76063397D01*
X144559344Y-75156947D02*
X144559344Y-74536744D01*
X144941007Y-74870699D01*
X144941007Y-74727576D01*
X144988715Y-74632160D01*
X145036423Y-74584452D01*
X145131838Y-74536744D01*
X145370378Y-74536744D01*
X145465794Y-74584452D01*
X145513502Y-74632160D01*
X145561210Y-74727576D01*
X145561210Y-75013823D01*
X145513502Y-75109239D01*
X145465794Y-75156947D01*
%TO.C,J1*%
D10*
X165635751Y-119180668D02*
X164230405Y-119180668D01*
X164230405Y-118645298D01*
X164297327Y-118511455D01*
X164364248Y-118444534D01*
X164498090Y-118377613D01*
X164698854Y-118377613D01*
X164832696Y-118444534D01*
X164899618Y-118511455D01*
X164966539Y-118645298D01*
X164966539Y-119180668D01*
X165635751Y-117775322D02*
X164698854Y-117775322D01*
X164966539Y-117775322D02*
X164832696Y-117708400D01*
X164765775Y-117641479D01*
X164698854Y-117507637D01*
X164698854Y-117373794D01*
X165635751Y-116905346D02*
X164698854Y-116905346D01*
X164230405Y-116905346D02*
X164297327Y-116972267D01*
X164364248Y-116905346D01*
X164297327Y-116838424D01*
X164230405Y-116905346D01*
X164364248Y-116905346D01*
X165635751Y-116236133D02*
X164698854Y-116236133D01*
X164832696Y-116236133D02*
X164765775Y-116169212D01*
X164698854Y-116035369D01*
X164698854Y-115834606D01*
X164765775Y-115700763D01*
X164899618Y-115633842D01*
X165635751Y-115633842D01*
X164899618Y-115633842D02*
X164765775Y-115566921D01*
X164698854Y-115433078D01*
X164698854Y-115232315D01*
X164765775Y-115098472D01*
X164899618Y-115031551D01*
X165635751Y-115031551D01*
X165635751Y-113760047D02*
X164899618Y-113760047D01*
X164765775Y-113826969D01*
X164698854Y-113960811D01*
X164698854Y-114228496D01*
X164765775Y-114362338D01*
X165568830Y-113760047D02*
X165635751Y-113893890D01*
X165635751Y-114228496D01*
X165568830Y-114362338D01*
X165434988Y-114429260D01*
X165301145Y-114429260D01*
X165167303Y-114362338D01*
X165100381Y-114228496D01*
X165100381Y-113893890D01*
X165033460Y-113760047D01*
X165635751Y-113090835D02*
X164698854Y-113090835D01*
X164966539Y-113090835D02*
X164832696Y-113023914D01*
X164765775Y-112956992D01*
X164698854Y-112823150D01*
X164698854Y-112689308D01*
X164698854Y-112354701D02*
X165635751Y-112020095D01*
X164698854Y-111685489D02*
X165635751Y-112020095D01*
X165970357Y-112153938D01*
X166037279Y-112220859D01*
X166104200Y-112354701D01*
%TO.C,TH2*%
X145714285Y-108952380D02*
X146285714Y-108952380D01*
X146000000Y-109952380D02*
X146000000Y-108952380D01*
X146619047Y-109952380D02*
X146619047Y-108952380D01*
X146619047Y-109428571D02*
X147190476Y-109428571D01*
X147190476Y-109952380D02*
X147190476Y-108952380D01*
X147619047Y-109047619D02*
X147666666Y-109000000D01*
X147761904Y-108952380D01*
X148000000Y-108952380D01*
X148095238Y-109000000D01*
X148142857Y-109047619D01*
X148190476Y-109142857D01*
X148190476Y-109238095D01*
X148142857Y-109380952D01*
X147571428Y-109952380D01*
X148190476Y-109952380D01*
%TO.C,TH1*%
X145714285Y-120452380D02*
X146285714Y-120452380D01*
X146000000Y-121452380D02*
X146000000Y-120452380D01*
X146619047Y-121452380D02*
X146619047Y-120452380D01*
X146619047Y-120928571D02*
X147190476Y-120928571D01*
X147190476Y-121452380D02*
X147190476Y-120452380D01*
X148190476Y-121452380D02*
X147619047Y-121452380D01*
X147904761Y-121452380D02*
X147904761Y-120452380D01*
X147809523Y-120595238D01*
X147714285Y-120690476D01*
X147619047Y-120738095D01*
%TO.C,MOV1*%
D17*
X159824523Y-125737619D02*
X158554523Y-125737619D01*
X159461666Y-125314285D01*
X158554523Y-124890952D01*
X159824523Y-124890952D01*
X158554523Y-124044285D02*
X158554523Y-123802380D01*
X158615000Y-123681428D01*
X158735952Y-123560476D01*
X158977857Y-123500000D01*
X159401190Y-123500000D01*
X159643095Y-123560476D01*
X159764047Y-123681428D01*
X159824523Y-123802380D01*
X159824523Y-124044285D01*
X159764047Y-124165238D01*
X159643095Y-124286190D01*
X159401190Y-124346666D01*
X158977857Y-124346666D01*
X158735952Y-124286190D01*
X158615000Y-124165238D01*
X158554523Y-124044285D01*
X158554523Y-123137142D02*
X159824523Y-122713809D01*
X158554523Y-122290476D01*
X159824523Y-121201904D02*
X159824523Y-121927619D01*
X159824523Y-121564761D02*
X158554523Y-121564761D01*
X158735952Y-121685714D01*
X158856904Y-121806666D01*
X158917380Y-121927619D01*
%TO.C,MOV2*%
X159824523Y-112737619D02*
X158554523Y-112737619D01*
X159461666Y-112314285D01*
X158554523Y-111890952D01*
X159824523Y-111890952D01*
X158554523Y-111044285D02*
X158554523Y-110802380D01*
X158615000Y-110681428D01*
X158735952Y-110560476D01*
X158977857Y-110500000D01*
X159401190Y-110500000D01*
X159643095Y-110560476D01*
X159764047Y-110681428D01*
X159824523Y-110802380D01*
X159824523Y-111044285D01*
X159764047Y-111165238D01*
X159643095Y-111286190D01*
X159401190Y-111346666D01*
X158977857Y-111346666D01*
X158735952Y-111286190D01*
X158615000Y-111165238D01*
X158554523Y-111044285D01*
X158554523Y-110137142D02*
X159824523Y-109713809D01*
X158554523Y-109290476D01*
X158675476Y-108927619D02*
X158615000Y-108867142D01*
X158554523Y-108746190D01*
X158554523Y-108443809D01*
X158615000Y-108322857D01*
X158675476Y-108262380D01*
X158796428Y-108201904D01*
X158917380Y-108201904D01*
X159098809Y-108262380D01*
X159824523Y-108988095D01*
X159824523Y-108201904D01*
%TO.C,S1*%
D16*
X170313095Y-101539761D02*
X170455952Y-101587380D01*
X170694047Y-101587380D01*
X170789285Y-101539761D01*
X170836904Y-101492142D01*
X170884523Y-101396904D01*
X170884523Y-101301666D01*
X170836904Y-101206428D01*
X170789285Y-101158809D01*
X170694047Y-101111190D01*
X170503571Y-101063571D01*
X170408333Y-101015952D01*
X170360714Y-100968333D01*
X170313095Y-100873095D01*
X170313095Y-100777857D01*
X170360714Y-100682619D01*
X170408333Y-100635000D01*
X170503571Y-100587380D01*
X170741666Y-100587380D01*
X170884523Y-100635000D01*
X171836904Y-101587380D02*
X171265476Y-101587380D01*
X171551190Y-101587380D02*
X171551190Y-100587380D01*
X171455952Y-100730238D01*
X171360714Y-100825476D01*
X171265476Y-100873095D01*
%TD*%
M02*
