%FSLAX45Y45*%
G04 Gerber Fmt 4.5, Leading zero omitted, Abs format (unit mm)*
G04 Created by KiCad (PCBNEW (5.1.6-0-10_14)) date 2020-08-18 22:59:48*
%MOMM*%
%LPD*%
G01*
G04 APERTURE LIST*
%TA.AperFunction,Profile*%
%ADD10C,0.050000*%
%TD*%
%ADD11C,0.200000*%
%ADD12C,0.300000*%
G04 APERTURE END LIST*
D10*
X17376140Y-6273810D02*
X10922000Y-6273800D01*
X17376140Y-13292160D02*
X17376140Y-6273810D01*
X10926140Y-13290810D02*
X17376140Y-13292160D01*
X10922000Y-6273800D02*
X10926140Y-13290810D01*
D11*
X15261880Y-11844210D02*
X15331880Y-11914210D01*
X15331880Y-11844210D02*
X15261880Y-11914210D01*
X15411880Y-11344210D02*
X15481880Y-11414210D01*
X15481880Y-11344210D02*
X15411880Y-11414210D01*
X14175280Y-10889410D02*
X14245280Y-10959410D01*
X14245280Y-10889410D02*
X14175280Y-10959410D01*
X14675280Y-11039410D02*
X14745280Y-11109410D01*
X14745280Y-11039410D02*
X14675280Y-11109410D01*
X15261880Y-10834560D02*
X15331880Y-10904560D01*
X15331880Y-10834560D02*
X15261880Y-10904560D01*
X15411880Y-10334560D02*
X15481880Y-10404560D01*
X15481880Y-10334560D02*
X15411880Y-10404560D01*
X13654580Y-11702210D02*
X13724580Y-11772210D01*
X13724580Y-11702210D02*
X13654580Y-11772210D01*
X14154580Y-11852210D02*
X14224580Y-11922210D01*
X14224580Y-11852210D02*
X14154580Y-11922210D01*
X16477080Y-10363210D02*
G75*
G03*
X16477080Y-10363210I-65000J0D01*
G01*
X16477080Y-10871210D02*
G75*
G03*
X16477080Y-10871210I-65000J0D01*
G01*
X16477080Y-11379210D02*
G75*
G03*
X16477080Y-11379210I-65000J0D01*
G01*
X16477080Y-11887210D02*
G75*
G03*
X16477080Y-11887210I-65000J0D01*
G01*
X12936280Y-7810810D02*
G75*
G03*
X12936280Y-7810810I-65000J0D01*
G01*
X12936280Y-8410810D02*
G75*
G03*
X12936280Y-8410810I-65000J0D01*
G01*
X12871280Y-11250810D02*
X12871280Y-11410810D01*
X12791280Y-11330810D02*
X12951280Y-11330810D01*
X15810788Y-7872218D02*
X15810788Y-7741402D01*
X15679972Y-7741402D01*
X15679972Y-7872218D01*
X15810788Y-7872218D01*
X15810788Y-8752218D02*
X15810788Y-8621402D01*
X15679972Y-8621402D01*
X15679972Y-8752218D01*
X15810788Y-8752218D01*
X15810788Y-9632218D02*
X15810788Y-9501402D01*
X15679972Y-9501402D01*
X15679972Y-9632218D01*
X15810788Y-9632218D01*
X16610788Y-7872218D02*
X16610788Y-7741402D01*
X16479972Y-7741402D01*
X16479972Y-7872218D01*
X16610788Y-7872218D01*
X16610788Y-8752218D02*
X16610788Y-8621402D01*
X16479972Y-8621402D01*
X16479972Y-8752218D01*
X16610788Y-8752218D01*
X16610788Y-9632218D02*
X16610788Y-9501402D01*
X16479972Y-9501402D01*
X16479972Y-9632218D01*
X16610788Y-9632218D01*
X14494380Y-12916410D02*
X14654380Y-12756410D01*
X14494380Y-12596410D01*
X14334380Y-12756410D01*
X14494380Y-12916410D01*
X12656280Y-12537400D02*
X13086280Y-12967400D01*
X13086280Y-12537400D02*
X12656280Y-12967400D01*
X13086280Y-12752400D02*
G75*
G03*
X13086280Y-12752400I-215000J0D01*
G01*
D12*
X11205928Y-13760374D02*
X11205928Y-13460374D01*
X11277357Y-13460374D01*
X11320214Y-13474660D01*
X11348786Y-13503231D01*
X11363071Y-13531803D01*
X11377357Y-13588946D01*
X11377357Y-13631803D01*
X11363071Y-13688946D01*
X11348786Y-13717517D01*
X11320214Y-13746089D01*
X11277357Y-13760374D01*
X11205928Y-13760374D01*
X11505928Y-13760374D02*
X11505928Y-13560374D01*
X11505928Y-13617517D02*
X11520214Y-13588946D01*
X11534500Y-13574660D01*
X11563071Y-13560374D01*
X11591643Y-13560374D01*
X11691643Y-13760374D02*
X11691643Y-13560374D01*
X11691643Y-13460374D02*
X11677357Y-13474660D01*
X11691643Y-13488946D01*
X11705928Y-13474660D01*
X11691643Y-13460374D01*
X11691643Y-13488946D01*
X11877357Y-13760374D02*
X11848786Y-13746089D01*
X11834500Y-13717517D01*
X11834500Y-13460374D01*
X12034500Y-13760374D02*
X12005928Y-13746089D01*
X11991643Y-13717517D01*
X11991643Y-13460374D01*
X12377357Y-13760374D02*
X12377357Y-13460374D01*
X12477357Y-13674660D01*
X12577357Y-13460374D01*
X12577357Y-13760374D01*
X12848786Y-13760374D02*
X12848786Y-13603231D01*
X12834500Y-13574660D01*
X12805928Y-13560374D01*
X12748786Y-13560374D01*
X12720214Y-13574660D01*
X12848786Y-13746089D02*
X12820214Y-13760374D01*
X12748786Y-13760374D01*
X12720214Y-13746089D01*
X12705928Y-13717517D01*
X12705928Y-13688946D01*
X12720214Y-13660374D01*
X12748786Y-13646089D01*
X12820214Y-13646089D01*
X12848786Y-13631803D01*
X12991643Y-13560374D02*
X12991643Y-13860374D01*
X12991643Y-13574660D02*
X13020214Y-13560374D01*
X13077357Y-13560374D01*
X13105928Y-13574660D01*
X13120214Y-13588946D01*
X13134500Y-13617517D01*
X13134500Y-13703231D01*
X13120214Y-13731803D01*
X13105928Y-13746089D01*
X13077357Y-13760374D01*
X13020214Y-13760374D01*
X12991643Y-13746089D01*
X13263071Y-13731803D02*
X13277357Y-13746089D01*
X13263071Y-13760374D01*
X13248786Y-13746089D01*
X13263071Y-13731803D01*
X13263071Y-13760374D01*
X13263071Y-13574660D02*
X13277357Y-13588946D01*
X13263071Y-13603231D01*
X13248786Y-13588946D01*
X13263071Y-13574660D01*
X13263071Y-13603231D01*
X10849500Y-14219660D02*
X10919500Y-14289660D01*
X10919500Y-14219660D02*
X10849500Y-14289660D01*
X11263071Y-14090374D02*
X11291643Y-14090374D01*
X11320214Y-14104660D01*
X11334500Y-14118946D01*
X11348786Y-14147517D01*
X11363071Y-14204660D01*
X11363071Y-14276089D01*
X11348786Y-14333231D01*
X11334500Y-14361803D01*
X11320214Y-14376089D01*
X11291643Y-14390374D01*
X11263071Y-14390374D01*
X11234500Y-14376089D01*
X11220214Y-14361803D01*
X11205928Y-14333231D01*
X11191643Y-14276089D01*
X11191643Y-14204660D01*
X11205928Y-14147517D01*
X11220214Y-14118946D01*
X11234500Y-14104660D01*
X11263071Y-14090374D01*
X11491643Y-14361803D02*
X11505928Y-14376089D01*
X11491643Y-14390374D01*
X11477357Y-14376089D01*
X11491643Y-14361803D01*
X11491643Y-14390374D01*
X11605928Y-14090374D02*
X11805928Y-14090374D01*
X11677357Y-14390374D01*
X11977357Y-14090374D02*
X12005928Y-14090374D01*
X12034500Y-14104660D01*
X12048786Y-14118946D01*
X12063071Y-14147517D01*
X12077357Y-14204660D01*
X12077357Y-14276089D01*
X12063071Y-14333231D01*
X12048786Y-14361803D01*
X12034500Y-14376089D01*
X12005928Y-14390374D01*
X11977357Y-14390374D01*
X11948786Y-14376089D01*
X11934500Y-14361803D01*
X11920214Y-14333231D01*
X11905928Y-14276089D01*
X11905928Y-14204660D01*
X11920214Y-14147517D01*
X11934500Y-14118946D01*
X11948786Y-14104660D01*
X11977357Y-14090374D01*
X12205928Y-14390374D02*
X12205928Y-14190374D01*
X12205928Y-14218946D02*
X12220214Y-14204660D01*
X12248786Y-14190374D01*
X12291643Y-14190374D01*
X12320214Y-14204660D01*
X12334500Y-14233231D01*
X12334500Y-14390374D01*
X12334500Y-14233231D02*
X12348786Y-14204660D01*
X12377357Y-14190374D01*
X12420214Y-14190374D01*
X12448786Y-14204660D01*
X12463071Y-14233231D01*
X12463071Y-14390374D01*
X12605928Y-14390374D02*
X12605928Y-14190374D01*
X12605928Y-14218946D02*
X12620214Y-14204660D01*
X12648786Y-14190374D01*
X12691643Y-14190374D01*
X12720214Y-14204660D01*
X12734500Y-14233231D01*
X12734500Y-14390374D01*
X12734500Y-14233231D02*
X12748786Y-14204660D01*
X12777357Y-14190374D01*
X12820214Y-14190374D01*
X12848786Y-14204660D01*
X12863071Y-14233231D01*
X12863071Y-14390374D01*
X13448786Y-14076089D02*
X13191643Y-14461803D01*
X13834500Y-14090374D02*
X13863071Y-14090374D01*
X13891643Y-14104660D01*
X13905928Y-14118946D01*
X13920214Y-14147517D01*
X13934500Y-14204660D01*
X13934500Y-14276089D01*
X13920214Y-14333231D01*
X13905928Y-14361803D01*
X13891643Y-14376089D01*
X13863071Y-14390374D01*
X13834500Y-14390374D01*
X13805928Y-14376089D01*
X13791643Y-14361803D01*
X13777357Y-14333231D01*
X13763071Y-14276089D01*
X13763071Y-14204660D01*
X13777357Y-14147517D01*
X13791643Y-14118946D01*
X13805928Y-14104660D01*
X13834500Y-14090374D01*
X14063071Y-14361803D02*
X14077357Y-14376089D01*
X14063071Y-14390374D01*
X14048786Y-14376089D01*
X14063071Y-14361803D01*
X14063071Y-14390374D01*
X14263071Y-14090374D02*
X14291643Y-14090374D01*
X14320214Y-14104660D01*
X14334500Y-14118946D01*
X14348786Y-14147517D01*
X14363071Y-14204660D01*
X14363071Y-14276089D01*
X14348786Y-14333231D01*
X14334500Y-14361803D01*
X14320214Y-14376089D01*
X14291643Y-14390374D01*
X14263071Y-14390374D01*
X14234500Y-14376089D01*
X14220214Y-14361803D01*
X14205928Y-14333231D01*
X14191643Y-14276089D01*
X14191643Y-14204660D01*
X14205928Y-14147517D01*
X14220214Y-14118946D01*
X14234500Y-14104660D01*
X14263071Y-14090374D01*
X14477357Y-14118946D02*
X14491643Y-14104660D01*
X14520214Y-14090374D01*
X14591643Y-14090374D01*
X14620214Y-14104660D01*
X14634500Y-14118946D01*
X14648786Y-14147517D01*
X14648786Y-14176089D01*
X14634500Y-14218946D01*
X14463071Y-14390374D01*
X14648786Y-14390374D01*
X14820214Y-14218946D02*
X14791643Y-14204660D01*
X14777357Y-14190374D01*
X14763071Y-14161803D01*
X14763071Y-14147517D01*
X14777357Y-14118946D01*
X14791643Y-14104660D01*
X14820214Y-14090374D01*
X14877357Y-14090374D01*
X14905928Y-14104660D01*
X14920214Y-14118946D01*
X14934500Y-14147517D01*
X14934500Y-14161803D01*
X14920214Y-14190374D01*
X14905928Y-14204660D01*
X14877357Y-14218946D01*
X14820214Y-14218946D01*
X14791643Y-14233231D01*
X14777357Y-14247517D01*
X14763071Y-14276089D01*
X14763071Y-14333231D01*
X14777357Y-14361803D01*
X14791643Y-14376089D01*
X14820214Y-14390374D01*
X14877357Y-14390374D01*
X14905928Y-14376089D01*
X14920214Y-14361803D01*
X14934500Y-14333231D01*
X14934500Y-14276089D01*
X14920214Y-14247517D01*
X14905928Y-14233231D01*
X14877357Y-14218946D01*
X15048786Y-14090374D02*
X15048786Y-14147517D01*
X15163071Y-14090374D02*
X15163071Y-14147517D01*
X15605928Y-14504660D02*
X15591643Y-14490374D01*
X15563071Y-14447517D01*
X15548786Y-14418946D01*
X15534500Y-14376089D01*
X15520214Y-14304660D01*
X15520214Y-14247517D01*
X15534500Y-14176089D01*
X15548786Y-14133231D01*
X15563071Y-14104660D01*
X15591643Y-14061803D01*
X15605928Y-14047517D01*
X15763071Y-14218946D02*
X15734500Y-14204660D01*
X15720214Y-14190374D01*
X15705928Y-14161803D01*
X15705928Y-14147517D01*
X15720214Y-14118946D01*
X15734500Y-14104660D01*
X15763071Y-14090374D01*
X15820214Y-14090374D01*
X15848786Y-14104660D01*
X15863071Y-14118946D01*
X15877357Y-14147517D01*
X15877357Y-14161803D01*
X15863071Y-14190374D01*
X15848786Y-14204660D01*
X15820214Y-14218946D01*
X15763071Y-14218946D01*
X15734500Y-14233231D01*
X15720214Y-14247517D01*
X15705928Y-14276089D01*
X15705928Y-14333231D01*
X15720214Y-14361803D01*
X15734500Y-14376089D01*
X15763071Y-14390374D01*
X15820214Y-14390374D01*
X15848786Y-14376089D01*
X15863071Y-14361803D01*
X15877357Y-14333231D01*
X15877357Y-14276089D01*
X15863071Y-14247517D01*
X15848786Y-14233231D01*
X15820214Y-14218946D01*
X16234500Y-14390374D02*
X16234500Y-14090374D01*
X16363071Y-14390374D02*
X16363071Y-14233231D01*
X16348786Y-14204660D01*
X16320214Y-14190374D01*
X16277357Y-14190374D01*
X16248786Y-14204660D01*
X16234500Y-14218946D01*
X16548786Y-14390374D02*
X16520214Y-14376089D01*
X16505928Y-14361803D01*
X16491643Y-14333231D01*
X16491643Y-14247517D01*
X16505928Y-14218946D01*
X16520214Y-14204660D01*
X16548786Y-14190374D01*
X16591643Y-14190374D01*
X16620214Y-14204660D01*
X16634500Y-14218946D01*
X16648786Y-14247517D01*
X16648786Y-14333231D01*
X16634500Y-14361803D01*
X16620214Y-14376089D01*
X16591643Y-14390374D01*
X16548786Y-14390374D01*
X16820214Y-14390374D02*
X16791643Y-14376089D01*
X16777357Y-14347517D01*
X16777357Y-14090374D01*
X17048786Y-14376089D02*
X17020214Y-14390374D01*
X16963071Y-14390374D01*
X16934500Y-14376089D01*
X16920214Y-14347517D01*
X16920214Y-14233231D01*
X16934500Y-14204660D01*
X16963071Y-14190374D01*
X17020214Y-14190374D01*
X17048786Y-14204660D01*
X17063071Y-14233231D01*
X17063071Y-14261803D01*
X16920214Y-14290374D01*
X17177357Y-14376089D02*
X17205928Y-14390374D01*
X17263071Y-14390374D01*
X17291643Y-14376089D01*
X17305928Y-14347517D01*
X17305928Y-14333231D01*
X17291643Y-14304660D01*
X17263071Y-14290374D01*
X17220214Y-14290374D01*
X17191643Y-14276089D01*
X17177357Y-14247517D01*
X17177357Y-14233231D01*
X17191643Y-14204660D01*
X17220214Y-14190374D01*
X17263071Y-14190374D01*
X17291643Y-14204660D01*
X17405928Y-14504660D02*
X17420214Y-14490374D01*
X17448786Y-14447517D01*
X17463071Y-14418946D01*
X17477357Y-14376089D01*
X17491643Y-14304660D01*
X17491643Y-14247517D01*
X17477357Y-14176089D01*
X17463071Y-14133231D01*
X17448786Y-14104660D01*
X17420214Y-14061803D01*
X17405928Y-14047517D01*
X10919500Y-14650660D02*
G75*
G03*
X10919500Y-14650660I-65000J0D01*
G01*
X11363071Y-14786374D02*
X11191643Y-14786374D01*
X11277357Y-14786374D02*
X11277357Y-14486374D01*
X11248786Y-14529231D01*
X11220214Y-14557803D01*
X11191643Y-14572089D01*
X11491643Y-14757803D02*
X11505928Y-14772089D01*
X11491643Y-14786374D01*
X11477357Y-14772089D01*
X11491643Y-14757803D01*
X11491643Y-14786374D01*
X11605928Y-14486374D02*
X11791643Y-14486374D01*
X11691643Y-14600660D01*
X11734500Y-14600660D01*
X11763071Y-14614946D01*
X11777357Y-14629231D01*
X11791643Y-14657803D01*
X11791643Y-14729231D01*
X11777357Y-14757803D01*
X11763071Y-14772089D01*
X11734500Y-14786374D01*
X11648786Y-14786374D01*
X11620214Y-14772089D01*
X11605928Y-14757803D01*
X11977357Y-14486374D02*
X12005928Y-14486374D01*
X12034500Y-14500660D01*
X12048786Y-14514946D01*
X12063071Y-14543517D01*
X12077357Y-14600660D01*
X12077357Y-14672089D01*
X12063071Y-14729231D01*
X12048786Y-14757803D01*
X12034500Y-14772089D01*
X12005928Y-14786374D01*
X11977357Y-14786374D01*
X11948786Y-14772089D01*
X11934500Y-14757803D01*
X11920214Y-14729231D01*
X11905928Y-14672089D01*
X11905928Y-14600660D01*
X11920214Y-14543517D01*
X11934500Y-14514946D01*
X11948786Y-14500660D01*
X11977357Y-14486374D01*
X12205928Y-14786374D02*
X12205928Y-14586374D01*
X12205928Y-14614946D02*
X12220214Y-14600660D01*
X12248786Y-14586374D01*
X12291643Y-14586374D01*
X12320214Y-14600660D01*
X12334500Y-14629231D01*
X12334500Y-14786374D01*
X12334500Y-14629231D02*
X12348786Y-14600660D01*
X12377357Y-14586374D01*
X12420214Y-14586374D01*
X12448786Y-14600660D01*
X12463071Y-14629231D01*
X12463071Y-14786374D01*
X12605928Y-14786374D02*
X12605928Y-14586374D01*
X12605928Y-14614946D02*
X12620214Y-14600660D01*
X12648786Y-14586374D01*
X12691643Y-14586374D01*
X12720214Y-14600660D01*
X12734500Y-14629231D01*
X12734500Y-14786374D01*
X12734500Y-14629231D02*
X12748786Y-14600660D01*
X12777357Y-14586374D01*
X12820214Y-14586374D01*
X12848786Y-14600660D01*
X12863071Y-14629231D01*
X12863071Y-14786374D01*
X13448786Y-14472089D02*
X13191643Y-14857803D01*
X13834500Y-14486374D02*
X13863071Y-14486374D01*
X13891643Y-14500660D01*
X13905928Y-14514946D01*
X13920214Y-14543517D01*
X13934500Y-14600660D01*
X13934500Y-14672089D01*
X13920214Y-14729231D01*
X13905928Y-14757803D01*
X13891643Y-14772089D01*
X13863071Y-14786374D01*
X13834500Y-14786374D01*
X13805928Y-14772089D01*
X13791643Y-14757803D01*
X13777357Y-14729231D01*
X13763071Y-14672089D01*
X13763071Y-14600660D01*
X13777357Y-14543517D01*
X13791643Y-14514946D01*
X13805928Y-14500660D01*
X13834500Y-14486374D01*
X14063071Y-14757803D02*
X14077357Y-14772089D01*
X14063071Y-14786374D01*
X14048786Y-14772089D01*
X14063071Y-14757803D01*
X14063071Y-14786374D01*
X14263071Y-14486374D02*
X14291643Y-14486374D01*
X14320214Y-14500660D01*
X14334500Y-14514946D01*
X14348786Y-14543517D01*
X14363071Y-14600660D01*
X14363071Y-14672089D01*
X14348786Y-14729231D01*
X14334500Y-14757803D01*
X14320214Y-14772089D01*
X14291643Y-14786374D01*
X14263071Y-14786374D01*
X14234500Y-14772089D01*
X14220214Y-14757803D01*
X14205928Y-14729231D01*
X14191643Y-14672089D01*
X14191643Y-14600660D01*
X14205928Y-14543517D01*
X14220214Y-14514946D01*
X14234500Y-14500660D01*
X14263071Y-14486374D01*
X14634500Y-14486374D02*
X14491643Y-14486374D01*
X14477357Y-14629231D01*
X14491643Y-14614946D01*
X14520214Y-14600660D01*
X14591643Y-14600660D01*
X14620214Y-14614946D01*
X14634500Y-14629231D01*
X14648786Y-14657803D01*
X14648786Y-14729231D01*
X14634500Y-14757803D01*
X14620214Y-14772089D01*
X14591643Y-14786374D01*
X14520214Y-14786374D01*
X14491643Y-14772089D01*
X14477357Y-14757803D01*
X14934500Y-14786374D02*
X14763071Y-14786374D01*
X14848786Y-14786374D02*
X14848786Y-14486374D01*
X14820214Y-14529231D01*
X14791643Y-14557803D01*
X14763071Y-14572089D01*
X15048786Y-14486374D02*
X15048786Y-14543517D01*
X15163071Y-14486374D02*
X15163071Y-14543517D01*
X15605928Y-14900660D02*
X15591643Y-14886374D01*
X15563071Y-14843517D01*
X15548786Y-14814946D01*
X15534500Y-14772089D01*
X15520214Y-14700660D01*
X15520214Y-14643517D01*
X15534500Y-14572089D01*
X15548786Y-14529231D01*
X15563071Y-14500660D01*
X15591643Y-14457803D01*
X15605928Y-14443517D01*
X15848786Y-14486374D02*
X15791643Y-14486374D01*
X15763071Y-14500660D01*
X15748786Y-14514946D01*
X15720214Y-14557803D01*
X15705928Y-14614946D01*
X15705928Y-14729231D01*
X15720214Y-14757803D01*
X15734500Y-14772089D01*
X15763071Y-14786374D01*
X15820214Y-14786374D01*
X15848786Y-14772089D01*
X15863071Y-14757803D01*
X15877357Y-14729231D01*
X15877357Y-14657803D01*
X15863071Y-14629231D01*
X15848786Y-14614946D01*
X15820214Y-14600660D01*
X15763071Y-14600660D01*
X15734500Y-14614946D01*
X15720214Y-14629231D01*
X15705928Y-14657803D01*
X16234500Y-14786374D02*
X16234500Y-14486374D01*
X16363071Y-14786374D02*
X16363071Y-14629231D01*
X16348786Y-14600660D01*
X16320214Y-14586374D01*
X16277357Y-14586374D01*
X16248786Y-14600660D01*
X16234500Y-14614946D01*
X16548786Y-14786374D02*
X16520214Y-14772089D01*
X16505928Y-14757803D01*
X16491643Y-14729231D01*
X16491643Y-14643517D01*
X16505928Y-14614946D01*
X16520214Y-14600660D01*
X16548786Y-14586374D01*
X16591643Y-14586374D01*
X16620214Y-14600660D01*
X16634500Y-14614946D01*
X16648786Y-14643517D01*
X16648786Y-14729231D01*
X16634500Y-14757803D01*
X16620214Y-14772089D01*
X16591643Y-14786374D01*
X16548786Y-14786374D01*
X16820214Y-14786374D02*
X16791643Y-14772089D01*
X16777357Y-14743517D01*
X16777357Y-14486374D01*
X17048786Y-14772089D02*
X17020214Y-14786374D01*
X16963071Y-14786374D01*
X16934500Y-14772089D01*
X16920214Y-14743517D01*
X16920214Y-14629231D01*
X16934500Y-14600660D01*
X16963071Y-14586374D01*
X17020214Y-14586374D01*
X17048786Y-14600660D01*
X17063071Y-14629231D01*
X17063071Y-14657803D01*
X16920214Y-14686374D01*
X17177357Y-14772089D02*
X17205928Y-14786374D01*
X17263071Y-14786374D01*
X17291643Y-14772089D01*
X17305928Y-14743517D01*
X17305928Y-14729231D01*
X17291643Y-14700660D01*
X17263071Y-14686374D01*
X17220214Y-14686374D01*
X17191643Y-14672089D01*
X17177357Y-14643517D01*
X17177357Y-14629231D01*
X17191643Y-14600660D01*
X17220214Y-14586374D01*
X17263071Y-14586374D01*
X17291643Y-14600660D01*
X17405928Y-14900660D02*
X17420214Y-14886374D01*
X17448786Y-14843517D01*
X17463071Y-14814946D01*
X17477357Y-14772089D01*
X17491643Y-14700660D01*
X17491643Y-14643517D01*
X17477357Y-14572089D01*
X17463071Y-14529231D01*
X17448786Y-14500660D01*
X17420214Y-14457803D01*
X17405928Y-14443517D01*
X10839500Y-14966660D02*
X10839500Y-15126660D01*
X10759500Y-15046660D02*
X10919500Y-15046660D01*
X11363071Y-15182374D02*
X11191643Y-15182374D01*
X11277357Y-15182374D02*
X11277357Y-14882374D01*
X11248786Y-14925231D01*
X11220214Y-14953803D01*
X11191643Y-14968089D01*
X11491643Y-15153803D02*
X11505928Y-15168089D01*
X11491643Y-15182374D01*
X11477357Y-15168089D01*
X11491643Y-15153803D01*
X11491643Y-15182374D01*
X11763071Y-14882374D02*
X11705928Y-14882374D01*
X11677357Y-14896660D01*
X11663071Y-14910946D01*
X11634500Y-14953803D01*
X11620214Y-15010946D01*
X11620214Y-15125231D01*
X11634500Y-15153803D01*
X11648786Y-15168089D01*
X11677357Y-15182374D01*
X11734500Y-15182374D01*
X11763071Y-15168089D01*
X11777357Y-15153803D01*
X11791643Y-15125231D01*
X11791643Y-15053803D01*
X11777357Y-15025231D01*
X11763071Y-15010946D01*
X11734500Y-14996660D01*
X11677357Y-14996660D01*
X11648786Y-15010946D01*
X11634500Y-15025231D01*
X11620214Y-15053803D01*
X11977357Y-14882374D02*
X12005928Y-14882374D01*
X12034500Y-14896660D01*
X12048786Y-14910946D01*
X12063071Y-14939517D01*
X12077357Y-14996660D01*
X12077357Y-15068089D01*
X12063071Y-15125231D01*
X12048786Y-15153803D01*
X12034500Y-15168089D01*
X12005928Y-15182374D01*
X11977357Y-15182374D01*
X11948786Y-15168089D01*
X11934500Y-15153803D01*
X11920214Y-15125231D01*
X11905928Y-15068089D01*
X11905928Y-14996660D01*
X11920214Y-14939517D01*
X11934500Y-14910946D01*
X11948786Y-14896660D01*
X11977357Y-14882374D01*
X12205928Y-15182374D02*
X12205928Y-14982374D01*
X12205928Y-15010946D02*
X12220214Y-14996660D01*
X12248786Y-14982374D01*
X12291643Y-14982374D01*
X12320214Y-14996660D01*
X12334500Y-15025231D01*
X12334500Y-15182374D01*
X12334500Y-15025231D02*
X12348786Y-14996660D01*
X12377357Y-14982374D01*
X12420214Y-14982374D01*
X12448786Y-14996660D01*
X12463071Y-15025231D01*
X12463071Y-15182374D01*
X12605928Y-15182374D02*
X12605928Y-14982374D01*
X12605928Y-15010946D02*
X12620214Y-14996660D01*
X12648786Y-14982374D01*
X12691643Y-14982374D01*
X12720214Y-14996660D01*
X12734500Y-15025231D01*
X12734500Y-15182374D01*
X12734500Y-15025231D02*
X12748786Y-14996660D01*
X12777357Y-14982374D01*
X12820214Y-14982374D01*
X12848786Y-14996660D01*
X12863071Y-15025231D01*
X12863071Y-15182374D01*
X13448786Y-14868089D02*
X13191643Y-15253803D01*
X13834500Y-14882374D02*
X13863071Y-14882374D01*
X13891643Y-14896660D01*
X13905928Y-14910946D01*
X13920214Y-14939517D01*
X13934500Y-14996660D01*
X13934500Y-15068089D01*
X13920214Y-15125231D01*
X13905928Y-15153803D01*
X13891643Y-15168089D01*
X13863071Y-15182374D01*
X13834500Y-15182374D01*
X13805928Y-15168089D01*
X13791643Y-15153803D01*
X13777357Y-15125231D01*
X13763071Y-15068089D01*
X13763071Y-14996660D01*
X13777357Y-14939517D01*
X13791643Y-14910946D01*
X13805928Y-14896660D01*
X13834500Y-14882374D01*
X14063071Y-15153803D02*
X14077357Y-15168089D01*
X14063071Y-15182374D01*
X14048786Y-15168089D01*
X14063071Y-15153803D01*
X14063071Y-15182374D01*
X14263071Y-14882374D02*
X14291643Y-14882374D01*
X14320214Y-14896660D01*
X14334500Y-14910946D01*
X14348786Y-14939517D01*
X14363071Y-14996660D01*
X14363071Y-15068089D01*
X14348786Y-15125231D01*
X14334500Y-15153803D01*
X14320214Y-15168089D01*
X14291643Y-15182374D01*
X14263071Y-15182374D01*
X14234500Y-15168089D01*
X14220214Y-15153803D01*
X14205928Y-15125231D01*
X14191643Y-15068089D01*
X14191643Y-14996660D01*
X14205928Y-14939517D01*
X14220214Y-14910946D01*
X14234500Y-14896660D01*
X14263071Y-14882374D01*
X14620214Y-14882374D02*
X14563071Y-14882374D01*
X14534500Y-14896660D01*
X14520214Y-14910946D01*
X14491643Y-14953803D01*
X14477357Y-15010946D01*
X14477357Y-15125231D01*
X14491643Y-15153803D01*
X14505928Y-15168089D01*
X14534500Y-15182374D01*
X14591643Y-15182374D01*
X14620214Y-15168089D01*
X14634500Y-15153803D01*
X14648786Y-15125231D01*
X14648786Y-15053803D01*
X14634500Y-15025231D01*
X14620214Y-15010946D01*
X14591643Y-14996660D01*
X14534500Y-14996660D01*
X14505928Y-15010946D01*
X14491643Y-15025231D01*
X14477357Y-15053803D01*
X14748786Y-14882374D02*
X14934500Y-14882374D01*
X14834500Y-14996660D01*
X14877357Y-14996660D01*
X14905928Y-15010946D01*
X14920214Y-15025231D01*
X14934500Y-15053803D01*
X14934500Y-15125231D01*
X14920214Y-15153803D01*
X14905928Y-15168089D01*
X14877357Y-15182374D01*
X14791643Y-15182374D01*
X14763071Y-15168089D01*
X14748786Y-15153803D01*
X15048786Y-14882374D02*
X15048786Y-14939517D01*
X15163071Y-14882374D02*
X15163071Y-14939517D01*
X15605928Y-15296660D02*
X15591643Y-15282374D01*
X15563071Y-15239517D01*
X15548786Y-15210946D01*
X15534500Y-15168089D01*
X15520214Y-15096660D01*
X15520214Y-15039517D01*
X15534500Y-14968089D01*
X15548786Y-14925231D01*
X15563071Y-14896660D01*
X15591643Y-14853803D01*
X15605928Y-14839517D01*
X15877357Y-15182374D02*
X15705928Y-15182374D01*
X15791643Y-15182374D02*
X15791643Y-14882374D01*
X15763071Y-14925231D01*
X15734500Y-14953803D01*
X15705928Y-14968089D01*
X16234500Y-15182374D02*
X16234500Y-14882374D01*
X16363071Y-15182374D02*
X16363071Y-15025231D01*
X16348786Y-14996660D01*
X16320214Y-14982374D01*
X16277357Y-14982374D01*
X16248786Y-14996660D01*
X16234500Y-15010946D01*
X16548786Y-15182374D02*
X16520214Y-15168089D01*
X16505928Y-15153803D01*
X16491643Y-15125231D01*
X16491643Y-15039517D01*
X16505928Y-15010946D01*
X16520214Y-14996660D01*
X16548786Y-14982374D01*
X16591643Y-14982374D01*
X16620214Y-14996660D01*
X16634500Y-15010946D01*
X16648786Y-15039517D01*
X16648786Y-15125231D01*
X16634500Y-15153803D01*
X16620214Y-15168089D01*
X16591643Y-15182374D01*
X16548786Y-15182374D01*
X16820214Y-15182374D02*
X16791643Y-15168089D01*
X16777357Y-15139517D01*
X16777357Y-14882374D01*
X17048786Y-15168089D02*
X17020214Y-15182374D01*
X16963071Y-15182374D01*
X16934500Y-15168089D01*
X16920214Y-15139517D01*
X16920214Y-15025231D01*
X16934500Y-14996660D01*
X16963071Y-14982374D01*
X17020214Y-14982374D01*
X17048786Y-14996660D01*
X17063071Y-15025231D01*
X17063071Y-15053803D01*
X16920214Y-15082374D01*
X17163071Y-15296660D02*
X17177357Y-15282374D01*
X17205928Y-15239517D01*
X17220214Y-15210946D01*
X17234500Y-15168089D01*
X17248786Y-15096660D01*
X17248786Y-15039517D01*
X17234500Y-14968089D01*
X17220214Y-14925231D01*
X17205928Y-14896660D01*
X17177357Y-14853803D01*
X17163071Y-14839517D01*
X10892408Y-15508068D02*
X10892408Y-15377252D01*
X10761592Y-15377252D01*
X10761592Y-15508068D01*
X10892408Y-15508068D01*
X11363071Y-15578374D02*
X11191643Y-15578374D01*
X11277357Y-15578374D02*
X11277357Y-15278374D01*
X11248786Y-15321231D01*
X11220214Y-15349803D01*
X11191643Y-15364089D01*
X11491643Y-15549803D02*
X11505928Y-15564089D01*
X11491643Y-15578374D01*
X11477357Y-15564089D01*
X11491643Y-15549803D01*
X11491643Y-15578374D01*
X11677357Y-15406946D02*
X11648786Y-15392660D01*
X11634500Y-15378374D01*
X11620214Y-15349803D01*
X11620214Y-15335517D01*
X11634500Y-15306946D01*
X11648786Y-15292660D01*
X11677357Y-15278374D01*
X11734500Y-15278374D01*
X11763071Y-15292660D01*
X11777357Y-15306946D01*
X11791643Y-15335517D01*
X11791643Y-15349803D01*
X11777357Y-15378374D01*
X11763071Y-15392660D01*
X11734500Y-15406946D01*
X11677357Y-15406946D01*
X11648786Y-15421231D01*
X11634500Y-15435517D01*
X11620214Y-15464089D01*
X11620214Y-15521231D01*
X11634500Y-15549803D01*
X11648786Y-15564089D01*
X11677357Y-15578374D01*
X11734500Y-15578374D01*
X11763071Y-15564089D01*
X11777357Y-15549803D01*
X11791643Y-15521231D01*
X11791643Y-15464089D01*
X11777357Y-15435517D01*
X11763071Y-15421231D01*
X11734500Y-15406946D01*
X12063071Y-15278374D02*
X11920214Y-15278374D01*
X11905928Y-15421231D01*
X11920214Y-15406946D01*
X11948786Y-15392660D01*
X12020214Y-15392660D01*
X12048786Y-15406946D01*
X12063071Y-15421231D01*
X12077357Y-15449803D01*
X12077357Y-15521231D01*
X12063071Y-15549803D01*
X12048786Y-15564089D01*
X12020214Y-15578374D01*
X11948786Y-15578374D01*
X11920214Y-15564089D01*
X11905928Y-15549803D01*
X12205928Y-15578374D02*
X12205928Y-15378374D01*
X12205928Y-15406946D02*
X12220214Y-15392660D01*
X12248786Y-15378374D01*
X12291643Y-15378374D01*
X12320214Y-15392660D01*
X12334500Y-15421231D01*
X12334500Y-15578374D01*
X12334500Y-15421231D02*
X12348786Y-15392660D01*
X12377357Y-15378374D01*
X12420214Y-15378374D01*
X12448786Y-15392660D01*
X12463071Y-15421231D01*
X12463071Y-15578374D01*
X12605928Y-15578374D02*
X12605928Y-15378374D01*
X12605928Y-15406946D02*
X12620214Y-15392660D01*
X12648786Y-15378374D01*
X12691643Y-15378374D01*
X12720214Y-15392660D01*
X12734500Y-15421231D01*
X12734500Y-15578374D01*
X12734500Y-15421231D02*
X12748786Y-15392660D01*
X12777357Y-15378374D01*
X12820214Y-15378374D01*
X12848786Y-15392660D01*
X12863071Y-15421231D01*
X12863071Y-15578374D01*
X13448786Y-15264089D02*
X13191643Y-15649803D01*
X13834500Y-15278374D02*
X13863071Y-15278374D01*
X13891643Y-15292660D01*
X13905928Y-15306946D01*
X13920214Y-15335517D01*
X13934500Y-15392660D01*
X13934500Y-15464089D01*
X13920214Y-15521231D01*
X13905928Y-15549803D01*
X13891643Y-15564089D01*
X13863071Y-15578374D01*
X13834500Y-15578374D01*
X13805928Y-15564089D01*
X13791643Y-15549803D01*
X13777357Y-15521231D01*
X13763071Y-15464089D01*
X13763071Y-15392660D01*
X13777357Y-15335517D01*
X13791643Y-15306946D01*
X13805928Y-15292660D01*
X13834500Y-15278374D01*
X14063071Y-15549803D02*
X14077357Y-15564089D01*
X14063071Y-15578374D01*
X14048786Y-15564089D01*
X14063071Y-15549803D01*
X14063071Y-15578374D01*
X14263071Y-15278374D02*
X14291643Y-15278374D01*
X14320214Y-15292660D01*
X14334500Y-15306946D01*
X14348786Y-15335517D01*
X14363071Y-15392660D01*
X14363071Y-15464089D01*
X14348786Y-15521231D01*
X14334500Y-15549803D01*
X14320214Y-15564089D01*
X14291643Y-15578374D01*
X14263071Y-15578374D01*
X14234500Y-15564089D01*
X14220214Y-15549803D01*
X14205928Y-15521231D01*
X14191643Y-15464089D01*
X14191643Y-15392660D01*
X14205928Y-15335517D01*
X14220214Y-15306946D01*
X14234500Y-15292660D01*
X14263071Y-15278374D01*
X14463071Y-15278374D02*
X14663071Y-15278374D01*
X14534500Y-15578374D01*
X14748786Y-15278374D02*
X14934500Y-15278374D01*
X14834500Y-15392660D01*
X14877357Y-15392660D01*
X14905928Y-15406946D01*
X14920214Y-15421231D01*
X14934500Y-15449803D01*
X14934500Y-15521231D01*
X14920214Y-15549803D01*
X14905928Y-15564089D01*
X14877357Y-15578374D01*
X14791643Y-15578374D01*
X14763071Y-15564089D01*
X14748786Y-15549803D01*
X15048786Y-15278374D02*
X15048786Y-15335517D01*
X15163071Y-15278374D02*
X15163071Y-15335517D01*
X15605928Y-15692660D02*
X15591643Y-15678374D01*
X15563071Y-15635517D01*
X15548786Y-15606946D01*
X15534500Y-15564089D01*
X15520214Y-15492660D01*
X15520214Y-15435517D01*
X15534500Y-15364089D01*
X15548786Y-15321231D01*
X15563071Y-15292660D01*
X15591643Y-15249803D01*
X15605928Y-15235517D01*
X15848786Y-15278374D02*
X15791643Y-15278374D01*
X15763071Y-15292660D01*
X15748786Y-15306946D01*
X15720214Y-15349803D01*
X15705928Y-15406946D01*
X15705928Y-15521231D01*
X15720214Y-15549803D01*
X15734500Y-15564089D01*
X15763071Y-15578374D01*
X15820214Y-15578374D01*
X15848786Y-15564089D01*
X15863071Y-15549803D01*
X15877357Y-15521231D01*
X15877357Y-15449803D01*
X15863071Y-15421231D01*
X15848786Y-15406946D01*
X15820214Y-15392660D01*
X15763071Y-15392660D01*
X15734500Y-15406946D01*
X15720214Y-15421231D01*
X15705928Y-15449803D01*
X16234500Y-15578374D02*
X16234500Y-15278374D01*
X16363071Y-15578374D02*
X16363071Y-15421231D01*
X16348786Y-15392660D01*
X16320214Y-15378374D01*
X16277357Y-15378374D01*
X16248786Y-15392660D01*
X16234500Y-15406946D01*
X16548786Y-15578374D02*
X16520214Y-15564089D01*
X16505928Y-15549803D01*
X16491643Y-15521231D01*
X16491643Y-15435517D01*
X16505928Y-15406946D01*
X16520214Y-15392660D01*
X16548786Y-15378374D01*
X16591643Y-15378374D01*
X16620214Y-15392660D01*
X16634500Y-15406946D01*
X16648786Y-15435517D01*
X16648786Y-15521231D01*
X16634500Y-15549803D01*
X16620214Y-15564089D01*
X16591643Y-15578374D01*
X16548786Y-15578374D01*
X16820214Y-15578374D02*
X16791643Y-15564089D01*
X16777357Y-15535517D01*
X16777357Y-15278374D01*
X17048786Y-15564089D02*
X17020214Y-15578374D01*
X16963071Y-15578374D01*
X16934500Y-15564089D01*
X16920214Y-15535517D01*
X16920214Y-15421231D01*
X16934500Y-15392660D01*
X16963071Y-15378374D01*
X17020214Y-15378374D01*
X17048786Y-15392660D01*
X17063071Y-15421231D01*
X17063071Y-15449803D01*
X16920214Y-15478374D01*
X17177357Y-15564089D02*
X17205928Y-15578374D01*
X17263071Y-15578374D01*
X17291643Y-15564089D01*
X17305928Y-15535517D01*
X17305928Y-15521231D01*
X17291643Y-15492660D01*
X17263071Y-15478374D01*
X17220214Y-15478374D01*
X17191643Y-15464089D01*
X17177357Y-15435517D01*
X17177357Y-15421231D01*
X17191643Y-15392660D01*
X17220214Y-15378374D01*
X17263071Y-15378374D01*
X17291643Y-15392660D01*
X17405928Y-15692660D02*
X17420214Y-15678374D01*
X17448786Y-15635517D01*
X17463071Y-15606946D01*
X17477357Y-15564089D01*
X17491643Y-15492660D01*
X17491643Y-15435517D01*
X17477357Y-15364089D01*
X17463071Y-15321231D01*
X17448786Y-15292660D01*
X17420214Y-15249803D01*
X17405928Y-15235517D01*
X10759500Y-15998660D02*
X10919500Y-15838660D01*
X10759500Y-15678660D01*
X10599500Y-15838660D01*
X10759500Y-15998660D01*
X11177357Y-15674374D02*
X11363071Y-15674374D01*
X11263071Y-15788660D01*
X11305928Y-15788660D01*
X11334500Y-15802946D01*
X11348786Y-15817231D01*
X11363071Y-15845803D01*
X11363071Y-15917231D01*
X11348786Y-15945803D01*
X11334500Y-15960089D01*
X11305928Y-15974374D01*
X11220214Y-15974374D01*
X11191643Y-15960089D01*
X11177357Y-15945803D01*
X11491643Y-15945803D02*
X11505928Y-15960089D01*
X11491643Y-15974374D01*
X11477357Y-15960089D01*
X11491643Y-15945803D01*
X11491643Y-15974374D01*
X11620214Y-15702946D02*
X11634500Y-15688660D01*
X11663071Y-15674374D01*
X11734500Y-15674374D01*
X11763071Y-15688660D01*
X11777357Y-15702946D01*
X11791643Y-15731517D01*
X11791643Y-15760089D01*
X11777357Y-15802946D01*
X11605928Y-15974374D01*
X11791643Y-15974374D01*
X11977357Y-15674374D02*
X12005928Y-15674374D01*
X12034500Y-15688660D01*
X12048786Y-15702946D01*
X12063071Y-15731517D01*
X12077357Y-15788660D01*
X12077357Y-15860089D01*
X12063071Y-15917231D01*
X12048786Y-15945803D01*
X12034500Y-15960089D01*
X12005928Y-15974374D01*
X11977357Y-15974374D01*
X11948786Y-15960089D01*
X11934500Y-15945803D01*
X11920214Y-15917231D01*
X11905928Y-15860089D01*
X11905928Y-15788660D01*
X11920214Y-15731517D01*
X11934500Y-15702946D01*
X11948786Y-15688660D01*
X11977357Y-15674374D01*
X12205928Y-15974374D02*
X12205928Y-15774374D01*
X12205928Y-15802946D02*
X12220214Y-15788660D01*
X12248786Y-15774374D01*
X12291643Y-15774374D01*
X12320214Y-15788660D01*
X12334500Y-15817231D01*
X12334500Y-15974374D01*
X12334500Y-15817231D02*
X12348786Y-15788660D01*
X12377357Y-15774374D01*
X12420214Y-15774374D01*
X12448786Y-15788660D01*
X12463071Y-15817231D01*
X12463071Y-15974374D01*
X12605928Y-15974374D02*
X12605928Y-15774374D01*
X12605928Y-15802946D02*
X12620214Y-15788660D01*
X12648786Y-15774374D01*
X12691643Y-15774374D01*
X12720214Y-15788660D01*
X12734500Y-15817231D01*
X12734500Y-15974374D01*
X12734500Y-15817231D02*
X12748786Y-15788660D01*
X12777357Y-15774374D01*
X12820214Y-15774374D01*
X12848786Y-15788660D01*
X12863071Y-15817231D01*
X12863071Y-15974374D01*
X13448786Y-15660089D02*
X13191643Y-16045803D01*
X13834500Y-15674374D02*
X13863071Y-15674374D01*
X13891643Y-15688660D01*
X13905928Y-15702946D01*
X13920214Y-15731517D01*
X13934500Y-15788660D01*
X13934500Y-15860089D01*
X13920214Y-15917231D01*
X13905928Y-15945803D01*
X13891643Y-15960089D01*
X13863071Y-15974374D01*
X13834500Y-15974374D01*
X13805928Y-15960089D01*
X13791643Y-15945803D01*
X13777357Y-15917231D01*
X13763071Y-15860089D01*
X13763071Y-15788660D01*
X13777357Y-15731517D01*
X13791643Y-15702946D01*
X13805928Y-15688660D01*
X13834500Y-15674374D01*
X14063071Y-15945803D02*
X14077357Y-15960089D01*
X14063071Y-15974374D01*
X14048786Y-15960089D01*
X14063071Y-15945803D01*
X14063071Y-15974374D01*
X14363071Y-15974374D02*
X14191643Y-15974374D01*
X14277357Y-15974374D02*
X14277357Y-15674374D01*
X14248786Y-15717231D01*
X14220214Y-15745803D01*
X14191643Y-15760089D01*
X14477357Y-15702946D02*
X14491643Y-15688660D01*
X14520214Y-15674374D01*
X14591643Y-15674374D01*
X14620214Y-15688660D01*
X14634500Y-15702946D01*
X14648786Y-15731517D01*
X14648786Y-15760089D01*
X14634500Y-15802946D01*
X14463071Y-15974374D01*
X14648786Y-15974374D01*
X14905928Y-15674374D02*
X14848786Y-15674374D01*
X14820214Y-15688660D01*
X14805928Y-15702946D01*
X14777357Y-15745803D01*
X14763071Y-15802946D01*
X14763071Y-15917231D01*
X14777357Y-15945803D01*
X14791643Y-15960089D01*
X14820214Y-15974374D01*
X14877357Y-15974374D01*
X14905928Y-15960089D01*
X14920214Y-15945803D01*
X14934500Y-15917231D01*
X14934500Y-15845803D01*
X14920214Y-15817231D01*
X14905928Y-15802946D01*
X14877357Y-15788660D01*
X14820214Y-15788660D01*
X14791643Y-15802946D01*
X14777357Y-15817231D01*
X14763071Y-15845803D01*
X15048786Y-15674374D02*
X15048786Y-15731517D01*
X15163071Y-15674374D02*
X15163071Y-15731517D01*
X15605928Y-16088660D02*
X15591643Y-16074374D01*
X15563071Y-16031517D01*
X15548786Y-16002946D01*
X15534500Y-15960089D01*
X15520214Y-15888660D01*
X15520214Y-15831517D01*
X15534500Y-15760089D01*
X15548786Y-15717231D01*
X15563071Y-15688660D01*
X15591643Y-15645803D01*
X15605928Y-15631517D01*
X15877357Y-15974374D02*
X15705928Y-15974374D01*
X15791643Y-15974374D02*
X15791643Y-15674374D01*
X15763071Y-15717231D01*
X15734500Y-15745803D01*
X15705928Y-15760089D01*
X16234500Y-15974374D02*
X16234500Y-15674374D01*
X16363071Y-15974374D02*
X16363071Y-15817231D01*
X16348786Y-15788660D01*
X16320214Y-15774374D01*
X16277357Y-15774374D01*
X16248786Y-15788660D01*
X16234500Y-15802946D01*
X16548786Y-15974374D02*
X16520214Y-15960089D01*
X16505928Y-15945803D01*
X16491643Y-15917231D01*
X16491643Y-15831517D01*
X16505928Y-15802946D01*
X16520214Y-15788660D01*
X16548786Y-15774374D01*
X16591643Y-15774374D01*
X16620214Y-15788660D01*
X16634500Y-15802946D01*
X16648786Y-15831517D01*
X16648786Y-15917231D01*
X16634500Y-15945803D01*
X16620214Y-15960089D01*
X16591643Y-15974374D01*
X16548786Y-15974374D01*
X16820214Y-15974374D02*
X16791643Y-15960089D01*
X16777357Y-15931517D01*
X16777357Y-15674374D01*
X17048786Y-15960089D02*
X17020214Y-15974374D01*
X16963071Y-15974374D01*
X16934500Y-15960089D01*
X16920214Y-15931517D01*
X16920214Y-15817231D01*
X16934500Y-15788660D01*
X16963071Y-15774374D01*
X17020214Y-15774374D01*
X17048786Y-15788660D01*
X17063071Y-15817231D01*
X17063071Y-15845803D01*
X16920214Y-15874374D01*
X17163071Y-16088660D02*
X17177357Y-16074374D01*
X17205928Y-16031517D01*
X17220214Y-16002946D01*
X17234500Y-15960089D01*
X17248786Y-15888660D01*
X17248786Y-15831517D01*
X17234500Y-15760089D01*
X17220214Y-15717231D01*
X17205928Y-15688660D01*
X17177357Y-15645803D01*
X17163071Y-15631517D01*
X10489500Y-16073660D02*
X10919500Y-16503660D01*
X10919500Y-16073660D02*
X10489500Y-16503660D01*
X10919500Y-16288660D02*
G75*
G03*
X10919500Y-16288660I-215000J0D01*
G01*
X11334500Y-16224374D02*
X11334500Y-16424374D01*
X11263071Y-16110089D02*
X11191643Y-16324374D01*
X11377357Y-16324374D01*
X11491643Y-16395803D02*
X11505928Y-16410089D01*
X11491643Y-16424374D01*
X11477357Y-16410089D01*
X11491643Y-16395803D01*
X11491643Y-16424374D01*
X11605928Y-16124374D02*
X11791643Y-16124374D01*
X11691643Y-16238660D01*
X11734500Y-16238660D01*
X11763071Y-16252946D01*
X11777357Y-16267231D01*
X11791643Y-16295803D01*
X11791643Y-16367231D01*
X11777357Y-16395803D01*
X11763071Y-16410089D01*
X11734500Y-16424374D01*
X11648786Y-16424374D01*
X11620214Y-16410089D01*
X11605928Y-16395803D01*
X11977357Y-16124374D02*
X12005928Y-16124374D01*
X12034500Y-16138660D01*
X12048786Y-16152946D01*
X12063071Y-16181517D01*
X12077357Y-16238660D01*
X12077357Y-16310089D01*
X12063071Y-16367231D01*
X12048786Y-16395803D01*
X12034500Y-16410089D01*
X12005928Y-16424374D01*
X11977357Y-16424374D01*
X11948786Y-16410089D01*
X11934500Y-16395803D01*
X11920214Y-16367231D01*
X11905928Y-16310089D01*
X11905928Y-16238660D01*
X11920214Y-16181517D01*
X11934500Y-16152946D01*
X11948786Y-16138660D01*
X11977357Y-16124374D01*
X12205928Y-16424374D02*
X12205928Y-16224374D01*
X12205928Y-16252946D02*
X12220214Y-16238660D01*
X12248786Y-16224374D01*
X12291643Y-16224374D01*
X12320214Y-16238660D01*
X12334500Y-16267231D01*
X12334500Y-16424374D01*
X12334500Y-16267231D02*
X12348786Y-16238660D01*
X12377357Y-16224374D01*
X12420214Y-16224374D01*
X12448786Y-16238660D01*
X12463071Y-16267231D01*
X12463071Y-16424374D01*
X12605928Y-16424374D02*
X12605928Y-16224374D01*
X12605928Y-16252946D02*
X12620214Y-16238660D01*
X12648786Y-16224374D01*
X12691643Y-16224374D01*
X12720214Y-16238660D01*
X12734500Y-16267231D01*
X12734500Y-16424374D01*
X12734500Y-16267231D02*
X12748786Y-16238660D01*
X12777357Y-16224374D01*
X12820214Y-16224374D01*
X12848786Y-16238660D01*
X12863071Y-16267231D01*
X12863071Y-16424374D01*
X13448786Y-16110089D02*
X13191643Y-16495803D01*
X13834500Y-16124374D02*
X13863071Y-16124374D01*
X13891643Y-16138660D01*
X13905928Y-16152946D01*
X13920214Y-16181517D01*
X13934500Y-16238660D01*
X13934500Y-16310089D01*
X13920214Y-16367231D01*
X13905928Y-16395803D01*
X13891643Y-16410089D01*
X13863071Y-16424374D01*
X13834500Y-16424374D01*
X13805928Y-16410089D01*
X13791643Y-16395803D01*
X13777357Y-16367231D01*
X13763071Y-16310089D01*
X13763071Y-16238660D01*
X13777357Y-16181517D01*
X13791643Y-16152946D01*
X13805928Y-16138660D01*
X13834500Y-16124374D01*
X14063071Y-16395803D02*
X14077357Y-16410089D01*
X14063071Y-16424374D01*
X14048786Y-16410089D01*
X14063071Y-16395803D01*
X14063071Y-16424374D01*
X14363071Y-16424374D02*
X14191643Y-16424374D01*
X14277357Y-16424374D02*
X14277357Y-16124374D01*
X14248786Y-16167231D01*
X14220214Y-16195803D01*
X14191643Y-16210089D01*
X14620214Y-16124374D02*
X14563071Y-16124374D01*
X14534500Y-16138660D01*
X14520214Y-16152946D01*
X14491643Y-16195803D01*
X14477357Y-16252946D01*
X14477357Y-16367231D01*
X14491643Y-16395803D01*
X14505928Y-16410089D01*
X14534500Y-16424374D01*
X14591643Y-16424374D01*
X14620214Y-16410089D01*
X14634500Y-16395803D01*
X14648786Y-16367231D01*
X14648786Y-16295803D01*
X14634500Y-16267231D01*
X14620214Y-16252946D01*
X14591643Y-16238660D01*
X14534500Y-16238660D01*
X14505928Y-16252946D01*
X14491643Y-16267231D01*
X14477357Y-16295803D01*
X14791643Y-16424374D02*
X14848786Y-16424374D01*
X14877357Y-16410089D01*
X14891643Y-16395803D01*
X14920214Y-16352946D01*
X14934500Y-16295803D01*
X14934500Y-16181517D01*
X14920214Y-16152946D01*
X14905928Y-16138660D01*
X14877357Y-16124374D01*
X14820214Y-16124374D01*
X14791643Y-16138660D01*
X14777357Y-16152946D01*
X14763071Y-16181517D01*
X14763071Y-16252946D01*
X14777357Y-16281517D01*
X14791643Y-16295803D01*
X14820214Y-16310089D01*
X14877357Y-16310089D01*
X14905928Y-16295803D01*
X14920214Y-16281517D01*
X14934500Y-16252946D01*
X15048786Y-16124374D02*
X15048786Y-16181517D01*
X15163071Y-16124374D02*
X15163071Y-16181517D01*
X15605928Y-16538660D02*
X15591643Y-16524374D01*
X15563071Y-16481517D01*
X15548786Y-16452946D01*
X15534500Y-16410089D01*
X15520214Y-16338660D01*
X15520214Y-16281517D01*
X15534500Y-16210089D01*
X15548786Y-16167231D01*
X15563071Y-16138660D01*
X15591643Y-16095803D01*
X15605928Y-16081517D01*
X15877357Y-16424374D02*
X15705928Y-16424374D01*
X15791643Y-16424374D02*
X15791643Y-16124374D01*
X15763071Y-16167231D01*
X15734500Y-16195803D01*
X15705928Y-16210089D01*
X16234500Y-16424374D02*
X16234500Y-16124374D01*
X16363071Y-16424374D02*
X16363071Y-16267231D01*
X16348786Y-16238660D01*
X16320214Y-16224374D01*
X16277357Y-16224374D01*
X16248786Y-16238660D01*
X16234500Y-16252946D01*
X16548786Y-16424374D02*
X16520214Y-16410089D01*
X16505928Y-16395803D01*
X16491643Y-16367231D01*
X16491643Y-16281517D01*
X16505928Y-16252946D01*
X16520214Y-16238660D01*
X16548786Y-16224374D01*
X16591643Y-16224374D01*
X16620214Y-16238660D01*
X16634500Y-16252946D01*
X16648786Y-16281517D01*
X16648786Y-16367231D01*
X16634500Y-16395803D01*
X16620214Y-16410089D01*
X16591643Y-16424374D01*
X16548786Y-16424374D01*
X16820214Y-16424374D02*
X16791643Y-16410089D01*
X16777357Y-16381517D01*
X16777357Y-16124374D01*
X17048786Y-16410089D02*
X17020214Y-16424374D01*
X16963071Y-16424374D01*
X16934500Y-16410089D01*
X16920214Y-16381517D01*
X16920214Y-16267231D01*
X16934500Y-16238660D01*
X16963071Y-16224374D01*
X17020214Y-16224374D01*
X17048786Y-16238660D01*
X17063071Y-16267231D01*
X17063071Y-16295803D01*
X16920214Y-16324374D01*
X17163071Y-16538660D02*
X17177357Y-16524374D01*
X17205928Y-16481517D01*
X17220214Y-16452946D01*
X17234500Y-16410089D01*
X17248786Y-16338660D01*
X17248786Y-16281517D01*
X17234500Y-16210089D01*
X17220214Y-16167231D01*
X17205928Y-16138660D01*
X17177357Y-16095803D01*
X17163071Y-16081517D01*
M02*
